<svg viewBox="0 0 149 42" fill="none"
  xmlns="http://www.w3.org/2000/svg">
  <path d="M93.7173 0.451904H76.5156V4.91773H93.7173V0.451904Z" fill="#0096AF"/>
  <path d="M0.0546875 0.451899V23.0734H4.43624V13.5038H8.30392L14.9844 23.1H20.1504C20.1504 23.1 13.4969 13.9823 13.0912 13.3177C16.4991 12.6532 18.3653 10.5 18.3653 7.09747C18.3653 2.87089 15.6877 0.451899 10.9815 0.451899H0.0546875ZM11.3331 4.70506C13.3075 4.70506 13.9837 5.98101 13.9837 7.09747C13.9837 7.60253 13.7944 9.22405 11.3331 9.22405H4.43624V4.70506H11.3331Z" fill="#3C332E"/>
  <path d="M51.3622 0.478481V23.0734H64.3446C68.2663 23.0734 71.1062 20.1759 71.1062 16.162C71.1062 13.6367 69.8621 11.7228 67.7254 10.7658C69.1589 9.88861 69.9432 8.45316 69.9432 6.64557C69.9162 2.39241 66.7247 0.478481 63.5602 0.478481H51.3622ZM63.8848 13.3709C65.5887 13.3709 66.8329 14.5139 66.8329 16.0557C66.8329 17.6506 65.5076 18.9532 63.8848 18.9532H55.6085V13.3709H63.8848ZM63.1004 4.59873C64.8585 4.59873 65.6428 5.79494 65.6428 6.96456C65.6428 8.32025 64.6962 9.1443 63.1004 9.1443H55.6085V4.59873H63.1004Z" fill="#3C332E"/>
  <path d="M117.491 7.68228L117.302 7.41646C115.814 5.31646 113.813 4.25316 111.379 4.25316C107.214 4.25316 103.67 7.68228 103.67 11.776C103.67 15.843 107.214 19.2987 111.379 19.2987C113.786 19.2987 115.868 18.262 117.383 16.2949L117.572 16.0557L121.332 18.6873L121.115 18.9532C118.627 21.9835 115.246 23.5785 111.379 23.5785C104.347 23.5785 98.829 18.4215 98.829 11.8025C98.829 5.21013 104.347 0.0265823 111.379 0.0265823C115.246 0.0265823 118.627 1.62152 121.115 4.6519L121.332 4.89114L117.491 7.68228Z" fill="#3C332E"/>
  <path d="M21.7191 11.7759C21.7191 18.3684 27.2366 23.5519 34.2687 23.5519C41.3008 23.5519 46.8183 18.3684 46.8183 11.7759C46.8183 5.18354 41.3008 0 34.2687 0C27.2366 0 21.7191 5.18354 21.7191 11.7759ZM34.2687 4.2C38.488 4.2 42.0311 7.6557 42.0311 11.7759C42.0311 15.8696 38.488 19.3253 34.2687 19.3253C30.0494 19.3253 26.5063 15.8696 26.5063 11.7759C26.5063 7.68228 30.0765 4.2 34.2687 4.2Z" fill="#3C332E"/>
  <path d="M123.874 11.7759C123.874 18.3684 129.392 23.5519 136.424 23.5519C143.456 23.5519 148.974 18.3684 148.974 11.7759C148.974 5.18354 143.456 0 136.424 0C129.392 0 123.874 5.18354 123.874 11.7759ZM136.424 4.2C140.643 4.2 144.186 7.6557 144.186 11.7759C144.186 15.8696 140.643 19.3253 136.424 19.3253C132.205 19.3253 128.662 15.8696 128.662 11.7759C128.662 7.68228 132.232 4.2 136.424 4.2Z" fill="#3C332E"/>
  <path d="M93.7172 13.9557V9.46329H76.5156V23.1H93.7172V18.6342H80.7619V13.9557H93.7172Z" fill="#3C332E"/>
  <path d="M3.67834 31.6328V39.448H2.05555V31.6328H0V30.3037H5.73389V31.6328H3.67834Z" fill="#0096AF"/>
  <path d="M10.8457 35.1948C10.8457 34.3974 10.5752 33.7328 9.92612 33.7328C9.52042 33.7328 9.06063 33.972 8.51969 34.5037V39.4746H6.97804V29.8252L8.51969 29.6125V33.2277C9.35814 32.5632 9.81793 32.3771 10.5211 32.3771C11.6571 32.3771 12.4144 33.2277 12.4144 34.7961V39.4746H10.8457V35.1948Z" fill="#0096AF"/>
  <path d="M16.8501 39.5809C14.8757 39.5809 14.0643 38.5176 14.0643 36.0189C14.0643 33.5999 15.2002 32.3771 17.0394 32.3771C18.6351 32.3771 19.6629 33.4404 19.6629 35.4341C19.6629 35.7265 19.6359 36.1252 19.6088 36.4442H15.6059C15.6059 37.7999 16.0387 38.3581 17.0664 38.3581C17.6074 38.3581 18.4458 38.2252 19.2302 38.0125L19.5006 39.0758C18.554 39.3948 17.7156 39.5809 16.8501 39.5809ZM18.0942 35.2214C18.0942 34.3176 17.7696 33.5733 16.8771 33.5733C15.9575 33.5733 15.6059 34.4239 15.5789 35.3012H18.0942V35.2214Z" fill="#0096AF"/>
  <path d="M26.3705 30.3037H24.7477V39.448H26.3705V30.3037Z" fill="#0096AF"/>
  <path d="M32.3207 35.1948C32.3207 34.3974 32.0503 33.7328 31.4012 33.7328C30.9955 33.7328 30.5357 33.972 29.9947 34.5037V39.4746H28.4531V32.51H29.7243L29.8865 33.3075C30.8061 32.5632 31.293 32.3771 31.9962 32.3771C33.1321 32.3771 33.8895 33.2277 33.8895 34.7961V39.4746H32.3207V35.1948Z" fill="#0096AF"/>
  <path d="M38.8119 39.448H36.7294L34.8902 32.51H36.5671L37.6489 37.0024L37.8383 38.0657L38.0546 36.9758L39.0824 32.51H40.7052L38.8119 39.448Z" fill="#0096AF"/>
  <path d="M44.2754 39.5809C42.301 39.5809 41.4896 38.5176 41.4896 36.0189C41.4896 33.5999 42.6255 32.3771 44.4647 32.3771C46.0604 32.3771 47.0882 33.4404 47.0882 35.4341C47.0882 35.7265 47.0612 36.1252 47.0341 36.4442H43.0583C43.0583 37.7999 43.491 38.3581 44.5188 38.3581C45.0597 38.3581 45.8982 38.2252 46.6825 38.0125L46.953 39.0758C46.0064 39.3948 45.1409 39.5809 44.2754 39.5809ZM45.5466 35.2214C45.5466 34.3176 45.222 33.5733 44.3295 33.5733C43.4099 33.5733 43.0583 34.4239 43.0312 35.3012H45.5466V35.2214Z" fill="#0096AF"/>
  <path d="M50.3609 39.5809C49.5224 39.5809 48.9274 39.3948 48.3053 39.0493L48.7922 37.9594C49.3331 38.2518 49.7929 38.3581 50.2256 38.3581C50.9288 38.3581 51.1723 38.0391 51.1723 37.6404C51.1723 37.2151 51.01 36.9758 50.0093 36.4708C48.7922 35.886 48.3594 35.2214 48.3594 34.3442C48.3594 33.2012 49.2519 32.4037 50.6043 32.4037C51.3075 32.4037 51.9296 32.5898 52.4975 32.8822L52.0378 33.9455C51.605 33.7594 51.1452 33.5733 50.6854 33.5733C50.1174 33.5733 49.847 33.8391 49.847 34.2113C49.847 34.6632 50.0363 34.8758 51.037 35.3809C52.3082 36.0455 52.7139 36.6568 52.7139 37.5341C52.741 38.8366 51.7673 39.5809 50.3609 39.5809Z" fill="#0096AF"/>
  <path d="M55.9325 39.5809C55.0399 39.5809 54.3638 39.2353 54.3638 37.8265V33.6796H53.3901V32.51H54.3638V30.5429L55.8784 30.3303V32.51H57.3118V33.6796H55.8784V37.5872C55.8784 38.1455 56.0136 38.3315 56.5275 38.3315C56.7168 38.3315 56.9602 38.305 57.2037 38.2518L57.3118 39.3948C56.9061 39.4746 56.3923 39.5809 55.9325 39.5809Z" fill="#0096AF"/>
  <path d="M66.4266 35.1948C66.4266 34.3974 66.1832 33.7328 65.534 33.7328C65.1283 33.7328 64.6956 33.972 64.1276 34.5037V39.4746H62.613V35.2214C62.613 34.4239 62.3696 33.7594 61.7205 33.7594C61.3148 33.7594 60.882 33.9986 60.314 34.5303V39.5012H58.7724V32.5366H60.0436L60.2058 33.3341C61.1254 32.5898 61.6123 32.4037 62.2884 32.4037C63.0457 32.4037 63.5596 32.8024 63.8571 33.3872C64.939 32.5632 65.3988 32.4037 66.102 32.4037C67.238 32.4037 67.9682 33.2543 67.9682 34.8227V39.5012H66.4266V35.1948Z" fill="#0096AF"/>
  <path d="M72.4309 39.5809C70.4565 39.5809 69.6451 38.5176 69.6451 36.0189C69.6451 33.5999 70.7811 32.3771 72.6203 32.3771C74.216 32.3771 75.2438 33.4404 75.2438 35.4341C75.2438 35.7265 75.2167 36.1252 75.1897 36.4442H71.2138C71.2138 37.7999 71.6466 38.3581 72.6744 38.3581C73.2153 38.3581 74.0537 38.2252 74.811 38.0125L75.0815 39.0758C74.1349 39.3948 73.2964 39.5809 72.4309 39.5809ZM73.6751 35.2214C73.6751 34.3176 73.3505 33.5733 72.458 33.5733C71.5384 33.5733 71.1868 34.4239 71.1597 35.3012H73.6751V35.2214Z" fill="#0096AF"/>
  <path d="M80.8154 35.1948C80.8154 34.3974 80.5449 33.7328 79.8958 33.7328C79.4901 33.7328 79.0303 33.972 78.4894 34.5037V39.4746H76.9477V32.51H78.2189L78.3812 33.3075C79.3008 32.5632 79.7876 32.3771 80.4908 32.3771C81.6268 32.3771 82.3841 33.2277 82.3841 34.7961V39.4746H80.8154V35.1948Z" fill="#0096AF"/>
  <path d="M85.9813 39.5809C85.0888 39.5809 84.4126 39.2353 84.4126 37.8265V33.6796H83.4389V32.51H84.4126V30.5429L85.9272 30.3303V32.51H87.3607V33.6796H85.9272V37.5872C85.9272 38.1455 86.0624 38.3315 86.5763 38.3315C86.7656 38.3315 87.0091 38.305 87.2525 38.2518L87.3607 39.3948C86.982 39.4746 86.4681 39.5809 85.9813 39.5809Z" fill="#0096AF"/>
  <path d="M92.2291 39.448V30.3037H96.9081V31.6062H93.8519V34.105H96.6106V35.4075H93.8519V38.1455H96.9352V39.448H92.2291Z" fill="#0096AF"/>
  <path d="M102.453 35.1948C102.453 34.3974 102.182 33.7328 101.533 33.7328C101.127 33.7328 100.668 33.972 100.127 34.5037V39.4746H98.585V32.51H99.8562L100.019 33.3075C100.938 32.5632 101.425 32.3771 102.128 32.3771C103.264 32.3771 104.021 33.2277 104.021 34.7961V39.4746H102.453V35.1948Z" fill="#0096AF"/>
  <path d="M108.43 41.9999C107.835 41.9999 107.213 41.9733 106.78 41.8936L106.564 40.8037H108.105C109.458 40.8037 109.728 40.2455 109.728 39.3948V38.6771C108.971 39.3151 108.457 39.5277 107.835 39.5277C106.537 39.5277 105.671 38.2518 105.671 35.9923C105.671 33.5999 106.726 32.3505 108.132 32.3505C108.646 32.3505 109.106 32.5366 109.836 33.2543L109.999 32.4834H111.243V39.1822C111.243 41.3087 109.945 41.9999 108.43 41.9999ZM109.728 34.5037C109.187 33.9986 108.782 33.7328 108.403 33.7328C107.727 33.7328 107.213 34.5303 107.213 35.9923C107.213 37.4012 107.646 38.2252 108.322 38.2252C108.7 38.2252 109.16 37.9594 109.728 37.4543V34.5037Z" fill="#0096AF"/>
  <path d="M113.244 29.6657H114.786V31.1809H113.244V29.6657ZM113.244 32.51H114.786V39.4746H113.244V32.51Z" fill="#0096AF"/>
  <path d="M120.655 35.1948C120.655 34.3974 120.385 33.7328 119.736 33.7328C119.33 33.7328 118.87 33.972 118.302 34.5037V39.4746H116.76V32.51H118.032L118.194 33.3075C119.113 32.5632 119.6 32.3771 120.303 32.3771C121.439 32.3771 122.197 33.2277 122.197 34.7961V39.4746H120.655V35.1948Z" fill="#0096AF"/>
  <path d="M126.632 39.5809C124.658 39.5809 123.847 38.5176 123.847 36.0189C123.847 33.5999 124.983 32.3771 126.822 32.3771C128.417 32.3771 129.445 33.4404 129.445 35.4341C129.445 35.7265 129.418 36.1252 129.391 36.4442H125.415C125.415 37.7999 125.848 38.3581 126.876 38.3581C127.417 38.3581 128.255 38.2252 129.04 38.0125L129.31 39.0758C128.363 39.3948 127.498 39.5809 126.632 39.5809ZM127.904 35.2214C127.904 34.3176 127.579 33.5733 126.687 33.5733C125.767 33.5733 125.415 34.4239 125.388 35.3012H127.904V35.2214Z" fill="#0096AF"/>
  <path d="M133.61 39.5809C131.636 39.5809 130.825 38.5176 130.825 36.0189C130.825 33.5999 131.961 32.3771 133.8 32.3771C135.396 32.3771 136.423 33.4404 136.423 35.4341C136.423 35.7265 136.396 36.1252 136.369 36.4442H132.393C132.393 37.7999 132.826 38.3581 133.854 38.3581C134.395 38.3581 135.233 38.2252 136.018 38.0125L136.288 39.0758C135.341 39.3948 134.503 39.5809 133.61 39.5809ZM134.882 35.2214C134.882 34.3176 134.557 33.5733 133.665 33.5733C132.745 33.5733 132.393 34.4239 132.366 35.3012H134.882V35.2214Z" fill="#0096AF"/>
  <path d="M141.129 33.8923C140.561 33.8923 140.264 34.105 139.669 34.6632V39.4746H138.127V32.51H139.398L139.534 33.4138C140.399 32.5366 140.67 32.4037 141.238 32.4037H141.535V33.9189H141.129V33.8923Z" fill="#0096AF"/>
  <path d="M144.483 39.5809C143.645 39.5809 143.05 39.3948 142.428 39.0493L142.915 37.9594C143.455 38.2518 143.915 38.3581 144.348 38.3581C145.051 38.3581 145.295 38.0391 145.295 37.6404C145.295 37.2151 145.132 36.9758 144.132 36.4708C142.915 35.886 142.482 35.2214 142.482 34.3442C142.482 33.2012 143.374 32.4037 144.727 32.4037C145.43 32.4037 146.052 32.5898 146.62 32.8822L146.16 33.9455C145.727 33.7594 145.268 33.5733 144.808 33.5733C144.24 33.5733 143.969 33.8391 143.969 34.2113C143.969 34.6632 144.159 34.8758 145.159 35.3809C146.431 36.0455 146.836 36.6568 146.836 37.5341C146.836 38.8366 145.89 39.5809 144.483 39.5809Z" fill="#0096AF"/>
</svg>
