<svg xmlns="http://www.w3.org/2000/svg" fill="none" viewBox="0 0 152 37">
  <path fill="#2F3A45" d="M14.78 19.358v-1.389c.244-.027.542-.054.868-.082.352-.027.596-.108.786-.19.271-.136.461-.354.57-.6.108-.271.162-.653.162-1.17V7.024c0-1.28-.244-2.26-.705-2.913-.46-.653-1.166-.98-2.088-.98-.515 0-.976.082-1.41.218a6.277 6.277 0 0 0-1.275.653 3.55 3.55 0 0 0-.867.79c-.217.272-.407.49-.57.708v10.182c0 .436.054.817.19 1.116.136.3.325.518.624.681a3.4 3.4 0 0 0 .759.3c.298.081.597.163.895.19v1.389H1.22v-1.389c.299 0 .624-.054.95-.082.325-.054.596-.108.813-.19.407-.136.678-.354.84-.654.164-.3.218-.68.218-1.143V4.873c0-.38-.109-.79-.299-1.143a2.604 2.604 0 0 0-.786-.926 3.219 3.219 0 0 0-.868-.408 7.1 7.1 0 0 0-1.139-.19V.815l9.004-.49.271.273v2.75h.081c.353-.327.787-.708 1.275-1.144.515-.435.976-.79 1.41-1.089.461-.3 1.085-.571 1.844-.79A8.76 8.76 0 0 1 17.248 0c2.061 0 3.58.572 4.61 1.742 1.03 1.171 1.546 2.723 1.546 4.656v9.284c0 .463.081.844.217 1.116.136.273.407.49.786.654.19.081.461.19.76.272.298.082.623.163 1.003.19v1.444H14.78ZM53.696 18.977l-9.003.544-.272-.272V16.77h-.108c-.434.381-.84.762-1.248 1.144-.406.38-.895.707-1.464 1.007a8.97 8.97 0 0 1-1.817.762c-.57.164-1.41.245-2.495.245-1.898 0-3.363-.571-4.366-1.715-1.004-1.143-1.519-2.777-1.519-4.873V4.79c0-.49-.081-.898-.271-1.197-.19-.3-.434-.572-.76-.817-.244-.19-.569-.327-.976-.408a9.584 9.584 0 0 0-1.084-.164V.817l9.139-.49.217.272v12.606c0 1.306.244 2.26.759 2.885.488.627 1.193.926 2.061.926a4.33 4.33 0 0 0 2.414-.708c.705-.463 1.22-.98 1.546-1.497V4.6c0-.435-.082-.817-.245-1.143a2.143 2.143 0 0 0-.705-.844c-.217-.164-.542-.245-.976-.3a19.35 19.35 0 0 0-1.302-.109V.817l9.194-.49.27.272v14.647c0 .436.082.817.272 1.117.163.3.434.572.76.79.244.163.542.244.922.299.38.054.759.081 1.139.109v1.416h-.082ZM77.94 1.933c-.569.082-1.111.3-1.653.653-.543.354-.977.872-1.33 1.607-.894 1.851-1.735 3.703-2.603 5.581a372.943 372.943 0 0 1-2.495 5.445 51.62 51.62 0 0 0-.868 2.042 41.335 41.335 0 0 0-.813 2.287h-3.471a310.458 310.458 0 0 0-3.716-8.413 819.653 819.653 0 0 1-3.254-7.16 3.148 3.148 0 0 0-1.248-1.416 4.36 4.36 0 0 0-1.708-.626V.545h11.661v1.388c-.434 0-.922.109-1.518.272-.57.19-.868.409-.868.68 0 .083.027.192.081.355.054.163.109.327.19.517.407.953 1.003 2.342 1.817 4.166.813 1.797 1.681 3.703 2.576 5.717.624-1.388 1.22-2.722 1.79-4.056.57-1.335 1.275-2.995 2.115-5.064.109-.3.19-.545.19-.736.027-.19.027-.326.027-.38 0-.219-.108-.436-.325-.6a3.106 3.106 0 0 0-.786-.435 4.37 4.37 0 0 0-.923-.273c-.298-.054-.542-.109-.732-.136V.545h7.81v1.388h.055ZM92.585 7.623c0-.762-.027-1.524-.108-2.341-.082-.79-.217-1.443-.407-1.96-.217-.6-.515-1.035-.868-1.335-.38-.299-.84-.462-1.41-.462-.976 0-1.736.49-2.332 1.47-.57.98-.895 2.56-.95 4.683l6.075-.055Zm7.214 7.215a12.29 12.29 0 0 1-1.6 2.042c-.624.626-1.329 1.198-2.115 1.634a11.4 11.4 0 0 1-2.55 1.089c-.868.245-1.844.38-2.983.38-1.871 0-3.471-.271-4.827-.789-1.356-.544-2.468-1.252-3.363-2.15a8.768 8.768 0 0 1-1.98-3.186c-.433-1.225-.65-2.532-.65-3.975 0-1.28.244-2.532.705-3.703a9.92 9.92 0 0 1 2.007-3.158c.867-.898 1.925-1.633 3.227-2.178C86.972.299 88.436 0 90.036 0c1.763 0 3.2.218 4.339.653 1.14.436 2.061 1.035 2.82 1.77a6.541 6.541 0 0 1 1.573 2.56 9.74 9.74 0 0 1 .489 3.076v1.225H86.483c0 2.586.489 4.574 1.492 5.908 1.003 1.361 2.576 2.042 4.746 2.042 1.193 0 2.25-.327 3.2-.98a8.744 8.744 0 0 0 2.413-2.478l1.465 1.062ZM115.881 7.623c0-.762-.028-1.524-.109-2.341-.081-.79-.217-1.443-.407-1.96-.217-.6-.515-1.035-.867-1.335-.38-.299-.841-.462-1.411-.462-.976 0-1.735.49-2.332 1.47-.569.98-.895 2.56-.949 4.683l6.075-.055Zm7.213 7.215a12.28 12.28 0 0 1-1.6 2.042c-.623.626-1.329 1.198-2.115 1.634-.841.49-1.709.844-2.549 1.089-.868.245-1.844.38-2.983.38-1.872 0-3.472-.271-4.828-.789-1.356-.544-2.467-1.252-3.362-2.15a8.767 8.767 0 0 1-1.98-3.186c-.434-1.225-.651-2.532-.651-3.975 0-1.28.244-2.532.705-3.703a9.917 9.917 0 0 1 2.007-3.158c.868-.898 1.925-1.633 3.227-2.178C110.294.272 111.758 0 113.359 0c1.762 0 3.2.218 4.339.653 1.139.436 2.061 1.035 2.82 1.77.732.708 1.247 1.58 1.573 2.56.325.98.488 2.014.488 3.076v1.225h-12.773c0 2.586.488 4.574 1.491 5.908 1.004 1.361 2.577 2.042 4.746 2.042 1.194 0 2.251-.327 3.2-.98a8.735 8.735 0 0 0 2.414-2.478l1.437 1.062ZM139.664 19.358v-1.389c.244-.027.543-.054.868-.082.353-.027.597-.108.786-.19a1.21 1.21 0 0 0 .57-.6c.108-.271.163-.653.163-1.17V7.024c0-1.28-.244-2.26-.705-2.913-.461-.653-1.167-.98-2.089-.98-.515 0-.976.082-1.41.218a6.25 6.25 0 0 0-1.274.653 4.12 4.12 0 0 0-.868.79c-.217.272-.407.49-.57.708v10.182c0 .436.055.817.19 1.116.136.3.326.518.624.681.19.109.461.218.759.3.299.081.597.163.895.19v1.389h-11.498v-1.389c.325-.027.623-.054.949-.109.325-.054.596-.109.813-.19.407-.137.678-.354.841-.654.163-.3.217-.68.217-1.143v-11c0-.38-.109-.79-.298-1.143a2.601 2.601 0 0 0-.787-.926c-.217-.163-.515-.272-.868-.38-.352-.11-.732-.164-1.139-.219V.817l9.004-.49.271.272v2.75h.082c.352-.327.786-.708 1.274-1.144.515-.435.976-.79 1.41-1.089.461-.3 1.085-.571 1.844-.79A8.766 8.766 0 0 1 142.132 0c2.061 0 3.607.572 4.61 1.742 1.031 1.171 1.546 2.723 1.546 4.656v9.284c0 .463.054.844.217 1.116.136.273.407.49.787.654.189.081.461.19.759.272.298.082.624.163 1.003.19v1.444h-11.39Z"/>
  <path fill="#71727B" d="m4.583 31.691-1.112-2.859-1.085 2.859h2.197Zm2.956 2.995H4.502v-.354c.271-.027.488-.054.678-.109.19-.054.271-.109.271-.19v-.11c0-.054-.027-.081-.027-.108l-.597-1.634H2.224c-.109.245-.163.463-.244.626-.055.19-.109.354-.163.49a1.07 1.07 0 0 0-.081.354c-.027.082-.027.164-.027.218 0 .136.108.245.325.327.217.082.461.109.732.136v.354H0v-.354c.081 0 .19-.027.325-.054a.904.904 0 0 0 .326-.137 1.302 1.302 0 0 0 .542-.735c.38-.925.787-1.96 1.22-3.104.435-1.143.841-2.178 1.194-3.076h.407l2.44 6.344c.055.136.109.245.163.326.054.082.163.164.271.245.082.055.19.082.299.11.135.027.244.054.325.054v.38h.027ZM16.814 29.35h-.353a1.744 1.744 0 0 0-.162-.436c-.082-.163-.163-.327-.271-.49a2.673 2.673 0 0 0-.326-.409c-.136-.108-.244-.19-.352-.19-.109 0-.245-.027-.407-.027h-.76v5.88a.55.55 0 0 0 .082.3c.054.109.135.163.244.218.054.027.19.054.38.109.19.027.352.054.46.054v.354h-3.444v-.354c.109 0 .244-.027.434-.054a2.59 2.59 0 0 0 .407-.082.59.59 0 0 0 .244-.19.582.582 0 0 0 .082-.327v-5.908h-.706c-.162 0-.298.027-.46.027a.756.756 0 0 0-.353.19 2.143 2.143 0 0 0-.326.409c-.108.163-.19.327-.27.49a2.241 2.241 0 0 0-.164.436h-.352v-1.988h6.373v1.988ZM17.573 34.686v-.354c.082 0 .217-.027.407-.027.163-.027.298-.027.38-.055a.59.59 0 0 0 .244-.19.583.583 0 0 0 .081-.327v-5.31a.983.983 0 0 0-.054-.299c-.027-.081-.136-.136-.271-.19-.109-.055-.244-.082-.38-.11-.163-.026-.271-.054-.38-.054v-.354h3.282v.354c-.109 0-.244.028-.38.028a8.798 8.798 0 0 0-.38.081c-.135.055-.216.11-.27.191-.055.082-.055.19-.055.3v5.308a.55.55 0 0 0 .081.3.642.642 0 0 0 .244.218c.082.027.19.054.353.082.163.027.298.054.407.054v.354h-3.309ZM25.926 31.691l-1.112-2.859-1.085 2.859h2.197Zm2.929 2.995h-3.038v-.354c.272-.027.489-.054.678-.109.19-.054.272-.109.272-.19v-.11c0-.054-.027-.081-.027-.108l-.597-1.634h-2.576c-.109.245-.163.463-.244.626-.055.19-.109.354-.163.49a1.07 1.07 0 0 0-.082.354c-.027.082-.027.164-.027.218 0 .136.109.245.326.327.217.082.46.109.732.136v.354h-2.793v-.354c.081 0 .19-.027.325-.054a.904.904 0 0 0 .326-.137 1.303 1.303 0 0 0 .542-.735c.38-.925.76-1.96 1.22-3.104.434-1.143.841-2.178 1.194-3.076h.406l2.441 6.344c.054.136.109.245.163.326.054.082.163.164.271.245.081.055.19.082.298.11.136.027.244.054.326.054v.38h.027Z"/>
  <path fill="#71727B" d="m33.275 31.691-1.112-2.859-1.084 2.859h2.196Zm2.93 2.995h-3.038v-.354c.271-.027.488-.054.678-.109.19-.054.271-.109.271-.19v-.11c0-.054-.027-.081-.027-.108l-.597-1.634h-2.576c-.108.245-.163.463-.244.626-.054.19-.109.354-.163.49a1.069 1.069 0 0 0-.081.354c-.027.082-.027.164-.027.218 0 .136.108.245.325.327.217.082.461.109.732.136v.354h-2.766v-.354c.081 0 .19-.027.326-.054a.903.903 0 0 0 .325-.137c.136-.081.244-.19.326-.3.08-.108.162-.244.216-.435.38-.925.787-1.96 1.22-3.104.435-1.143.841-2.178 1.194-3.076h.407l2.44 6.344c.055.136.109.245.163.326.055.082.163.164.272.245.08.055.19.082.298.11.135.027.244.054.325.054v.38ZM42.767 34.876c-.434 0-.84-.081-1.247-.272a2.858 2.858 0 0 1-1.058-.735 4.043 4.043 0 0 1-.732-1.198c-.19-.463-.271-1.007-.271-1.579 0-.599.08-1.116.27-1.606s.435-.899.733-1.226a3.2 3.2 0 0 1 1.112-.789c.434-.19.868-.272 1.356-.272.352 0 .678.054.976.136.298.081.57.218.84.381l.218-.354h.407l.054 2.614h-.434a6.945 6.945 0 0 0-.244-.844 3.988 3.988 0 0 0-.38-.763 1.634 1.634 0 0 0-.596-.544c-.218-.136-.489-.19-.787-.19-.325 0-.65.081-.922.217a1.69 1.69 0 0 0-.732.654c-.19.272-.353.626-.461 1.061a6.024 6.024 0 0 0-.163 1.443c0 .463.054.899.19 1.28.108.381.298.735.515 1.035.217.299.488.517.787.68.298.164.623.245 1.003.245.271 0 .542-.054.76-.136.243-.082.433-.218.596-.354.163-.163.325-.326.461-.517a2.75 2.75 0 0 0 .325-.626l.38.19c-.298.735-.678 1.253-1.166 1.552-.543.354-1.112.517-1.79.517ZM50.577 32.1c0-.273-.027-.545-.081-.817a2.33 2.33 0 0 0-.244-.736 1.346 1.346 0 0 0-.434-.517 1.078 1.078 0 0 0-.65-.19c-.272 0-.489.054-.679.19-.19.136-.352.3-.46.545a3.12 3.12 0 0 0-.245.708c-.054.272-.054.517-.054.79 0 .326.027.625.081.925.054.272.136.544.244.762.109.218.272.409.434.518.19.136.407.19.651.19.434 0 .76-.218 1.03-.626.299-.436.407-1.008.407-1.743Zm1.085 0c0 .353-.054.707-.163 1.061-.108.354-.27.654-.488.871-.244.273-.515.49-.813.627-.326.136-.651.19-1.058.19-.325 0-.624-.054-.922-.19-.298-.11-.542-.3-.786-.545a2.655 2.655 0 0 1-.543-.844c-.135-.327-.19-.708-.19-1.116 0-.79.244-1.443.706-1.96.46-.518 1.057-.763 1.816-.763.706 0 1.302.245 1.763.735.434.49.678 1.117.678 1.933ZM58.794 34.686v-.354c.082 0 .163 0 .245-.027a.509.509 0 0 0 .217-.055.337.337 0 0 0 .216-.163.55.55 0 0 0 .082-.3v-2.64c0-.354-.082-.627-.244-.845a.81.81 0 0 0-.624-.299c-.163 0-.325.027-.461.082-.136.054-.271.136-.407.217-.108.082-.19.164-.244.245-.054.082-.108.164-.163.218v2.995c0 .11.028.218.055.3a.503.503 0 0 0 .217.19c.081.028.162.055.217.082.054.027.135.027.244.027v.354H55.73v-.354c.081 0 .163 0 .217-.027.081 0 .136-.027.217-.054a.337.337 0 0 0 .217-.164.55.55 0 0 0 .081-.3v-2.64c0-.354-.081-.627-.244-.844a.81.81 0 0 0-.624-.3 1.53 1.53 0 0 0-.488.082 2.963 2.963 0 0 0-.407.218 1.04 1.04 0 0 0-.243.245c-.082.081-.109.163-.163.218v2.967a.55.55 0 0 0 .081.3.503.503 0 0 0 .217.19c.081.028.136.055.217.082a.749.749 0 0 0 .244.027v.354h-2.468v-.354c.082 0 .163 0 .244-.027a.51.51 0 0 0 .217-.054.337.337 0 0 0 .217-.164.55.55 0 0 0 .082-.3v-3.158a.55.55 0 0 0-.082-.3.557.557 0 0 0-.217-.217c-.054-.027-.135-.081-.244-.109-.108-.027-.19-.054-.298-.054v-.354l1.708-.11.082.083v.735h.027c.081-.082.19-.19.325-.3.136-.109.244-.218.353-.272.108-.082.271-.163.46-.218.19-.054.38-.081.598-.081.325 0 .623.081.84.272.244.19.407.38.515.653.136-.109.245-.218.326-.326a2.64 2.64 0 0 1 .38-.3c.135-.082.27-.163.46-.218.19-.054.38-.081.597-.081.434 0 .76.136 1.03.435.245.272.38.708.38 1.307v2.586a.98.98 0 0 0 .055.3.503.503 0 0 0 .217.19l.244.082c.081.027.162.027.27.027v.3h-2.575ZM65.818 33.87c.136-.219.245-.464.299-.736.054-.272.108-.599.108-.953 0-.245-.027-.517-.081-.79a1.708 1.708 0 0 0-.271-.68 1.58 1.58 0 0 0-.461-.49c-.19-.136-.407-.19-.678-.19-.244 0-.461.054-.651.163-.19.108-.326.245-.461.408v3.022c.027.082.081.19.163.3.08.108.135.19.244.272.108.082.217.163.352.218.136.054.271.081.461.081s.38-.054.57-.163c.135-.136.27-.272.406-.463Zm.841-3.676c.19.245.353.517.461.844.109.326.163.68.163 1.089 0 .408-.054.762-.19 1.116-.136.327-.298.626-.542.844-.217.245-.489.408-.76.544-.27.136-.57.191-.895.191-.298 0-.57-.027-.759-.109a4.075 4.075 0 0 1-.488-.245h-.054v1.525a.49.49 0 0 0 .081.3c.054.08.136.135.217.19.081.027.19.054.353.081.162.028.27.055.38.055v.354h-2.848v-.354c.108 0 .217-.027.298-.027.108 0 .19-.028.271-.055.109-.027.163-.081.217-.19.054-.082.054-.19.054-.3V30.63a.623.623 0 0 0-.081-.3c-.054-.108-.108-.163-.19-.244-.054-.055-.135-.082-.271-.11-.108-.027-.217-.027-.325-.054v-.354l1.735-.108.082.054v.572h.054c.19-.218.407-.382.678-.518.27-.136.515-.217.786-.217.326 0 .597.054.868.19.271.245.515.436.705.654ZM71.35 31.854a8.42 8.42 0 0 0-.759.245c-.216.082-.433.191-.623.3a1.455 1.455 0 0 0-.407.408 1.009 1.009 0 0 0-.163.572c0 .3.082.49.217.626a.85.85 0 0 0 .57.19c.244 0 .46-.054.65-.19.19-.109.353-.272.462-.435l.054-1.716Zm1.79 2.75c-.162.055-.298.11-.433.136-.136.027-.271.055-.407.055-.271 0-.488-.055-.65-.19a.782.782 0 0 1-.3-.545h-.026a2.715 2.715 0 0 1-.706.571c-.243.136-.569.191-.921.191-.38 0-.706-.109-.95-.354a1.254 1.254 0 0 1-.38-.926c0-.19.028-.38.082-.517.054-.163.136-.3.244-.408a.935.935 0 0 1 .353-.273c.135-.081.27-.136.406-.19.163-.055.461-.164.95-.327.46-.163.786-.272.949-.381v-.517c0-.055 0-.136-.027-.245a1.353 1.353 0 0 0-.109-.354.865.865 0 0 0-.298-.327.994.994 0 0 0-.543-.136 1.12 1.12 0 0 0-.433.081.971.971 0 0 0-.299.164c0 .082.027.163.055.3.027.136.054.272.054.38a.426.426 0 0 1-.163.327c-.108.11-.271.164-.461.164-.163 0-.298-.055-.38-.191-.081-.109-.108-.272-.108-.408 0-.164.054-.3.163-.463a1.51 1.51 0 0 1 .433-.381c.163-.11.353-.19.57-.245.217-.055.434-.11.65-.11.3 0 .543.028.76.055.217.027.407.136.597.245.163.136.298.3.407.517.08.218.135.49.135.845 0 .49 0 .925-.027 1.306 0 .381-.027.79-.027 1.253 0 .136.027.245.081.326a.54.54 0 0 0 .461.245h.353v.327h-.054ZM77.29 34.686v-.354c.081 0 .163 0 .271-.027.108 0 .163-.027.244-.055a.337.337 0 0 0 .217-.163.55.55 0 0 0 .081-.3v-2.613c0-.354-.08-.654-.244-.844a.81.81 0 0 0-.623-.3c-.19 0-.353.027-.489.082-.162.054-.27.136-.406.218-.109.081-.217.163-.271.245-.082.081-.109.163-.136.218v2.967a.55.55 0 0 0 .081.3.337.337 0 0 0 .217.163l.244.082a.834.834 0 0 0 .272.027v.354h-2.496v-.354c.082 0 .163 0 .245-.027a.508.508 0 0 0 .216-.055.337.337 0 0 0 .218-.163.55.55 0 0 0 .08-.3V30.63a.728.728 0 0 0-.08-.327c-.055-.108-.109-.19-.218-.244-.054-.028-.135-.082-.243-.082-.082-.027-.19-.027-.299-.027v-.354l1.682-.11.08.082v.708h.028l.298-.3c.136-.108.244-.217.353-.272a1.818 1.818 0 0 1 1.058-.299c.488 0 .84.163 1.084.463.244.3.353.708.353 1.225v2.64c0 .11.027.219.054.3a.337.337 0 0 0 .217.164c.081.027.163.054.217.082.054 0 .136.027.244.027v.38h-2.55ZM80.219 36.347c0-.164.054-.3.135-.436a.437.437 0 0 1 .353-.163c.108 0 .217.027.271.054.082.055.136.082.217.163a.75.75 0 0 1 .163.218c.054.082.108.164.135.218.163-.082.38-.327.624-.735.244-.381.407-.735.515-1.035a169.11 169.11 0 0 0-.895-2.205 108.36 108.36 0 0 0-.84-1.987c-.055-.164-.163-.273-.326-.382a1.563 1.563 0 0 0-.46-.163v-.354h2.331v.354c-.108 0-.216.027-.38.055-.135.027-.216.081-.216.136 0 .027 0 .054.027.109.027.054.027.108.054.136.136.354.326.844.597 1.47.271.653.46 1.143.624 1.552l.488-1.144c.163-.38.352-.87.57-1.388.026-.055.053-.164.108-.273.054-.108.054-.217.054-.299 0-.082-.081-.163-.244-.245-.163-.082-.298-.136-.434-.136v-.327h1.898v.327a1.303 1.303 0 0 0-.406.19.99.99 0 0 0-.38.436c-.407.953-.787 1.824-1.085 2.614a52.42 52.42 0 0 1-.732 1.715c-.217.49-.407.871-.57 1.143-.162.273-.325.49-.488.627-.162.136-.298.245-.434.3a1.085 1.085 0 0 1-.406.08c-.272 0-.489-.054-.624-.19a.524.524 0 0 1-.244-.435Z"/>
</svg>