<svg viewBox="0 0 149 27" fill="none"
  xmlns="http://www.w3.org/2000/svg">
  <path d="M66.6572 9.11429L66.1857 12.9905C65.5048 12.7286 64.7714 12.6238 64.1429 12.6238C62.5714 12.6238 61.2619 13.3571 60.2667 14.6143V26.1381H56.2333V9.21905H59.0095L59.9524 11.0524C61 9.79524 62.5191 8.8 64.6143 8.8C65.2429 8.8 65.9238 8.85238 66.6572 9.11429ZM128.414 11.0524L127.471 9.21905H124.695V26.1381H128.729V14.6143C129.724 13.3571 131.086 12.6238 132.605 12.6238C133.286 12.6238 133.967 12.7286 134.648 12.9905L135.119 9.11429C134.386 8.90476 133.705 8.8 133.024 8.8C130.981 8.8 129.462 9.79524 128.414 11.0524ZM46.7 8.8C44.8143 8.8 43.0333 9.58572 41.5667 10.8429V0L37.5333 0.942857V26.0857H41.5667V14.8238C42.5619 13.619 44.0286 12.6238 45.6 12.6238C48.1143 12.6238 49.5286 14.1429 49.5286 17.8619C49.5286 21.1619 49.5286 26.0857 49.5286 26.0857H53.5619V17.7048C53.5619 12.6238 51.3619 8.8 46.7 8.8ZM28.8381 22.6286C26.2714 22.6286 24.0714 20.5333 24.0714 17.6C24.0714 14.6667 26.1667 12.6238 28.7333 12.6238C30.2 12.6238 31.719 13.4095 32.7143 14.8238L35.7524 12.2571C34.181 10.2143 31.8762 8.8 28.7857 8.8C23.6524 8.8 19.9333 12.781 19.9333 17.6524C19.9333 22.8905 23.9143 26.5571 28.8381 26.5571C31.719 26.5571 34.2857 25.2476 35.9619 23.2571L33.0286 20.6381C31.8238 22 30.619 22.6286 28.8381 22.6286ZM11.5 11.5238C11.1333 11.419 10.0333 11.1571 9.35238 11C6.89048 10.4238 5.37143 9.69048 5.37143 8.01429C5.37143 6.44286 6.94286 5.02857 9.3 5.02857C11.3952 5.02857 13.019 6.07619 14.381 7.96191L17.4714 5.13333C15.9 3.14286 13.5429 0.942857 9.35238 0.942857C4.79524 0.942857 0.919048 4.08571 0.919048 8.27619C0.919048 11.5762 3.01429 13.9333 7.46667 14.981C8.09524 15.1381 9.09048 15.3476 9.71905 15.5571C12.4429 16.2905 13.5429 17.4952 13.5429 19.0667C13.5429 21.0571 11.6571 22.3667 9.5619 22.3667C7.67619 22.3667 5.47619 21.6857 4.06191 18.8048L0.5 21.0048C1.70476 23.781 4.95238 26.5571 9.45714 26.5571C14.5905 26.5571 18.1524 23.1 18.1524 19.119C18.1524 15.2429 15.7952 12.6762 11.5 11.5238ZM143.605 15.9238C141.3 15.4 139.886 14.8238 139.886 13.7762C139.886 12.781 140.933 12.2048 142.452 12.2048C143.762 12.2048 145.386 13.0429 146.067 14.2476L148.633 11.9429C147.638 10.4238 145.49 8.8 142.452 8.8C139.31 8.8 136.114 10.7905 136.114 13.9333C136.114 16.8667 138.419 18.281 142.505 19.2762C144.024 19.6429 145.229 20.219 145.229 21.319C145.229 22.2619 144.338 23.1 142.714 23.1C140.829 23.1 139.257 22.3667 138 20.6905L135.433 22.9952C136.9 25.1952 139.729 26.5571 142.819 26.5571C146.381 26.5571 149 24.2 149 21.2143C149 18.1762 146.433 16.6048 143.605 15.9238ZM66.5524 17.7048C66.5524 22.3667 70.0619 26.1381 74.8286 26.5571V22.7333C72.3143 22.3143 70.6905 20.1667 70.6905 17.6524C70.6905 14.981 72.4714 12.9381 74.8286 12.5714V8.74762C70.0619 9.21905 66.5524 12.9905 66.5524 17.7048ZM76.5048 8.8V12.5714C78.9143 12.9905 80.6429 14.981 80.6429 17.6524C80.6429 20.1667 78.9667 22.3143 76.5048 22.7333V26.5571C81.2714 26.1381 84.781 22.3667 84.781 17.7048C84.8333 12.9905 81.3238 9.21905 76.5048 8.8ZM103.69 21.7905L104.633 26.0857H100.967L100.129 24.4619C98.8191 25.6143 97.0381 26.5048 94.8905 26.5048C90.1238 26.5048 86.5619 22.6286 86.5619 17.6524C86.5619 12.519 90.4905 8.74762 95.2048 8.74762C96.9333 8.74762 98.4524 9.37619 99.6572 10.319V0.942857L103.69 0V21.7905ZM99.6572 14.0381C98.6095 13.1476 97.2476 12.519 95.5714 12.519C92.8476 12.519 90.6476 14.7714 90.6476 17.6C90.6476 20.9 93.0048 22.8381 95.4667 22.8381C97.0381 22.8381 98.5571 22.1048 99.6048 21.0571V14.0381H99.6572ZM122.652 17.6524C122.652 18.1238 122.6 18.8048 122.6 18.8048H109.924C110.238 21.2143 112.229 22.9429 114.69 22.9429C116.471 22.9429 118.043 22.2095 119.143 20.8476L121.867 23.2571C120.19 25.2476 117.729 26.5571 114.743 26.5571C109.819 26.5571 105.838 22.8381 105.838 17.6C105.838 12.6762 109.557 8.8 114.481 8.8C119.248 8.8 122.652 12.7286 122.652 17.6524ZM118.41 15.7667C118.148 14.0905 116.629 12.3619 114.271 12.3619C112.176 12.3619 110.552 13.8286 110.029 15.7667H118.41Z" fill="#243672"/>
</svg>
