<svg xmlns="http://www.w3.org/2000/svg" fill="none" viewBox="0 0 110 68">
  <path fill="#000" d="m.04 66.622.377-.139v-2.902l-.377-.14v-.238H1.23v.239l-.377.139v2.902l.377.14v.258L.04 66.84v-.219ZM7.17 66.92l-1.886-2.842v2.365l.456.18v.258H4.648v-.259l.357-.139V63.64l-.377-.178v-.259h.715l1.728 2.604V63.66l-.477-.238v-.219h1.113v.258l-.378.12v2.703l.02.557-.179.08ZM11.223 63.56l-.299-.138v-.219h1.192v.219l-.417.139.795 2.525.834-2.465-.497-.16v-.258h1.093v.219l-.318.159-1.092 3.36h-.18l-1.111-3.38ZM17.976 65.151v1.412h1.132l.357-.815h.2l-.2 1.133h-2.363v-.259l.417-.139v-2.902l-.417-.12v-.258h2.006l.357-.04v1.074h-.158l-.259-.736h-1.072v1.352h.655l.16-.517h.138v1.273h-.178l-.12-.458h-.655ZM23.04 65.628h.2l.297.855c.1.1.259.199.537.199.337 0 .576-.239.576-.656 0-.278-.12-.497-.437-.616l-.457-.219c-.497-.179-.636-.517-.636-.954 0-.616.457-1.133 1.053-1.133.318 0 .636.119.795.199l.02.993h-.18l-.218-.695c-.1-.14-.238-.2-.457-.2-.357 0-.576.26-.576.597 0 .318.08.477.437.636l.378.14c.615.238.754.556.754.994 0 .695-.496 1.232-1.092 1.232-.338 0-.636-.1-.854-.278l-.14-1.094ZM30.668 63.223l.338-.06.02 1.114h-.16l-.277-.776h-.636v3.002l.397.12v.258h-1.29v-.259l.436-.119v-3.002h-.675l-.239.776h-.178l.02-1.114.357.06h1.887ZM34.343 66.622l.337-.119.08-2.902-.358-.14v-.238h.894l.953 2.545.835-2.306.02-.239h.953v.239l-.358.139.04 2.922.378.1v.258h-1.212v-.259l.358-.099V63.64l-.974 2.724-.08.278h-.158l-.1-.278-.953-2.465-.02 2.584.477.18v.218h-1.112v-.259ZM42.308 65.151v1.412h1.132l.377-.815h.179l-.179 1.133h-2.324v-.259l.338-.099.02-2.922-.358-.14v-.238h1.947l.377-.04v1.054h-.178l-.2-.736h-1.131v1.352h.655l.16-.517h.158v1.273h-.179l-.139-.458h-.655ZM49.935 66.94l-1.887-2.842v2.346l.437.198v.239h-1.112v-.259l.397-.099V63.66l-.417-.198v-.239h.715l1.748 2.604V63.66l-.497-.198v-.239h1.113v.239l-.358.139v3.28l-.139.06ZM56.073 63.223l.297-.06.04 1.114h-.139l-.278-.776h-.655v3.022l.397.1v.258h-1.251v-.259l.397-.099v-3.022h-.656l-.278.776h-.159l.04-1.114.318.06h1.927ZM63.72 66.622l.357-.099.1-2.922-.398-.14v-.238h.894l.954 2.545.814-2.306.04-.239h.953v.239l-.338.139.04 2.922.338.1v.258h-1.212v-.259l.397-.099V63.66l-.993 2.704-.08.298h-.158l-.08-.298-.913-2.465-.04 2.584.477.18v.218H63.72v-.259ZM70.751 66.642l.258-.1 1.073-3.319.179-.04.198-.08 1.053 3.44.298.08v.238h-1.192v-.239l.358-.099-.258-.895h-1.152l-.259.875.477.1v.258h-1.053v-.219h.02Zm.954-1.332h.953l-.477-1.53h-.02l-.456 1.53ZM79.63 66.96l-1.887-2.862v2.365l.457.18v.238h-1.093v-.239l.358-.119V63.68l-.378-.218v-.239h.696l1.728 2.624V63.68l-.477-.218v-.239h1.112v.239l-.357.139v3.28l-.16.08ZM83.324 66.642l.278-.1 1.053-3.319.179-.04.159-.06 1.053 3.44.337.08v.258h-1.251v-.259l.377-.1-.238-.894h-1.152l-.258.875.476.1v.258h-1.052v-.239h.04Zm.974-1.332h.933l-.477-1.53-.456 1.53ZM89.6 65.151c0-1.093.716-2.027 1.71-2.027.297 0 .635.139.853.278l.02.974h-.179l-.238-.696c-.12-.12-.298-.258-.556-.258-.735 0-1.093.676-1.093 1.69 0 .974.517 1.57 1.192 1.57.159 0 .318-.06.437-.14v-.973l-.437-.14v-.178h1.132v.198l-.278.1v1.093l-.139.08c-.139.119-.516.278-.894.278-1.052 0-1.53-.894-1.53-1.849ZM96.692 65.151v1.432h1.132l.397-.835h.16l-.14 1.153h-2.363v-.259l.357-.119v-2.922l-.357-.14v-.238h1.946l.417-.04v1.054h-.178l-.239-.716h-1.132v1.352h.695l.12-.517h.158v1.253h-.198l-.08-.458h-.695ZM101.777 66.642l.337-.1v-2.921l-.337-.14v-.258h1.033c.794 0 1.291.318 1.291.974 0 .557-.457.875-.735.994l.814 1.372.358.1v.258h-.755l-.715-1.193-.199-.398h-.278v1.213l.358.1v.258h-1.192v-.259h.02Zm1.192-1.61c.337-.06.615-.318.615-.775 0-.557-.377-.796-1.013-.796v1.571h.398ZM107.815 65.668h.199l.278.875c.099.1.298.179.536.179.377 0 .576-.219.576-.656 0-.279-.099-.497-.397-.617l-.457-.218c-.497-.18-.655-.517-.655-.974 0-.597.496-1.114 1.072-1.114.338 0 .616.14.775.22l.02.993h-.159l-.239-.676c-.099-.139-.238-.218-.476-.218-.338 0-.556.258-.556.616 0 .298.079.477.417.596l.377.16c.596.238.755.556.755.993 0 .716-.497 1.233-1.132 1.233-.298 0-.596-.1-.854-.279l-.08-1.113ZM0 59.187v-19.62h2.94v17.076h3.714v2.544H0ZM10.527 56.027c0 .994.298 1.212.914 1.212.556 0 .894-.238.894-1.212v-13.3c0-.994-.338-1.232-.894-1.232-.616 0-.914.258-.914 1.232v13.3Zm-2.92-13.558c0-2.565 2.007-3.32 3.794-3.32 1.828 0 3.854.755 3.854 3.32v13.796c0 2.565-2.026 3.3-3.854 3.3-1.807 0-3.794-.735-3.794-3.3V42.47ZM21.293 59.187l-1.053-9.482c-.238-2.008-.476-4.89-.675-6.54h-.14c.02 1.192.14 2.624.14 3.816v12.206h-2.563v-19.62h4.31l.954 8.11c.179 1.193.417 3.638.477 6.103h.139c.08-2.028.1-4.532.278-6.083l.794-8.13h4.31v19.64h-2.522v-9.045c0-2.306.02-4.512.1-6.978h-.1c-.198 1.452-.636 6.481-.735 7.555l-1.013 8.448h-2.701ZM32.952 56.861h.576c.835 0 1.212-.337 1.212-1.55v-3.757c0-1.193-.377-1.531-1.212-1.531h-.576v6.838Zm0-9.164h.656c.755 0 1.053-.338 1.053-1.471v-3.002c0-1.133-.298-1.431-1.053-1.431h-.656v5.904Zm-2.92-8.13h4.152c2.324 0 3.396 1.41 3.396 3.518v3.081c-.02 1.73-1.013 2.267-2.681 2.644v.06c1.847.338 2.78.835 2.78 3.081v3.102c0 2.345-1.072 4.134-3.535 4.134h-4.111v-19.62ZM43.658 51.315l-.596-8.19h-.178l-.696 8.19h1.47Zm-2.82-11.749h4.39l2.224 19.641h-2.94l-.556-5.327h-2.085l-.636 5.327h-2.622l2.225-19.64ZM51.325 47.697h.556c.994 0 1.252-.557 1.252-1.272v-3.578c0-.756-.457-.955-1.112-.955h-.696v5.805Zm-2.92 11.49v-19.62h3.834c2.344 0 3.814.814 3.814 3.34v2.782c0 1.491-.417 2.684-2.9 2.962v.06c1.31.159 2.661.596 2.78 2.405.16 2.624 0 5.368.477 8.071h-2.92c-.516-2.266-.357-5.208-.357-7.494 0-1.173-.457-1.65-1.808-1.61v9.104h-2.92ZM60.502 56.861h.695c.735 0 1.093-.178 1.093-1.43V43.343c0-1.273-.358-1.432-1.093-1.432h-.695v14.95Zm-2.92-17.295h3.536c2.9 0 4.131.974 4.131 4.433v11.65c0 1.888-1.231 3.558-3.496 3.558h-4.17v-19.64ZM74.267 56.027c0 .994.298 1.212.914 1.212.556 0 .893-.238.893-1.212v-13.3c0-.994-.337-1.232-.893-1.232-.616 0-.914.258-.914 1.232v13.3Zm-2.94-13.558c0-2.565 2.026-3.32 3.814-3.32 1.827 0 3.853.755 3.853 3.32v13.796c0 2.565-2.006 3.3-3.853 3.3-1.808 0-3.814-.735-3.814-3.3V42.47ZM83.463 56.861h.676c.735 0 1.132-.178 1.132-1.43V43.343c0-1.273-.397-1.432-1.132-1.432h-.676v14.95Zm-2.92-17.295h3.516c2.9 0 4.112.974 4.112 4.433v11.65c0 1.888-1.212 3.558-3.476 3.558h-4.151v-19.64ZM92.7 39.566h-2.92v19.641h2.92v-19.64ZM94.408 59.187v-19.62h6.495v2.524h-3.575v5.09h3.416v2.544h-3.416v6.918h3.634v2.544h-6.554ZM104.875 47.697h.576c1.033 0 1.212-.557 1.212-1.272v-3.578c0-.756-.417-.955-1.092-.955h-.696v5.805Zm-2.9 11.49v-19.62h3.854c2.363 0 3.754.814 3.754 3.34v2.782c0 1.491-.378 2.684-2.88 2.962v.06c1.291.159 2.681.596 2.781 2.405.178 2.624 0 5.368.516 8.071h-2.94c-.536-2.266-.397-5.208-.397-7.494 0-1.173-.417-1.65-1.788-1.61v9.104h-2.9ZM54.106 5.115s.12.716.834.716c.696 0 .795-.676.815-.756.08-.238.1-1.013-.815-3.36-.933 2.347-.913 3.102-.834 3.32v.08Zm-6.952 9.542h4.37a3.414 3.414 0 0 1 3.158-3.16V7.082l-2.661 2.704-.16-.259c-1.012-1.391-8.58-7.216-10.15-7.951-.02 0-.02 0-.039-.02.02 0 .02.02.02.02.735 1.49 6.535 9.104 7.945 10.178l.199.179-2.682 2.723Zm11.223 0h4.37l-2.682-2.664.258-.198c1.291-.935 7.23-8.688 7.965-10.218 0-.02.04-.02.04-.04-.02 0-.04.02-.04.02-1.49.715-9.196 6.66-10.19 8.011l-.158.239-2.721-2.744v4.433a3.464 3.464 0 0 1 3.158 3.161Zm6.813-.596c-.1 0-.18 0-.199.04-.14 0-.814.139-.814.835 0 .755.734.815.754.815.497.139 1.689-.18 3.318-.815-1.848-.716-2.702-.875-3.06-.875Zm-23.399.895c2.364.914 3.079.894 3.317.815.1 0 .795-.08.795-.816 0-.755-.755-.834-.755-.834-.258-.1-1.013-.1-3.357.835Zm13.17-2.963A2.951 2.951 0 0 0 52 14.936a2.939 2.939 0 0 0 2.96 2.942 2.96 2.96 0 0 0 2.939-2.942c0-1.63-1.33-2.943-2.94-2.943Zm0 12.047c-.716 0-.835.696-.855.776-.06.258-.1.974.854 3.34.914-2.346.874-3.062.815-3.28v-.08c0-.04-.12-.756-.815-.756Zm2.959-3.976.159.24c.973 1.311 8.7 7.295 10.19 8.01l.04.04c0-.02-.001-.04-.02-.04-.716-1.49-6.655-9.224-8.006-10.218l-.218-.178 2.701-2.744h-4.39a3.422 3.422 0 0 1-3.177 3.2v4.394l2.72-2.704Zm-10.806-4.89 2.761 2.783-.218.16c-1.41 1.093-7.23 8.687-7.965 10.197 0 0 0 .02-.02.06 0 0 .02-.02.02-.04 1.49-.715 9.057-6.58 10.17-7.971l.159-.239 2.641 2.644v-4.393a3.435 3.435 0 0 1-3.158-3.2h-4.39Zm-5.581 13.737c-.1 0-.199-.04-.278-.12-.219-.198-.04-.576 0-.695.755-1.53 6.138-8.608 7.886-10.178l-2.761-2.744c-.08.815-.874 1.094-1.172 1.113-.576.14-1.808-.178-3.774-.954-.318-.12-.338-.278-.338-.397 0-.12.04-.279.338-.378 1.926-.755 3.158-1.074 3.774-.954.159.02.536.119.774.357.239.16.338.438.378.696h.06l2.7-2.664c-1.767-1.63-7.13-8.687-7.885-10.198-.159-.278-.159-.536 0-.676.159-.139.397-.139.695 0 1.51.716 8.581 6.183 10.15 7.893l2.602-2.644v-.04a1.437 1.437 0 0 1-.715-.398 1.378 1.378 0 0 1-.337-.795c-.14-.596.178-1.889.913-3.817.14-.258.278-.318.417-.318.12 0 .278.06.378.318.774 1.968 1.072 3.26.933 3.837-.02.258-.298 1.034-1.072 1.173v.04L57.88 9.05c1.53-1.73 8.66-7.216 10.19-7.952.318-.139.536-.139.675 0 .179.14.179.398 0 .676-.655 1.392-6.118 8.668-7.886 10.238l2.622 2.624h.239c.119-.735.854-1.013 1.192-1.053.556-.14 1.827.179 3.754.954.297.1.357.278.357.378 0 .119-.06.258-.357.397-1.887.776-3.178 1.094-3.774.955-.18 0-.497-.12-.795-.358-.238-.18-.357-.438-.397-.756h-.179l-2.681 2.684c1.728 1.57 7.21 8.727 7.905 10.238.179.318.179.537 0 .676-.139.159-.377.159-.695 0-1.37-.676-8.62-6.143-10.19-7.932l-2.681 2.664v.06c.298.02.516.178.735.377.258.298.337.616.337.795.12.617-.159 1.909-.933 3.837-.1.258-.258.318-.378.318-.119 0-.297-.04-.397-.298-.755-1.988-1.092-3.28-.933-3.837.06-.358.317-1.034 1.052-1.153v-.06L52.06 20.88c-1.628 1.789-8.64 7.176-10.17 7.931-.119.06-.258.1-.357.1ZM77.584 17.023a2.484 2.484 0 0 1-1.192.318c-1.39 0-2.165-.934-2.165-2.167 0-1.51 1.251-2.465 2.582-2.465 1.49 0 2.602.994 2.602 2.545 0 2.823-2.74 4.493-4.747 4.93l-.119-.378c1.132-.477 2.443-1.352 3.039-2.783Zm.159-.457a4.74 4.74 0 0 0 .139-1.113c0-1.273-.497-2.247-1.271-2.247-.596 0-.954.636-.954 1.471 0 1.113.596 1.988 1.57 1.988.138.02.357-.02.516-.1ZM82.291 13.803a2.48 2.48 0 0 1 1.153-.299c1.27 0 2.165.935 2.165 2.127 0 1.471-1.232 2.465-2.583 2.465-1.39 0-2.582-.854-2.582-2.584 0-2.763 2.8-4.294 4.886-4.77l.12.377c-1.152.457-2.543 1.332-3.159 2.684Zm-.198.477c-.1.338-.14.715-.14 1.113 0 1.252.497 2.167 1.252 2.167.616 0 .993-.597.993-1.471 0-1.094-.596-1.949-1.51-1.949-.178.02-.397.06-.595.14ZM28.86 17.242l1.093.139v.457h-3.615v-.457l1.212-.14v-3.538h-1.311v-.497l2.582-.576h.04v4.612ZM31.006 19.607l3.654-5.586h-3.515V12.79h4.787v.198l-3.178 5.348-.974 1.67-.774-.398Z"/>
</svg>