<svg xmlns="http://www.w3.org/2000/svg" fill="none" viewBox="0 0 174 49">
  <path fill="#DA8E1B" d="M44.772 11.996c1.334 2.26 2.256 4.647 2.732 7.225.89 4.488.54 8.88-1.048 13.178-.032.095-.096.19-.127.318-.223.064-.255.287-.35.477-.921 1.624-1.97 3.184-3.303 4.52-.509.51-1.112.892-1.684 1.306-.667.445-1.334.923-2.065 1.304a29.611 29.611 0 0 1-5.59 2.324c-1.907.573-3.876.923-5.878.955-.667.032-1.334.064-2 .064-2.447-.064-4.83-.35-7.148-1.083-.254-.063-.445-.222-.636-.413-1.143-1.273-1.842-2.738-2.096-4.425-.032-.223-.096-.445.063-.668h.604c.603-.032.953-.287 1.08-.891.54-2.61 1.08-5.252 1.588-7.862.064-.35.16-.7.223-1.019.444.477.73 1.05 1.08 1.591 1.207 1.847 2.382 3.693 3.59 5.539.253.382.571.605 1.08.573.54-.064 1.111.063 1.651-.096.286.446.604.86.89 1.337.35.541.826.828 1.43.828h6.098c.636 0 .953-.287 1.08-.923.413-1.974.794-3.947 1.207-5.92l.096-.287c.095-.191.317-.255.476-.35 1.462-.732 2.796-1.655 3.907-2.801 1.462-1.496 2.478-3.279 3.05-5.316.286-1.019.508-2.037.54-3.056.19-1.941-.063-3.82-.572-5.697 0-.287-.19-.51.032-.732Z"/>
  <path fill="#C94B1B" d="M30.541 47.072c-1.175.382-2.382.605-3.59.764a23.692 23.692 0 0 1-6.003 0c-2.415-.318-4.765-.954-6.989-2.037-4.542-2.164-8.1-5.41-10.578-9.803-1.43-2.547-2.319-5.22-2.383-8.117-.031-2.197.255-4.33 1.208-6.334.285-.637.635-1.242 1.143-1.751.223 0 .159.16.19.286.096.605.064 1.178.16 1.783.158.987.254 2.005.476 2.992.413 2.037 1.175 3.947 2.065 5.793.572 1.21 1.207 2.387 2.033 3.438.604.796 1.207 1.591 1.906 2.323.222.223.413.478.604.732.412.573.92 1.019 1.46 1.465.509.413 1.017.859 1.525 1.241.954.7 1.906 1.4 2.955 1.942.476.254.953.509 1.461.732.254.095.445.35.635.54.922.797 1.97 1.401 3.082 1.879 1.556.668 3.145 1.018 4.828 1.178.7.063 1.366.063 2.065.063.286.032.572-.032.858.032.159.064.35.127.508.223.222.127.477.286.381.636Z"/>
  <path fill="#CF671C" d="M21.84 45.004a10.232 10.232 0 0 1-2.892-1.72c-.476-.413-1.016-.731-1.588-1.018-.604-.318-1.27-.573-1.81-1.05-.54-.478-1.24-.7-1.748-1.21-.699-.668-1.525-1.21-2.223-1.878-.826-.764-1.494-1.687-2.224-2.514-1.303-1.465-2.35-3.12-3.209-4.902-.54-1.114-1.048-2.228-1.397-3.406-.35-1.146-.7-2.292-.858-3.501-.19-1.274-.35-2.579-.413-3.884 0-.095-.032-.159-.095-.19.667-.892 1.493-1.592 2.446-2.197.381-.255.794-.51 1.239-.637.254-.095.38.064.476.255.16.35.413.637.73.86a.743.743 0 0 1 .223.222c.604.987 1.493 1.72 2.129 2.674.095.127.222.16.349.064.064-.064.159-.096.222.031-.095.955-.35 1.91-.54 2.833-.413 2.006-.826 4.043-1.239 6.048-.158.732-.127.732.604.7.635 0 1.175-.318 1.779-.445.222-.064.445-.127.667-.127-.222 1.209-.476 2.419-.699 3.628-.159.86-.35 1.687-.508 2.547-.095.54.127.795.667.795h3.844c.031 1.751.699 3.215 1.715 4.616.635.86 1.525.955 2.414 1.177.922.223 1.843.35 2.796.51.318.063.667.063.985.095 1.08.032 2.16.16 3.271.096 1.43-.096 2.86-.16 4.289-.478a26.267 26.267 0 0 0 6.13-2.069c.573-.286 1.176-.509 1.716-.827 1.398-.86 2.828-1.72 4.003-2.929.73-.764 1.334-1.623 1.938-2.483.413-.604.794-1.209 1.111-1.846.064-.159.191-.254.35-.222-.636 1.623-1.43 3.183-2.414 4.615a23.832 23.832 0 0 1-2.256 2.833c-.921 1.018-1.874 1.941-2.986 2.77-.222-.096-.476-.065-.699 0-.635.158-1.207.476-1.81.7-.668.254-1.366.509-2.033.7-1.176.35-2.415.636-3.622.859-2.192.414-4.415.255-6.639.287-.89.095-1.525-.192-2.192-.383Z"/>
  <path fill="#F0C813" d="M44.771 11.995c-.063.096 0 .16.032.255.35 1.242.635 2.515.699 3.82.063.796.063 1.56-.032 2.355-.095.096-.19.032-.254-.032-.54-.445-1.08-.86-1.652-1.305-.762-.605-1.493-1.241-2.287-1.782-.413-.287-.762-.637-1.144-.923-.571-.446-1.175-.891-1.715-1.369-.635-.573-1.366-.987-1.938-1.56-.19-.19-.413-.35-.667-.414-.254-.381-.572-.7-.985-.89a163.61 163.61 0 0 0-3.653-2.93c-1.334-1.05-2.636-2.132-4.002-3.15-.89-.7-1.78-1.433-2.669-2.133-.413-.286-.35-.573.127-.764A9.952 9.952 0 0 1 27.363.41c.254-.032.509-.095.794-.063 4.607.795 8.61 2.8 12.04 5.92a23.576 23.576 0 0 1 4.574 5.73Z"/>
  <path fill="#E3A71A" d="M28.158.346c-1.175.254-2.382.382-3.526.86-.127.063-.317.063-.35.254-.031.19.128.286.255.35 1.366.955 2.605 2.1 3.97 3.087 1.049.796 2.066 1.687 3.082 2.515.381.286.794.541 1.144.86.413.35.857.668 1.27 1.018l.636.541c.095.064.158.127.158.255-.698-.096-1.397-.064-2.096-.064h-6.385c-6.798 0-13.596.032-20.426.032-.159 0-.318.032-.445-.032.127-.16.286-.127.445-.127h9.308c.444 0 .476-.032.413-.478-.128-.764-.223-1.56-.128-2.355.128-1.273.604-2.324 1.462-3.279 1.62-1.75 3.685-2.705 5.972-3.215C24.283.25 25.68.091 27.11.25c.159.032.318.032.445-.032.19.064.413.096.603.128Z"/>
  <path fill="#E4A81A" d="M22.599 15.688h11.023c.317 0 .413.032.35.382-.986 4.933-1.97 9.867-2.987 14.833a3.976 3.976 0 0 1-.095.318c-.096 0-.127-.064-.16-.127a4493.38 4493.38 0 0 1-6.067-9.231c-.031-.032-.031-.064-.063-.096a2.427 2.427 0 0 0-.318-.955c-.159-.318-.222-.668-.35-1.018-.476-1.273-.889-2.547-1.365-3.788-.032-.127-.064-.223.032-.318Z"/>
  <path fill="#E3A71A" d="M35.781 11.009c.16-.16.286 0 .381.063.636.51 1.271.987 1.906 1.496.89.732 1.843 1.401 2.7 2.165.763.668 1.589 1.241 2.351 1.91.7.604 1.462 1.146 2.192 1.75.032.032.096.032.127.032-.063 1.337-.381 2.61-.826 3.883a12.046 12.046 0 0 1-2.986 4.711c-1.239 1.21-2.7 2.133-4.256 2.865.254-1.305.508-2.642.794-3.947.508-2.546 1.048-5.093 1.556-7.64.127-.572 0-1.113-.317-1.59-1.176-1.815-2.351-3.63-3.495-5.444-.063-.095-.095-.19-.127-.254Z"/>
  <path fill="#D9881B" d="M27.554.25c-.19.127-.413.064-.635.064-2.001-.064-3.97.223-5.845.923-1.906.7-3.526 1.782-4.701 3.47-.509.731-.7 1.59-.795 2.514-.095.86.064 1.687.191 2.514.064.35-.063.319-.318.319H8.558c-.286-.796-.572-1.56-.54-2.42 0-.413.286-.636.54-.89 1.239-1.401 2.668-2.642 4.193-3.725a.969.969 0 0 0 .254-.254c1.62-.987 3.336-1.624 5.146-2.07A21.462 21.462 0 0 1 22.44.06c.826-.032 1.652-.095 2.51-.032.857.032 1.715.128 2.604.223Z"/>
  <path fill="#D7841B" d="M22.6 15.688c.19.573.381 1.146.604 1.719.35.955.73 1.91 1.048 2.896.095.35.318.637.381.955.032.16.096.35 0 .51-.508-.764-1.016-1.497-1.524-2.26-.35-.51-.795-.764-1.43-.764h-6.067c-.668 0-.985.286-1.112.923a9.757 9.757 0 0 1-.223.923 1.244 1.244 0 0 0-.571-.128c-.382 0-.731.032-1.112 0-.604-.095-1.112.064-1.493.542-.35.286-.35.286-.667-.096-.604-.668-1.049-1.464-1.78-2.037-.158-.732-1.016-.987-1.206-1.687-.032-.127-.191-.223-.382-.223 1.112-.573 2.288-.86 3.495-1.05 1.747-.319 3.526-.223 5.273-.223 2.255-.032 4.51-.032 6.766 0Z"/>
  <path fill="#CA521C" d="M11.1 21.003c.191-.509.604-.668 1.113-.668h1.779c.19 0 .35 0 .317.255-.286 1.368-.54 2.769-.826 4.137-.254 1.178-.508 2.388-.762 3.566-.127.604-.286 1.21-.35 1.846-.222.254-.54.19-.794.286-.698.255-1.397.446-2.128.446-.286 0-.35-.128-.286-.319.127-.668.254-1.305.381-1.973.509-2.42 1.017-4.838 1.493-7.29 0-.127.032-.19.064-.286Z"/>
  <path fill="#D16F1C" d="M26.57 34.882c-.064.159-.191.19-.35.19H24.6c-.413 0-.635-.286-.826-.572-1.239-1.878-2.446-3.788-3.653-5.666-.318-.51-.699-.987-.953-1.528.159-.891.35-1.814.54-2.801a1458.32 1458.32 0 0 1 6.862 10.377Z"/>
  <path fill="#CE651C" d="M21.836 45.003c.54.032 1.048.319 1.588.35 1.684.064 3.4.096 5.083 0 1.08-.063 2.16-.222 3.208-.509.953-.254 1.906-.445 2.827-.764 1.24-.413 2.383-.955 3.622-1.305.222-.063.413-.095.476.191a21.55 21.55 0 0 1-4.923 2.96c-.953.414-1.906.796-2.86 1.083l-.38.095c-.064-.318-.255-.54-.604-.605-.096-.031-.19-.063-.254-.159a2.244 2.244 0 0 0-.921 0c-2.065.032-4.067-.223-6.004-.891-.255-.16-.572-.223-.858-.446Z"/>
  <path fill="#CF651C" d="M13.007 2.67c.031.317-.286.413-.477.54-.572.478-1.239.892-1.779 1.4-.635.574-1.27 1.147-1.81 1.815-.191.223-.382.382-.572.605a.934.934 0 0 0-.255.668c0 .7.255 1.337.413 1.974a.883.883 0 0 1 .032.286c-1.048 0-2.096.032-3.113.032-.508-.064-.603-.286-.35-.732.382-.668.922-1.21 1.462-1.75 1.747-1.847 3.78-3.438 6.067-4.648l.382-.19Z"/>
  <path fill="#CF671C" d="M28.762 46.309c.317-.128.603-.128.92 0h-.92Z"/>
  <path fill="#000" d="M65.648 9.875v6.837l-4.324-6.07c-.318-.447-.922-.799-1.43-.799h-2.735l-.159.959.54.127c.287.064.414.352.414 1.054v8.466h2.384v-6.9l4.483 6.23c.255.35.795.638 1.304.638h1.907V9.875h-2.384ZM78.397 9.875v6.837l-4.324-6.07c-.318-.447-.922-.799-1.43-.799H69.94l-.159.895.54.127c.287.064.414.352.414 1.055v8.465h2.384V13.55l4.42 6.23c.254.35.794.638 1.303.638h1.908V9.875h-2.353ZM87.49 9.683c-.827 0-1.335-.543-1.335-1.341 0-.83.54-1.342 1.335-1.342.795 0 1.335.511 1.335 1.342 0 .83-.54 1.341-1.335 1.341Zm1.176 10.255c0 .256-.222.511-.477.511h-1.367c-.254 0-.477-.223-.477-.511v-8.53a.49.49 0 0 1 .477-.479h1.336a.49.49 0 0 1 .477.48v8.529h.031ZM98.65 19.938c0 .256-.223.511-.477.511h-1.368c-.254 0-.477-.223-.477-.511v-4.952c0-1.533-.54-2.14-1.398-2.14-1.081 0-1.876.895-1.876 2.843v4.249c0 .256-.223.511-.477.511H91.21c-.255 0-.477-.223-.477-.511v-8.53a.49.49 0 0 1 .477-.479h1.144c.255 0 .477.224.54.48l.064.479c.573-.767 1.558-1.182 2.703-1.182 2.194 0 3.052 1.405 3.052 3.929v5.303h-.063ZM105.485 20.002a.62.62 0 0 1-.604.447h-1.685c-.286 0-.541-.16-.604-.447L99.953 11.6c-.127-.351.159-.703.509-.703h1.335c.254 0 .477.192.572.448l1.717 6.133 1.717-6.133a.612.612 0 0 1 .572-.448h1.272c.35 0 .604.352.477.703l-2.639 8.402ZM117.535 15.945c0 .351-.223.543-.541.543h-5.595c.159 1.501.922 2.108 2.193 2.108.732 0 1.272-.223 1.717-.734.223-.256.541-.448.89-.224.255.16 1.336.639.954 1.214-.826 1.15-2.035 1.757-3.656 1.757-2.957 0-4.515-2.14-4.515-4.92 0-2.843 1.558-5.015 4.388-5.015 2.766 0 4.197 2.076 4.197 4.983v.288h-.032Zm-2.448-1.342c-.032-1.054-.509-1.853-1.781-1.853-1.144 0-1.748.64-1.876 1.853h3.657ZM122.24 20.64c-1.208 0-2.511-.383-3.433-1.181-.223-.192-.255-.511-.096-.767l.509-.83c.191-.32.572-.32.858-.128.573.479 1.367.83 2.226.83.763 0 1.399-.287 1.399-.862 0-.352-.255-.575-.7-.767-.445-.191-1.049-.287-1.653-.479-1.24-.351-2.543-.958-2.543-2.78 0-2.108 1.748-3.002 3.688-3.002 1.144 0 2.193.32 3.052.926.222.16.254.511.127.767l-.445.735a.666.666 0 0 1-.922.191 3.729 3.729 0 0 0-1.94-.575c-.667 0-1.144.224-1.144.671 0 .352.254.575.667.767.446.223 1.05.32 1.654.511 1.24.383 2.511 1.022 2.511 2.811-.031 2.14-1.875 3.163-3.815 3.163ZM132.51 12.367c0 .287-.223.511-.477.511h-1.463v4.568c0 .735.159 1.054.827 1.054.159 0 .349 0 .508-.063.287-.064.477.063.509.351.032.383.096.863.127.99a.59.59 0 0 1-.413.64c-.445.159-.922.223-1.367.223-1.971 0-2.512-1.246-2.512-2.843v-4.92h-.954c-.254 0-.477-.224-.477-.511v-.959c0-.255.128-.479.446-.479 1.367 0 1.557-.926 1.748-2.236.032-.287.191-.48.477-.48h.668a.49.49 0 0 1 .477.48v2.236h1.462a.49.49 0 0 1 .477.48v.958h-.063ZM147.071 19.938c0 .256-.223.511-.477.511h-1.367c-.254 0-.477-.223-.477-.511v-4.952c0-1.565-.477-2.14-1.24-2.14-.954 0-1.717.863-1.717 2.716v4.408a.524.524 0 0 1-.508.511h-1.368c-.286 0-.477-.224-.477-.511v-4.984c0-1.565-.476-2.14-1.271-2.14-.986 0-1.717.863-1.717 2.843v4.249a.525.525 0 0 1-.509.511h-1.367c-.254 0-.477-.223-.477-.511v-8.53a.49.49 0 0 1 .477-.479h1.049c.255 0 .509.224.541.48l.032.479c.572-.767 1.526-1.15 2.638-1.15 1.209 0 2.035.479 2.449 1.437.572-.862 1.589-1.437 2.861-1.437 2.098 0 2.925 1.437 2.925 3.929v5.271ZM157.213 15.945c0 .351-.223.543-.54.543h-5.564c.159 1.501.922 2.108 2.193 2.108.732 0 1.272-.223 1.717-.734.223-.256.541-.448.891-.224.254.16 1.335.639.953 1.214-.826 1.15-2.034 1.757-3.656 1.757-2.957 0-4.515-2.14-4.515-4.92 0-2.843 1.558-5.015 4.388-5.015 2.766 0 4.197 2.076 4.197 4.983v.288h-.064Zm-2.416-1.342c-.032-1.054-.509-1.853-1.781-1.853-1.144 0-1.748.64-1.876 1.853h3.657ZM166.846 19.938c0 .256-.222.511-.476.511h-1.368a.524.524 0 0 1-.508-.511v-4.952c0-1.533-.541-2.14-1.399-2.14-1.081 0-1.876.895-1.876 2.843v4.249c0 .256-.223.511-.477.511h-1.367c-.254 0-.477-.223-.477-.511v-8.53a.49.49 0 0 1 .477-.479h1.145c.254 0 .476.224.54.48l.064.479c.572-.767 1.558-1.182 2.702-1.182 2.194 0 3.052 1.405 3.052 3.929v5.303h-.032ZM173.905 12.367c0 .287-.223.511-.477.511h-1.463v4.568c0 .735.159 1.054.827 1.054.159 0 .35 0 .509-.063.286-.064.476.063.508.351.032.383.096.863.127.99a.6.6 0 0 1-.381.64c-.445.159-.922.223-1.367.223-1.971 0-2.512-1.246-2.512-2.843v-4.92h-.954c-.254 0-.477-.224-.477-.511v-.959c0-.255.128-.479.445-.479 1.368 0 1.558-.926 1.749-2.236.032-.287.191-.48.477-.48h.668a.49.49 0 0 1 .477.48v2.236h1.462a.49.49 0 0 1 .477.48v.958h-.095ZM62.691 36.933c-1.05 0-1.844-.32-2.385-.862v3.45a.49.49 0 0 1-.476.479h-1.367a.49.49 0 0 1-.477-.48V27.67a.49.49 0 0 1 .477-.48h1.367a.49.49 0 0 1 .477.48v.415c.54-.767 1.462-1.118 2.416-1.118 2.353 0 3.72 1.79 3.72 4.984 0 3.258-1.654 4.983-3.752 4.983Zm-.572-7.858c-1.336 0-1.78 1.373-1.78 2.651v.447c0 1.214.476 2.652 1.812 2.652 1.208 0 1.844-1.15 1.844-2.875 0-1.79-.668-2.875-1.876-2.875ZM76.14 36.23a.49.49 0 0 1-.477.48h-1.367a.49.49 0 0 1-.477-.48v-.383c-.573.767-1.495 1.118-2.448 1.118-2.353 0-3.72-1.98-3.72-5.08 0-3.386 1.653-4.855 3.751-4.855 1.081 0 2.13.415 2.703 1.15l.095-.48a.605.605 0 0 1 .573-.478h.922a.49.49 0 0 1 .477.479v8.53h-.032Zm-2.353-4.6c0-1.214-.477-2.555-1.812-2.555-1.208 0-1.844 1.054-1.844 2.779 0 1.789.667 2.939 1.876 2.939 1.335 0 1.78-1.438 1.78-2.748v-.415ZM83.611 29.266c0 .256-.254.416-.445.416h-.382c-1.049 0-2.225.447-2.225 2.62v3.928a.49.49 0 0 1-.477.48h-1.367a.49.49 0 0 1-.477-.48V27.67a.49.49 0 0 1 .477-.48h1.144c.255 0 .51.224.541.48l.064.83c.54-.926 1.462-1.469 2.702-1.469.254 0 .477.192.477.447v1.79h-.032ZM90.32 28.66a.47.47 0 0 1-.477.478H88.38v4.569c0 .734.16 1.054.827 1.054.159 0 .35 0 .509-.064.286-.064.476.064.508.351.032.384.096.863.127.99a.59.59 0 0 1-.413.64c-.445.16-.922.223-1.367.223-1.971 0-2.512-1.246-2.512-2.843v-4.92h-.954a.49.49 0 0 1-.477-.479v-.958c0-.256.128-.48.446-.48 1.399 0 1.558-.926 1.748-2.236.032-.287.191-.479.477-.479h.668a.49.49 0 0 1 .477.48v2.236h1.462a.49.49 0 0 1 .477.479v.958h-.063ZM99.826 36.23a.49.49 0 0 1-.477.48h-1.367a.49.49 0 0 1-.477-.48v-4.983c0-1.534-.54-2.14-1.399-2.14-1.081 0-1.876.894-1.876 2.843v4.249a.49.49 0 0 1-.477.479h-1.367a.49.49 0 0 1-.477-.48v-8.53a.49.49 0 0 1 .477-.478h1.145c.254 0 .477.223.54.479l.064.48c.572-.768 1.558-1.183 2.702-1.183 2.194 0 3.052 1.406 3.052 3.93v5.334h-.063ZM110 32.237c0 .352-.223.543-.541.543h-5.595c.159 1.502.922 2.109 2.193 2.109.732 0 1.272-.224 1.717-.735.223-.256.541-.447.89-.224.255.16 1.336.64.954 1.214-.826 1.15-2.035 1.757-3.656 1.757-2.957 0-4.515-2.14-4.515-4.92 0-2.843 1.558-5.015 4.388-5.015 2.766 0 4.197 2.077 4.197 4.984v.287H110Zm-2.448-1.374c-.032-1.054-.509-1.852-1.781-1.852-1.144 0-1.748.639-1.876 1.852h3.657ZM117.058 29.266c0 .256-.254.416-.445.416-.127 0-.255-.032-.382-.032-1.049 0-2.225.447-2.225 2.62v3.928a.49.49 0 0 1-.477.48h-1.367a.49.49 0 0 1-.477-.48v-8.53a.49.49 0 0 1 .477-.478h1.144c.255 0 .509.223.541.479l.063.83c.541-.926 1.463-1.469 2.703-1.469.254 0 .477.192.477.447v1.79h-.032ZM121.541 36.933c-1.208 0-2.512-.383-3.434-1.182-.222-.191-.254-.51-.095-.767l.508-.83c.191-.32.573-.32.859-.128.572.48 1.367.83 2.225.83.763 0 1.399-.287 1.399-.862 0-.351-.254-.575-.699-.767-.445-.191-1.049-.319-1.653-.51-1.24-.352-2.544-.959-2.544-2.78 0-2.108 1.749-3.003 3.688-3.003 1.145 0 2.194.32 3.052.927.223.16.255.51.127.766l-.445.735c-.222.32-.604.383-.922.192-.54-.352-1.271-.607-1.939-.607-.668 0-1.145.223-1.145.67 0 .352.255.576.668.767.445.224 1.049.32 1.653.511 1.24.384 2.512 1.023 2.512 2.812-.032 2.204-1.844 3.226-3.815 3.226Z"/>
</svg>