<svg xmlns="http://www.w3.org/2000/svg" fill="none" viewBox="0 0 151 43">
  <path fill="#DB1D26" d="m26.4 21.3 15.4-20h-2.3L24 21.3h2.4Z"/>
  <path fill="#00008B" d="M.3.3v42.5h42.5V.3H.3Zm41.5 41.5H1.3v-4h1.8c0-.2 1-1.6 1.2-1.7.1-.1 3.6-4.6 3.6-4.6h6l.7 2.4s-1.8 2.3-2.2 2.9l-1.1 1.1H14s.1-.2.3-.7c.2-.4 1-1.4 1-1.4s.4 1.1.4 1.3c0 .2.1.8.1.8h2.9l.3-.6c.2-.4 1.1-1.3 1.1-1.3s.3 1 .3 1.2c0 .2.1.8.1.8h3.7s-.5-.9-.7-1.3c-.1-.2-1.2-3.8-1.2-3.8l1-1.4h6.1s1.4 4.4 1.5 5c.2.6.2 1.3.2 1.3H35c-.6-.4-2-5.5-2.7-7.5l-1.8-6.4c-.1-.2-.2-1.1-.2-1.1h-3c-.2.4-.4.8-.6 1.1-.2.4-4 5.3-4.8 6.4-.1.2-.2.2-.2.2s0-.1-.1-.2c-.1-.5-.4-1.4-.4-1.4s3.2-4.1 3.5-4.5c1-1.2 1.5-1.6 1.5-1.6h-3s0 .5-.3.9c-.1.2-2.6 3.3-2.6 3.3s-.8-2.8-.9-3.3c-.1-.5-.1-1-.1-1h-3.6l.6 1.2 1.8 5.5-1 1.3c0-.1-1.9-6.3-2-6.5-.1-.3-.2-1.5-.2-1.5h-3.1s-.6 1.3-1 1.9c-.2.3-2.1 2.9-4.2 5.6-2.3 3.1-4.9 6.3-4.9 6.3l-.1.1V1.3h40.5v40.5h-.3ZM12.3 26.6c.1.5.9 3 .9 3h-4s2.6-3.1 3-4c0-.1.1 0 .1 0-.1 0-.1.6 0 1Zm5.3 6.2 1.1-1.4s.6 1.9.7 2L18.3 35l-.7-2.2Zm10.3-6.2c.1.5.9 3 .9 3h-4s2.6-3.1 3-4c0-.1.1 0 .1 0-.1 0-.2.6 0 1ZM53.2 4.5h-1.9v15h1.9v-15ZM56.6 8.4h1.6l.2 1.6h.1c1.1-1.1 2.2-1.9 3.7-1.9 2.3 0 3.4 1.5 3.4 4.4v7.1h-1.9v-6.8c0-2.1-.6-3-2.1-3-1.1 0-1.9.6-3 1.7v8.1h-1.9V8.4h-.1ZM66.9 8.4h1.9l2.1 6.3c.3 1.1.7 2.2 1 3.3h.1c.3-1.1.7-2.2 1-3.3l2.1-6.3H77l-3.9 11.1H71L66.9 8.4ZM85.6 13.1c0-2.2-1-3.5-2.8-3.5-1.6 0-3 1.3-3.2 3.5h6Zm-7.8.9c0-3.6 2.5-5.9 5-5.9 2.8 0 4.4 2 4.4 5.2 0 .4 0 .8-.1 1.1h-7.5c.1 2.4 1.6 3.9 3.7 3.9 1.1 0 1.9-.3 2.8-.9l.7 1.2c-1 .6-2.2 1.1-3.7 1.1-3 .2-5.3-2-5.3-5.7ZM88.2 18.3l.9-1.3c1 .8 1.9 1.3 3.3 1.3 1.5 0 2.2-.8 2.2-1.7 0-1.1-1.3-1.7-2.5-2.1-1.6-.6-3.3-1.3-3.3-3.2 0-1.8 1.4-3.2 3.8-3.2 1.4 0 2.6.6 3.5 1.3l-.9 1.2c-.8-.6-1.6-1-2.5-1-1.4 0-2 .8-2 1.6 0 1.1 1.2 1.4 2.5 1.9 1.6.6 3.4 1.3 3.4 3.4 0 1.8-1.4 3.3-4.1 3.3-1.8.1-3.3-.6-4.3-1.5ZM98.3 16.1V10h-1.7V8.6l1.7-.1.2-3.1h1.601v3.1h3V10h-3v6.2c0 1.4.4 2.2 1.7 2.2.4 0 .9-.2 1.3-.3l.4 1.4c-.6.2-1.4.4-2.1.4-2.3 0-3.1-1.6-3.1-3.8ZM105.101 8.4h1.6l.2 1.6h.1c1-1.1 2.1-1.9 3.5-1.9 1.7 0 2.6.8 3.1 2.1 1.2-1.3 2.3-2.1 3.7-2.1 2.3 0 3.4 1.5 3.4 4.4v7.1h-1.9v-6.8c0-2.1-.7-3-2.1-3-.9 0-1.8.6-2.8 1.7v8.1h-1.9v-6.8c0-2.1-.7-3-2.1-3-.8 0-1.8.6-2.8 1.7v8.1h-1.9V8.4h-.1ZM130.101 13.1c0-2.2-1-3.5-2.8-3.5-1.6 0-3 1.3-3.2 3.5h6Zm-7.8.9c0-3.6 2.5-5.9 5-5.9 2.8 0 4.4 2 4.4 5.2 0 .4 0 .8-.1 1.1h-7.5c.1 2.4 1.6 3.9 3.7 3.9 1.1 0 1.9-.3 2.8-.9l.7 1.2c-1 .6-2.2 1.1-3.7 1.1-2.9.2-5.3-2-5.3-5.7ZM133.601 8.4h1.6l.2 1.6h.1c1.1-1.1 2.2-1.9 3.7-1.9 2.3 0 3.4 1.5 3.4 4.4v7.1h-1.9v-6.8c0-2.1-.6-3-2.1-3-1.1 0-1.9.6-3 1.7v8.1h-1.9V8.4h-.1ZM145.801 16.1V10h-1.7V8.6l1.7-.1.2-3.1h1.6v3.1h3V10h-3v6.2c0 1.4.4 2.2 1.7 2.2.4 0 .9-.2 1.3-.3l.4 1.4c-.6.2-1.4.4-2.1.4-2.2 0-3.1-1.6-3.1-3.8ZM51.3 22.7h2.3l2.9 8c.4 1 .7 2.1 1.1 3.1h.1c.4-1 .7-2.1 1-3.1l2.8-8h2.3v15H62v-8.3c0-1.3.2-3.1.3-4.4h-.1L61 28.4l-2.8 7.8h-1.3l-2.8-7.8-1.2-3.4h-.1c.1 1.3.2 3.1.2 4.4v8.3h-1.7v-15ZM72.7 35v-3.1c-3.7.5-5 1.4-5 2.8 0 1.3.9 1.8 2 1.8s2-.5 3-1.5Zm-6.8-.1c0-2.4 2.1-3.6 6.8-4.2 0-1.4-.5-2.8-2.3-2.8-1.3 0-2.5.6-3.3 1.2l-.7-1.3c1-.7 2.6-1.4 4.4-1.4 2.7 0 3.9 1.8 3.9 4.6v6.8h-1.6l-.2-1.3h-.1c-1.1.9-2.3 1.6-3.7 1.6-1.8-.1-3.2-1.3-3.2-3.2ZM77 26.6h1.6l.2 1.6h.1c1.1-1.1 2.2-1.9 3.7-1.9 2.3 0 3.4 1.5 3.4 4.4v7.1h-2V31c0-2.1-.6-3-2.1-3-1.1 0-1.9.6-3 1.7v8.1H77V26.6ZM94.5 35v-3.1c-3.7.5-5 1.4-5 2.8 0 1.3.9 1.8 2 1.8 1 0 1.9-.5 3-1.5Zm-6.8-.1c0-2.4 2.1-3.6 6.8-4.2 0-1.4-.5-2.8-2.3-2.8-1.3 0-2.5.6-3.3 1.2l-.7-1.3c1-.7 2.6-1.4 4.4-1.4 2.7 0 3.9 1.8 3.9 4.6v6.8h-1.6l-.2-1.3h-.1c-1.1.9-2.3 1.6-3.7 1.6-1.8-.1-3.2-1.3-3.2-3.2ZM105.101 30.3c0-1.6-1.1-2.6-2.4-2.6-1.3 0-2.4 1-2.4 2.6s1.1 2.6 2.4 2.6c1.3 0 2.4-1 2.4-2.6Zm1.4 8.9c0-1-.8-1.4-2.2-1.4h-1.9c-.4 0-1 0-1.4-.2-.8.6-1.1 1.2-1.1 1.9 0 1.2 1.2 1.9 3.2 1.9 2 .1 3.4-1 3.4-2.2Zm-8.4.6c0-.9.6-1.8 1.6-2.5v-.1c-.6-.3-1-.9-1-1.8s.6-1.7 1.2-2.1v-.1c-.7-.6-1.4-1.7-1.4-3 0-2.4 1.9-3.9 4.2-3.9.6 0 1.2.1 1.6.3h3.9V28h-2.3c.5.5.9 1.3.9 2.3 0 2.4-1.8 3.9-4.1 3.9-.6 0-1.2-.1-1.7-.4-.4.3-.7.7-.7 1.3 0 .7.5 1.2 2 1.2h2.2c2.6 0 3.9.8 3.9 2.6 0 2.1-2.2 3.8-5.6 3.8-2.8.1-4.7-1-4.7-2.9ZM116.601 31.3c0-2.2-1-3.5-2.8-3.5-1.6 0-3 1.3-3.2 3.5h6Zm-7.8.9c0-3.6 2.5-5.9 5-5.9 2.8 0 4.4 2 4.4 5.2 0 .4 0 .8-.1 1.1h-7.5c.1 2.4 1.6 3.9 3.7 3.9 1.1 0 1.9-.3 2.8-.9l.7 1.2c-1 .6-2.2 1.1-3.7 1.1-2.9.1-5.3-2.1-5.3-5.7ZM120.401 26.6h1.6l.2 2h.1c.8-1.4 1.9-2.3 3.2-2.3.5 0 .8.1 1.2.2l-.4 1.7c-.4-.1-.6-.2-1.1-.2-.9 0-2.1.7-2.8 2.6v7.2h-1.9V26.6h-.1ZM126.501 36.5l.9-1.3c1 .8 1.9 1.3 3.3 1.3 1.5 0 2.2-.8 2.2-1.7 0-1.1-1.3-1.7-2.5-2.1-1.6-.6-3.3-1.3-3.3-3.2 0-1.8 1.4-3.2 3.8-3.2 1.4 0 2.6.6 3.5 1.3l-.9 1.2c-.8-.6-1.6-1-2.5-1-1.4 0-2 .8-2 1.6 0 1.1 1.2 1.4 2.5 1.9 1.6.6 3.4 1.3 3.4 3.4 0 1.8-1.4 3.3-4.1 3.3-1.8 0-3.3-.6-4.3-1.5Z"/>
</svg>