<svg viewBox="0 0 175 31" fill="none"
  xmlns="http://www.w3.org/2000/svg">
  <path d="M32.3307 27.3869L30.5465 29.1935L28.7622 27.3869L27.9058 24.641L25.1937 23.7016V21.8951H23.4095L22.4816 26.4476L23.4095 29.1935L19.27 31L17.9853 29.1935L18.9131 27.3869V25.5804H16.2011L12.5612 29.1935L9.92047 28.2541V24.641L5.42414 23.9184L1.99837 25.6527L0 24.641V20.9557L1.78426 20.0886L8.99266 16.4033L9.92047 17.3427L12.5612 14.5967V12.7902L16.2011 9.1049L17.9853 5.49184L20.6974 0.939394L25.1937 0H26.978V1.80653L30.5465 5.49184V9.1049L35.9706 14.5967L41.3948 18.2821L44.0355 19.1492L44.9633 21.8951L48.5318 23.7016L46.7476 25.5804H44.9633V23.7016L42.2512 22.8345L37.7549 18.2821L34.1864 16.4033L30.5465 10.9837L28.7622 9.1049L29.69 6.43123L26.978 3.68531L25.1937 5.49184V9.1049L23.4095 10.9837L26.978 14.5967L25.1937 16.4033L28.7622 20.0886V21.8951L30.5465 25.5804H32.3307L34.1864 23.7016L33.2586 22.8345L32.3307 20.0886H34.1864L35.9706 23.7016L37.7549 25.5804L32.3307 27.3869Z" fill="#000AD2"/>
  <path d="M127.896 21.8228C129.68 21.8228 130.75 21.1002 130.75 20.2331C130.75 18.9324 128.823 18.7156 127.896 18.5711C124.327 17.9207 120.116 17.1981 120.116 12.5734C120.116 9.10489 123.685 6.8648 127.681 6.8648C130.037 7.00932 132.392 7.73193 134.39 9.03263L132.035 12.2844C130.679 11.5618 129.252 11.1282 127.681 10.9837C125.612 10.9837 124.827 11.5618 124.827 12.2844C124.827 13.5851 127.467 13.8019 128.823 14.1632C132.178 14.958 135.461 15.8974 135.461 20.0163C135.461 23.8462 131.535 26.014 127.61 26.014C124.898 25.9417 122.257 25.0023 119.973 23.4848L122.329 20.2331C124.042 21.1725 125.969 21.7506 127.896 21.8228Z" fill="#000AD2"/>
  <path d="M55.7402 25.5804V2.45688L60.522 0V25.5804H55.7402Z" fill="#000AD2"/>
  <path d="M80.363 25.5804H75.5812V15.6084C75.5812 12.2844 74.5106 11.345 72.5122 11.345C70.5139 11.345 69.3719 12.3566 69.3719 15.5361V25.5804H64.5901V7.15385H69.3719V8.38229C70.5139 7.29837 72.084 6.72028 73.6542 6.79254C78.2932 6.79254 80.363 10.0443 80.363 15.1748V25.5804Z" fill="#000AD2"/>
  <path d="M99.9184 7.15385L93.3524 25.5082H88.4992L81.9331 7.15385H87.2145L89.8552 15.6807C90.2834 17.0536 90.783 18.8601 90.9971 19.7273C91.2113 18.7879 91.7109 17.1259 92.1391 15.6807L94.7798 7.15385H99.9184Z" fill="#000AD2"/>
  <path d="M109.768 25.9417C104.486 25.9417 100.704 22.1841 100.704 16.4033C100.704 10.7669 104.558 6.79254 109.339 6.79254C114.407 6.79254 117.618 11.1282 117.618 16.4033C117.618 16.9091 117.618 17.4149 117.547 17.9207H105.628C105.914 20.0163 107.769 21.5338 109.839 21.3893C111.124 21.3893 112.408 20.8112 113.193 19.7273L116.833 22.4732C115.12 24.641 112.551 25.9417 109.768 25.9417ZM112.836 14.3077C112.694 12.3566 111.052 10.9114 109.197 10.9837C107.412 11.0559 105.914 12.4289 105.699 14.3077H112.836Z" fill="#000AD2"/>
  <path d="M146.951 11.4172C144.239 11.5618 142.241 13.8741 142.384 16.62C142.527 19.1492 144.525 21.1725 146.951 21.2448C148.522 21.2448 150.02 20.4499 150.805 19.0769L154.659 21.8951C151.662 26.2308 145.738 27.2424 141.456 24.1352C137.174 21.1002 136.175 15.1026 139.243 10.7669C142.312 6.43123 148.165 5.41958 152.447 8.52681C153.303 9.17716 154.088 9.89977 154.659 10.7669L150.805 13.5851C150.02 12.2844 148.593 11.4172 146.951 11.4172Z" fill="#000AD2"/>
  <path d="M175 16.4033C175 21.6783 170.718 25.9417 165.508 25.9417C160.298 25.9417 156.087 21.6061 156.087 16.331C156.087 11.0559 160.298 6.79254 165.579 6.79254C170.789 6.79254 175 11.0559 175 16.4033C175 16.331 175 16.331 175 16.4033ZM170.147 16.4033C170.004 13.8019 167.863 11.8508 165.294 11.9231C162.724 12.0676 160.797 14.2354 160.869 16.8368C161.011 19.366 163.01 21.317 165.508 21.317C168.077 21.317 170.147 19.1492 170.147 16.5478C170.147 16.4755 170.147 16.4033 170.147 16.4033Z" fill="#000AD2"/>
</svg>
