<svg xmlns="http://www.w3.org/2000/svg" fill="none" viewBox="0 0 104 37">
  <path fill="#868686" fill-rule="evenodd" d="M103.952 26.9c-.385 1.197-.818 2.346-1.733 3.255a8.976 8.976 0 0 1-3.898 2.298c-2.791.813-5.63.861-8.422 0-2.695-.814-4.187-2.68-4.572-5.457-.096-.526-.096-1.005-.144-1.532-.048-.335.144-.526.53-.526h4.379c.385 0 .529.191.529.574 0 .287 0 .575.048.862.289 1.627 1.203 2.489 2.888 2.728 1.3.192 2.599.048 3.705-.67.963-.622 1.348-1.77 1.06-2.872-.145-.479-.482-.766-.915-1.005-.674-.383-1.396-.526-2.118-.718-2.021-.479-4.042-1.005-5.92-1.962a9.546 9.546 0 0 1-1.636-1.053c-1.78-1.484-2.117-3.447-1.684-5.553.53-2.633 2.214-4.308 4.716-5.121 2.936-.958 5.872-1.006 8.76.239 2.454 1.1 3.705 3.015 3.849 5.744 0 .526-.144.718-.673.718h-3.754c-.433 0-.626-.144-.722-.623-.578-2.632-3.369-3.733-5.63-2.201-.915.622-1.204 1.483-1.108 2.536.097.91.722 1.389 1.492 1.724 1.251.526 2.647.718 3.947 1.1.77.192 1.54.383 2.261.67 2.262.767 4.091 1.963 4.765 4.404V26.9ZM34.41 0v4.834c0 .335-.096.623-.337.862-3.176 3.733-6.304 7.467-9.433 11.2-3.705 4.404-7.46 8.856-11.165 13.26-.673.765-1.347 1.579-2.021 2.345-.24-.096-.193-.287-.193-.479v-4.26c0-.383.145-.67.386-1.005 4.186-4.883 8.325-9.813 12.464-14.743C27.48 7.994 30.897 3.973 34.266 0h.144ZM0 31.591C4.909 25.8 9.77 20.008 14.678 14.168c2.6-3.111 5.198-6.174 7.845-9.286.096-.143.24-.383.433-.335.24.048.144.335.144.527v4.068c0 .383-.096.67-.337.958l-8.229 9.764A2140.91 2140.91 0 0 0 4.62 31.64L.722 36.234l-.578.718c-.24-.048-.096-.24-.096-.335C0 34.942 0 33.267 0 31.591ZM76.28 24.89c.336-1.627.721-3.255 1.058-4.882.674-3.207 1.396-6.414 2.07-9.621.096-.431.288-.575.722-.575h3.946c.481 0 .53.192.433.575a2831.97 2831.97 0 0 0-5.39 21.587c-.096.43-.337.622-.77.574H73.92c-.529 0-.722-.191-.866-.718-1.107-4.738-2.214-9.525-3.32-14.263-.049-.24-.049-.479-.241-.718-.145.143-.145.335-.193.526a1567.001 1567.001 0 0 0-3.657 14.36c-.145.622-.434.813-1.011.766a58.365 58.365 0 0 0-4.09 0c-.482 0-.722-.192-.819-.67a2806.4 2806.4 0 0 0-5.15-21.492c-.096-.479.049-.622.482-.622 1.348 0 2.743.048 4.09 0 .578 0 .819.191.915.765.914 4.548 1.877 9.095 2.791 13.594.049.24.097.431.145.718.24-.191.24-.383.288-.574 1.107-4.547 2.262-9.094 3.37-13.642.192-.861.192-.861 1.058-.861h4.139c.53 0 .722.191.866.67 1.059 4.595 2.166 9.142 3.273 13.737.048.192.096.383.144.622.048.144.096.144.144.144ZM34.266 21.252V10.674c0-.814 0-.814.77-.814 2.502 0 5.005-.048 7.507 0 2.407.048 4.717.479 6.738 1.82 2.358 1.579 3.513 3.972 3.946 6.652.433 2.872.289 5.697-.914 8.377-1.588 3.542-4.428 5.457-8.326 5.744-2.984.191-6.016.095-9 .095-.721 0-.77-.047-.77-.813.049-3.447.049-6.94.049-10.483Zm5.582-.095v6.557c0 .527.193.718.722.67.674-.048 1.396 0 2.07 0 2.117-.096 3.705-1.053 4.475-3.015 1.01-2.441 1.107-4.978.385-7.515-.625-2.202-2.117-3.542-4.524-3.734-.818-.048-1.636 0-2.406-.048-.53-.047-.722.144-.722.718v6.367Z" clip-rule="evenodd"/>
</svg>