<svg xmlns="http://www.w3.org/2000/svg" fill="none" viewBox="0 0 123 70">
  <path fill="#000" d="M3.747 65.736H5.71l-.982-3.58-.982 3.58Zm3.13 4.082-.549-1.961H3.176l-.549 1.96H0l3.13-10.214h3.198l.023.068 3.13 10.147H6.876ZM65.498 61.769v.866c0 .867-.571 1.574-1.302 1.824.754.251 1.302.958 1.302 1.824v.98c0 1.437-.845 2.532-2.879 2.532H57.8V59.58h5.14c1.622.023 2.559.866 2.559 2.189Zm-5.414 1.96H62.3c.616 0 .936-.387.936-.911v-.593c0-.684-.548-.821-1.256-.821h-1.896v2.326Zm3.152 2.85c0-.524-.32-.911-.936-.911h-2.216v2.325h1.896c.708 0 1.256-.136 1.256-.82v-.593ZM86.196 0h-49.37v49.274h49.37V0Z"/>
  <path fill="#fff" d="M49.163 24.033H73.86v1.23H49.163v-1.23Zm9.299-3.717h-3.77l4.5-14.661h4.593l.045.09 4.478 14.571h-3.77l-.776-2.805h-4.547l-.753 2.805Zm1.599-5.814h2.81l-1.394-5.13-1.416 5.13Zm14.986-8.847v3.078H77.4v31.785h-2.353v3.078h5.438V5.655h-5.438Zm-32.532 0v37.941h5.438v-3.078H45.6V8.756h2.353V5.655h-5.438ZM67.143 32.08v1.255c0 1.254-.8 2.234-1.874 2.599a2.727 2.727 0 0 1 1.874 2.622v1.414c0 2.052-1.211 3.625-4.135 3.625h-6.9V28.958h7.402c2.308 0 3.633 1.208 3.633 3.123Zm-7.745 2.805h3.176c.868 0 1.348-.547 1.348-1.3v-.843c0-.98-.777-1.186-1.805-1.186h-2.719v3.329Zm4.524 4.104c0-.752-.457-1.3-1.348-1.3h-3.176v3.33h2.719c1.028 0 1.805-.206 1.805-1.186v-.844Z"/>
  <path fill="#000" d="M66.663 61.906h5.734v1.8h-3.472v1.186h3.198v1.802h-3.198v1.322h3.472v1.802h-5.734v-7.912ZM77.24 67.697h-1.302v2.12h-2.261v-7.911h3.77c2.215 0 2.9.843 2.9 2.348v1.072c0 .912-.25 1.413-.936 1.892l1.736 2.577h-2.513l-1.394-2.098Zm.16-3.99h-1.462v2.212H77.4c.572 0 .777-.228.777-.684v-.89c0-.41-.205-.638-.777-.638ZM83.889 64.984v4.834h-2.125v-7.912h2.673l2.627 4.833v-4.834h2.125v7.913h-2.673l-2.627-4.834ZM90.24 69.407l.365-1.664c.685.205 1.69.387 2.536.387.845 0 1.005-.16 1.005-.615 0-.502-.091-.616-1.53-.844-2.08-.342-2.285-1.14-2.285-2.577 0-1.732 1.05-2.302 3.13-2.302.754 0 1.942.114 2.718.342l-.25 1.778a12.33 12.33 0 0 0-2.445-.274c-.731 0-.891.114-.891.548 0 .524.068.615 1.439.843 2.216.388 2.376.912 2.376 2.395 0 1.71-.617 2.576-3.29 2.576-.936-.046-2.01-.228-2.878-.593ZM101.594 69.818h-2.262v-5.974h-2.307v-1.938h6.853v1.938h-2.284v5.974ZM104.815 61.906h5.711v1.8h-3.472v1.186h3.198v1.802h-3.198v1.322h3.472v1.802h-5.711v-7.912ZM114.159 61.906h-2.262v7.912h2.262v-7.912ZM117.7 64.984v4.834h-2.148v-7.912h2.696l2.627 4.833v-4.834H123v7.913h-2.673l-2.627-4.834ZM10.326 61.906h2.262v5.95H15.9v1.962h-5.574v-7.912ZM16.791 61.906h2.262v5.95h3.313v1.962H16.79v-7.912ZM25.61 61.906h-2.262v7.912h2.262v-7.912ZM31.618 68.632H28.9l-.343 1.186H26.34l2.513-7.912h2.764l2.536 7.912h-2.216l-.32-1.186Zm-2.216-1.756h1.713l-.868-3.146-.845 3.146ZM36.964 64.984v4.834h-2.125v-7.912h2.673l2.65 4.833v-4.834h2.125v7.913h-2.673l-2.65-4.834ZM43.59 67.4v-3.078c0-1.687 1.027-2.576 3.312-2.576.868 0 1.759.114 2.604.273l-.228 1.848a14.544 14.544 0 0 0-2.376-.206c-.754 0-1.051.274-1.051.89v2.576c0 .616.297.89 1.05.89.8 0 1.531-.07 2.377-.206l.228 1.847c-.845.182-1.736.274-2.604.274-2.285.022-3.313-.844-3.313-2.531ZM50.763 61.906h5.711v1.8h-3.472v1.186H56.2v1.802H53v1.322h3.473v1.802h-5.711v-7.912Z"/>
</svg>