<svg viewBox="0 0 184 41" fill="none"
  xmlns="http://www.w3.org/2000/svg">
  <path fill="#0051A5" d="M30.142 35.97c0 1.365-.535 2.146-1.592 2.558C24.485 40.162 19.65 41 15.064 41c-4.586 0-9.406-.838-13.485-2.472C.536 38.116 0 37.335 0 35.971V0h30.142v35.97Z"/>
  <path fill="#FEDF01" d="M14.117 28.797h-.233c-.962-2.188-2.912-3.41-5.122-4.717v1.762h-.234c-.645-1.549-1.758-3.026-3.392-4.305-1.524-1.18-2.142-1.762-2.733-2.7a4.415 4.415 0 0 1-.7-2.414c0-.625.206-1.307.522-1.819l.384.27a4.763 4.763 0 0 0-.206 1.392c.124 1.762 1.497 2.955 5.672 5.655 4.436 2.855 5.671 4.602 6.042 6.876ZM27.299 28.797h-.275c0-1.62-1.428-2.06-2.925-2.06h-4.67c.138.795.22 1.733.097 2.614h-.233c-.426-3.623-2.404-5.413-5.178-7.345v1.648h-.233c-.728-1.69-2.348-3.296-3.873-4.418-.412-.299-.824-.611-1.25-.924v1.776h-.233c-.645-1.762-1.826-3.083-3.501-4.646-1.813-1.69-2.54-2.699-2.967-3.864-.26-.696-.33-1.264-.343-2.031-.014-1.392.66-2.643 1.51-3.097v.667C2.8 7.686 2.58 8.41 2.58 9.15c0 .668.165 1.42.48 2.074 1.03 2.003 4.464 4.475 6.647 5.995 6.784 4.703 8.144 5.527 9.27 8.027.123.284.247.653.357 1.08.988-.157 4.545-.71 5.19-.824.124-.015.399-.043.522-.057.618-.398 1.099-.91 1.525-1.549l-2.61-.213c-.137.313-.26.569-.384.782h-.206c.069-.27.124-.54.178-.81l-.659-.057v-.142l.714-.085a13.91 13.91 0 0 0 .22-2.16l-3.282-.199c-.014.356-.014.682 0 .98h-.22a13.656 13.656 0 0 1-.164-.994l-.715-.042v-.228l.687-.042a15.18 15.18 0 0 1-.069-2.458l-1.922-.085c.096.17.192.355.247.54.426 1.193.316 2.6.179 3.239h-.234c-.027-.74-.274-1.648-.494-2.217-.536-1.292-1.73-2.429-3.722-3.75v1.648h-.233c-.66-2.174-2.307-3.381-4.765-4.688-2.019-1.066-2.65-2.373-2.54-4.376l.686.426c.178 1.876 1.565 2.955 3.021 2.941.865 0 1.662-.128 2.444-.284 1.127-.227 2.156-.426 3.021-.114V10.4h-.672c-.248.213-.742.469-1.47.483-.796.014-2.307-.469-2.307-2.216 0-1.506 1.236-1.747 2.252-1.747.536 0 1.442-.029 1.744-.043.22-.014.399-.057.509-.17a.662.662 0 0 0 .178-.384c.027-.185.027-.384.027-.71V4.503h-4.682v1.918l-1.772-.696v-.454h.852v-.768H7.235v-1.59h-1.07c-.577 0-1.237.411-1.292 1.221-.04.781.303 1.435 1.072 1.435h.137v.923h-.137c-1.36 0-2.376-1.05-2.376-2.443 0-1.45 1.195-2.557 2.65-2.557H8.5v1.59h8.885v2.36c0 .397-.028.923-.055 1.263-.028.242-.11.682-.563 1.038-.275.213-.673.298-1.346.312-.206 0-.838-.014-1.593-.07-1.016-.058-1.305.34-1.346.724a.634.634 0 0 0 0 .227c.48-.384 1.14-.654 1.909-.398 1.346.426 1.717.469 2.417-.1l.069.171a1.837 1.837 0 0 1-.399.44h.646v3.637l2.018-1.25H24.8s2.39 1.293 2.788 1.506c.343.185.48.412.535.753.042.27-.027.625-.164.852-.083.143-.728 1.25-1.071 1.833a6.431 6.431 0 0 1 1.606 4.262c0 1.52-.535 3.48-2.307 4.944.783.256 1.277.696 1.662 1.279l-.55 1.932ZM14.692 9.248c-.796-.184-1.25-.085-1.703.37.22.113.508.17.81.142.454-.029.728-.298.893-.512Zm-.467 5.229 2.239-1.393c-.44-.227-.92-.37-1.497-.37-.77-.013-2.074.356-2.706.455.275.2 1.278.853 1.964 1.307Zm9.997.141.316-.44-.48-.668.082-.142 1.346.753-.289.924c.22.1.412.241.687.426l.865-1.492-2.252-1.221H19.5l-4.065 2.528c.769.554 1.47 1.137 1.963 1.733 1.085-1.633 2.994-2.67 4.89-2.67.617 0 1.331.056 1.935.27Zm-.398 5.868a12.94 12.94 0 0 0-.247-2.088l-2.65-.128a18.049 18.049 0 0 0-.357 2.386l3.254-.17Zm.893-2.032c.082.71.096 1.378.055 1.99l2.623-.143a5.479 5.479 0 0 0-.495-1.733l-2.183-.114Zm-1.346-.895c-.26-.98-.59-1.662-.769-1.974-.11-.015-.22-.015-.33-.015-.178 0-.37.029-.549.043-.26.682-.48 1.378-.659 2.074l2.307-.128Zm.728-1.634c.192.54.343 1.066.453 1.577l1.607-.099a5.166 5.166 0 0 0-2.06-1.477Zm2.952 6.99c.193-.469.316-.923.344-1.492l-2.733-.156a9.735 9.735 0 0 1-.536 2.032l2.925-.384Zm-6.729-6.89c-.906.426-1.538.994-2.1 1.833l1.867-.114c.069-.852.178-1.42.233-1.719Z"/>
  <path fill="#fff" d="M18.911 34.948c0 1.648-1.318 2.373-3.145 2.373h-3.323v-6.209c-.014-.54-.096-.952-.37-1.236a1.229 1.229 0 0 0-.44-.27v-.056h4.01c2.375 0 2.719.909 2.719 1.747 0 .923-.728 1.534-1.497 1.662 1.044.071 2.046.64 2.046 1.989Zm-4.738-4.66v2.401h.756c.878 0 1.661-.27 1.661-1.278 0-.938-.577-1.123-1.428-1.123h-.989Zm2.967 4.646c0-1.094-.536-1.52-1.937-1.52h-1.03v3.168h1.071c1.195 0 1.896-.469 1.896-1.648ZM6.233 33.868h-.646v3.453h-1.73v-6.067c0-.61-.082-1.065-.384-1.364a1.258 1.258 0 0 0-.426-.284v-.056h4.175c2.018 0 2.787.696 2.787 2.045 0 1.137-.824 1.762-1.936 2.06l2.76 3.666H8.677l-2.444-3.453Zm-.632-.71h.92c1.058 0 1.73-.568 1.73-1.52 0-1.066-.508-1.364-1.483-1.364H5.601v2.884ZM24.555 30.274c-1.346 0-2.348.781-2.32 3.168.027 2.572 1.675 3.097 2.787 3.097 1.36 0 1.991-.61 1.991-.61v.923s-.7.582-2.485.582c-1.923 0-4.106-.81-4.106-3.95 0-2.784 1.826-4.062 4.27-4.062 1.621 0 2.294.511 2.294.511l-.385 1.321s-.04.014-.068-.014c0 0-.138-.355-.604-.625-.261-.156-.632-.341-1.374-.341Z"/>
  <path fill="#0051A5" d="M34.043 40.375c-1.03 0-1.867-.852-1.867-1.946 0-1.08.837-1.947 1.867-1.947s1.882.867 1.882 1.947c0 1.094-.852 1.946-1.882 1.946Zm0-3.509c-.796 0-1.441.696-1.441 1.563 0 .866.645 1.562 1.441 1.562.81 0 1.456-.696 1.456-1.562 0-.867-.645-1.563-1.456-1.563Zm.138.455c.37 0 .618.255.618.639 0 .327-.22.597-.467.597a.527.527 0 0 1 .082.099c.124.156.508.852.508.852h-.508l-.192-.369c-.206-.384-.275-.497-.357-.526-.014-.014-.028-.014-.055-.014v.91h-.426V37.32h.797Zm-.371.937h.151c.178 0 .26-.014.316-.07.055-.043.082-.129.082-.214 0-.142-.055-.227-.15-.27a.869.869 0 0 0-.234-.028h-.165v.582ZM51.056 10.47c-.714.327-1.675.611-2.458.611-2.403 0-3.996-1.492-3.996-4.091 0-2.686 1.758-4.092 3.914-4.092 1.071 0 1.977.384 2.293.54l-.508 1.193a2.223 2.223 0 0 0-1.785-.937c-1.003 0-2.32.767-2.32 3.296 0 1.974 1.056 3.295 2.54 3.295.288 0 .576-.056.851-.198V7.302h1.47v3.168ZM54.27 10.882h-1.387V2.117h1.387v8.765ZM58.568 11.095c-1.58 0-2.843-1.278-2.843-3.111 0-1.804 1.264-3.097 2.843-3.097 1.566 0 2.843 1.293 2.843 3.097 0 1.833-1.278 3.111-2.843 3.111Zm0-5.37c-.796 0-1.4.867-1.4 2.259 0 1.378.59 2.259 1.4 2.259.81 0 1.387-.881 1.387-2.259 0-1.392-.577-2.259-1.387-2.259ZM64.13 5.114c.33-.142.727-.241 1.153-.241 1.785 0 2.76 1.506 2.76 3.068 0 .696-.11 1.307-.384 1.805-.426.81-1.277 1.35-2.348 1.35a2.99 2.99 0 0 1-1.14-.242c-.206-.071-.385-.142-.536-.142-.192 0-.357.056-.576.17h-.316V2.117h1.387v2.997Zm0 4.802c.206.114.535.298.96.298 1.017 0 1.511-1.05 1.511-2.187 0-1.421-.576-2.273-1.469-2.273-.316 0-.687.085-1.002.227v3.935ZM74.456 10.882h-.316c-.206-.114-.356-.17-.549-.17-.15 0-.33.07-.522.142-.288.113-.659.241-1.126.241-1.057 0-1.881-.54-2.32-1.35-.261-.497-.371-1.108-.371-1.718 0-1.222.467-2.032 1.167-2.6.494-.384 1.14-.568 1.73-.568.508 0 1.044.142 1.36.255l.947-.213v5.981ZM72.19 5.754c-.769 0-1.496.696-1.496 2.202 0 .895.206 1.562.631 1.932.193.184.453.326.77.326.384 0 .796-.213.974-.369V6.009a1.638 1.638 0 0 0-.879-.255ZM77.464 10.882H76.09V2.117h1.373v8.765ZM85.401 3.111l2.719 7.771h-1.58l-.755-2.43h-2.622l-.742 2.43h-1.318l2.266-6.25c.316-.882.37-1.322-.248-1.436v-.085h2.28Zm-.92 1.18-1.044 3.338h2.088L84.48 4.29ZM92.734 6.62c-.426-.469-.989-.895-1.51-.895-.508 0-.866.27-.866.654 0 .483.618.653 1.25.923.879.355 1.923.81 1.923 1.904 0 1.193-1.127 1.89-2.294 1.89-.796 0-1.744-.342-2.362-.74l.577-1.05c.467.454 1.181.937 1.785.937.55 0 .934-.256.934-.654 0-.483-.673-.71-1.318-1.008-.838-.384-1.854-.824-1.854-1.89 0-1.136 1.14-1.804 2.28-1.804.81 0 1.538.34 2.046.61l-.59 1.123ZM98.323 6.62c-.44-.469-1.002-.895-1.524-.895-.495 0-.852.27-.852.654 0 .483.605.653 1.236.923.88.355 1.923.81 1.923 1.904 0 1.193-1.126 1.89-2.293 1.89-.797 0-1.744-.342-2.349-.74l.563-1.05c.467.454 1.181.937 1.786.937.563 0 .933-.256.933-.654 0-.483-.672-.71-1.318-1.008-.837-.384-1.854-.824-1.854-1.89 0-1.136 1.14-1.804 2.28-1.804.824 0 1.538.34 2.046.61l-.577 1.123ZM103.02 11.095c-1.689 0-2.898-1.335-2.898-3.097 0-1.79 1.236-3.111 2.87-3.111 1.346 0 2.541.867 2.541 2.543 0 .114-.014.37-.042.582l-3.913.071c.11 1.236.796 2.103 1.703 2.103.521 0 1.071-.199 1.702-.597l.399.71c-.866.612-1.621.796-2.362.796Zm1.002-3.92c.014-.953-.453-1.45-1.002-1.45-.673 0-1.25.597-1.374 1.563l2.376-.114ZM109.996 10.357c-.536.355-1.305.667-1.978.667-.371 0-.714-.113-.947-.398-.206-.241-.316-.625-.316-1.136V3.338l1.373-.355V5.03h1.538v.867h-1.538v3.48c0 .44.206.597.494.597.358 0 .879-.213 1.113-.327l.261.71ZM122.259 10.882h-1.456l-.687-6.492-1.675 6.492h-1.195l-1.675-6.492-.687 6.492h-1.455l.824-6.208c.041-.512 0-.924-.206-1.18a.712.712 0 0 0-.481-.283v-.1h2.692l1.496 5.711c.042.156.083.341.097.455.013-.114.041-.284.082-.44l1.497-5.726h1.909l.92 7.771ZM128.589 10.882h-.316c-.206-.114-.357-.17-.549-.17-.151 0-.329.07-.522.142-.302.113-.673.241-1.126.241-1.057 0-1.881-.54-2.32-1.35-.261-.497-.371-1.108-.371-1.718 0-1.222.467-2.032 1.167-2.6.494-.384 1.14-.568 1.73-.568.508 0 1.044.142 1.36.255l.947-.213v5.981Zm-2.266-5.128c-.769 0-1.496.696-1.496 2.202 0 .895.206 1.562.631 1.932.193.184.454.326.769.326.385 0 .797-.213.975-.369V6.009a1.637 1.637 0 0 0-.879-.255ZM133.753 10.882V7.6c0-.568-.055-1.008-.22-1.264-.206-.34-.549-.483-.934-.483-.398 0-.755.142-1.002.27v4.76h-1.374V5.028h.316c.261.128.399.17.536.17.206 0 .371-.042.577-.113.288-.1.631-.242 1.167-.242.865 0 1.552.384 1.95 1.023.275.426.371.995.371 1.634v3.381h-1.387ZM141.621 10.882h-.315c-.206-.114-.358-.17-.55-.17-.151 0-.329.07-.522.142-.302.113-.672.241-1.126.241-1.057 0-1.881-.54-2.32-1.35-.261-.497-.371-1.108-.371-1.718 0-1.222.467-2.032 1.167-2.6.494-.384 1.126-.568 1.73-.568.508 0 1.044.142 1.346.255l.961-.213v5.981Zm-2.265-5.128c-.769 0-1.497.696-1.497 2.202 0 .895.206 1.562.631 1.932.193.184.454.326.769.326.385 0 .797-.213.975-.369V6.009a1.636 1.636 0 0 0-.878-.255ZM147.554 5.81c.233.285.453.697.453 1.35 0 1.264-1.016 2.273-2.444 2.273-.261 0-.55-.057-.811-.114-.206.17-.316.327-.316.483 0 .142.083.228.248.285.219.07.837.099 1.249.113 1.374.057 2.692.37 2.692 1.876 0 .482-.206.994-.632 1.392-.59.554-1.455.81-2.307.81-1.991 0-2.829-.71-2.829-1.62 0-.582.55-1.08 1.085-1.264h.357c-.261.44-.329.767-.329 1.037 0 .61.549 1.023 1.62 1.023.81 0 1.717-.37 1.717-1.109 0-.681-.879-.795-1.717-.852-.316-.028-1.016-.028-1.565-.27-.44-.156-.783-.483-.783-.98 0-.44.247-.867.796-1.307-.577-.455-.906-1.051-.906-1.79 0-1.265 1.016-2.273 2.431-2.273.535 0 .947.128 1.167.27.604-.142 1.291-.512 1.524-.739l.481.98c-.247.17-.852.355-1.181.426Zm-1.991-.113c-.673 0-1.044.625-1.044 1.449 0 .838.371 1.463 1.044 1.463.686 0 1.071-.625 1.071-1.463 0-.824-.385-1.45-1.071-1.45ZM152.14 11.095c-1.689 0-2.883-1.335-2.883-3.097 0-1.79 1.222-3.111 2.856-3.111 1.346 0 2.54.867 2.54 2.543 0 .114-.013.37-.027.582l-3.928.071c.11 1.236.797 2.103 1.717 2.103.522 0 1.057-.199 1.689-.597l.398.71c-.865.612-1.606.796-2.362.796Zm1.017-3.92c0-.953-.467-1.45-1.017-1.45-.673 0-1.249.597-1.359 1.563l2.376-.114ZM162.495 10.882V7.458c0-.468-.055-.824-.165-1.065a1.003 1.003 0 0 0-.852-.512 1.64 1.64 0 0 0-.933.313c.082.284.096.64.096 1.108v3.58h-1.374V7.061c0-.27-.013-.526-.109-.74-.138-.283-.412-.468-.783-.468-.412 0-.728.185-.975.327v4.702h-1.387V5.03h.178c.261.128.412.17.605.17.467 0 .906-.34 1.73-.34.81 0 1.236.298 1.483.525.59-.37 1.112-.525 1.717-.525.714 0 1.428.298 1.826.994.233.412.33.966.33 1.605v3.424h-1.387ZM168.029 11.095c-1.689 0-2.898-1.335-2.898-3.097 0-1.79 1.236-3.111 2.87-3.111 1.346 0 2.541.867 2.541 2.543 0 .114-.014.37-.028.582l-3.927.071c.11 1.236.796 2.103 1.716 2.103.522 0 1.058-.199 1.689-.597l.399.71c-.865.612-1.621.796-2.362.796Zm1.002-3.92c.014-.953-.453-1.45-1.002-1.45-.673 0-1.25.597-1.374 1.563l2.376-.114ZM175.444 10.882V7.6c0-.568-.068-1.008-.233-1.264-.206-.34-.536-.483-.934-.483s-.755.142-.989.27v4.76h-1.387V5.028h.316c.261.128.398.17.549.17.193 0 .371-.042.577-.113.275-.1.618-.242 1.167-.242.852 0 1.538.384 1.95 1.023.275.426.371.995.371 1.634v3.381h-1.387ZM181.583 10.357c-.522.355-1.305.667-1.978.667-.357 0-.714-.113-.947-.398-.206-.241-.316-.625-.316-1.136V3.338l1.373-.355V5.03h1.552v.867h-1.552v3.48c0 .44.22.597.494.597.357 0 .879-.213 1.113-.327l.261.71ZM47.87 16.323c1.47 0 2.129.881 2.129 1.748 0 .753-.494 1.52-1.373 1.747 1.07.284 1.771.91 1.771 2.06 0 .554-.233 1.108-.659 1.534-.426.412-1.085.682-1.813.682h-2.773v-6.208c0-.511 0-.91-.193-1.18a.65.65 0 0 0-.494-.27v-.113h3.405Zm-.33 3.31c.784 0 1.402-.511 1.402-1.449 0-.824-.563-1.222-1.47-1.222h-1.29v2.671h1.359Zm.028 3.836c1.154 0 1.758-.61 1.758-1.69 0-.966-.659-1.52-1.58-1.52h-1.565v3.21h1.387ZM52.814 24.094h-.934V15.33h.934v8.765ZM59.2 24.094h-.138c-.26-.128-.398-.17-.576-.17-.481 0-.865.326-1.676.326-.879 0-1.483-.298-1.854-.866-.302-.455-.398-1.009-.398-1.705v-3.438h.948v3.268c0 .653.068 1.122.26 1.449.262.454.687.682 1.168.682.55 0 .961-.2 1.332-.44V18.24h.934v5.853ZM61.603 21.125c0 1.534.865 2.472 2.032 2.472.508 0 1.03-.185 1.538-.526l.247.497c-.7.555-1.386.71-2.087.71-1.58 0-2.705-1.335-2.705-3.096 0-1.748 1.14-3.097 2.678-3.097 1.222 0 2.307.852 2.307 2.5 0 .114-.014.299-.028.412l-3.982.128Zm2.994-.966c0-.952-.591-1.463-1.264-1.463-.906 0-1.62.696-1.703 1.818l2.967-.113v-.242ZM69.883 16.323c1.47 0 2.129.881 2.129 1.748 0 .753-.494 1.52-1.36 1.747 1.058.284 1.758.91 1.758 2.06 0 .554-.233 1.108-.659 1.534-.426.412-1.085.682-1.813.682h-2.773v-6.208c0-.511 0-.91-.193-1.18a.65.65 0 0 0-.494-.27v-.113h3.406Zm-.315 3.31c.769 0 1.387-.511 1.387-1.449 0-.824-.563-1.222-1.47-1.222h-1.29v2.671h1.373Zm.027 3.836c1.154 0 1.772-.61 1.772-1.69 0-.966-.673-1.52-1.593-1.52h-1.566v3.21h1.387ZM78.466 24.094h-.15a.956.956 0 0 0-.536-.17c-.44 0-.866.37-1.662.37-.879 0-1.552-.356-1.991-.924-.426-.554-.632-1.307-.632-2.117 0-1.208.494-2.032 1.195-2.572a2.606 2.606 0 0 1 1.634-.568c.522 0 1.044.142 1.332.256l.81-.185v5.91Zm-2.046-5.356c-.989 0-1.922.768-1.922 2.43 0 .966.26 1.676.782 2.102.261.227.618.355 1.003.355.549 0 1.057-.298 1.25-.468v-4.092a2.122 2.122 0 0 0-1.113-.327ZM82.696 24.094c-.344.824-.824 1.99-1.634 3.012l-.756-.568c.99-.881 1.36-1.591 1.73-2.444l-2.389-5.853h1.044l1.867 4.674.962-2.543c.412-1.108.522-1.62.59-2.13h.934l-2.348 5.852ZM93.297 24.094l-.851-2.543h-2.72l-.81 2.543H87.9l2.266-6.166c.33-.88.357-1.378-.247-1.491v-.114h1.73l2.72 7.771h-1.072ZM91.06 17.36l-1.126 3.538h2.307l-1.181-3.538ZM98.859 19.491c-.371-.426-.893-.795-1.524-.795-.632 0-1.127.397-1.127.909 0 .597.687.866 1.442 1.15.88.356 1.868.725 1.868 1.748 0 1.137-1.058 1.804-2.17 1.804-.755 0-1.634-.312-2.17-.667l.385-.824c.412.412 1.112.895 1.785.895.7 0 1.222-.412 1.222-.924 0-.61-.727-.895-1.496-1.222-.88-.355-1.813-.795-1.813-1.747 0-1.08 1.057-1.719 2.142-1.719.7 0 1.36.27 1.84.54l-.384.852ZM104.146 19.491c-.371-.426-.893-.795-1.525-.795-.631 0-1.126.397-1.126.909 0 .597.687.866 1.442 1.15.879.356 1.868.725 1.868 1.748 0 1.137-1.058 1.804-2.17 1.804-.755 0-1.634-.312-2.17-.667l.385-.824c.412.412 1.112.895 1.785.895.701 0 1.222-.412 1.222-.924 0-.61-.727-.895-1.496-1.222-.879-.355-1.813-.795-1.813-1.747 0-1.08 1.057-1.719 2.142-1.719.7 0 1.36.27 1.84.54l-.384.852ZM106.796 21.125c0 1.534.851 2.472 2.019 2.472.508 0 1.043-.185 1.538-.526l.247.497c-.7.555-1.373.71-2.087.71-1.58 0-2.706-1.335-2.706-3.096 0-1.748 1.14-3.097 2.678-3.097 1.222 0 2.307.852 2.307 2.5 0 .114-.014.299-.027.412l-3.969.128Zm2.994-.966c0-.952-.591-1.463-1.264-1.463-.906 0-1.62.696-1.702 1.818l2.966-.113v-.242ZM113.168 24.236c-.316 0-.604-.1-.797-.326-.178-.214-.274-.54-.274-.98v-6.337l.92-.27v1.918h1.565v.654h-1.565v4.034c0 .426.22.583.549.583.343 0 .893-.256 1.14-.355l.206.483c-.453.298-1.167.596-1.744.596ZM125.623 24.094l-.783-6.89-1.908 6.89h-.852l-1.895-6.89-.783 6.89H118.4l.796-6.208c.069-.511 0-.91-.192-1.18-.11-.141-.316-.27-.508-.27v-.113h2.225l1.703 6.152c.041.142.082.34.082.454.014-.113.055-.298.11-.44l1.689-6.166h1.401l.933 7.771h-1.016ZM132.791 24.094h-.151c-.192-.114-.357-.17-.535-.17-.453 0-.879.37-1.676.37-.865 0-1.538-.356-1.977-.924-.426-.554-.632-1.307-.632-2.117 0-1.208.495-2.032 1.181-2.572a2.608 2.608 0 0 1 1.634-.568c.536 0 1.058.142 1.346.256l.81-.185v5.91Zm-2.046-5.356c-1.002 0-1.922.768-1.922 2.43 0 .966.261 1.676.783 2.102.26.227.604.355.988.355.563 0 1.058-.298 1.264-.468v-4.092a2.206 2.206 0 0 0-1.113-.327ZM138.243 24.094v-3.267c0-.64-.068-1.108-.274-1.435a1.285 1.285 0 0 0-1.154-.682c-.549 0-.961.185-1.346.44v4.944h-.92v-5.853h.138c.26.128.398.17.576.17.481 0 .865-.326 1.676-.326.878 0 1.483.312 1.853.866.289.47.399 1.023.399 1.705v3.438h-.948ZM145.521 24.094h-.151c-.192-.114-.343-.17-.535-.17-.44 0-.865.37-1.662.37-.879 0-1.552-.356-1.991-.924-.426-.554-.632-1.307-.632-2.117 0-1.208.495-2.032 1.195-2.572a2.606 2.606 0 0 1 1.634-.568c.522 0 1.044.142 1.332.256l.81-.185v5.91Zm-2.046-5.356c-.989 0-1.922.768-1.922 2.43 0 .966.261 1.676.782 2.102.261.227.618.355 1.003.355.549 0 1.057-.298 1.25-.468v-4.092a2.123 2.123 0 0 0-1.113-.327ZM151.042 18.795c.261.27.576.796.576 1.506 0 1.208-.933 2.188-2.238 2.188-.398 0-.673-.114-.824-.156-.316.241-.453.468-.453.667 0 .228.124.355.343.427.344.113.893.113 1.483.142 1.126.07 2.362.326 2.362 1.719 0 .44-.192.909-.576 1.264-.577.526-1.387.781-2.211.781-1.731 0-2.692-.653-2.692-1.463 0-.54.426-1.066 1.167-1.407h.151c-.26.412-.398.782-.398 1.109 0 .696.604 1.179 1.772 1.179.865 0 1.867-.44 1.867-1.265 0-.81-.81-.966-1.73-1.008-.673-.029-1.401-.029-1.895-.27-.357-.17-.522-.455-.522-.767 0-.455.261-.867.906-1.336-.576-.426-1.002-1.037-1.002-1.804 0-1.222.948-2.202 2.252-2.202.316 0 .7.085.989.241.741-.056 1.401-.426 1.607-.639l.274.725c-.274.199-.824.355-1.208.37Zm-1.634-.114c-.783 0-1.278.74-1.278 1.606 0 .88.495 1.605 1.278 1.605.782 0 1.263-.724 1.263-1.605 0-.867-.481-1.605-1.263-1.605ZM154.008 21.125c0 1.534.865 2.472 2.032 2.472.495 0 1.03-.185 1.538-.526l.248.497c-.715.555-1.387.71-2.088.71-1.593 0-2.705-1.335-2.705-3.096 0-1.748 1.14-3.097 2.678-3.097 1.222 0 2.293.852 2.293 2.5 0 .114 0 .299-.014.412l-3.982.128Zm2.994-.966c0-.952-.605-1.463-1.264-1.463-.92 0-1.62.696-1.716 1.818l2.966-.113c.014-.086.014-.171.014-.242ZM166.243 24.094v-3.239c0-.653-.068-1.122-.233-1.449a1.328 1.328 0 0 0-1.153-.696c-.454 0-.866.17-1.278.469.165.412.165.852.165 1.491v3.424h-.934V20.33c0-.397-.013-.71-.123-.937-.234-.455-.632-.682-1.058-.682-.563 0-1.002.241-1.318.44v4.944h-.92v-5.853h.137c.261.128.426.17.591.17.48 0 .865-.326 1.675-.326.755 0 1.236.34 1.47.568.59-.355 1.194-.568 1.798-.568.715 0 1.374.284 1.786.98.233.426.329.98.329 1.62v3.41h-.934ZM169.553 21.125c0 1.534.865 2.472 2.032 2.472.495 0 1.03-.185 1.538-.526l.248.497c-.714.555-1.387.71-2.088.71-1.579 0-2.705-1.335-2.705-3.096 0-1.748 1.14-3.097 2.678-3.097 1.222 0 2.293.852 2.293 2.5 0 .114 0 .299-.014.412l-3.982.128Zm2.994-.966c0-.952-.605-1.463-1.264-1.463-.92 0-1.62.696-1.716 1.818l2.966-.113c.014-.086.014-.171.014-.242ZM178.644 24.094v-3.267c0-.64-.083-1.108-.275-1.435a1.288 1.288 0 0 0-1.167-.682c-.536 0-.961.185-1.332.44v4.944h-.934v-5.853h.151c.261.128.398.17.577.17.467 0 .865-.326 1.675-.326.865 0 1.483.312 1.854.866.288.47.385 1.023.385 1.705v3.438h-.934ZM182.255 24.236c-.315 0-.618-.1-.81-.326-.178-.214-.274-.54-.274-.98v-6.337l.92-.27v1.918h1.565v.654h-1.565v4.034c0 .426.219.583.549.583.357 0 .893-.256 1.14-.355l.219.483c-.466.298-1.181.596-1.744.596Z"/>
</svg>