<svg viewBox="0 0 154 32" fill="none"
  xmlns="http://www.w3.org/2000/svg">
  <path fill="#A62616" d="M60.696 21.838v.486h1.37v9.081h-1.37v.514h4.192v-.514H63.6v-9.08h1.288v-.487M98.428 22.378l.85-.621v2.946h-.274c0-.325-.028-.622-.11-.865a2.322 2.322 0 0 0-.274-.649c-.11-.19-.246-.324-.383-.46a2.29 2.29 0 0 0-.439-.324 2.963 2.963 0 0 0-1.233-.324c-.52 0-.932.081-1.233.27-.301.19-.493.379-.63.595-.165.27-.274.54-.302.865 0 .27.083.486.22.675.137.19.301.325.465.433.192.135.411.243.658.324l1.946.487c.575.135 1.014.351 1.315.621.329.27.548.54.712.838.165.297.247.54.274.81.028.244.055.406.055.514v.081c0 .541-.082 1-.219 1.379a2.886 2.886 0 0 1-.548.946c-.22.243-.466.46-.74.594-.274.136-.52.244-.767.325-.247.08-.466.108-.658.135-.192.027-.329.027-.41.027h-.056c-.274 0-.52-.054-.794-.108a5.873 5.873 0 0 1-.74-.243c-.274-.108-.52-.298-.767-.487l-1.014.73v-3.676h.274c.027.622.164 1.46.383 1.892.11.19.22.378.356.568.138.189.33.35.521.486.22.135.466.27.74.351.274.081.63.136.987.136h.054c.055 0 .165 0 .302-.027.137 0 .301-.027.493-.081.192-.055.384-.109.575-.19.192-.08.384-.189.549-.351.164-.162.3-.351.41-.568a1.99 1.99 0 0 0 .165-.837v-.027c0-.055 0-.163-.028-.325a1.608 1.608 0 0 0-.191-.54 2.755 2.755 0 0 0-.439-.595c-.192-.19-.493-.324-.85-.432l-2.137-.487c-.356-.108-.685-.243-.959-.46a2.86 2.86 0 0 1-.657-.73c-.192-.323-.302-.729-.302-1.215 0-.487.082-.946.274-1.325.192-.378.411-.702.713-.946.274-.243.603-.432.959-.567.356-.135.685-.19 1.014-.19.219 0 .466.028.685.082.192.054.41.108.603.189.246.054.438.19.603.351ZM152.356 22.378l.849-.621v2.946h-.274c0-.325-.027-.622-.109-.865a2.346 2.346 0 0 0-.274-.649c-.11-.19-.247-.324-.384-.46a1.792 1.792 0 0 0-.466-.324 2.962 2.962 0 0 0-1.233-.324c-.521 0-.932.081-1.233.27-.301.19-.493.379-.63.595-.165.27-.274.54-.302.865 0 .27.083.486.22.675.137.19.301.325.465.433.192.135.411.243.685.324l1.946.487c.575.135 1.014.351 1.315.621.329.27.548.54.713.838.164.297.246.54.274.81.027.244.055.406.055.514v.081c0 .541-.083 1-.22 1.379a2.872 2.872 0 0 1-.548.946c-.219.243-.465.46-.74.594-.274.136-.52.244-.767.325-.246.08-.466.108-.657.135-.192.027-.329.027-.411.027h-.055c-.274 0-.521-.054-.795-.108a5.89 5.89 0 0 1-.74-.243c-.274-.108-.52-.298-.767-.487l-1.014.73v-3.676h.274c.028.622.164 1.46.384 1.892.109.19.219.378.356.568.137.189.329.35.521.486.219.135.465.27.739.351.274.081.631.136.987.136h.055c.055 0 .164 0 .301-.027.137 0 .302-.027.493-.081.192-.055.384-.109.576-.19a1.72 1.72 0 0 0 .548-.351c.164-.162.301-.351.411-.568.11-.243.164-.513.164-.837v-.027c0-.055 0-.163-.027-.325a1.591 1.591 0 0 0-.192-.54 2.76 2.76 0 0 0-.438-.595c-.192-.19-.494-.324-.85-.432l-2.137-.487c-.356-.108-.685-.243-.959-.46a2.858 2.858 0 0 1-.658-.73c-.192-.323-.301-.729-.301-1.215 0-.487.082-.946.274-1.325.192-.378.411-.702.712-.946.274-.243.603-.432.959-.567.356-.135.685-.19 1.014-.19.247 0 .466.028.685.082.192.054.411.108.603.189.247.054.438.19.603.351ZM108.266 21.865v3.54h-.302c0-.784-.082-1.378-.246-1.784-.165-.432-.356-.73-.548-.918a1.22 1.22 0 0 0-.795-.379h-1.123v9.162h1.26v.487h-4.192v-.487h1.287v-9.189h-1.342c-.302.027-.576.162-.822.379-.22.189-.384.486-.576.919-.164.432-.274 1.027-.274 1.783h-.219v-3.513M146.711 21.838v3.54h-.301c0-.784-.083-1.378-.247-1.784-.164-.432-.356-.73-.548-.918a1.22 1.22 0 0 0-.795-.379h-1.123v9.162h1.26v.487h-4.192v-.487h1.288V22.27h-1.343c-.301.027-.575.162-.822.379-.192.189-.384.486-.576.918-.164.433-.274 1.027-.274 1.784h-.219v-3.513M118.925 31.432h1.261v.46h-4.165v-.46h1.342v-8.54l-3.261 9h-.493l-2.822-9.081v8.027a.53.53 0 0 0 .164.297.655.655 0 0 0 .302.162l.328.081c.11 0 .192.027.275.027h.109v.487h-2.767v-.487h.082c.055 0 .137 0 .246-.027.11 0 .192-.027.302-.08.109-.028.192-.109.301-.163a.696.696 0 0 0 .192-.297v-8c0-.108-.082-.19-.192-.27a1.586 1.586 0 0 0-.383-.136 2.438 2.438 0 0 0-.439-.054c-.137 0-.274-.027-.356-.027h-.165v-.486h3.261l2.412 7.757 2.74-7.757h2.959v.486h-1.233M87.742 26.46v-4.136c2.63 0 3.59-.135 4.055 3.054h.274v-3.54H84.92v.486h1.233v9.108h-1.37v.46h7.399v-3.703h-.384c-.356 2.81-1.096 3.243-3.124 3.243h-.931V27h.548c.904.027 1.425.54 1.616 2.081h.33v-4.568h-.33c0 .027-.054 1.973-1.644 1.946M123.721 26.46v-4.136c2.63 0 3.589-.135 4.055 3.054h.274v-3.54h-7.179v.486h1.233v9.108h-1.37v.46h7.398v-3.703h-.383c-.356 2.81-1.096 3.243-3.124 3.243h-.932V27h.548c.905.027 1.425.54 1.617 2.081h.329v-4.568h-.329c0 .027-.055 1.973-1.644 1.946M138.244 22.351v-.486h-3.508v.486h.274c.357 0 1.233.027 1.288.784v5.784l-4.877-7.054h-2.631v.486h.438c.521 0 1.261.027 1.288.784v7.405c0 .73-1.096 1-1.562 1v.352h3.59v-.351c-.466 0-1.562-.27-1.562-1V24c1.918 2.703 5.563 7.892 5.59 7.892h.192v-8.757c.055-.757.932-.784 1.288-.784M74.917 22.324v-.486H71.41v.486h.274c.356 0 1.233.027 1.288.784v5.81l-4.878-7.08h-2.658v.486h.439c.52 0 1.26.027 1.288.784v7.433c0 .73-1.096 1-1.562 1v.35h3.59v-.35c-.466 0-1.563-.27-1.563-1L67.657 24c1.918 2.73 5.59 7.919 5.617 7.919h.192v-8.811c.055-.757.932-.784 1.288-.784M81.412 21.838v.486h1.26l-2.055 7.081-2.302-7.08h1.343v-.487h-4.22v.486h1.315l3.042 9.622h.384l2.85-9.622h1.287v-.486M78.425 8.486V2.162c4.028 0 5.508-.19 6.193 4.676h.438V1.432h-10.96v.73h1.89v13.946h-2.082v.73h11.29v-5.703h-.576c-.576 4.297-1.672 4.973-4.768 4.973h-1.425V9.351h.822c1.397.027 2.192.838 2.466 3.19h.52v-7h-.492c0 .026-.11 3-2.521 2.972M73.931 8.757h-6.193v.702h2.11v5c-.356 1.27-2.247 1.811-2.822 1.811-3.946 0-3.672-5.702-3.672-7.216 0-1.405-.137-7.216 3.672-7.216 2.685 0 4.083 2.621 4.658 5h.438c0-.973.028-5.622 0-5.595 0-.027-1.835 1.297-1.835 1.297.027 0-.85-1.243-3.261-1.243-4.659 0-6.358 4.595-6.358 7.784C60.696 12 62.066 17 67.026 17c1.562 0 2.658-.784 3.26-1.676 0-.027 1.973 1.514 1.973 1.54V9.46h1.672M146.19 11.135c-.575 4.297-1.671 4.946-4.768 4.946h-.191V2.162h1.973v-.757h-6.495v.757h1.973v13.919h-1.562L131.366.973h-.85c.028 0-4.795 13.703-4.795 13.73 0-.054-.356 1.189-1.151 1.324-.74.027-.685-.351-.685-.487v-2.648c0-.703-.055-2.27-.795-3-.822-.811-2.219-.865-2.192-.892 0 0 3.535-.73 3.535-4.054 0-2.324-1.644-3.487-4.384-3.595h-7.81v.811h2.001v13.919h-2.001v.73h6.412v-.73h-2V9.378h2.658c4.603.379-.795 7.46 5.261 7.433h3.809v-.757c-.219 0-1.617.027-1.699-.919-.055-.703.932-3.19.932-3.19h5.179l1.616 4.109h-1.808v.73h14.139v-5.649m-27.539-2.54h-2.548V2.162h3.233c1.891.297 1.973 2.46 1.973 3.135.028 1.676-.685 3.298-2.658 3.298Zm8.769 2.675 2.247-6.675 2.411 6.675h-4.658ZM104.567 2.162c4.028 0 5.507-.19 6.22 4.676h.411V1.432H95.222v.73h.412c.575 0 1.89.054 1.972 1.19v8.891L90.153 1.405H86.07v.757h.685c.795 0 1.918.027 1.973 1.19V14.73c0 1.108-1.699 1.54-2.384 1.54v.54h5.508v-.54c-.713 0-2.411-.432-2.411-1.54l.027-10.027c2.96 4.162 8.55 12.108 8.604 12.108h.274V3.35c.055-1.162 1.398-1.189 1.946-1.189h1.836v13.946h-2.083v.73h11.29v-5.703h-.576c-.575 4.297-1.671 4.973-4.768 4.973h-1.424V9.351h.822c1.397.027 2.192.838 2.466 3.19h.52v-7h-.493c0 .026-.109 3-2.548 2.972h-.767M153.863 2.162v-.757h-6.385v.757h2.001v13.919h-2.001v.757h6.385v-.757h-2V2.162M44.967 29.19l1.15-.433h.028c1.644-.676 1.89-1.108 1.809-2.19V22.19c1.26 3.135 2.438 5.352 4.877 5.352.33 0 .685-.055 1.069-.136l.96-.216-.659-.703c-.41-.459-.63-.81-.849-1.216-.11-.162-.192-.351-.301-.54-.576-.92-1.919-1.216-3.015-.73-.493-.973-.986-2.243-1.589-3.81l-.137-.298c-.11-.243-.22-.46-.329-.703v-.054h-.027c-.384-.838-.767-1.649-1.26-2.432a15.032 15.032 0 0 0-1.344-1.865c-1.26-1.46-2.959-2.378-4.987-2.73-1.425-.243-2.411-.27-3.672-.351-.274 0-.548-.027-.822-.054-.575-.027-1.753-.135-2.904-.216-.768-.055-1.562-.136-2.192-.163.054-.162.054-.351.054-.54 0-.243-.027-.487-.054-.676h8.138c2.11 0 3.617-.919 4.521-2.703 2.083-.027 3.59-.945 4.494-2.783h.302c2.164 0 3.726-.973 4.603-2.892l.356-.784h-27.62c-1.81 0-3.344 1.162-3.92 2.973l-.027.054c-.466-1.27-1.315-2.351-2.439-3-1.534-.892-3.26-1.19-4.658-.81a5.024 5.024 0 0 0-1.288.567c-.329.216-.767.54-1.096.946a7.573 7.573 0 0 0-.931 1.486c-.165.135-.274.27-.357.379l-.329.621-.027.027c-.384.892-.877 1.487-1.26 1.92-.384.432-.384.837-.33 1.107.056.298.22.54.384.703v.027c-.11.19-.164.405-.164.622 0 .73.63 1.27 1.425 1.27.575 0 1.014-.27 1.507-.568.192-.135.74-.486.904-.486.22 0 .411.189.411.405 0 .595-.767.92-1.315.946l-1.123.108c-.795.081-1.179.487-1.179.865s.192.595.302.73l.082.054.274.243-1.178 1.892c-.85-.784-1.836-1.243-2.713-1.27-.576-.027-1.069.162-1.425.486-.11.108-.192.216-.274.325h-.028c-.931 0-1.699.486-2.055 1.054-.41.621-.246 1.648.247 2.46L0 17.864V32h54.969v-2.81m-2.932-3.839c.11.163.191.352.301.487.11.19.22.378.356.567-.877-.054-1.507-.513-2.11-1.405.548-.19 1.206-.054 1.453.351ZM40.144 13.243c1.781.298 3.234 1.081 4.302 2.352.247.27.466.567.685.864-2.986-.378-4.028-.81-5.7-3.324.247.027.467.054.713.108Zm-1.288-4.216h-5.59c.493-.405.877-.946 1.206-1.595h7.59c-.712 1.082-1.726 1.595-3.206 1.595Zm4.467-2.703h-5.59a5.139 5.139 0 0 0 1.233-1.648h7.618c-.74 1.108-1.782 1.648-3.261 1.648Zm.383-4.243h7.59c-.712 1-1.725 1.46-3.123 1.46h-5.59a5.762 5.762 0 0 0 1.123-1.46Zm-30.635.297c.164-.216.466-.486.822-.702.274-.19.63-.325.959-.433.548-.162 1.178-.162 1.836-.054l-2 1.243c-.247-.027-.494-.027-.74-.027-.33 0-.658.027-.932.082 0-.055.027-.082.055-.109Zm-2.357 8.757c.028-.08.082-.135.137-.135l.987.027c1.205-.054 2.411-.513 2.548-1.757 0-.838-.603-1.648-1.452-1.648-.439 0-.96.297-1.535.675-.383.244-.657.433-.877.433-.164 0-.274-.108-.274-.19v-.053l.63-.838-.547-.352c-.11-.08-.302-.216-.302-.324 0-.054.055-.135.082-.162.22-.27.494-.568.74-.973.165-.216.247-.351.52-.351.275 0 .494.216.494.459 0 .162.192.297.411.297.247 0 .329-.162.493-.297 0 0 .548-.514.274-.757-.328-.27-1.698.27-1.315-.946l.082-.162c.137-.19.795-.649 2.138-.649.246 0 .52.028.794.055l.192.027 2.823-1.73c.054.135.054.189.054.189V2c.137.838-.383 1.865-1.26 2.351l-.356.19.219 1.27c-.74.216-1.233.784-1.233 1.486 0 .244.055.514.137.865.082.406.164.838.192 1.298 0 1.324-1.836 2.189-3.398 2.135h-.028c-.054 0-1.04-.081-1.288-.27a.29.29 0 0 1-.082-.19ZM3.7 15.243c.22-.324.74-.621 1.37-.513l.494.08.164-.459c.027-.135.11-.216.164-.297.137-.135.33-.19.603-.19.685.028 1.535.487 2.247 1.244.247.27.466.568.685.892a.484.484 0 0 0 .137.19c.055.08.11.161.11.188.027.055.356.568.356.595.247-.324.466-.649.713-.973 0 0 0-.054-.028-.081-.055-.108-.192-.297-.246-.433-.028-.027-.028-.054-.055-.08 0 0-.028-.055-.082-.136a3.209 3.209 0 0 1-.247-.405l1.48-2.351c.356.08.685.08.822.08h.027c2.083 0 4.247-1.188 4.247-3.189v-.054c-.027-.54-.137-1.054-.219-1.486-.054-.27-.11-.54-.11-.676 0-.216.302-.46.768-.46h.685L17.483 5c.959-.703 1.534-1.81 1.507-2.892 1.014.784 1.753 2.135 1.89 3.54.028.406-.054 1-.191 1.622l-.083.244a22.12 22.12 0 0 1-.794 2.513l-.165.46.439.243c.767.432 1.233.73 1.233 1.73 0 1.135-1.041 2-2.055 2.189l-1.37.243 1.15.757c.384.243.603.648.603 1.08 0 .704-.602 1.298-1.37 1.298h-.438l-.11.405c-.438 1.379-.877 2.027-2.384 2.19.082-.406.11-.811.11-1.379 0-.135 0-.513-.028-.621l-.054-1.27-.905.918c-.301.298-.85.54-1.452.676v-1.108l-6.522-1.622-2.301.595c-.521-.514-.63-1.351-.494-1.568ZM1.836 29.19 6.522 28l4.685 1.19H1.836Zm10.03-.973-5.372-1.378-5.37 1.378v-9.46l5.37-1.378 5.371 1.379v9.46Zm2.493-1.865c-.493.676-.548 1.622-.192 2.811h-1.178v-9.027c.41-.054.877-.189 1.287-.378a8.711 8.711 0 0 1-.164 1.135c-.027.108-.027.19-.055.297l-.082.649h.685c1.014 0 1.754-.162 2.33-.46v3.784c0 .108-.083.162-.165.162h-.165c-1.013.027-1.835.379-2.301 1.027Zm12.358.244c-.41.46-.822 1.27-.548 2.567h-6.96c.74-.08 1.288-.243 1.671-.621.466-.46.494-1.108.494-1.568.027-.027.082-.19.438-.351l.603-.27-.356-.541c-.63-.892-.384-2.865-.137-3.92h.055c2.356 0 3.89-.485 5.507-1 .411-.134.85-.27 1.316-.404h.027s.493-.163 1.123-.298l2.275 3.703.027.027c.22.324.247.54-.164 1l-1.151 1.216-1.863-.351h-.028a2.67 2.67 0 0 0-2.329.81Zm.63 2.594c-.219-.784-.11-1.432.247-1.838a1.437 1.437 0 0 1 1.26-.46l2.165.406h.356l1.535-1.621.027-.027c.274-.298 1.07-1.216.247-2.379l-2.055-3.324c.329-.054.685-.081.986-.081 0 0 1.042-.027 2.138.622.137.324.356.73.575 1.189.438.865.96 1.919 1.124 2.351.054.135.191.54-.33 1.081l-3.918 4.081h-4.357Zm13.345 0h-7.398l3.15-3.297c.631-.649.85-1.433.576-2.216-.164-.433-.575-1.298-1.014-2.162 1.26.567 3.18 1.08 7.043 1.405.466.027.603.19.685.622l.164 1.648-2.028.46a1.898 1.898 0 0 0-1.452 1.216c-.274.676-.164 1.513.274 2.324Zm.795-1.946c.11-.27.329-.46.63-.513l3.042-.676-.274-2.676v-.054c-.082-.351-.302-1.405-1.7-1.54-5.425-.433-6.685-1.216-8-2.081l-.083-.054c-1.397-.892-2.822-.92-2.96-.892-1.534 0-3.48.594-3.644.648-.466.136-.904.27-1.343.406-1.698.54-3.178 1-5.644.946h-.466l-.11.432c-.082.325-.767 3.027-.11 4.757-.602.46-.602 1-.602 1.081.027.595-.11.73-.165.784-.274.297-1.233.324-2.027.324h-.302l-.164.243c-.494.676-1.562.811-2.22.65-.301-.893-.301-1.595-.027-2 .329-.487 1.069-.541 1.342-.541h.165c.712 0 1.315-.595 1.315-1.298v-4.838c.22-.324.384-.73.548-1.162 1.178-.189 2.11-1.189 2.11-2.378a2.4 2.4 0 0 0-.383-1.297c1.096-.514 2.055-1.595 2.055-3 0-1.406-.713-2.054-1.398-2.46.192-.54.494-1.486.713-2.432l.959-3.379c.438-1.324 1.534-2.162 2.85-2.162H42.39c-.712 1-1.726 1.46-3.124 1.46H29.101l-.52 1.135h9.097c-.712 1.135-1.754 1.648-3.26 1.648h-6.605l-.52 1.136h5.864c-.713 1.08-1.754 1.594-3.206 1.594h-3.59l-.52 1.108h3.753c.028.054.137.216.137.676 0 .73-.603 1.297-1.37 1.297-.246 0-.493-.054-.877-.216-.164-.081-.329-.135-.493-.216l-.877.784c.165.08.33.135.494.216.767.324 1.178.486 1.753.486.685 0 1.316-.297 1.754-.73.658.055 1.699.136 2.713.217 1.205.108 2.356.189 2.932.216.301.027.575.027.85.054l1.424.081c2.302 3.676 3.48 4.162 7.92 4.676.328.567.602 1.162.876 1.756v7.217c.028.324.028.432-.027.486-.165.19-.85.487-1.069.568l-3.754 1.405c-.52-.703-.685-1.378-.493-1.892Z"/>
  <path fill="#A62616" d="M2.466 20.865v-.054H2.44a.209.209 0 0 1-.11.027c-.027 0-.027 0-.027-.027v-.487c.137-.027.246-.08.301-.108a.735.735 0 0 0 .22-.19.432.432 0 0 0 .082-.242c0-.108-.028-.162-.11-.216-.082-.055-.22-.055-.384 0l-.548.135v.054h.028c.055-.027.082-.027.11-.027.027 0 .027 0 .027.027v.108l-.028.81v.136c0 .027-.027.027-.027.054-.027.027-.055.027-.11.054v.054l.603-.108Zm-.164-.622v-.513h.027c.082-.054.137-.027.165 0 .027.027.054.08.054.189a.503.503 0 0 1-.054.216c-.028.054-.11.081-.165.108h-.027ZM2.768 20.73v.054l.438-.108v-.054h-.137c-.027 0-.027-.027-.027-.055 0-.026 0-.054.027-.108l.055-.135.438-.108.055.135.027.054v.027c0 .027 0 .027-.027.054s-.055.027-.11.055H3.48v.053l.63-.162v-.054h-.109c-.028 0-.055-.054-.11-.162l-.438-.919h-.028l-.466 1.135c-.054.109-.082.19-.11.217 0 .027-.027.054-.081.08Zm.41-.487.192-.432.165.351-.356.081ZM4.713 20.243c-.055 0-.082.027-.082.027-.027 0-.055 0-.055-.027l-.027-.027c0-.027.027-.054.082-.162l.192-.27.164.216a.334.334 0 0 0 .055.081v.027c0 .027 0 .027-.027.027 0 0-.028.027-.083.054v.054l.63-.162v-.054h-.109c-.027 0-.055-.027-.11-.135l-.301-.433.247-.351.11-.162c.027-.027.054-.054.081-.054.028 0 .055-.027.083-.027v-.054l-.494.108v.054h.11c.027 0 .027 0 .027.027v.027c0 .027-.027.081-.11.19l-.136.188-.137-.189-.055-.081v-.027c0-.027 0-.027.027-.054.028-.027.028-.027.083-.027h.027v-.054l-.63.162v.054h.055c.027 0 .027 0 .054.027 0 0 .028.027.083.108l.301.379-.247.351c-.082.108-.137.19-.164.216-.027.027-.082.054-.137.081v.054l.493-.135M2.63 21.54c.055-.027.11-.027.11-.027.028 0 .082.027.082.054.028.027.055.082.055.163h.055v-.379l-1.15.298v.378L1.835 22a.52.52 0 0 1 .137-.243c.027-.054.11-.081.192-.108l.082-.027-.055.973v.108c0 .027-.027.027-.027.054-.028.027-.055.027-.082.027h-.055v.054l.657-.135v-.054l-.054.027h-.083c-.027 0-.027-.027-.027-.027v-.108l.027-.974M3.59 21.324c0-.027.027-.027.027-.054.027-.027.055-.027.082-.027h.055v-.054l-.685.162v.054l.055-.027h.082c.027 0 .027.027.027.027v.108l-.027.838v.108c0 .027-.027.027-.027.054-.028.027-.055.027-.083.027h-.054v.055l.685-.163v-.054l-.055.027H3.59c-.028 0-.028-.027-.028-.027v-.108l.028-.838c-.028-.08 0-.108 0-.108ZM4 22.27c0 .027-.027.027-.027.054-.027.027-.054.027-.11.054v.054l.658-.162c.192-.054.33-.108.411-.216a.345.345 0 0 0 .11-.27.245.245 0 0 0-.11-.216c-.054-.027-.11-.027-.219-.027.082-.055.165-.109.192-.163a.29.29 0 0 0 .082-.189c0-.054-.027-.108-.055-.162a.151.151 0 0 0-.137-.081c-.054 0-.164 0-.301.027l-.603.162v.054h.028c.054-.027.082-.027.11-.027.027 0 .027.027.027.027v.108l-.028.811c-.027.108-.027.135-.027.162Zm.33-.594c.082-.027.164-.027.191-.027.055 0 .083.027.11.054.027.027.027.08.027.135 0 .054 0 .108-.027.135a.374.374 0 0 1-.082.108.21.21 0 0 1-.137.054h-.055c-.027 0-.027-.027-.027-.054v-.405Zm.274-.27c-.028.026-.055.08-.083.107-.027.027-.11.054-.164.081v-.486c.082-.027.137-.027.192-.027.027 0 .055.027.082.054.027.027.027.081.027.135-.027.027-.027.081-.054.135ZM5.617 20.784c0-.027.028-.027.028-.054.027-.027.055-.027.082-.027l.055-.027v-.054l-.658.189v.054l.055-.027h.082c.028 0 .028.027.028.027v.108l-.028.838v.108c0 .027-.027.027-.027.054-.028.027-.055.027-.082.027h-.055v.054l.657-.162v-.054l-.027.054h-.082c-.028 0-.028 0-.028-.027v-.108l.028-.838c-.028-.081-.028-.108-.028-.135ZM6.083 23.676h-.082l-.082-.081-.274-.352a.28.28 0 0 0 .164-.135.344.344 0 0 0 .11-.27.387.387 0 0 0-.055-.19c-.055-.053-.11-.08-.164-.08-.083 0-.192.026-.33.053l-.575.163v.054h.028c.055 0 .082-.027.11 0 .027 0 .027 0 .027.027v.108l-.028.81v.136c0 .027-.027.027-.027.054-.027 0-.055.027-.11.027h-.082c-.027-.027-.055-.081-.11-.162l-.438-.92h-.027l-.466 1.136c-.055.108-.082.19-.11.216a.38.38 0 0 1-.11.081H3.37c-.027 0-.027-.027-.027-.027v-.108l.027-.838v-.108c0-.027.028-.027.028-.054.027-.027.055-.027.082-.027h.055v-.054l-.52.135-.357.892-.329-.73-.52.136v.053h.137c.027 0 .027.028.027.028v1c0 .027-.027.054-.027.08 0 .028-.028.028-.055.055-.028.027-.055.027-.082.027H1.78v.054l.439-.108v-.054h-.028c-.055.027-.082.027-.11 0-.027 0-.027-.027-.054-.054v-.108l.027-.838.411.973h.028l.465-1.217v.973c0 .027-.027.027-.027.054-.027.027-.055.027-.082.055h-.055v.053l.63-.162.439-.108v-.054h-.138c-.027 0-.027-.027-.027-.054s0-.054.028-.108l.054-.135.439-.108.055.135.027.054v.027c0 .027 0 .027-.027.054-.028.027-.055.027-.11.054h-.027v.054l.575-.162h.055l.603-.162v-.054h-.028c-.027 0-.082.027-.082.027h-.027c-.028 0-.028 0-.028-.027v-.487l.055-.027.384.46.41-.108.028-.027Zm-.493-.73c0 .054-.027.108-.027.162a.212.212 0 0 1-.11.108c-.055.027-.11.054-.192.081h-.027v-.54l.082-.027a.304.304 0 0 1 .22 0c.054.054.054.135.054.216Zm-1.425.838-.356.08.192-.432M2.905 25.162c0 .027 0 .054-.028.081 0 .027-.027.027-.055.027h-.11c-.109-.027-.191 0-.273 0a.767.767 0 0 0-.356.19c-.11.08-.192.189-.274.324-.055.135-.11.243-.11.378a.54.54 0 0 0 .082.297.596.596 0 0 0 .247.19c.055 0 .11.027.137.027.055 0 .137 0 .219-.027a.83.83 0 0 0 .274-.108.83.83 0 0 0 .22-.217v-.162l-.028.027c-.082.108-.137.19-.22.243-.054.054-.136.081-.219.109a.304.304 0 0 1-.219 0 .278.278 0 0 1-.137-.163c-.027-.08-.027-.189-.027-.297 0-.108.027-.216.055-.324a.587.587 0 0 1 .137-.216c.054-.055.137-.109.219-.109a.27.27 0 0 1 .246.027c.083.054.11.108.137.217l.055-.027v-.46l.028-.027ZM4.193 25.73a.64.64 0 0 1-.165.297.57.57 0 0 1-.274.162l-.082.027H3.59s-.028 0-.028-.027V25.73c.055 0 .082-.027.11 0 .027 0 .055.027.082.054.027.027.027.08.055.162v.027l.055-.027v-.676l-.028-.054c0 .108-.027.19-.082.243a.185.185 0 0 1-.164.108v-.486l.11-.027c.081-.027.164-.027.191-.027.055 0 .11.027.137.054.028.027.055.081.055.162l.055-.027v-.405l-1.069.27v.054l.055-.027h.082l.027.027v.108l-.027.838v.108c0 .027-.027.027-.027.054-.028.027-.055.027-.083.027h-.054v.054l1.096-.27.055-.432v.108ZM5.919 25.27a.642.642 0 0 1-.165.297.57.57 0 0 1-.274.163l-.082.027h-.082s-.027 0-.027-.027V25.27c.054 0 .082-.027.11 0 .027 0 .054.027.081.054.028.027.028.081.055.162l.055-.027v-.675l-.055.027c0 .108-.027.189-.082.243.027.027-.027.081-.11.081v-.486l.11-.027c.082-.027.164-.027.192-.027a.21.21 0 0 1 .137.054c.027.027.055.08.055.162h.054v-.406l-1.068.27v.055l.055-.027h.082l.027.027v.108l-.027.838v.108c0 .027-.028.027-.028.054-.027.027-.054.027-.082.027h-.055v.054l1.096-.27.055-.433-.027.054ZM7.508 20.135h.055l.411-.865c.055-.108.082-.162.11-.189.027-.027.082-.054.11-.027V19l-.44-.108v.054c.056 0 .083.027.11.054.028 0 .028.027.028.027 0 .027 0 .027.027.054v.054c0 .027-.027.054-.055.108l-.219.487-.274-.676c-.027-.081-.055-.108-.055-.135v-.054h.137v-.054l-.63-.162v.054c.055.027.082.027.11.054.027.027.055.108.11.243M8.029 20.19v.053l.438.108v-.054a.301.301 0 0 1-.11-.054c-.027-.027-.027-.054-.027-.08 0-.028 0-.055.028-.082l.054-.108.439.108.055.162c.027.054.027.081.027.081v.027c0 .027 0 .027-.027.027h-.137v.054l.63.163v-.054c-.027 0-.055-.028-.082-.055-.028-.027-.055-.108-.11-.216l-.493-1.162h-.028L8.248 20c-.027.081-.082.135-.11.162-.027.027-.054.027-.11.027Zm.383-.298.165-.351.192.432-.357-.081ZM9.454 19.378c.027 0 .055.027.082.027l.082.081.028.027.027.892c0 .054 0 .108-.027.108-.028.027-.055.027-.137 0H9.48v.054l.466.109v-.054H9.92a.209.209 0 0 1-.11-.055c-.027-.026-.055-.08-.055-.162l-.027-.756.85 1.243h.054l-.027-1.081v-.108c0-.027.027-.027.027-.027h.11v-.054l-.439-.109v.054c.055.027.11.055.137.082.028.027.028.08.028.162l.027.513-.63-.919-.466-.108.055.081ZM7.152 21.757c.055.08.137.135.192.189a.83.83 0 0 0 .274.108c.082.027.164.027.246.027h.083c.082 0 .137 0 .191-.027V21.703c0-.027.028-.027.028-.027h.109v-.054l-.602-.136v.055H7.7c.027 0 .055.026.082.026.028.027.028.027.028.055v.351h-.165a.826.826 0 0 1-.219-.108.521.521 0 0 1-.137-.243c-.027-.109-.055-.217-.055-.325 0-.108 0-.189.028-.27a.434.434 0 0 1 .11-.19c.054-.026.136-.053.218-.026a.649.649 0 0 1 .247.162c.082.081.137.19.192.324h.055v-.46h-.055c0 .028-.028.055-.028.055h-.027s-.027 0-.11-.054c-.054-.027-.11-.054-.137-.081a.392.392 0 0 0-.164-.054c-.192-.054-.356-.027-.466.08-.137.109-.192.244-.192.433a.54.54 0 0 0 .083.297c.082.108.11.19.164.244Z"/>
  <path fill="#A62616" d="m9.344 22.486.055-.405-.082-.027c-.028.108-.082.162-.137.216-.055.027-.165.027-.274 0l-.083-.027c-.027 0-.054-.027-.082-.027-.027 0-.027-.027-.027-.054v-.486c.055.027.082.027.11.054.027.027.054.054.082.108a.386.386 0 0 1 .054.189l.055.027-.027-.676-.055-.027v.027c0 .081-.027.163-.055.19-.027.026-.082.053-.164.026h-.028v-.486l.11.027c.082.027.165.054.192.054.055.027.11.081.137.108.027.054.055.108.082.216l.055.027v-.378l-1.069-.27v.054h.055c.027 0 .082.027.082.054.028.027.028.027.028.054v.108l.027.838v.108c0 .027-.027.027-.027.027H8.22v.054l1.123.297ZM10.577 22.324l-.055-.027c-.027.081-.054.162-.082.19-.027.054-.055.054-.11.08h-.164l-.11-.026c-.082-.028-.109-.028-.109-.028-.027 0-.027-.027-.027-.054v-.135l-.028-.81v-.109c0-.027.028-.027.028-.027h.082l.082.027v-.054l-.685-.189v.054h.055c.027 0 .055.027.082.027.027.027.027.027.027.054v.108l.028.838v.108c0 .027-.028.027-.028.027h-.082l-.082.054v.054l1.123.298h.028l.027-.46Z"/>
  <path fill="#A62616" d="M10.55 21.567h.055c.027 0 .054.027.082.027.027.027.027.027.027.055v.108l.028.837v.109c0 .027-.028.027-.028.027h-.082l-.055-.027v.054l.658.216h.027v-.054l-.055-.027c-.027 0-.054-.027-.082-.027-.027-.027-.027-.027-.027-.054v-.135l-.028-.838v-.108c0-.027.028-.027.028-.027h.082l.055.027v-.054l-.685-.163M7.508 23.838a.649.649 0 0 1-.246-.162.703.703 0 0 1-.165-.352l-.055-.027v.487h.055c0-.027.028-.027.028-.054h.054c.028 0 .055.027.083.027.054.027.11.054.137.08.027.028.082.028.11.055.054 0 .081.027.136.027a.4.4 0 0 0 .192-.054c.082-.054.11-.135.11-.243a.432.432 0 0 0-.083-.244c-.054-.08-.164-.162-.301-.297a1.628 1.628 0 0 1-.192-.162c-.027-.027-.055-.081-.082-.108 0-.027-.027-.054-.027-.081 0-.027.027-.081.054-.081.028-.027.083-.027.137 0a.425.425 0 0 1 .22.162c.082.08.11.162.137.27l.054.027-.027-.432h-.055c0 .054-.027.054-.027.054h-.028s-.027 0-.082-.054c-.055-.027-.082-.054-.11-.081-.027-.027-.082-.027-.109-.054-.11-.028-.22-.028-.274.026-.082.055-.11.136-.11.244 0 .054.028.108.055.189.028.054.082.108.11.162.055.054.137.108.246.216.083.054.137.108.165.135.027.027.055.054.082.108.027.028.027.055.027.082 0 .054-.027.08-.054.108-.055.054-.11.054-.165.027ZM8.96 23.108a.213.213 0 0 1 .11.108.642.642 0 0 1 .082.19l.055.026v-.351l-1.15-.297h-.028v.351l.055.027c0-.081.054-.135.082-.19.027-.026.082-.026.164 0l.082.028.028.973v.108c0 .027-.028.027-.028.027H8.33l-.055-.054v.054l.658.162h.027v-.054h-.054c-.028 0-.055-.027-.083-.027-.027-.027-.027-.027-.027-.054 0 0 0-.054-.027-.108l-.028-.973.082.027c.055 0 .11 0 .137.027ZM10.057 24.486H9.92v.055l.63.162h.027v-.054c-.027 0-.055-.027-.082-.055-.027-.027-.055-.108-.11-.216l-.52-1.189h-.028l-.438.892c-.027.081-.082.135-.11.162-.027.027-.054.027-.11.027h-.027v.054l.439.108h.027v-.054c-.055-.027-.11-.027-.11-.054-.027-.027-.027-.054-.027-.08 0-.028 0-.055.028-.082l.054-.108.439.108.082.162c.027.054.027.081.027.081-.054.027-.054.027-.054.081Zm-.137-.405L9.563 24l.165-.351.192.432ZM10.632 25.378v-.054l-.384-.108h-.027v.054c.027 0 .082.027.082.027.028 0 .028.027.028.027 0 .027.027.027.027.054v.054c0 .027-.027.054-.055.109l-.164.513-.247-.649a.453.453 0 0 1-.055-.135v-.054h.11v-.054l-.548-.135-.904-.243h-.028l-.383-.108-.274.73-.33-.893-.465-.108h-.027v.054h.054c.028 0 .055.027.083.027.027.027.027.027.027.055v.108l.027.81v.082c0 .026 0 .053-.027.053l-.027.027h-.083v.055l.384.108h.027v-.054c-.054 0-.082-.027-.11-.054-.027-.027-.027-.054-.054-.081v-.109l-.027-.81.438 1.189h.027l.384-1 .027.892v.108c0 .027-.027.027-.027.027h-.137v.054l.52.135.987.243.055-.405H9.48c-.027.108-.055.162-.137.216-.055.027-.137.054-.246.027l-.055-.054c-.028 0-.055-.027-.055-.027s-.027-.027-.027-.054v-.486c.054 0 .082.026.11.053a.374.374 0 0 1 .081.109c.028.054.028.108.055.189h.055l-.027-.676H9.18c0 .081-.028.162-.055.19-.027.026-.082.053-.137.026H8.96v-.486l.11.027c.081.027.136.054.164.054.054.027.082.081.11.108a.91.91 0 0 1 .081.216l.055.027v-.324c.028 0 .055.027.055.054s.027.081.11.243l.41 1.108h.055l.357-.864c.054-.109.082-.163.11-.19-.028-.027 0-.027.054-.027ZM8.549 26c-.027 0-.054-.027-.082-.027-.027-.027-.027-.027-.027-.054v-.108l-.028-.838v-.108c0-.027.028-.027.028-.027h.082c.027 0 .055.027.082.054.028.027.028.027.028.054v.108l.027.838V26c0 .027-.027.027-.027.027-.028 0-.055 0-.083-.027Z"/>
  <path fill="#A62616" d="M11.262 26.162a1.26 1.26 0 0 0-.274-.27c-.082-.081-.164-.135-.192-.162-.027-.027-.054-.081-.082-.108 0-.027-.027-.055-.027-.081 0-.055 0-.082.055-.109.027-.027.054-.027.11-.027a.317.317 0 0 1 .191.136c.055.08.11.162.11.27h.054l.028-.352h-.055c0 .054-.027.054-.027.054h-.028s-.027 0-.082-.054c-.027-.027-.082-.054-.11-.08-.027-.028-.082-.028-.11-.055-.109-.027-.191 0-.246.054-.055.054-.11.135-.082.244 0 .054.027.108.055.189a.565.565 0 0 0 .11.162c.054.054.109.108.219.19.082.053.137.107.164.134.027.027.055.054.055.081.027.027.027.054.027.081 0 .054 0 .082-.055.108-.027.027-.082.027-.136.027a.425.425 0 0 1-.22-.162c-.082-.08-.11-.189-.137-.351h-.055v.486h.055c0-.026.028-.026.028-.054h.027c.027 0 .027.027.055.027a.378.378 0 0 1 .11.082c.027.027.054.027.109.027.027 0 .082.027.11.027a.296.296 0 0 0 .164-.054c.082-.055.11-.136.11-.244.055-.054.027-.135-.028-.216Z"/>
</svg>