<svg viewBox="0 0 171 36" fill="none"
  xmlns="http://www.w3.org/2000/svg">
  <path d="M48.6218 22.1275C48.8965 23.0126 51.3687 28.3842 51.918 29.5745H49.4764C49.3848 29.2998 49.1712 28.8725 48.8355 27.9569C48.4692 27.9569 48.0725 27.9569 47.5536 27.9569C47.0653 27.9569 46.699 27.9569 46.3023 27.9874C46.0886 28.5978 45.875 29.0861 45.7224 29.605H43.5859C44.0132 28.6894 46.4549 23.3483 46.8822 22.158H48.6218V22.1275ZM48.4082 26.8276C48.103 26.0951 47.7062 25.21 47.5231 24.5996C47.3094 25.2406 46.8822 26.2172 46.638 26.8276C46.9127 26.8276 47.2789 26.8581 47.5231 26.8581C47.8893 26.8581 48.0725 26.8276 48.4082 26.8276Z" fill="black"/>
  <path d="M55.6721 21.9443C56.6182 21.9443 57.5643 22.0664 58.1442 22.2495V24.1418C57.3202 23.684 56.5266 23.2567 55.4584 23.2567C54.6039 23.2567 54.5733 23.5924 54.5733 23.8366C54.5733 25.0879 58.8157 25.1185 58.8157 27.377C58.8157 28.842 57.4423 29.7576 55.1532 29.7576C54.1155 29.7576 53.1694 29.5439 52.4979 29.3303V27.5296C54.0545 28.2621 54.8785 28.5063 55.611 28.5063C56.1909 28.5063 56.6182 28.2316 56.6182 27.7432C56.6182 26.3088 52.3759 26.4614 52.3759 24.0197C52.4064 22.7073 53.7188 21.9443 55.6721 21.9443Z" fill="black"/>
  <path d="M62.936 21.9443C63.8821 21.9443 64.8282 22.0664 65.4081 22.2495V24.1418C64.5841 23.684 63.7905 23.2567 62.7223 23.2567C61.8677 23.2567 61.8067 23.5924 61.8067 23.8366C61.8067 25.0879 66.0491 25.1185 66.0491 27.377C66.0491 28.842 64.6756 29.7576 62.3866 29.7576C61.3489 29.7576 60.4028 29.5439 59.7313 29.3303V27.5296C61.2879 28.2621 62.1119 28.5063 62.8444 28.5063C63.4243 28.5063 63.8516 28.2316 63.8516 27.7432C63.8516 26.3088 59.6092 26.4614 59.6092 24.0197C59.6397 22.7073 60.9827 21.9443 62.936 21.9443Z" fill="black"/>
  <path d="M73.2519 22.1275V23.3788C72.3363 23.2567 71.6648 23.2567 70.9934 23.2567H69.3148C69.3148 23.9282 69.2842 24.6607 69.2842 25.21L71.9701 25.149V26.3698L69.2842 26.3393C69.2842 26.8276 69.3148 27.8348 69.3148 28.5063C70.5356 28.5063 72.1532 28.4757 73.435 28.3842V29.605H66.9342C67.0257 28.5673 67.0562 26.3698 67.0562 25.6984C67.0562 24.9964 67.0257 22.982 66.9647 22.158H73.2519V22.1275Z" fill="black"/>
  <path d="M81.2788 22.1275V23.3483C80.1801 23.2262 79.7833 23.1957 78.8982 23.1652C78.8677 24.0503 78.8372 25.1795 78.8372 25.6678C78.8372 26.3088 78.8372 28.4452 78.9898 29.5745H76.4871C76.6092 28.4452 76.6397 26.3088 76.6397 25.6678C76.6397 25.21 76.6092 23.9587 76.6092 23.1652C75.7546 23.1652 75.2968 23.2262 74.1981 23.3483V22.1275H81.2788Z" fill="black"/>
  <path d="M89.0616 27.1328C89.5194 25.4847 90.0687 23.6535 90.3739 22.1275H93.487C93.426 22.982 93.365 24.9353 93.365 25.6984C93.365 26.3393 93.365 28.4757 93.5176 29.605H91.3506C91.5032 28.14 91.4727 25.973 91.4727 24.2029C91.0759 25.1795 90.0382 28.5063 89.7025 29.6355H88.207C87.7797 28.079 86.9251 25.3626 86.4673 24.1723C86.4673 25.851 86.4978 29.1472 86.6199 29.605H84.575C84.6971 28.4757 84.6971 26.3393 84.6971 25.6984C84.6971 24.9964 84.6666 23.0126 84.6056 22.1275H87.7187C87.9628 23.1041 88.5122 25.4847 89.0616 27.1328Z" fill="black"/>
  <path d="M99.1333 22.1275C99.408 23.0126 101.88 28.3842 102.43 29.5745H99.9879C99.8964 29.2998 99.6827 28.8725 99.347 27.9569C98.9807 27.9569 98.584 27.9569 98.0651 27.9569C97.5768 27.9569 97.2106 27.9569 96.8138 27.9874C96.6001 28.5978 96.3865 29.0861 96.2339 29.605H94.0974C94.5247 28.6894 96.9664 23.3483 97.3937 22.158H99.1333V22.1275ZM98.9197 26.8276C98.6145 26.0951 98.2177 25.21 98.0346 24.5996C97.821 25.2406 97.3937 26.2172 97.1495 26.8276C97.4242 26.8276 97.7904 26.8581 98.0651 26.8581C98.4008 26.8581 98.584 26.8276 98.9197 26.8276Z" fill="black"/>
  <path d="M110.09 22.1275C110.029 22.982 109.968 24.9353 109.968 25.6678C109.968 26.3393 109.968 28.5673 110.09 29.5745H108.32L105.512 25.4237C105.268 25.0879 105.115 24.7827 105.054 24.386V26.7666C105.054 27.6517 105.085 28.9335 105.176 29.5745H103.162C103.284 28.4452 103.315 26.3088 103.315 25.6678C103.315 24.9659 103.284 22.982 103.223 22.1275H105.512L107.893 26.0036C108.015 26.1867 108.045 26.3088 108.106 26.4614V22.1275H110.09Z" fill="black"/>
  <path d="M115.645 22.1275C115.92 23.0126 118.392 28.3842 118.941 29.5745H116.5C116.408 29.2998 116.194 28.8725 115.859 27.9569C115.492 27.9569 115.096 27.9569 114.577 27.9569C114.088 27.9569 113.722 27.9569 113.325 27.9874C113.112 28.5978 112.898 29.0861 112.746 29.605H110.609C111.036 28.6894 113.478 23.3483 113.905 22.158H115.645V22.1275ZM115.431 26.8276C115.126 26.0951 114.729 25.21 114.546 24.5996C114.333 25.2406 113.905 26.2172 113.661 26.8276C113.936 26.8276 114.302 26.8581 114.546 26.8581C114.912 26.8581 115.096 26.8276 115.431 26.8276Z" fill="black"/>
  <path d="M126.724 25.973C126.693 26.7055 126.632 28.2621 126.602 29.1472C125.808 29.5745 124.526 29.7881 123.306 29.7881C120.528 29.7881 118.758 28.0484 118.758 25.912C118.758 23.6535 120.62 21.9443 123.641 21.9443C124.343 21.9443 125.381 22.0664 126.114 22.2495L125.564 23.7145C125.045 23.4093 124.191 23.1346 123.611 23.1346C121.871 23.1346 121.23 24.6912 121.23 25.9425C121.23 28.0179 122.359 28.7199 123.611 28.7199C123.763 28.7199 124.252 28.7199 124.404 28.6589C124.404 27.7432 124.404 26.614 124.313 26.0036H126.724V25.973Z" fill="black"/>
  <path d="M134.171 22.1275V23.3788C133.255 23.2567 132.584 23.2567 131.912 23.2567H130.234C130.234 23.9282 130.203 24.6607 130.203 25.21L132.889 25.149V26.3698L130.203 26.3393C130.203 26.8276 130.234 27.8348 130.234 28.5063C131.455 28.5063 133.072 28.4757 134.354 28.3842V29.605H127.853C127.945 28.5673 127.975 26.3698 127.975 25.6984C127.975 24.9964 127.945 22.982 127.884 22.158H134.171V22.1275Z" fill="black"/>
  <path d="M140.275 27.1328C140.733 25.4847 141.282 23.6535 141.587 22.1275H144.701C144.639 22.982 144.578 24.9353 144.578 25.6984C144.578 26.3393 144.578 28.4757 144.731 29.605H142.534C142.686 28.14 142.656 25.973 142.656 24.2029C142.259 25.1795 141.221 28.5063 140.885 29.6355H139.451C139.024 28.079 138.169 25.3626 137.711 24.1723C137.711 25.851 137.742 29.1472 137.864 29.605H135.819C135.941 28.4757 135.941 26.3393 135.941 25.6984C135.941 24.9964 135.911 23.0126 135.85 22.1275H138.963C139.207 23.1041 139.756 25.4847 140.275 27.1328Z" fill="black"/>
  <path d="M152.483 22.1275V23.3788C151.568 23.2567 150.896 23.2567 150.225 23.2567H148.546C148.546 23.9282 148.516 24.6607 148.516 25.21L151.201 25.149V26.3698L148.516 26.3393C148.516 26.8276 148.546 27.8348 148.546 28.5063C149.767 28.5063 151.354 28.4757 152.666 28.3842V29.605H146.166C146.257 28.5673 146.288 26.3698 146.288 25.6984C146.288 24.9964 146.257 22.982 146.196 22.158H152.483V22.1275Z" fill="black"/>
  <path d="M161.06 22.1275C160.999 22.982 160.937 24.9353 160.937 25.6678C160.937 26.3393 160.937 28.5673 161.06 29.5745H159.289L156.481 25.4237C156.237 25.0879 156.085 24.7827 156.024 24.386V26.7666C156.024 27.6517 156.054 28.9335 156.146 29.5745H154.131C154.253 28.4452 154.253 26.3088 154.253 25.6678C154.253 24.9659 154.223 22.982 154.162 22.1275H156.451L158.832 26.0036C158.954 26.1867 158.984 26.3088 159.045 26.4614V22.1275H161.06Z" fill="black"/>
  <path d="M169.209 22.1275V23.3483C168.11 23.2262 167.713 23.1957 166.828 23.1652C166.797 24.0503 166.767 25.1795 166.767 25.6678C166.767 26.3088 166.767 28.4452 166.92 29.5745H164.417C164.539 28.4452 164.569 26.3088 164.569 25.6678C164.569 25.21 164.539 23.9587 164.539 23.1652C163.684 23.1652 163.227 23.2262 162.128 23.3483V22.1275H169.209Z" fill="black"/>
  <path d="M44.2269 5.00542C44.3184 6.28729 44.3795 9.52247 44.3795 10.6822C44.3795 11.7505 44.3795 15.3824 44.1963 16.9695L44.1658 17.0916H49.8427C52.62 17.0916 55.5805 16.2065 55.5805 13.7343C55.5805 12.1778 54.4513 11.0485 52.3453 10.4076C53.8714 10.0108 54.9396 8.94258 54.9396 7.69123C54.9396 5.67688 52.62 4.91386 50.4531 4.85282H44.1963L44.2269 5.00542ZM48.6218 6.25677C51.0024 6.25677 51.857 6.7451 51.857 8.05748C51.857 8.39321 51.7654 8.69841 51.5518 8.9731C51.094 9.52247 50.2089 9.79715 49.0796 9.73611H49.0186L48.3777 11.4453H49.0491C50.3615 11.4147 51.4908 11.8115 52.0707 12.544C52.3453 12.8797 52.4674 13.246 52.4674 13.6427C52.4674 14.9856 51.2771 15.6876 48.9576 15.6876C48.5608 15.6876 47.9199 15.6876 47.5231 15.6571C47.4315 13.8564 47.4315 11.4453 47.4315 10.7128C47.4315 9.85819 47.462 7.96592 47.5231 6.34833C47.7673 6.28729 48.2251 6.25677 48.6218 6.25677Z" fill="black"/>
  <path d="M65.927 4.88334L66.0491 7.9354C66.1101 9.46143 66.1406 11.018 66.2627 12.544C66.0796 12.0862 65.927 11.842 65.1029 10.6212C65.0724 10.5907 62.2035 6.16521 61.2268 4.91386L61.1963 4.88334H57.9916V5.00542C58.0832 6.28729 58.1442 9.52247 58.1442 10.6822C58.1442 11.7505 58.1442 15.3824 57.9611 16.9695V17.0916H60.7995V16.9695C60.6469 13.9785 60.6469 10.9875 60.6469 8.05748C60.7385 8.39321 60.8911 8.72893 61.3184 9.40038C61.3794 9.46142 66.2627 16.6338 66.5069 17.0305L66.5374 17.0916H68.8264V16.9695C68.6738 15.4129 68.6433 11.781 68.6433 10.6822C68.6433 9.49195 68.7043 6.28729 68.7959 5.00542V4.88334H65.927Z" fill="black"/>
  <path d="M72.0006 5.00542C72.0921 6.28729 72.1532 9.52247 72.1532 10.6822C72.1532 11.7505 72.1532 15.3824 71.9701 16.939V17.061H75.3578V16.939C75.2357 15.8097 75.2052 13.6733 75.1747 12.0252C75.3273 12.0252 75.7851 12.0557 75.7851 12.0557L76.2734 12.0862C80.76 12.0862 82.9269 10.8959 82.9269 8.42373C82.9269 5.58532 79.8749 4.94438 77.3111 4.88334H71.9701L72.0006 5.00542ZM76.1514 6.34833C77.7384 6.31781 78.8677 6.65353 79.3865 7.32499C79.6307 7.63019 79.7528 7.99644 79.7528 8.42373C79.7528 10.1939 77.769 10.5602 76.1208 10.5602L75.4494 10.5296C75.4494 10.5296 75.2968 10.4991 75.1747 10.4991C75.1747 10.1024 75.1442 9.55299 75.1442 8.94258C75.1442 8.17956 75.1442 7.26395 75.1747 6.40937C75.4189 6.37885 75.7851 6.34833 76.1514 6.34833Z" fill="black"/>
  <path d="M89.4278 5.00542C89.5194 6.28729 89.5804 9.52247 89.5804 10.6822C89.5804 11.7505 89.5804 15.3824 89.3973 16.939V17.061H92.7851L92.7545 16.939C92.6325 15.8097 92.6019 13.6733 92.5714 12.0252C92.724 12.0252 93.1818 12.0557 93.1818 12.0557L93.6702 12.0862C98.1567 12.0862 100.324 10.8959 100.324 8.42373C100.324 5.58532 97.2716 4.94438 94.7079 4.88334H89.4278V5.00542ZM93.5786 6.34833C95.1657 6.31781 96.2949 6.65353 96.8138 7.32499C97.0579 7.63019 97.18 7.99644 97.18 8.42373C97.18 10.1939 95.1962 10.5602 93.5481 10.5602L92.8766 10.5296C92.8766 10.5296 92.724 10.4991 92.6019 10.4991C92.6019 10.1024 92.5714 9.55299 92.5714 8.94258C92.5714 8.17956 92.5714 7.26395 92.6019 6.43989C92.8461 6.37885 93.2124 6.34833 93.5786 6.34833Z" fill="black"/>
  <path d="M104.841 4.88334L104.81 4.94438C104.2 6.68406 100.11 15.5655 99.4996 16.939L99.408 17.0916H102.338L102.369 17.0305C102.613 16.2065 102.948 15.2603 103.345 14.2226C103.437 14.2226 105.756 14.1921 105.756 14.1921L107.74 14.2226C107.74 14.2226 108.076 14.2226 108.167 14.2226C108.686 15.535 109.083 16.5422 109.266 17.0305L109.297 17.0916H112.623L107.191 4.88334H104.841ZM105.726 8.48477C106 9.06466 106.702 10.6822 107.465 12.6356C107.343 12.6356 107.191 12.6356 107.191 12.6356L105.695 12.6661C105.695 12.6661 104.139 12.6356 103.895 12.6356C104.566 11.079 105.207 9.67507 105.726 8.48477Z" fill="black"/>
  <path d="M113.966 5.00542C114.058 6.28729 114.119 9.52247 114.119 10.6822C114.119 11.7505 114.119 15.3824 113.936 16.939V17.061H117.324V16.939C117.14 15.3824 117.14 11.7505 117.14 10.6517C117.14 9.79715 117.171 7.90488 117.232 6.37885C117.507 6.34833 117.903 6.31781 118.148 6.31781C119.735 6.28729 120.864 6.62301 121.383 7.29447C121.627 7.59967 121.749 7.96592 121.749 8.39321C121.749 9.79715 120.437 10.4991 119.185 10.5907C118.789 10.6212 118.453 10.5602 118.453 10.5602L118.209 10.5296L118.361 10.7433C119.552 12.5135 121.352 15.5655 122.115 17.0305L122.146 17.0916H125.778L125.656 16.9084C125.534 16.7253 123.153 13.2155 122.146 11.7199C122.146 11.7199 122.115 11.6589 122.085 11.6284C123.947 11.079 124.832 10.0108 124.832 8.42373C124.832 5.58532 121.78 4.94438 119.216 4.88334H113.875L113.966 5.00542Z" fill="black"/>
  <path d="M127.395 4.88334V5.00542C127.487 6.28729 127.548 9.52247 127.548 10.6822C127.548 11.7505 127.548 15.3824 127.365 16.939V17.061H130.753L130.722 16.939C130.57 15.3519 130.539 11.7505 130.539 10.6822C130.539 9.49195 130.6 6.28729 130.692 5.00542V4.88334H127.395Z" fill="black"/>
  <path d="M133.835 5.00542C133.927 6.28729 133.988 9.52247 133.988 10.6822C133.988 11.7505 133.988 15.3824 133.805 16.9695V17.0916H139.482C142.259 17.0916 145.219 16.2065 145.219 13.7343C145.219 12.1778 144.09 11.0485 141.984 10.4076C143.51 10.0108 144.578 8.94258 144.578 7.69123C144.578 5.67688 142.259 4.91386 140.092 4.85282H133.835V5.00542ZM138.2 6.25677C140.58 6.25677 141.465 6.7451 141.465 8.05748C141.465 8.39321 141.343 8.69841 141.13 8.9731C140.672 9.52247 139.787 9.79715 138.657 9.73611H138.596L137.955 11.4453H138.627C139.939 11.4147 141.069 11.8115 141.648 12.544C141.923 12.8797 142.045 13.246 142.045 13.6427C142.045 14.9856 140.855 15.6876 138.535 15.6876C138.139 15.6876 137.498 15.6876 137.101 15.6571C137.009 13.8564 137.009 11.4453 137.009 10.7128C137.009 9.85819 137.04 7.96592 137.101 6.34833C137.345 6.28729 137.803 6.25677 138.2 6.25677Z" fill="black"/>
  <path d="M151.262 4.88334L151.232 4.94438C150.56 6.77562 146.257 16.1454 145.891 16.9084L145.799 17.061H148.729L148.76 17C149.004 16.1759 149.34 15.2298 149.736 14.1921C149.828 14.1921 152.148 14.1616 152.148 14.1616L154.131 14.1921C154.131 14.1921 154.467 14.1921 154.559 14.1921C155.078 15.5045 155.474 16.5117 155.627 17L155.657 17.0916H159.045L153.613 4.88334H151.262ZM152.148 8.48477C152.422 9.06466 153.124 10.6822 153.887 12.605C153.765 12.605 153.643 12.605 153.643 12.605L152.148 12.6356C152.148 12.6356 150.622 12.605 150.377 12.605C150.988 11.0485 151.629 9.64455 152.148 8.48477Z" fill="black"/>
  <path d="M159.991 8.05748C159.991 10.1939 162.158 11.079 164.051 11.842C165.546 12.4524 167.072 13.0628 167.072 14.07C167.072 14.3752 167.011 14.6194 166.828 14.833C166.492 15.2603 165.76 15.4435 164.6 15.3824C163.471 15.3214 162.189 14.9551 160.785 14.3142L160.205 14.0395V16.6948L160.602 16.7864L160.846 16.8474C161.548 17.0305 162.921 17.3357 164.295 17.3357C167.866 17.3357 170.002 15.9318 170.002 13.5512C170.002 11.3537 167.805 10.4686 165.851 9.70559C164.417 9.1257 162.921 8.54581 162.921 7.59967C162.921 7.32499 162.921 6.50093 164.753 6.50093C166.126 6.50093 167.469 7.0503 168.201 7.35551L168.903 7.63019V4.94438L168.201 4.8223C167.499 4.70022 166.37 4.45605 165.149 4.45605C162.067 4.45605 159.991 5.89052 159.991 8.05748Z" fill="black"/>
  <path d="M35.0376 0H0V35.0376H35.0376V0Z" fill="url(#bnp-paribas-am-paint0_linear_346_65335)"/>
  <path d="M34.3314 0.610596H0.636719V33.9085H34.3314V0.610596Z" fill="url(#bnp-paribas-am-paint1_linear_346_65335)"/>
  <path d="M27.317 9.21731C25.1501 10.4992 24.4786 10.5907 22.1285 11.9947C23.5019 10.4992 23.9598 9.88877 24.8143 8.63742C22.6474 8.75951 19.5038 9.00367 17.2452 9.52252C19.1986 8.48482 23.0747 7.32504 25.1501 7.05036C24.6617 6.3789 20.8161 4.30351 19.87 3.90674C22.9221 4.1509 26.6456 5.28016 28.4463 6.3789C29.1482 6.16526 29.8807 6.13474 31.2236 6.04318C30.8879 6.62307 30.8879 6.95879 29.5755 7.81337C29.9418 8.79003 29.0872 14.0701 28.3547 15.4435C28.3547 13.2155 28.1716 10.4381 27.317 9.21731Z" fill="white"/>
  <path d="M11.4769 28.1706C10.2255 27.7128 9.34041 27.1634 8.36376 26.2478C8.66896 25.4237 9.00469 24.7828 9.55406 23.9893C8.54688 24.1419 7.78387 24.2639 6.92929 24.4165C6.22732 23.1652 5.89159 21.9749 5.52535 20.3268C5.34222 22.097 5.25066 23.3483 5.49483 24.7523C4.70129 24.9659 4.1214 25.1796 3.48047 25.4543C4.39609 26.0036 5.1591 26.4614 6.16628 26.9192C6.71565 28.1095 7.29554 28.9031 8.21115 29.8187C7.99751 29.0557 7.93647 28.4147 8.02803 27.5907C9.18781 27.9569 10.195 28.1401 11.4769 28.1706Z" fill="white"/>
  <path d="M14.7426 10.5907C14.3458 11.0791 13.9185 12.0252 13.7964 12.4525C16.9706 12.9103 19.5343 14.5584 19.5343 14.5584C16.7264 14.0701 15.2614 14.1311 14.2237 14.2227C13.186 14.3142 12.9724 14.4363 12.9724 14.4363C12.2093 16.0844 11.7515 18.9229 11.7515 18.9229C11.2327 17.702 10.5002 15.2299 10.5002 15.2299C9.09625 15.9929 5.83055 19.0449 5.83055 19.0449C7.63126 15.474 9.4625 13.8564 9.4625 13.8564C8.85209 13.2155 7.20398 12.9103 6.01367 12.8493C6.62409 12.6051 8.24167 12.2999 9.4625 12.2388C10.6833 12.2083 11.4158 12.2694 11.4158 12.2694C12.484 11.4148 14.1627 10.6823 14.7426 10.5907Z" fill="white"/>
  <path d="M18.1303 25.9426C17.5504 26.7056 17.0926 27.316 16.4517 28.018C15.3835 28.3232 14.4984 28.4453 13.4607 28.4453C14.1016 28.781 14.7426 28.9641 15.414 29.1167C14.7426 29.7271 14.1627 30.1544 13.5217 30.5817C14.6205 30.3375 16.0549 29.8492 17.1232 29.2388C17.6725 29.2693 18.2219 29.2388 18.5881 29.1472C18.4966 28.8115 18.4355 28.5673 18.344 28.1706C19.3512 27.377 20.0836 26.6751 20.9382 25.8205C20.0531 26.4309 19.2596 26.9192 18.2524 27.4076C18.1609 26.8887 18.1609 26.4919 18.1303 25.9426Z" fill="white"/>
  <defs>
    <linearGradient id="bnp-paribas-am-paint0_linear_346_65335" x1="17.5247" y1="-0.847572" x2="17.5247" y2="36.1524" gradientUnits="userSpaceOnUse">
      <stop stop-color="#1A764E"/>
      <stop offset="0.6" stop-color="#9FC8AD"/>
      <stop offset="1" stop-color="#1F9562"/>
    </linearGradient>
    <linearGradient id="bnp-paribas-am-paint1_linear_346_65335" x1="17.4729" y1="-8.70091" x2="17.4729" y2="32.8786" gradientUnits="userSpaceOnUse">
      <stop stop-color="#1F9562"/>
      <stop offset="0.3" stop-color="#9FC8AD"/>
      <stop offset="0.55" stop-color="#1F9562"/>
      <stop offset="0.8352" stop-color="#1A764E"/>
      <stop offset="0.8691" stop-color="#1F7B52"/>
      <stop offset="0.9244" stop-color="#2C875D"/>
      <stop offset="0.9938" stop-color="#3E9C70"/>
      <stop offset="1" stop-color="#409E72"/>
    </linearGradient>
  </defs>
</svg>
