<svg viewBox="0 0 132 51" fill="none"
  xmlns="http://www.w3.org/2000/svg">
  <path fill="#192149" d="m10.464 17.94 3.275-8.432 3.274 8.432h-6.549Zm5.6-16.629h-4.65L0 28.315h6.454l2.23-5.246h10.109l2.23 5.246h6.454L16.064 1.311ZM99.255 9.743c-2.278-1.968-5.884-1.874-7.593-1.289-.308.094-1.78.563-2.966 1.734l-.261-1.616h-5.576v19.767h6.122V14.684a9.063 9.063 0 0 1 1.66-1.147c.641-.352 2.16-.82 3.465-.094 1.068.586 1.566 1.99 1.566 3.654v11.218h6.122V16.698c0-4.239-1.59-6.136-2.539-6.955ZM33.931 8.548h-5.623v19.767h6.122V14.637a6.323 6.323 0 0 1 1.613-1.1c.688-.328 2.373-.914 3.607.093.949.797.996 2.647.996 3.162v11.523h6.075V16.488c0-.726-.095-1.429-.19-2.155.546-.375 1.186-.632 1.803-.913 1.4-.61 2.99-.305 3.512.046 1.115.773 1.234 2.53 1.234 3.326v11.523h6.074V16.558c0-2.155-.308-4.871-2.278-6.628-1.993-1.78-5.03-1.827-5.67-1.827-3.773.07-6.62 2.038-6.62 2.038-1.353-1.359-4.675-2.647-7.404-1.687-.308.094-1.78.563-2.966 1.734l-.285-1.64ZM80.178 8.548h-6.122V22.25a11.15 11.15 0 0 1-1.59.984c-.617.304-2.136.68-3.417.21-1.376-.515-1.59-2.74-1.59-3.7V8.548h-6.122v11.687c0 2.202.404 4.567 1.922 6.277 1.543 1.71 3.987 2.342 6.24 2.201a7.792 7.792 0 0 0 2.99-.82c.641-.327 1.306-.726 1.804-1.24l.261 1.686h5.6V8.549M116.221 22.366c-.356.492-.949.82-1.495 1.03-2.112.844-4.817-.093-5.386-3.676-.19-1.288-.19-2.506.284-3.747.451-1.125 1.638-2.881 4.271-2.881.712 0 1.495.14 2.302.421v8.853m.024-21.055v7.167a12.006 12.006 0 0 0-3.037-.398c-3.916 0-6.075 1.827-6.953 2.716-1.922 1.921-2.942 4.638-2.966 7.308-.024 6.487 3.559 9.064 5.339 9.883 1.186.539 2.539.843 3.844.75 1.139-.07 2.871-.539 4.081-1.616l.19 1.194h5.576V1.311h-6.074ZM132 4.075c0 1.686-1.21 3.232-3.559 3.232s-3.559-1.546-3.559-3.232c0-1.686 1.328-3.209 3.559-3.209 2.23 0 3.559 1.523 3.559 3.209ZM131.478 8.548h-6.074v19.767h6.074V8.548ZM131.07 33.401H0v4.648h131.07v-4.648Z"/>
  <path fill="#009DE0" d="M30.577 47.677h1.44l-.732-1.901-.708 1.9Zm-2.69 2.337 2.62-6.227h1.675l2.643 6.227H32.89l-.425-1.07H30.2l-.449 1.07h-1.864ZM47.617 50.014v-6.227h4.791v1.42h-2.974v1.028h2.431v1.332h-2.43v1.005h3.185v1.442h-5.003ZM55.051 50.014v-4.806h-1.888v-1.42h5.57v1.42H56.87v4.806H55.05ZM61.636 50.014v-6.227H63.5l1.676 3.715 1.581-3.715h1.865v6.227h-1.747v-3.037l-1.345 3.081H64.8l-1.417-3.102v3.058h-1.746ZM72.138 47.677h1.44l-.732-1.901-.708 1.9Zm-2.69 2.337 2.62-6.227h1.675l2.644 6.227H74.45l-.424-1.07H71.76l-.449 1.07h-1.864ZM77.213 50.014v-6.227h1.817l2.195 3.3v-3.3h1.77v6.227h-1.652l-2.384-3.517v3.517h-1.746ZM86.511 47.677h1.464l-.732-1.901-.732 1.9Zm-2.69 2.337 2.62-6.227h1.675l2.644 6.227h-1.936l-.448-1.07H86.11l-.448 1.07H83.82ZM98.076 50.014v-6.227h4.791v1.42h-2.998v1.028h2.431v1.332h-2.43v1.005h3.209v1.442h-5.003ZM104.212 50.014v-6.227h1.841l1.676 3.715 1.581-3.715h1.864v6.227h-1.746v-3.037l-1.322 3.081h-.755l-1.393-3.102v3.058h-1.746ZM112.685 50.014v-6.227h4.791v1.42h-2.974v1.028h2.431v1.332h-2.431v1.005h3.186v1.442h-5.003ZM118.821 50.014v-6.227h1.817l2.195 3.3v-3.3h1.77v6.227h-1.628l-2.384-3.517v3.517h-1.77ZM127.388 50.014v-4.806H125.5v-1.42h5.57v1.42h-1.865v4.806h-1.817ZM36.525 48.157c.141.175.354.328.59.46.283.152.59.196.896.196.26 0 .614-.066.756-.284.141-.24.023-.525-.213-.656-.236-.13-.519-.218-.802-.306-.614-.196-1.275-.35-1.794-.742-.495-.394-.684-1.006-.566-1.617.165-.874 1.038-1.377 1.935-1.508.944-.13 2.053 0 2.785.634.142.13.26.262.354.393l-1.204.874a1.63 1.63 0 0 0-.212-.24c-.212-.219-.496-.35-.802-.415-.284-.044-.638-.066-.874.065s-.354.415-.165.634c.189.196.496.284.755.371.614.197 1.298.328 1.841.677.543.35.779.874.803 1.464.023 1.945-2.738 2.338-4.249 1.66-.448-.218-.802-.48-1.062-.786l1.228-.874ZM42.425 48.157c.142.175.354.328.59.46.283.152.59.196.897.196.26 0 .613-.066.755-.284.142-.24.024-.525-.212-.656-.236-.153-.52-.218-.803-.306-.614-.196-1.274-.35-1.794-.742-.519-.394-.684-1.006-.566-1.617.165-.874 1.038-1.377 1.935-1.508.944-.13 2.054 0 2.785.634.142.13.26.262.354.393l-1.203.874a1.622 1.622 0 0 0-.213-.24 1.407 1.407 0 0 0-.802-.415c-.284-.066-.638-.066-.873.065-.236.131-.355.415-.166.634.166.196.496.284.755.371.614.197 1.299.328 1.841.677.52.35.78.874.803 1.464.023 1.945-2.738 2.338-4.248 1.66-.449-.218-.803-.48-1.062-.786l1.227-.874ZM94.11 47.83v-1.246h2.644v3.168c-.897.306-1.817.35-2.171.372-1.18.065-2.242-.175-2.974-1.071-.448-.546-.637-1.223-.66-1.9-.048-.7.07-1.42.4-2.055.449-.808 1.251-1.332 2.243-1.442.967-.109 2.076.066 2.714.809.165.175.283.371.4.59l-1.51.72a1.543 1.543 0 0 0-.424-.545c-.402-.328-1.062-.24-1.44.087-.378.328-.496.808-.543 1.267-.118 1.595.732 1.988 1.015 2.076.33.13.826.109 1.25.044v-.918h-.943"/>
</svg>