<svg viewBox="0 0 167 37" fill="none"
  xmlns="http://www.w3.org/2000/svg">
  <path d="M45.8395 30.6449H46.7514C47.2682 30.6449 47.4202 30.4921 47.4202 30.1866C47.4202 29.82 47.1162 29.7283 46.569 29.7283H45.8395V30.6449ZM44.7148 28.9645H47.0858C48.0281 28.9645 48.5448 29.3005 48.5448 29.9727C48.5448 30.4616 48.1497 30.8282 47.5721 30.9199C47.9065 30.9504 48.2105 31.0115 48.3321 31.256C48.5144 31.6226 48.5448 32.4475 48.6968 32.8447H47.5113C47.3898 32.4781 47.3898 31.8976 47.2986 31.6226C47.2378 31.4393 47.0554 31.3476 46.5994 31.3476H45.8395V32.8142H44.7148V28.9645Z" fill="#6A8368"/>
  <path d="M55.6881 28.9645H54.5634V32.8753H55.6881V28.9645Z" fill="#6A8368"/>
  <path d="M62.7401 31.6226C62.7401 32.1114 62.9833 32.2337 63.5001 32.2337C64.1688 32.2337 64.26 31.9892 64.26 31.8365C64.26 31.592 63.9864 31.5004 63.5305 31.4087L62.9833 31.2865C62.345 31.1643 61.6763 30.9199 61.6763 30.1866C61.6763 29.2394 62.5578 28.9034 63.4393 28.9034C64.8679 28.9034 65.2631 29.3311 65.2935 30.1255H64.1992C64.1688 29.7283 63.8344 29.6672 63.5001 29.6672C63.0137 29.6672 62.8009 29.82 62.8009 30.0644C62.8009 30.3394 63.1657 30.4005 63.5609 30.4921L64.0776 30.6143C64.7767 30.7671 65.3543 30.981 65.3543 31.7754C65.3543 32.8753 64.26 33.0586 63.3785 33.0586C61.8282 33.0586 61.5547 32.3864 61.5547 31.6837H62.7401V31.6226Z" fill="#6A8368"/>
  <path d="M71.4336 28.9645H72.5583V30.706L74.1389 28.9645H75.5068L73.8046 30.7366L75.6284 32.8753H74.1693L72.5887 30.8588H72.5583V32.8753H71.4336V28.9645Z" fill="#6A8368"/>
  <path d="M88.547 28.9645H90.31L91.4347 31.867L92.6506 28.9645H94.3224V32.8753H93.2585V29.6977L91.9819 32.8753H90.8268L89.5197 29.6977V32.8753H88.547V28.9645Z" fill="#6A8368"/>
  <path d="M102.773 29.7283L101.982 31.3782H103.533L102.773 29.7283ZM102.165 28.9645H103.502L105.508 32.8753H104.262L103.897 32.1114H101.648L101.283 32.8753H100.128L102.165 28.9645Z" fill="#6A8368"/>
  <path d="M111.253 28.9645H112.743L114.506 31.7754V28.9645H115.509V32.8753H114.02L112.257 30.0644V32.8753H111.253V28.9645Z" fill="#6A8368"/>
  <path d="M123.929 29.7283L123.139 31.3782H124.689L123.929 29.7283ZM123.321 28.9645H124.658L126.665 32.8753H125.388L125.023 32.1114H122.774L122.409 32.8753H121.254L123.321 28.9645Z" fill="#6A8368"/>
  <path d="M134.446 30.7366H136.513V32.8142C135.875 32.9058 135.236 32.9975 134.598 32.9975C133.2 32.9975 132.136 32.4781 132.136 31.0115C132.136 29.5144 133.078 28.8728 134.537 28.8728C135.51 28.8728 136.544 29.1783 136.574 30.2171H135.419C135.388 29.7894 135.024 29.6366 134.537 29.6366C133.625 29.6366 133.322 30.2171 133.322 30.9199C133.322 31.7754 133.808 32.2337 134.689 32.2337C134.963 32.2337 135.267 32.1726 135.48 32.142V31.4698H134.446V30.7366Z" fill="#6A8368"/>
  <path d="M142.745 28.9645H146.088V29.7588H143.869V30.4921H145.967V31.2865H143.869V32.0809H146.119V32.8753H142.745V28.9645Z" fill="#6A8368"/>
  <path d="M153.444 30.6449H154.326C154.842 30.6449 155.025 30.4921 155.025 30.1866C155.025 29.82 154.721 29.7283 154.174 29.7283H153.444V30.6449ZM152.32 28.9645H154.69C155.633 28.9645 156.149 29.3005 156.149 29.9727C156.149 30.4616 155.754 30.8282 155.177 30.9199C155.511 30.9504 155.815 31.0115 155.937 31.256C156.119 31.6226 156.149 32.4475 156.301 32.8447H155.116C154.994 32.4781 155.025 31.8976 154.903 31.6226C154.842 31.4393 154.66 31.3476 154.204 31.3476H153.444V32.8142H152.32V28.9645Z" fill="#6A8368"/>
  <path d="M163.202 31.6226C163.202 32.1114 163.445 32.2337 163.961 32.2337C164.63 32.2337 164.721 31.9892 164.721 31.8365C164.721 31.592 164.448 31.5004 164.022 31.4087L163.475 31.2865C162.837 31.1643 162.168 30.9199 162.168 30.1866C162.168 29.2394 163.05 28.9034 163.931 28.9034C165.36 28.9034 165.755 29.3311 165.785 30.1255H164.691C164.661 29.7283 164.326 29.6672 163.992 29.6672C163.506 29.6672 163.293 29.82 163.293 30.0644C163.293 30.3394 163.658 30.4005 164.053 30.4921L164.569 30.6143C165.269 30.7671 165.846 30.981 165.846 31.7754C165.846 32.8753 164.752 33.0586 163.87 33.0586C162.32 33.0586 162.046 32.3864 162.046 31.6837H163.202V31.6226Z" fill="#6A8368"/>
  <path d="M36.9017 16.0099C35.6858 6.78282 28.117 0 18.542 0C8.35912 0 0 8.27993 0 18.5153C0 28.7506 8.35912 37 18.542 37C28.117 37 35.6858 30.3699 36.9017 21.0512H32.7677C31.7343 27.8035 25.7157 32.9364 18.542 32.9364C10.6085 32.9364 4.10357 26.4897 4.10357 18.5153C4.10357 10.5409 10.6085 4.06358 18.542 4.06358C25.7461 4.06358 31.7343 9.22709 32.7677 16.0099H36.9017Z" fill="#002B10"/>
  <path d="M17.1742 16.7432V20.2874L27.5699 18.5153L17.1742 16.7432Z" fill="#002B10"/>
  <path d="M24.1958 21.0512H28.0258C27.1747 25.3287 23.1624 28.2923 18.542 28.2923C13.2226 28.2923 8.69348 23.9843 8.69348 18.5458C8.69348 13.199 13.2226 8.73823 18.542 8.73823C23.1624 8.73823 27.1443 11.763 28.117 16.0405H24.1655C23.2839 13.749 21.3082 12.2519 18.542 12.2519C15.1984 12.2519 12.2803 14.8794 12.2803 18.5153C12.2803 21.9372 15.168 24.7176 18.542 24.7176C21.3082 24.7176 23.2839 23.2205 24.1958 21.0512Z" fill="#002B10"/>
  <path d="M100.158 21.8457H98.4249V14.6962L93.9566 20.4097L89.4883 14.6962V21.8457H87.7861V12.8936H90.1266L93.9566 17.7515L97.7866 12.8936H100.158V21.8457Z" fill="#002B10"/>
  <path d="M116.967 18.4543H121.162C120.736 19.7069 119.247 20.5319 117.423 20.5319C115.265 20.5319 113.228 19.432 113.228 17.3238C113.228 15.1851 115.417 14.2074 117.423 14.2074C119.004 14.2074 120.219 14.7573 121.04 15.4295L122.134 14.2685C121.01 13.2908 119.429 12.7102 117.393 12.7102C114.262 12.7102 111.404 14.5129 111.404 17.3849C111.404 20.3486 114.292 22.1206 117.423 22.1206C120.554 22.1206 123.138 20.1652 123.138 17.3849V17.0488H116.967V18.4543Z" fill="#002B10"/>
  <path d="M137.88 21.8457H135.813L129.095 14.7879V21.8457H127.363V12.8936H129.551L136.117 19.768V12.8936H137.88V21.8457Z" fill="#002B10"/>
  <path d="M52.9209 15.6434C51.9786 14.6656 50.6412 14.2074 49.2429 14.2074C46.9024 14.2074 45.0786 15.3989 45.0786 17.3543C45.0786 19.2792 46.9024 20.5319 49.2429 20.5319C50.854 20.5319 52.0394 20.0125 52.9513 19.0653L54.1672 20.1958C53.0729 21.2957 51.4923 22.0901 49.2429 22.0901C46.0209 22.0901 43.2852 20.1652 43.2852 17.3543C43.2852 14.6656 45.9601 12.6797 49.2429 12.6797C51.4315 12.6797 53.0425 13.4435 54.1064 14.5129L52.9209 15.6434Z" fill="#002B10"/>
  <path d="M165.784 15.6434C164.842 14.6656 163.504 14.2074 162.076 14.2074C159.735 14.2074 157.911 15.3989 157.911 17.3543C157.911 19.2792 159.735 20.5319 162.076 20.5319C163.687 20.5319 164.872 20.0125 165.784 19.0653L167 20.1958C165.906 21.2957 164.325 22.0901 162.076 22.0901C158.854 22.0901 156.118 20.1652 156.118 17.3543C156.118 14.6656 158.793 12.6797 162.076 12.6797C164.264 12.6797 165.875 13.4435 166.939 14.5129L165.784 15.6434Z" fill="#002B10"/>
  <path d="M79.3054 17.0488C80.3996 17.0488 81.0684 16.56 81.0684 15.735C81.0684 14.8795 80.3996 14.3907 79.3054 14.3907H74.4115V17.0488H79.3054ZM83.3481 21.8457H81.19L78.6366 18.5765H74.4115V21.8457H72.6789V12.8936H79.6093C81.4027 12.8936 82.8618 14.0546 82.8618 15.735C82.8618 17.0794 81.8891 18.1182 80.5516 18.4237L83.3481 21.8457Z" fill="#002B10"/>
  <path d="M107.179 12.8936H105.416V21.8151H107.179V12.8936Z" fill="#002B10"/>
  <path d="M62.9215 14.299L65.3228 18.4237L60.8241 17.8737L62.9215 14.299ZM67.3594 21.8457H69.4264L64.0158 12.9241H61.8272L56.447 21.8457H58.4836L59.7602 19.6764L65.4748 18.6681L67.3594 21.8457Z" fill="#002B10"/>
  <path d="M147.516 14.299L149.917 18.4237L145.418 17.8737L147.516 14.299ZM151.954 21.8457H154.021L148.61 12.9241H146.421L141.041 21.8457H143.078L144.354 19.6764L150.069 18.6681L151.954 21.8457Z" fill="#002B10"/>
</svg>
