<svg viewBox="0 0 151 45" fill="none"
  xmlns="http://www.w3.org/2000/svg">
  <path d="M75.4453 5.79071L75.1732 8.7547H75.6357C75.6357 8.7547 76.3703 6.86104 78.5196 6.86104H81.213V22.422C81.1858 23.6844 80.424 23.5746 79.3358 24.0138V24.4803H85.9742V24.0138C84.8587 23.5746 84.0969 23.6844 84.0697 22.422V6.86104H86.7631C88.9125 6.86104 89.647 8.7547 89.647 8.7547H90.1096L89.8375 5.79071H75.4453Z" fill="#5F5F5E"/>
  <path d="M123.71 5.79071H109.372L109.1 8.7547H109.562C109.562 8.7547 110.297 6.86104 112.446 6.86104H115.14V22.5043C115.112 23.7668 114.351 23.5746 113.262 24.0138V24.4803H119.901V24.0138C118.785 23.5746 118.023 23.7668 117.996 22.5043V6.86104H120.69C122.839 6.86104 123.574 8.7547 123.574 8.7547H124.036L123.71 5.79071Z" fill="#5F5F5E"/>
  <path d="M54.4146 6.28471V5.79071H47.7763V6.28471C48.8917 6.72382 49.6535 6.61404 49.6807 7.87648V22.422C49.6535 23.6844 48.8917 23.5746 47.8035 24.0138V24.4803H54.4418V24.0138C53.3264 23.5746 52.5646 23.6844 52.5374 22.422V7.87648C52.5374 6.61404 53.2992 6.72382 54.4146 6.28471Z" fill="#5F5F5E"/>
  <path d="M35.9686 15.5335V6.97082C41.3555 6.36705 43.0967 8.17837 43.0967 11.2247C43.0967 13.3928 42.0085 16.6861 35.9686 15.5335ZM39.2878 5.79071H31.2075V6.25727C32.323 6.69638 33.0848 6.5866 33.112 7.84904V22.422C33.0848 23.6844 32.323 23.5746 31.2347 24.0138V24.4803H37.8731V24.0138C36.7576 23.5746 35.9959 23.6844 35.9686 22.422V16.8233C37.1929 17.0154 45.5453 18.1407 45.5453 11.1972C45.5453 7.65693 43.1512 5.79071 39.2878 5.79071Z" fill="#5F5F5E"/>
  <path d="M102.815 23.41H98.7612C98.0266 23.41 97.7546 23.2728 97.7274 22.422V15.506H102.298C103.114 15.5335 103.169 15.9177 103.604 16.8782H103.522H104.039V12.8714H103.522H103.604C103.169 13.8319 103.114 14.2161 102.298 14.2436H97.7274V6.86104H102.352C104.393 6.86104 105.454 8.7547 105.454 8.7547H105.917L105.59 5.79071H92.9934V6.28471C94.1089 6.72382 94.8707 6.61404 94.8979 7.87648V22.422C94.8707 23.6844 94.1089 23.5746 93.0206 24.0138V24.4803C93.0206 24.4803 105.753 24.4803 105.971 24.4803L106.406 21.2144H105.944C105.917 21.2144 104.964 23.41 102.815 23.41Z" fill="#5F5F5E"/>
  <path d="M67.5282 23.4923C63.3656 23.4923 60.917 19.5678 60.917 14.9846C60.917 14.7101 60.917 14.4082 60.9442 14.1338C61.2163 9.96225 63.3384 6.64149 67.501 6.64149C70.6841 6.64149 72.2349 8.78215 72.9967 10.9502H73.568L73.1871 6.91593C71.065 6.12005 69.1334 5.40649 66.9024 5.40649C61.6516 5.40649 57.7066 9.02915 57.7066 14.9571C57.7338 20.9125 61.1619 24.645 67.1201 24.645C70.6297 24.645 73.4864 22.422 74.3298 20.3362L73.2415 19.9245C73.2687 19.952 71.6091 23.4923 67.5282 23.4923Z" fill="#5F5F5E"/>
  <path d="M35.7782 39.9315V39.4375L36.8665 39.3002C37.0841 39.2728 37.1385 39.2179 37.1385 39.0807C37.1385 39.0258 37.1113 38.916 37.0841 38.8337L36.1047 35.8697H33.3024L32.3502 38.7239C32.323 38.8611 32.2686 38.9435 32.2686 39.0258C32.2686 39.1905 32.3502 39.2728 32.6222 39.3002L33.6561 39.41V39.904H30.5273V39.41L30.7994 39.3826C31.0443 39.3551 31.1531 39.2454 31.2347 38.9984L34.4179 30.5455L35.3157 29.8594L38.7437 39.0532C38.8253 39.3002 38.9069 39.3551 39.1518 39.3826L39.4511 39.41V39.904H35.7782V39.9315ZM34.7171 31.7256L33.5201 35.2659H35.887L34.7171 31.7256Z" fill="#5F5F5E"/>
  <path d="M42.5798 40.151C41.9541 40.151 41.3011 39.9864 40.8114 39.7119L40.4849 38.0104H40.9474C41.2195 38.8062 41.9541 39.3551 42.7975 39.3551C43.4776 39.3551 43.9673 38.8886 43.9673 38.2299C43.9673 37.7359 43.6953 37.3791 43.0151 37.1321L42.471 36.94C41.2739 36.5009 40.893 36.0069 40.893 35.1013C40.893 33.7839 41.9269 32.8234 43.396 32.8234C43.9946 32.8234 44.4843 32.9606 45.0012 33.2076V34.7719H44.6203C44.3754 34.0309 43.8313 33.6193 43.0967 33.6193C42.471 33.6193 41.9813 34.0858 41.9813 34.6622C41.9813 35.1561 42.2805 35.4306 43.0423 35.6776L43.5048 35.8423C44.6203 36.2265 45.1644 36.8028 45.1644 37.7908C45.1644 39.163 44.1034 40.151 42.5798 40.151Z" fill="#5F5F5E"/>
  <path d="M48.6197 40.151C47.9939 40.151 47.341 39.9864 46.8512 39.7119L46.5248 38.0104H46.9873C47.2593 38.8062 47.9939 39.3551 48.8373 39.3551C49.5175 39.3551 50.0072 38.8886 50.0072 38.2299C50.0072 37.7359 49.7351 37.3791 49.055 37.1321L48.5108 36.94C47.3137 36.5009 46.9329 36.0069 46.9329 35.1013C46.9329 33.7839 47.9667 32.8234 49.4359 32.8234C50.0344 32.8234 50.5241 32.9606 51.041 33.2076V34.7719H50.6601C50.4153 34.0309 49.8712 33.6193 49.1366 33.6193C48.5108 33.6193 48.0211 34.0858 48.0211 34.6622C48.0211 35.1561 48.3204 35.4306 49.0822 35.6776L49.5447 35.8423C50.6601 36.2265 51.2043 36.8028 51.2043 37.7908C51.2043 39.163 50.116 40.151 48.6197 40.151Z" fill="#5F5F5E"/>
  <path d="M55.6661 40.151C53.8433 40.151 52.6734 38.8886 52.6734 36.9675C52.6734 34.6622 54.1426 32.8234 55.9926 32.8234C56.7816 32.8234 57.4074 33.1527 57.761 33.7016C58.0875 34.1956 58.1963 34.717 58.1963 35.6776H53.8977C53.8705 35.8971 53.8705 35.9795 53.8705 36.199C53.8705 37.9006 54.8227 38.9984 56.3191 38.9984C57.0537 38.9984 57.5978 38.7514 58.2235 38.175V38.2574C58.2508 39.3551 57.1625 40.151 55.6661 40.151ZM55.6661 33.6193C54.8771 33.6193 54.2786 34.1956 54.0065 35.1836H56.9448V35.1013C56.9448 34.1956 56.4279 33.6193 55.6661 33.6193Z" fill="#5F5F5E"/>
  <path d="M61.5972 37.6536C61.5972 38.0653 61.5972 38.3122 61.6788 38.5044C61.7604 38.8337 62.1141 39.0258 62.6038 39.0258C63.0663 39.0258 63.5016 38.8886 63.8281 38.5867C63.7737 38.9709 63.7193 39.1905 63.556 39.41C63.2567 39.8491 62.5222 40.1236 61.7604 40.1236C61.2435 40.1236 60.8626 39.9864 60.6177 39.6845C60.3729 39.3826 60.3185 39.0807 60.3185 38.2025V37.5438L60.4001 34.0035H59.4478V33.7565L61.4611 31.6982H61.6244V33.1527H63.9097V34.0035H61.5972V37.6536Z" fill="#5F5F5E"/>
  <path d="M75.8261 39.9315V39.4375L76.9144 39.3002C77.2681 39.2454 77.3497 39.163 77.3497 38.8886V38.8611L77.0776 32.0001L73.6224 39.9315H73.4864L70.0584 32.0549L69.7863 38.7239V38.8062C69.7863 39.1356 69.8679 39.2454 70.2216 39.2728L71.3915 39.4375V39.9315H67.7458V39.4375L68.5076 39.2728C68.7797 39.2179 68.8341 39.1081 68.8613 38.6965L69.4598 31.4786C69.4598 31.3414 69.3782 31.2316 69.2422 31.2316L67.9363 31.0669V30.5729H70.8202L73.8945 37.5713L76.996 30.5729H79.8799V31.0669L78.71 31.2042C78.3836 31.2316 78.2747 31.3414 78.2747 31.5609V31.6158L78.8189 38.8611C78.8461 39.163 78.9005 39.2454 79.227 39.3002L80.0159 39.4375V39.9315H75.8261Z" fill="#5F5F5E"/>
  <path d="M86.0286 40.1236C85.3484 40.1236 84.9947 39.7119 84.8859 38.7788C84.3418 39.6021 83.6072 40.0687 82.791 40.0687C81.9204 40.0687 81.3763 39.5472 81.3763 38.7239C81.3763 37.6261 82.7366 36.693 84.8315 36.3637V35.2385C84.8315 34.1956 84.4506 33.7565 83.5528 33.7565C83.1719 33.7565 82.927 33.8388 82.8182 34.0309C82.7638 34.1133 82.7366 34.223 82.7366 34.5524C82.4373 34.7994 82.0836 34.964 81.7844 34.964C81.6211 34.964 81.4851 34.8817 81.4851 34.7445C81.4851 34.6622 81.5667 34.5249 81.6755 34.3603C82.3829 33.482 83.58 32.8234 84.505 32.8234C85.4572 32.8234 86.0558 33.5644 86.0558 34.717C86.0558 34.7719 86.0558 34.8268 86.0286 34.8817L85.9742 37.5713V37.7085C85.9742 38.7514 86.1102 39.0807 86.6271 39.0807C86.872 39.0807 87.0896 38.9984 87.4161 38.8062C87.3073 39.6296 86.7904 40.1236 86.0286 40.1236ZM84.8315 36.8577C83.3623 37.1596 82.5189 37.6536 82.5189 38.2574C82.5189 38.7514 82.927 39.1081 83.4712 39.1081C83.9065 39.1081 84.4778 38.8886 84.8315 38.5867V36.8577Z" fill="#5F5F5E"/>
  <path d="M92.803 39.9315V39.4649L93.4559 39.3551C93.6736 39.3002 93.7552 39.2179 93.7552 39.0258V36.1167C93.7552 35.5404 93.728 35.2385 93.6736 34.964C93.5648 34.2779 93.0206 33.8937 92.15 33.8937C91.6603 33.8937 91.3066 33.976 90.8169 34.223V39.0258C90.8169 39.2454 90.8441 39.3002 91.089 39.3277L91.878 39.4649V39.9315H88.586V39.4649L89.2389 39.3551C89.4566 39.3002 89.5382 39.2179 89.5382 39.0258V34.3603C89.5382 34.1407 89.4838 34.0584 89.2389 34.0309L88.7492 33.9486V33.6467L90.8169 32.6038V33.9486C91.5787 33.235 92.3677 32.8783 93.2383 32.8783C93.8368 32.8783 94.3266 33.1253 94.653 33.5369C95.0067 33.976 95.0883 34.4152 95.0883 35.5678C95.0883 35.705 95.0883 35.8697 95.0883 36.0069L95.0611 39.0258C95.0611 39.2454 95.1155 39.3002 95.306 39.3277L96.095 39.4649V39.9315H92.803Z" fill="#5F5F5E"/>
  <path d="M101.999 40.1236C101.319 40.1236 100.965 39.7119 100.856 38.7788C100.312 39.6021 99.5774 40.0687 98.7612 40.0687C97.8906 40.0687 97.3465 39.5472 97.3465 38.7239C97.3465 37.6261 98.7068 36.693 100.802 36.3637V35.2385C100.802 34.1956 100.421 33.7565 99.523 33.7565C99.1421 33.7565 98.8973 33.8388 98.7884 34.0309C98.734 34.1133 98.7068 34.223 98.7068 34.5524C98.4075 34.7994 98.0538 34.964 97.7546 34.964C97.5913 34.964 97.4553 34.8817 97.4553 34.7445C97.4553 34.6622 97.5097 34.5249 97.6458 34.3603C98.3531 33.482 99.5502 32.8234 100.475 32.8234C101.427 32.8234 102.026 33.5644 102.026 34.717C102.026 34.7719 102.026 34.8268 101.999 34.8817L101.944 37.5713V37.7085C101.944 38.7514 102.08 39.0807 102.597 39.0807C102.842 39.0807 103.06 38.9984 103.386 38.8062C103.277 39.6296 102.761 40.1236 101.999 40.1236ZM100.802 36.8577C99.3326 37.1596 98.4892 37.6536 98.4892 38.2574C98.4892 38.7514 98.8972 39.1081 99.4414 39.1081C99.8767 39.1081 100.448 38.8886 100.802 38.5867V36.8577Z" fill="#5F5F5E"/>
  <path d="M109.671 33.7565C110.079 34.1956 110.242 34.6073 110.242 35.1836C110.242 36.693 108.909 37.8731 107.25 37.8731C107.005 37.8731 106.869 37.8731 106.461 37.7908C106.053 38.2025 105.889 38.4769 105.889 38.7514C105.889 38.8886 105.917 38.9984 106.025 39.0807C106.216 39.2454 106.488 39.3002 107.413 39.3002H108.256C109.236 39.3002 109.481 39.3002 109.861 39.41C110.596 39.5747 111.086 40.2059 111.086 40.9469C111.086 42.7033 109.263 44.1304 106.923 44.1304C105.291 44.1304 104.175 43.3895 104.175 42.3466C104.175 41.8526 104.42 41.3586 104.91 41.0018C105.236 40.7548 105.372 40.6725 105.889 40.4255C105.182 40.2059 104.801 39.8491 104.801 39.3551C104.801 38.7788 105.264 38.2299 106.216 37.7085C105.155 37.3243 104.638 36.6107 104.638 35.5678C104.638 34.0035 105.971 32.741 107.603 32.741C108.229 32.741 108.637 32.8783 109.1 33.1802H111.358V34.1407L109.671 33.7565ZM109.698 40.7822C109.589 40.6999 109.481 40.6725 109.317 40.6176C109.1 40.5627 108.909 40.5352 108.256 40.5352H107.576C107.522 40.5352 107.277 40.5352 106.869 40.5352C106.406 40.5352 106.352 40.5352 106.107 40.4529C105.672 40.8646 105.454 41.3311 105.454 41.88C105.454 42.8131 106.216 43.3346 107.494 43.3346C108.882 43.3346 109.97 42.4838 109.97 41.4683C110.025 41.1939 109.889 40.9195 109.698 40.7822ZM107.467 33.4272C106.542 33.4272 105.944 34.1682 105.944 35.2934C105.944 36.446 106.569 37.2419 107.467 37.2419C108.392 37.2419 108.991 36.5284 108.991 35.4855C108.991 34.2505 108.365 33.4272 107.467 33.4272Z" fill="#5F5F5E"/>
  <path d="M115.194 40.151C113.371 40.151 112.174 38.8886 112.174 36.9675C112.174 34.6622 113.643 32.8234 115.493 32.8234C116.282 32.8234 116.908 33.1527 117.262 33.7016C117.588 34.1956 117.697 34.717 117.697 35.6776H113.426C113.398 35.8971 113.398 35.9795 113.398 36.199C113.398 37.9006 114.351 38.9984 115.847 38.9984C116.581 38.9984 117.126 38.7514 117.751 38.175V38.2574C117.779 39.3551 116.69 40.151 115.194 40.151ZM115.167 33.6193C114.378 33.6193 113.779 34.1956 113.507 35.1836H116.445V35.1013C116.473 34.1956 115.956 33.6193 115.167 33.6193Z" fill="#5F5F5E"/>
  <path d="M127.165 39.9315V39.4649L127.818 39.3551C128.035 39.3002 128.117 39.2179 128.117 39.0258V36.0893C128.117 35.3208 128.117 35.1562 128.035 34.8543C127.872 34.2779 127.355 33.9212 126.621 33.9212C126.131 33.9212 125.668 34.0309 125.179 34.2779C125.26 34.6896 125.315 34.9915 125.315 35.6776V39.0258C125.315 39.2454 125.369 39.3002 125.587 39.3277L126.349 39.4649V39.9315H123.111V39.4649L123.737 39.3551C123.954 39.3002 124.036 39.2179 124.036 39.0258V36.0344C124.036 35.2385 124.036 35.0738 123.927 34.7719C123.791 34.223 123.247 33.8937 122.512 33.8937C122.077 33.8937 121.669 34.0035 121.179 34.223V39.0258C121.179 39.2454 121.234 39.3002 121.424 39.3277L122.213 39.4649V39.9315H118.948V39.4649L119.601 39.3551C119.819 39.3002 119.901 39.2179 119.901 39.0258V34.3603C119.901 34.1407 119.819 34.0584 119.601 34.0309L119.084 33.9486V33.6467L121.179 32.6038V33.976C121.996 33.2076 122.676 32.8783 123.465 32.8783C124.281 32.8783 124.798 33.235 125.124 34.0035C125.478 33.7016 125.614 33.5918 125.832 33.4272C126.376 33.0704 126.947 32.8783 127.546 32.8783C128.144 32.8783 128.634 33.0978 128.988 33.5095C129.341 33.9486 129.45 34.3877 129.45 35.2659V35.6501L129.396 38.9984C129.396 39.1905 129.45 39.2728 129.668 39.3002L130.457 39.4375V39.904H127.165V39.9315Z" fill="#5F5F5E"/>
  <path d="M134.456 40.151C132.633 40.151 131.463 38.8886 131.463 36.9675C131.463 34.6622 132.933 32.8234 134.783 32.8234C135.572 32.8234 136.197 33.1527 136.551 33.7016C136.878 34.1956 136.986 34.717 136.986 35.6776H132.715C132.688 35.8971 132.688 35.9795 132.688 36.199C132.688 37.9006 133.64 38.9984 135.136 38.9984C135.871 38.9984 136.415 38.7514 137.041 38.175V38.2574C137.041 39.3551 135.952 40.151 134.456 40.151ZM134.429 33.6193C133.64 33.6193 133.041 34.1956 132.769 35.1836H135.708V35.1013C135.735 34.1956 135.218 33.6193 134.429 33.6193Z" fill="#5F5F5E"/>
  <path d="M142.428 39.9315V39.4649L143.081 39.3551C143.298 39.3002 143.38 39.2179 143.38 39.0258V36.1167C143.38 35.5404 143.38 35.2385 143.298 34.964C143.189 34.2779 142.645 33.8937 141.775 33.8937C141.285 33.8937 140.931 33.976 140.442 34.223V39.0258C140.442 39.2454 140.496 39.3002 140.714 39.3277L141.503 39.4649V39.9315H138.211V39.4649L138.864 39.3551C139.081 39.3002 139.163 39.2179 139.163 39.0258V34.3603C139.163 34.1407 139.108 34.0584 138.864 34.0309L138.374 33.9486V33.6467L140.442 32.6038V33.9486C141.203 33.235 141.992 32.8783 142.863 32.8783C143.461 32.8783 143.951 33.1253 144.278 33.5369C144.631 33.976 144.713 34.4152 144.713 35.5678C144.713 35.705 144.713 35.8697 144.713 36.0069L144.686 39.0258C144.686 39.2454 144.74 39.3002 144.931 39.3277L145.72 39.4649V39.9315H142.428Z" fill="#5F5F5E"/>
  <path d="M148.685 37.6536C148.685 38.0653 148.685 38.3122 148.767 38.5044C148.848 38.8337 149.202 39.0258 149.692 39.0258C150.154 39.0258 150.59 38.8886 150.916 38.5867C150.889 38.9709 150.807 39.1905 150.644 39.41C150.345 39.8491 149.61 40.1236 148.848 40.1236C148.331 40.1236 147.951 39.9864 147.706 39.6845C147.461 39.3826 147.406 39.0807 147.406 38.2025V37.5438L147.488 34.0035H146.536V33.7565L148.549 31.6982H148.712V33.1527H150.998V34.0035H148.685V37.6536Z" fill="#5F5F5E"/>
  <path d="M1.03857 7.43729C1.01137 7.46474 1.01137 7.46474 1.03857 7.43729C1.01137 7.54707 0.984161 7.65685 0.984161 7.73918C0.739303 7.8764 -0.158512 8.26062 0.440031 9.19373C0.303999 8.64484 0.956954 8.48018 1.17461 8.45273C1.17461 8.56251 1.17461 8.69973 1.20181 8.83695C0.956954 9.08395 0.412825 9.90728 1.31064 10.3738C1.01137 9.87984 1.50108 9.63284 1.5827 9.55051C2.61655 10.6208 3.2423 8.97418 4.35777 9.90728C4.43938 9.96217 4.4938 10.0445 4.57542 10.1268C5.36441 11.1697 6.26222 11.4716 7.24165 11.9382C6.64311 11.4716 6.50708 10.5111 6.47987 10.0171C6.77914 10.1543 7.26886 10.3189 7.89461 10.2915C7.024 9.74262 6.86076 9.08395 6.75194 8.1234C6.20781 7.95873 5.82692 7.93129 4.87469 7.27263C4.33056 6.80607 3.56878 5.92786 2.8342 5.87297C2.72538 5.87297 2.64376 5.87297 2.53493 5.90041C2.09963 5.7083 1.1474 5.35152 0.848128 6.4493C1.20181 6.06508 1.60991 6.28463 1.77315 6.36696C1.69153 6.47674 1.63712 6.61396 1.60991 6.75118C0.793716 6.64141 0.00472737 6.91585 0.0319339 7.73918C0.167966 7.54707 0.467238 7.30007 1.03857 7.43729Z" fill="#981617"/>
  <path d="M22.9398 13.5848C22.5317 14.3533 21.8787 16.1371 23.6744 18.4974C23.6744 15.8627 24.7354 15.1766 25.1435 14.6277C25.5788 14.0239 25.3612 13.475 25.1979 13.1732C24.9803 12.7889 25.1163 12.4596 25.1707 12.1303C25.334 11.2795 25.1979 9.02906 23.103 8.91929C20.9265 8.80951 18.6684 11.1697 20.2464 18.6346C20.5456 20.0342 20.3824 22.2572 17.6345 22.2572C13.9617 22.2572 13.7168 17.674 15.0227 15.945C14.8323 16.1097 13.9344 16.5488 12.2204 16.4939C12.3837 16.2469 12.7102 15.7255 12.7918 15.5059C11.241 16.4665 9.79906 15.5334 9.5542 15.2315C9.90789 15.0394 10.316 14.8473 10.5336 14.1063C10.18 14.4082 8.95566 14.71 7.8402 14.3258C7.59534 14.2435 7.35048 14.1337 7.13283 13.9965C7.89461 13.6397 8.2755 13.1183 8.35712 12.8713C8.11226 12.9536 6.80635 13.2829 5.14675 13.228C4.33056 13.228 3.73202 12.9262 2.99744 12.7615C2.53493 12.6517 2.15404 12.734 1.88198 12.9536C1.41946 12.9536 0.222379 13.0908 0.440031 14.216C0.60327 13.6397 1.22902 13.6946 1.44667 13.722V13.7495C1.28343 13.8593 1.17461 14.0514 1.09299 14.2709C0.793715 14.4082 -0.348957 14.9845 0.303999 15.9176C0.331205 15.3961 0.766509 15.204 1.06578 15.1217C1.09299 15.204 1.1474 15.3138 1.20181 15.3961C0.984161 15.698 0.52165 16.439 1.39226 16.933C1.22902 16.4939 1.50108 16.0823 1.80036 15.8627C1.82756 15.9725 1.85477 16.0823 1.90918 16.192C1.80036 16.4665 1.60991 17.6466 2.67096 17.6191C2.29007 17.427 2.45331 16.933 2.53493 16.7684C2.61655 16.7958 2.69817 16.7958 2.807 16.7958C4.11291 16.7958 3.45995 15.945 7.29607 15.3138C7.40489 15.2864 7.48651 15.3138 7.56813 15.3138C6.5887 19.3756 9.77186 20.1166 9.77186 21.7358C9.77186 22.3121 9.36376 22.7512 8.57477 22.7512H1.33785V24.4802H24.8442V22.7512H20.9537C22.2596 21.1869 22.2052 19.3207 21.8243 18.1406C19.7294 11.5539 21.9876 9.79751 23.103 9.96217C24.2729 10.1268 24.4362 11.3893 23.7832 12.3224C23.3479 13.0359 23.2663 12.9536 22.9398 13.5848Z" fill="#981617"/>
  <path d="M11.0234 28.3499L10.8873 28.295L11.0234 28.2127C11.2954 28.048 11.5947 27.8284 11.5947 27.307C11.5947 26.7307 11.105 26.1818 10.1527 26.1818C9.20052 26.1818 8.57477 26.6209 8.57477 27.3619C8.57477 27.8559 8.76522 28.0754 9.09169 28.295L9.22773 28.3773L9.09169 28.4597C8.60198 28.7066 8.38433 28.9811 8.38433 29.4476C8.38433 30.2161 9.01007 30.7101 10.0439 30.7101C11.1322 30.7101 11.8123 30.1886 11.8123 29.3928C11.7307 28.8713 11.5131 28.5694 11.0234 28.3499ZM10.0167 26.7307C10.3976 26.7307 10.6697 27.0325 10.6697 27.4168C10.6697 27.7187 10.5064 27.8833 10.3432 28.0205L10.2888 28.0754L10.2072 28.048C9.85348 27.9382 9.41817 27.801 9.41817 27.2795C9.41817 27.0051 9.63582 26.7307 10.0167 26.7307ZM10.0439 30.1063C9.63582 30.1063 9.20052 29.8593 9.20052 29.3379C9.20052 29.036 9.44538 28.7341 9.66303 28.6518L9.82627 28.6792C10.2072 28.789 10.8057 28.9811 10.8057 29.5025C10.8057 29.8319 10.5064 30.1063 10.0439 30.1063Z" fill="#981617"/>
  <path d="M14.8867 26.1543C13.7984 26.1543 13.1727 26.9502 13.1727 28.4322C13.1727 29.8868 13.7712 30.6552 14.8595 30.6552C15.9477 30.6552 16.5735 29.8868 16.5735 28.4322C16.5463 26.9502 15.9477 26.1543 14.8867 26.1543ZM14.8867 30.0514C14.2609 30.0514 14.1249 29.3928 14.1249 28.4048C14.1249 27.6912 14.1249 26.7855 14.8595 26.7855C15.5396 26.7855 15.6213 27.6089 15.6213 28.5145C15.594 29.2006 15.594 30.0514 14.8867 30.0514Z" fill="#981617"/>
  <path d="M19.0765 27.6912V26.8404H20.8177L20.8993 26.2367H18.3147V28.3499C19.8927 27.9382 20.1919 28.8713 20.1919 29.2555C20.1375 29.9691 19.4302 30.4356 18.1787 29.9416L17.961 30.4082C18.2875 30.5729 18.7228 30.6826 19.1581 30.6826C20.6272 30.6826 21.0898 29.8593 21.0898 29.1458C21.0898 28.5145 20.6272 27.5814 19.0765 27.6912Z" fill="#981617"/>
  <path d="M6.09898 29.9965V26.1543H5.85412L4.60262 27.2247V27.3619H5.22837V30.024C5.22837 30.2984 5.17396 30.2435 4.62983 30.4356V30.6278H6.67032V30.4356C6.1806 30.2435 6.09898 30.271 6.09898 29.9965Z" fill="#981617"/>
  <path d="M9.1189 10.2366C9.33655 10.2915 9.20052 10.4013 9.1189 10.4562C8.30271 10.8953 7.67696 10.8404 7.21445 10.6757C7.40489 11.7186 8.49315 12.1852 9.22773 11.6363C9.90789 11.1423 10.3704 11.1697 10.5608 11.2246C10.6969 11.2795 10.7785 11.3893 10.5608 11.4167C10.0983 11.4716 9.47258 11.7461 9.22773 12.5419C8.95566 13.3927 8.54756 13.722 8.32991 13.7769C8.79242 13.9142 9.88068 13.8867 10.4792 13.5299C10.9145 13.2829 11.2954 12.5694 11.8668 12.5694C11.9484 12.5694 12.0028 12.5968 11.8668 12.7066C11.8123 12.7615 11.377 13.1732 11.241 13.8044C11.1866 14.0514 10.9961 14.8747 10.5608 15.1491C11.8123 15.6157 13.3631 14.8747 13.5264 13.0634C13.5264 12.9262 13.6352 12.8438 13.7168 13.0634C14.0705 14.3807 13.3359 15.698 13.2271 15.8353C15.4308 15.5883 15.4852 14.0788 15.458 13.7769C15.4852 13.475 15.0499 12.1303 15.4852 11.7461C15.594 11.6363 15.7029 11.6637 15.6757 11.8833C15.6213 12.2401 15.8933 12.7889 16.0293 13.1457C16.4102 14.1063 15.9749 14.9296 15.6213 15.3413C15.8661 15.2315 17.6345 14.463 17.3081 12.8987C17.2536 12.5694 16.7911 11.8833 16.8183 11.1697C16.8183 10.8129 17.036 10.4013 17.172 10.3189C17.3081 10.2366 17.3897 10.2915 17.3625 10.4287C17.3081 10.6208 17.2536 11.2521 17.5801 11.7186C17.6617 11.8558 17.9882 12.3498 18.0154 13.228C19.1853 11.6088 18.6412 10.5934 18.3963 10.2366C17.4985 8.89184 17.8794 8.04107 17.9882 7.82151C18.0426 7.68429 18.2059 7.6294 18.2331 7.79407C18.2603 7.95874 18.2059 8.97418 18.9949 9.90728C19.2397 10.2366 19.2125 10.6483 19.2397 10.8129C20.7089 7.8764 19.1037 5.18686 18.4779 4.30864C18.3963 4.17142 18.2875 4.00675 18.0698 3.75975C18.6956 3.23831 19.0493 2.52476 18.6684 2.16798C18.3147 1.83865 17.5529 2.14054 17.0088 2.49731C16.8727 2.38754 16.7639 2.27776 16.6823 2.22287C16.6279 2.19543 16.7367 2.25031 16.6279 2.19543C16.6279 2.19543 17.2536 1.3721 16.6823 1.07021C16.0021 0.631099 15.2676 1.48187 15.2676 1.48187C14.2609 1.20743 12.8462 1.15254 11.3498 2.14054C11.0234 2.36009 10.7513 2.44242 10.5881 2.49731C10.4792 2.52476 10.2072 2.68942 10.2072 3.12853C10.2072 3.21087 10.2344 3.26575 10.3432 3.23831C10.7241 3.12853 10.9961 2.93642 11.241 2.85409C11.4587 2.77176 11.6763 2.90898 11.4315 3.07364C11.105 3.26575 10.8057 3.45786 10.6153 3.67742C10.5336 3.7872 10.1527 4.25375 10.6969 4.9673C10.8601 4.69286 11.4042 4.06164 12.166 4.17142C12.7374 4.22631 13.3631 4.69286 13.5808 5.48875C12.4381 5.24175 11.8396 5.18686 10.7241 5.4613C9.85348 5.68086 9.17331 5.65341 8.32991 5.2143C8.49315 5.73574 9.25493 6.86096 11.0506 6.06508C12.3293 5.51619 13.6352 6.09252 13.6352 6.09252C13.6352 6.17485 13.6352 6.25719 13.608 6.31208C13.5536 6.9433 12.9006 7.65685 12.0572 7.30007C11.7579 7.13541 11.5675 6.9433 11.4042 6.36696C11.241 6.47674 10.9689 6.83352 11.1866 7.24518C11.2138 7.35496 11.2138 7.40985 11.105 7.49218C10.9961 7.54707 10.9417 7.68429 11.0234 7.84896C11.6763 9.02906 13.9072 8.50762 14.2881 6.80607C14.3153 6.72374 14.4242 6.6963 14.4242 6.86096C14.3698 9.05651 11.8396 10.1817 10.0439 8.26062C9.82627 8.04107 9.63582 8.04107 9.33655 8.1234C9.01007 8.20573 8.03064 8.42529 7.35048 8.31551C7.37769 8.69973 7.40489 9.82495 9.1189 10.2366ZM13.1455 3.15598C13.0638 2.85409 12.8462 2.44242 12.6557 2.25031C13.5264 1.86609 14.5874 2.03076 14.8051 2.22287C13.9344 2.41498 13.4175 2.7992 13.1455 3.15598Z" fill="#981617"/>
</svg>
