<svg viewBox="0 0 170 45" fill="none"
  xmlns="http://www.w3.org/2000/svg">
  <path fill="#1C2D47" d="M64.752 26.964c-.18 1.15-.69 3.51-.9 4.267h-13.02v-.908c2.16-.181 2.43-.333 2.43-2.542v-9.865c0-2.24-.27-2.36-2.07-2.512v-.907h12.03c.03.454.15 2.27.27 3.873l-.96.121c-.24-.908-.57-1.755-1.02-2.209-.42-.454-1.11-.636-2.55-.636h-1.23c-.96 0-1.05.061-1.05.908v5.478h1.71c2.16 0 2.49-.121 2.85-1.937h.93v5.175h-.93c-.33-1.846-.66-1.967-2.85-1.967h-1.71v4.478c0 1.241.09 1.846.63 2.119.45.211 1.32.272 2.31.272 1.32 0 2.22-.182 2.82-.817.51-.575.96-1.392 1.44-2.542l.87.151ZM100.242 15.404c-1.98.182-2.16.333-2.16 2.512v9.926c0 2.148.21 2.33 2.16 2.512v.907h-7.8v-.907c2.01-.182 2.22-.333 2.22-2.542V23.03h-6.96v4.812c0 2.179.21 2.33 2.1 2.542v.908h-7.62v-.908c1.86-.182 2.1-.333 2.1-2.542v-9.926c0-2.179-.24-2.33-2.19-2.512v-.907h7.65v.907c-1.83.182-2.04.333-2.04 2.512V21.7h6.96v-3.783c0-2.179-.21-2.33-2.13-2.512v-.907h7.68v.907h.03ZM116.832 26.964c-.18 1.15-.69 3.51-.9 4.267h-13.02v-.908c2.16-.181 2.43-.333 2.43-2.542v-9.865c0-2.24-.27-2.36-2.07-2.512v-.907h12.03c.03.454.15 2.27.27 3.873l-.93.121c-.24-.908-.57-1.755-1.02-2.209-.42-.454-1.11-.636-2.55-.636h-1.23c-.96 0-1.05.061-1.05.908v5.478h1.71c2.13 0 2.49-.121 2.85-1.937h.93v5.175h-.93c-.33-1.846-.66-1.967-2.85-1.967h-1.71v4.478c0 1.241.09 1.846.6 2.119.45.211 1.32.272 2.31.272 1.32 0 2.22-.182 2.82-.817.51-.575.96-1.392 1.44-2.542l.87.151ZM136.152 15.374c-1.38.09-1.92.424-2.04 1.604-.09.787-.24 1.997-.24 4.297v10.228h-1.23l-10.62-12.83h-.09v5.78c0 2.27.12 3.42.21 4.206.12 1.12.57 1.634 2.46 1.695v.907h-6.27v-.907c1.44-.091 2.01-.515 2.13-1.635.09-.847.27-2.027.27-4.266v-5.387c0-1.695-.03-2.179-.51-2.784s-1.05-.817-2.16-.938v-.878h4.74l9.75 11.348h.09v-4.539c0-2.3-.12-3.51-.21-4.236-.12-1.12-.63-1.544-2.52-1.635v-.877h6.24v.847ZM151.662 26.964c-.18 1.15-.69 3.51-.9 4.267h-13.02v-.908c2.16-.181 2.43-.333 2.43-2.542v-9.865c0-2.24-.27-2.36-2.07-2.512v-.907h12.03c.03.454.15 2.27.27 3.873l-.96.121c-.24-.908-.57-1.755-1.02-2.209-.42-.454-1.11-.636-2.55-.636h-1.23c-.93 0-1.05.061-1.05.908v5.478h1.71c2.16 0 2.49-.121 2.85-1.937h.93v5.175h-.93c-.33-1.846-.66-1.967-2.85-1.967h-1.71v4.478c0 1.241.09 1.846.63 2.119.45.211 1.32.272 2.31.272 1.32 0 2.22-.182 2.82-.817.51-.575.96-1.392 1.44-2.542l.87.151ZM67.992 14.497h-2.13c-.06 1.24-.18 2.844-.27 4.448h.96c.33-1.301.63-2.179 1.08-2.602.36-.424.81-.697 2.94-.697h.87v12.196c0 2.179-.27 2.33-2.4 2.542v.908h8.34v-.908c-2.25-.182-2.49-.333-2.49-2.542V15.616h1.14c1.5 0 2.16.121 2.61.605.45.454.81 1.332 1.11 2.694l.93-.06c-.12-1.363-.21-3.178-.27-4.358h-12.42ZM157.422 24.392c.66-1.816 1.29-3.722 2.01-5.598h.09l1.89 5.598h-3.99Zm8.76 3.147c-1.62-4.297-3.15-8.655-4.74-13.042h-1.44l-5.22 13.194c-.84 2.178-1.17 2.45-2.85 2.663v.907h5.73v-.907c-1.86-.243-1.95-.606-1.56-1.846.3-1.03.63-1.967.93-2.754h4.92c.39 1.029.78 2.148 1.02 2.905.42 1.12.27 1.452-1.23 1.664v.908h7.26v-.908c-1.65-.181-1.95-.514-2.82-2.784Z"/>
  <path fill="#9B9C9E" d="m22.782 14.8-.54 1.996.48-.03v12.407l-.57.969V31.2l.66-.605.63.605v-1.06l-.54-.998V16.766h.06l.42.03-.6-1.997Z"/>
  <path fill="#9B9C9E" d="m15.072 20.488 1.71 1.12.15-.454 11.67 3.843.75.817.99.333-.36-.787.75-.454-.99-.332-1.11.242-11.67-3.843.03-.03.15-.425-2.07-.03Z"/>
  <path fill="#9B9C9E" d="m18.042 29.627 1.62-1.27-.39-.273 7.2-10.047 1.02-.454.6-.847-.84.09-.18-.847-.63.848-.12 1.12-7.2 10.016-.06-.03-.33-.273-.69 1.967Z"/>
  <path fill="#9B9C9E" d="m27.612 29.597-.72-1.937-.39.303-7.23-10.017-.12-1.12-.6-.847-.18.848-.87-.091.6.847 1.05.484 7.2 10.017-.06.03-.33.242 1.65 1.24Z"/>
  <path fill="#9B9C9E" d="m30.522 20.428-2.04.09.15.454-11.67 3.844-1.08-.242-1.02.332.75.424-.33.817.96-.333.78-.847 11.67-3.813v.06l.15.394 1.68-1.18Z"/>
  <path fill="#9B9C9E" d="M22.062 44.334c11.7.394 21.48-8.806 21.9-20.608.39-11.802-8.73-21.667-20.43-22.09-11.7-.394-21.48 8.806-21.9 20.607-.39 11.802 8.76 21.668 20.43 22.091Zm-21.06-22.12C1.422 10.077 11.532.575 23.562 1c12.03.424 21.45 10.622 21.03 22.756-.42 12.135-10.53 21.637-22.56 21.214-12.03-.424-21.45-10.622-21.03-22.757Z"/>
  <path fill="#9B9C9E" d="M22.212 39.916c9.27.303 17.01-6.99 17.34-16.31.3-9.352-6.93-17.159-16.17-17.492-9.27-.302-17.01 6.99-17.34 16.311-.3 9.32 6.93 17.128 16.17 17.491ZM5.442 22.395c.33-9.684 8.4-17.25 17.97-16.916 9.6.333 17.1 8.443 16.77 18.126-.33 9.684-8.4 17.25-17.97 16.916-9.6-.333-17.13-8.473-16.77-18.126ZM21.912 4.873c.51-.03 1.02-.03 1.53 0h.27c-.21-.696-.63-1.603-.87-2.088-.33.485-.75 1.483-.93 2.088ZM24.102 4.208c.3-.606.81-1.453 1.14-1.877-.54-.06-1.14-.09-1.71-.12h-.3c.27.484.66 1.27.87 1.997ZM19.422 5.176c.48-.09.99-.182 1.5-.212.09 0 .18-.03.27-.03-.3-.636-.84-1.483-1.17-1.937-.21.515-.51 1.574-.6 2.179ZM21.492 4.208c.21-.636.6-1.513.87-1.998-.57 0-1.14.06-1.71.121-.09 0-.18.03-.3.03.33.424.84 1.18 1.14 1.847Z"/>
  <path fill="#9B9C9E" d="M16.992 5.72v.092c.48-.152.96-.303 1.47-.424.09-.03.18-.03.24-.06a12.722 12.722 0 0 0-1.41-1.756c-.15.515-.27 1.544-.3 2.149ZM18.912 4.57c.12-.665.39-1.633.6-2.117-.54.09-1.11.211-1.68.363-.09.03-.18.06-.27.06.36.394.96 1.09 1.35 1.695ZM14.622 5.025c-.03.575 0 1.301.06 1.785.45-.242.9-.454 1.38-.635.09-.03.15-.06.24-.091-.45-.545-1.2-1.21-1.65-1.543 0 .12-.03.302-.03.484ZM16.422 5.297c.03-.666.15-1.664.3-2.179-.54.182-1.08.363-1.62.605-.09.03-.18.061-.27.122.42.302 1.08.907 1.59 1.452ZM12.522 8.111c.42-.272.84-.575 1.29-.817.09-.03.15-.09.21-.12-.54-.485-1.35-1.03-1.83-1.302.03.545.18 1.634.33 2.24ZM14.052 6.356c-.06-.484-.06-1.15-.06-1.694 0-.182.03-.364.03-.485-.51.242-1.02.515-1.53.817-.09.061-.18.091-.27.152.51.242 1.26.726 1.83 1.21ZM10.572 9.685c.36-.333.75-.666 1.17-.999.06-.06.12-.09.21-.151-.6-.393-1.47-.817-2.01-1.029.09.575.39 1.604.63 2.179ZM8.862 11.53c.3-.393.66-.786 1.02-1.149l.18-.182c-.63-.302-1.59-.605-2.13-.726.15.545.6 1.543.93 2.058ZM9.852 9.443c-.24-.636-.54-1.574-.6-2.118-.42.363-.84.786-1.23 1.21l-.21.212c.51.151 1.35.393 2.04.696ZM7.422 13.619c.27-.424.54-.847.84-1.271.06-.06.09-.151.15-.212-.69-.212-1.65-.363-2.22-.423.27.484.84 1.422 1.23 1.906ZM8.112 11.41c-.33-.575-.75-1.483-.9-1.997-.36.423-.72.877-1.08 1.361-.06.091-.12.152-.18.243.54.03 1.44.181 2.16.393ZM6.282 15.858c.21-.454.42-.938.66-1.392.03-.09.09-.151.12-.212-.39-.06-.84-.09-1.29-.12h-.96c.3.484 1.02 1.3 1.47 1.724ZM6.642 13.589c-.39-.545-.93-1.392-1.17-1.846-.3.484-.6.998-.87 1.513-.06.09-.09.181-.15.272h1.02c.39-.03.81 0 1.17.06ZM5.442 18.249c.12-.484.3-.968.45-1.453.03-.09.06-.15.09-.242-.72-.03-1.68.091-2.25.212.39.394 1.2 1.12 1.71 1.483ZM3.432 15.858l-.09.273c.54-.091 1.41-.212 2.16-.212-.48-.484-1.14-1.24-1.41-1.695-.24.545-.45 1.09-.66 1.634ZM4.962 20.73c.06-.514.15-.998.24-1.513.03-.09.03-.151.06-.242-.69.091-1.65.333-2.19.515.45.363 1.35.968 1.89 1.24ZM2.652 18.673c-.03.09-.03.181-.06.302.51-.181 1.38-.393 2.1-.514-.54-.394-1.29-1.06-1.62-1.453-.18.515-.3 1.09-.42 1.665ZM4.812 23.272v-.877c0-.212.03-.424.03-.636 0-.09 0-.181.03-.242-.69.182-1.59.575-2.1.817.51.242 1.47.727 2.04.938ZM2.232 21.517c0 .09 0 .212-.03.303.48-.242 1.29-.605 2.01-.817-.6-.303-1.41-.878-1.8-1.21l-.18 1.724ZM5.022 25.784c-.06-.484-.12-.999-.18-1.513v-.242c-.66.272-1.5.787-1.98 1.09.54.211 1.56.544 2.16.665ZM2.232 24.422c0 .091 0 .212.03.303.45-.303 1.2-.787 1.89-1.09-.63-.242-1.53-.665-1.95-.968-.03.605 0 1.18.03 1.755ZM5.592 28.235c-.15-.484-.27-.968-.39-1.483-.03-.09-.03-.15-.06-.242-.6.363-1.38.999-1.8 1.362.57.151 1.65.333 2.25.363ZM2.652 27.297c.03.09.03.182.06.303.39-.363 1.08-.938 1.71-1.332-.66-.151-1.62-.454-2.07-.696.06.575.18 1.15.3 1.725ZM5.172 30.626c.48.03.96 0 1.32-.03-.21-.454-.39-.939-.57-1.423-.03-.09-.06-.151-.09-.242-.54.454-1.23 1.18-1.59 1.604.24.06.57.09.93.09ZM3.432 30.081l.09.273c.36-.424.96-1.09 1.53-1.574-.66-.06-1.65-.212-2.16-.363.15.575.36 1.12.54 1.664ZM5.472 33.107c.57 0 1.65-.12 2.25-.272-.27-.424-.54-.878-.78-1.332-.03-.09-.09-.15-.12-.211-.51.514-1.08 1.331-1.35 1.815ZM4.602 32.744c.03.09.09.182.15.273.3-.485.78-1.211 1.29-1.756-.36.03-.81.03-1.23 0-.36 0-.72-.03-.93-.06.18.514.45 1.029.72 1.543ZM7.032 35.437c.57-.09 1.59-.363 2.19-.575-.33-.393-.63-.786-.96-1.21-.06-.06-.09-.151-.15-.212-.42.575-.87 1.483-1.08 1.997ZM6.132 35.195c.06.091.12.152.18.242a12.3 12.3 0 0 1 1.02-1.936c-.63.12-1.59.242-2.16.242.3.514.6.968.96 1.452ZM8.892 37.525c.54-.15 1.53-.575 2.07-.877-.39-.333-.75-.696-1.11-1.06l-.18-.18c-.3.635-.63 1.573-.78 2.117ZM7.962 37.435c.06.06.15.15.21.212.15-.545.42-1.362.75-2.058-.63.212-1.59.484-2.1.544.36.424.75.878 1.14 1.302ZM11.022 39.341c.51-.242 1.44-.787 1.95-1.15-.42-.272-.84-.575-1.23-.908-.06-.06-.12-.09-.21-.151-.24.666-.42 1.634-.51 2.21ZM10.122 39.371c.09.06.15.121.24.182.06-.545.24-1.422.48-2.149-.6.303-1.53.696-2.01.817.36.424.81.787 1.29 1.15ZM13.422 40.37v.454c.48-.303 1.32-.968 1.77-1.422-.45-.212-.9-.454-1.35-.696-.09-.03-.15-.091-.21-.121-.15.514-.21 1.24-.21 1.785ZM12.492 40.975c.09.06.18.091.27.151v-.514c.03-.514.06-1.12.15-1.664-.54.393-1.41.907-1.89 1.12.48.332.96.635 1.47.907ZM15.822 39.855c-.03.697.06 1.604.12 2.119.42-.363 1.17-1.15 1.56-1.664-.48-.152-.96-.333-1.44-.515-.09-.03-.15-.06-.24-.09v.15ZM15.072 42.276c.09.03.18.061.27.121-.09-.544-.15-1.422-.12-2.178-.48.454-1.26 1.09-1.71 1.361.48.242 1.02.454 1.56.696ZM18.642 42.76c.39-.423.99-1.3 1.29-1.845-.48-.091-.99-.182-1.5-.303-.09-.03-.15-.03-.24-.06.06.696.3 1.664.45 2.209ZM17.802 43.154c.09.03.18.06.27.06-.15-.514-.36-1.392-.42-2.148-.42.514-1.11 1.24-1.5 1.574.54.211 1.08.363 1.65.514ZM21.402 43.154c.33-.484.81-1.453 1.02-2.028h-.27c-.42 0-.84-.06-1.26-.09-.09 0-.18-.03-.24-.03.18.696.54 1.634.75 2.148ZM20.652 43.669c.09 0 .21.03.3.03a12.49 12.49 0 0 1-.72-2.058c-.33.575-.9 1.392-1.26 1.785.51.091 1.08.182 1.68.242ZM24.192 43.154c.24-.514.6-1.543.75-2.149-.51.061-.99.091-1.53.121h-.24c.27.666.72 1.544 1.02 2.028ZM22.002 43.76c.51.03 1.02 0 1.53 0h.3c-.3-.455-.72-1.241-.99-1.938a10.52 10.52 0 0 1-1.02 1.937h.18ZM26.982 42.76c.18-.544.39-1.603.45-2.239-.48.121-.99.242-1.47.333-.09 0-.15.03-.24.03.3.636.9 1.423 1.26 1.877ZM24.672 43.699c.57-.06 1.14-.152 1.71-.242.09 0 .18-.03.3-.06-.36-.425-.9-1.12-1.26-1.786-.18.665-.51 1.604-.75 2.088ZM29.652 41.974c.06-.363.12-.938.12-1.483v-.787c-.45.182-.93.363-1.44.545-.09.03-.15.06-.24.09.45.545 1.14 1.272 1.56 1.635ZM27.492 43.245a16.96 16.96 0 0 0 1.65-.484l.27-.091c-.42-.363-1.02-.999-1.5-1.574-.03.666-.24 1.634-.42 2.149ZM32.202 40.824c.03-.575-.06-1.664-.18-2.27-.42.273-.87.515-1.35.727-.09.03-.15.06-.24.12.51.515 1.32 1.12 1.77 1.423ZM30.402 40.884c-.03.545-.06 1.12-.15 1.483.54-.212 1.05-.454 1.56-.696.09-.03.18-.09.27-.12-.45-.303-1.17-.848-1.71-1.363.03.212.03.454.03.696ZM34.572 39.341c-.06-.575-.3-1.634-.48-2.209-.39.303-.81.636-1.23.908-.06.06-.15.09-.21.151.57.424 1.41.908 1.92 1.15ZM32.862 41.127c.51-.273.99-.576 1.47-.908.09-.06.15-.121.24-.182-.48-.242-1.26-.666-1.86-1.12.09.696.15 1.665.15 2.21ZM36.732 37.525c-.15-.544-.51-1.573-.78-2.118-.36.363-.72.726-1.08 1.06l-.18.18c.57.334 1.5.697 2.04.878ZM35.262 39.553c.45-.333.9-.726 1.32-1.12.06-.06.15-.12.21-.181-.51-.182-1.35-.485-2.01-.848.21.666.45 1.634.48 2.149ZM38.592 35.437c-.21-.514-.72-1.482-1.08-1.997-.3.424-.6.817-.93 1.21l-.18.182c.66.273 1.62.515 2.19.605ZM37.422 37.647c.39-.394.78-.848 1.17-1.302.06-.09.12-.151.18-.242-.54-.09-1.41-.272-2.1-.545.3.636.66 1.604.75 2.089ZM40.092 33.077h.06c-.27-.484-.93-1.362-1.35-1.816-.24.454-.48.878-.75 1.332-.03.06-.09.151-.12.212.66.181 1.59.272 2.16.272ZM39.312 35.468c.33-.454.66-.939.96-1.453.06-.09.12-.151.15-.242h-.09c-.54-.03-1.38-.09-2.07-.242.39.545.87 1.422 1.05 1.937ZM39.552 30.626c.63.03 1.38-.03 1.83-.06-.36-.455-1.11-1.211-1.59-1.605-.18.485-.36.939-.57 1.423-.03.09-.06.151-.09.212.12.03.27.03.42.03ZM40.872 33.017c.27-.515.51-1.03.75-1.574.03-.09.09-.182.12-.273-.48.061-1.2.091-1.86.091-.09 0-.21 0-.3-.03a14.62 14.62 0 0 1 1.29 1.785ZM40.092 27.993c-.03.09-.06.182-.06.242.72-.03 1.68-.212 2.22-.363-.42-.393-1.26-1.06-1.8-1.392-.09.514-.21 1.029-.36 1.513ZM42.072 30.384c.21-.545.39-1.09.54-1.665l.09-.272c-.54.151-1.38.303-2.13.363.48.454 1.2 1.18 1.5 1.574ZM40.602 25.512c0 .09-.03.181-.03.242.69-.121 1.62-.454 2.16-.666-.45-.333-1.41-.878-1.95-1.12-.06.515-.09 1.03-.18 1.544ZM42.912 27.6c.12-.575.21-1.12.3-1.725 0-.091.03-.182.03-.303-.51.212-1.35.515-2.07.666.57.393 1.38.999 1.74 1.362ZM40.782 23v.272c.66-.211 1.56-.665 2.04-.968-.51-.272-1.5-.666-2.1-.817.03.484.06.998.06 1.513ZM43.332 24.725c.03-.303.03-.575.06-.878 0-.272.03-.575.03-.847v-.303c-.48.273-1.26.696-1.95.939.6.302 1.44.786 1.86 1.089ZM40.602 20.458c0 .09.03.182.03.242.63-.302 1.44-.877 1.89-1.24-.54-.182-1.59-.454-2.19-.515.12.514.21.999.27 1.513ZM43.392 21.85c-.03-.575-.09-1.15-.18-1.725 0-.09-.03-.181-.03-.302-.42.332-1.14.847-1.8 1.21.6.181 1.5.545 2.01.817ZM40.092 17.977c.03.09.06.15.06.242.57-.394 1.32-1.09 1.68-1.483-.45-.09-1.26-.182-1.86-.212h-.36c.18.484.33.968.48 1.453ZM43.032 18.975c-.12-.575-.27-1.12-.42-1.694l-.09-.273c-.36.394-1.02.999-1.62 1.453.66.09 1.65.302 2.13.514ZM39.222 15.616c.03.091.06.152.09.242.51-.484 1.14-1.24 1.47-1.725h-.18c-.6-.03-1.53.03-2.07.121.27.424.48.878.69 1.362ZM42.282 16.16c-.18-.544-.42-1.088-.63-1.603-.03-.09-.09-.181-.12-.272-.3.454-.87 1.15-1.41 1.664h.24c.63.03 1.47.09 1.92.212ZM38.052 13.377c.06.06.09.151.12.212.45-.545.96-1.392 1.23-1.907-.57.03-1.62.242-2.22.424.3.424.6.847.87 1.27ZM38.982 13.589c.57-.091 1.41-.121 1.98-.091h.21c-.27-.514-.54-.999-.84-1.513-.06-.091-.09-.182-.15-.242-.3.484-.75 1.24-1.2 1.846ZM36.582 11.35c.06.06.12.12.15.18.36-.604.75-1.512.96-2.057-.54.121-1.56.454-2.13.726.33.364.69.727 1.02 1.15ZM37.512 11.41c.63-.182 1.62-.363 2.13-.393-.33-.454-.69-.908-1.05-1.362-.06-.091-.12-.152-.18-.242-.18.514-.54 1.331-.9 1.997ZM34.842 9.503l.18.182c.27-.666.54-1.604.66-2.179-.54.182-1.5.666-2.01 1.029.39.303.78.636 1.17.968ZM35.772 9.443c.63-.272 1.56-.605 2.07-.696-.39-.424-.81-.817-1.23-1.21-.06-.061-.15-.122-.21-.212-.12.575-.36 1.422-.63 2.118ZM32.862 7.96c.06.06.15.09.21.151.18-.696.3-1.664.36-2.239-.51.272-1.38.878-1.86 1.301.42.212.87.484 1.29.787ZM33.762 7.779c.57-.364 1.47-.818 1.95-.969-.45-.363-.93-.696-1.41-1.029-.09-.06-.15-.12-.24-.181 0 .544-.12 1.422-.3 2.179ZM30.672 6.69c.06.03.15.06.21.12a6.5 6.5 0 0 0 .06-.817c.03-.545 0-1.09-.03-1.452-.45.332-1.26 1.059-1.65 1.543.51.181.96.393 1.41.605ZM31.602 5.69c0 .243-.03.454-.03.696.51-.423 1.32-.998 1.8-1.24-.48-.303-.99-.575-1.53-.817-.09-.03-.18-.091-.27-.121.03.363.06.908.03 1.482ZM28.362 5.751c.09.03.15.06.24.09 0-.695-.15-1.694-.27-2.239-.42.394-1.08 1.241-1.44 1.756.48.09.99.242 1.47.393ZM29.202 5.297c.45-.484 1.2-1.18 1.62-1.483-.51-.212-1.08-.423-1.62-.605-.12 0-.21-.03-.3-.09.12.544.27 1.422.3 2.178ZM25.932 5.116c.09.03.18.03.24.06-.09-.696-.39-1.664-.57-2.179-.36.454-.9 1.362-1.17 1.937.48.03.99.121 1.5.182ZM26.682 4.57c.36-.544.99-1.33 1.38-1.694-.54-.151-1.11-.272-1.68-.363-.09-.03-.18-.03-.3-.06.21.544.48 1.392.6 2.118ZM11.832 7.748c-.15-.635-.3-1.604-.3-2.179-.48.303-.93.666-1.41 1-.09.06-.15.12-.24.18.51.212 1.32.606 1.95 1ZM9.552 17.553a7.086 7.086 0 0 1-.48-.515c.03-.12.12-.484.24-.726.51-.968 1.35-1.059 1.92-.756.75.393.96 1.24.51 2.118-.15.303-.36.514-.45.605a3.32 3.32 0 0 1-.63-.242l.03-.151c.48.09.78-.121.9-.394.27-.544-.06-1.089-.6-1.361-.66-.364-1.29-.212-1.56.272-.15.303-.09.636.18.999l-.06.15ZM9.792 19.066c-.69-.151-1.32 0-1.44.514-.09.394.21.787.93.969.78.181 1.35-.03 1.47-.484.09-.424-.27-.848-.96-.999Zm-.54 2.088c-.87-.212-1.23-.968-1.05-1.695.18-.786.9-1.21 1.68-1.029.69.152 1.23.818 1.02 1.725-.18.727-.87 1.21-1.65.999ZM10.362 24.513c0-.212-.06-.303-.24-.333-.12 0-.33-.03-.69-.03h-1.62v-.212l2.01-1.725h-.93c-.36 0-.54.03-.66.03-.18.03-.27.091-.27.394h-.15v-.999h.15c.03.242.09.333.27.333.15.03.33.03.66.03h.84c.27 0 .33 0 .45-.09.09-.061.12-.182.15-.333h.15v.756l-1.77 1.574v.03h.72c.36 0 .54-.03.66-.03.18-.03.24-.121.27-.424h.15v.999l-.15.03ZM10.272 26.42c.24-.152.51-.364.42-.697-.06-.211-.24-.363-.48-.302-.21.06-.33.212-.42.605-.12.454-.27.817-.66.908-.45.09-.9-.212-1.02-.787-.03-.151-.03-.302-.03-.423 0-.122.03-.212.03-.273.09-.06.42-.181.66-.272l.06.12c-.24.152-.63.485-.54.848.06.242.27.363.51.303s.33-.273.45-.605c.12-.454.27-.787.66-.878.45-.09.87.181.99.757.06.272.03.514 0 .574-.15.061-.3.122-.54.212l-.09-.09ZM11.322 29.264c.18-.121.27-.242.3-.333.03-.09.03-.212-.09-.424l-.03-.181-1.77.787c-.33.151-.33.181-.21.544l-.12.061-.54-1.24.12-.061c.15.302.21.333.51.181l1.77-.787-.06-.12c-.12-.303-.21-.364-.3-.394-.09-.03-.24-.03-.45 0l-.06-.151c.27-.091.57-.212.75-.273l.03.091c-.06.091-.06.152 0 .242l.66 1.513c.06.091.09.152.18.182l.03.09c-.15.061-.48.243-.72.364v-.09ZM12.042 30.354c-.33.06-.63.15-.93.242l.36.514.57-.756Zm-1.41 1.392.12-.091c.18.181.21.181.33 0 .09-.091.18-.242.3-.394l-.48-.635c-.12.03-.27.09-.45.12-.18.061-.24.092-.09.364l-.12.09-.51-.756.12-.09c.18.211.24.211.6.12l2.19-.514.15.151c-.45.636-.87 1.241-1.29 1.877-.21.333-.24.393-.12.635l-.12.09-.63-.968ZM15.492 33.259c-.18-.152-.27-.152-.42-.03-.09.09-.24.211-.48.483l-1.08 1.21-.15-.12.12-2.663-.63.696c-.24.272-.36.424-.42.514-.12.152-.12.242.12.454l-.09.121-.75-.696.09-.09c.18.15.3.15.42.03.09-.091.24-.212.48-.484l.57-.636c.18-.212.24-.272.24-.393s-.03-.212-.15-.333l.09-.121.57.514-.06 2.39.48-.544c.24-.272.36-.423.42-.514.09-.152.09-.242-.12-.454l.09-.121.75.666-.09.12ZM17.562 35.044c.06-.212.06-.363.03-.454-.03-.09-.12-.182-.33-.272l-.18-.091-.93 1.725c-.15.302-.15.363.15.544l-.06.122-1.17-.636.06-.121c.33.151.36.121.54-.181l.93-1.725-.12-.06c-.3-.152-.39-.152-.48-.122-.09.03-.21.121-.36.272l-.12-.06c.15-.242.33-.515.42-.696l.09.06c0 .121.06.152.15.212l1.44.787c.09.06.15.06.27.03l.09.06c-.09.152-.24.485-.33.727l-.09-.121ZM17.682 37.193l.03-.152c.3.06.33.06.45-.272l.48-1.513c.12-.333.09-.363-.21-.484l.03-.152 1.17.364-.03.15c-.3-.06-.33-.06-.45.273l-.48 1.513c-.09.333-.09.363.21.484l-.03.152-1.17-.363ZM20.892 35.952c-.18.272-.3.575-.45.847l.63.09-.18-.937Zm.09 2.027.03-.151c.24 0 .27-.06.24-.242-.03-.121-.06-.303-.09-.484l-.78-.121c-.06.12-.12.272-.21.423-.09.182-.09.242.21.333l-.03.151-.9-.12.03-.152c.27 0 .33-.03.51-.363l1.11-1.997.21-.03c.15.756.33 1.482.48 2.239.09.363.12.423.39.514l-.03.152-1.17-.152ZM24.822 37.374c.06.303.12.393.42.333.54-.09.84-.605.69-1.331-.06-.394-.24-.666-.45-.818-.21-.12-.42-.181-.69-.12-.15.03-.21.06-.24.09s-.03.121 0 .242l.27 1.604Zm-.03-2.118c.51-.091.9-.06 1.23.151.24.151.45.424.51.787.09.484-.06.877-.3 1.18-.27.273-.66.454-1.17.545l-1.02.181-.03-.15c.3-.092.36-.122.3-.455l-.27-1.543c-.06-.363-.09-.363-.39-.333l-.03-.151 1.17-.212ZM27.462 37.344l-.06-.121c.27-.121.3-.182.18-.484l-.54-1.483c-.12-.333-.18-.333-.45-.273l-.06-.12 1.14-.424.06.12c-.27.122-.3.182-.18.515l.54 1.483c.12.333.15.333.45.272l.06.121-1.14.394ZM30.552 32.926c-.21.151-.24.242-.18.665.06.333.21 1.332.39 2.24l-.18.12c-.63-.483-1.47-1.15-1.83-1.391-.27-.212-.36-.212-.6-.121l-.09-.121 1.05-.636.09.121c-.24.212-.21.242-.06.363.27.212.99.757 1.32.999-.12-.636-.21-1.12-.3-1.483-.06-.302-.09-.333-.42-.212l-.09-.12.81-.515.09.09ZM32.532 34.5l-.09-.122c.21-.242.21-.272-.03-.514l-1.08-1.15c-.24-.242-.27-.242-.51-.06l-.09-.122.9-.847.09.121c-.21.242-.21.272.03.545l1.08 1.15c.24.242.27.242.51.06l.09.091-.9.847ZM33.822 30.02c-.21-.09-.33-.12-.45-.12-.09 0-.18.09-.33.272l-.12.151 1.56 1.18c.27.212.33.182.57-.09l.12.09-.81 1.09-.12-.091c.18-.303.18-.333-.09-.545l-1.56-1.18-.09.121c-.21.273-.21.363-.18.454.03.09.09.212.24.393l-.09.121c-.24-.181-.45-.393-.6-.514l.06-.09c.12 0 .15-.03.21-.122l.99-1.331c.06-.091.09-.152.06-.242l.06-.091c.15.09.45.303.66.454l-.09.09ZM35.922 30.293l-.12-.06c.12-.273.09-.334-.21-.485l-1.41-.696c-.3-.151-.36-.12-.51.121l-.12-.06.54-1.12.12.06c-.12.273-.09.334.21.485l1.41.696c.3.151.36.12.51-.121l.12.06-.54 1.12ZM35.202 26.873c.24.212.51.394.75.575l.18-.605-.93.03Zm2.01.212-.15-.03c.03-.242 0-.272-.21-.272-.12 0-.3 0-.48.03l-.21.756c.12.091.24.182.39.273.18.12.24.12.36-.151l.15.03-.27.877-.15-.03c.03-.272.03-.333-.27-.545l-1.77-1.422v-.212c.75-.06 1.5-.09 2.25-.151.39-.03.45-.06.54-.303l.15.03-.33 1.12ZM36.402 24.24c0-.18 0-.302-.09-.423-.09-.151-.27-.212-.48-.242-.42-.03-.6.212-.63.454 0 .09 0 .151.03.181s.06.03.15.06l.99.061.03-.09Zm1.44-1.422v.121c-.06.515-.18.666-.45.817-.18.091-.39.182-.63.303-.12.06-.18.121-.21.272v.091l.6.03c.33.03.39 0 .42-.332h.15l-.09 1.24h-.15c0-.302-.03-.363-.39-.393l-1.56-.121c-.33-.03-.36 0-.42.302h-.15l.09-1.15c.03-.363.09-.574.21-.726.12-.151.3-.272.57-.242.36.03.54.273.63.575.12-.06.42-.181.6-.302.24-.122.36-.212.45-.273.09-.09.15-.151.18-.242l.15.03ZM34.902 19.701c.06.212.15.303.3.303.12 0 .27 0 .57-.06l.45-.061c.42-.06.78-.06 1.05.151.21.152.36.424.42.696.03.273.03.545-.09.757-.15.272-.42.424-.9.484l-.96.151c-.39.06-.39.091-.39.394l-.15.03-.18-1.24.15-.03c.06.302.12.332.48.271l.87-.12c.6-.091.93-.364.87-.818-.06-.484-.48-.635-1.14-.544l-.42.06c-.3.03-.45.09-.57.121-.15.03-.21.152-.18.424l-.15.03-.15-1.029.12.03ZM36.192 16.282l-.12.06c-.15-.272-.18-.272-.54-.12l-1.44.665v.03l2.31-.06.06.09-1.56 1.635.99-.394c.3-.12.48-.211.6-.272.15-.09.15-.181.06-.454l.12-.06.42.907-.12.061c-.12-.212-.21-.242-.36-.212-.12.03-.33.09-.75.242l-.75.273c-.45.15-.48.211-.36.544l-.12.06-.36-.786 1.29-1.483h-1.95l-.33-.756.12-.06c.18.271.21.271.51.15l1.38-.665c.33-.152.36-.182.24-.515l.12-.06.54 1.18ZM12.462 13.952c.18.151.18.363.06.514a.343.343 0 0 1-.51.03c-.18-.15-.18-.363-.06-.514a.403.403 0 0 1 .51-.03ZM15.312 12.348c.09.151.27.484.33.605l-1.59 1.362-.09-.121c.24-.242.27-.303.03-.575l-1.02-1.21c-.21-.212-.27-.212-.51-.03l-.09-.122 1.47-1.27c.06.06.24.272.42.453l-.09.121c-.12-.09-.24-.151-.36-.151-.09 0-.21.03-.39.181l-.15.122c-.12.09-.12.12-.03.211l.57.666.21-.181c.27-.212.3-.273.15-.545l.12-.091.54.636-.12.09c-.24-.181-.27-.181-.54.06l-.21.182.45.545c.12.151.21.212.3.182s.18-.121.3-.212c.15-.152.24-.242.27-.394 0-.12-.03-.272-.09-.454l.12-.06ZM17.022 9.897c-.15-.152-.27-.273-.36-.303-.09-.03-.21 0-.42.121l-.15.091.93 1.725c.15.303.21.303.54.151l.06.121-1.17.636-.06-.121c.3-.182.3-.242.15-.545l-.93-1.695-.12.06c-.3.152-.33.243-.36.334-.03.09 0 .242.03.454l-.12.06c-.12-.272-.24-.545-.33-.726l.09-.06c.09.06.15.03.24-.03l1.44-.788c.09-.06.12-.09.15-.211l.09-.061c.09.151.27.454.42.696l-.12.09ZM20.442 8.263c-.3.12-.33.151-.24.484l.39 1.543c.09.333.12.363.42.303l.03.151-1.2.333-.03-.151c.3-.121.33-.152.24-.485l-.18-.756-1.08.303.21.696c.09.333.12.363.42.302l.03.151-1.17.303-.03-.151c.27-.091.3-.152.21-.484l-.39-1.544c-.09-.333-.12-.363-.45-.302l-.03-.091 1.2-.303.03.152c-.27.09-.3.12-.21.484l.15.575 1.08-.273-.15-.635c-.09-.333-.12-.363-.42-.303l-.03-.151 1.2-.303v.152ZM23.832 9.988c-.03.181-.09.575-.15.696h-2.07v-.152c.36-.03.39-.06.39-.393l-.03-1.574c0-.363-.03-.393-.33-.393V8.02l1.92-.03c0 .06.03.362.06.605l-.15.03a.692.692 0 0 0-.18-.363c-.06-.06-.18-.091-.42-.091h-.21c-.15 0-.18 0-.18.151v.878h.27c.33 0 .39-.03.45-.303h.15v.847h-.15c-.06-.302-.12-.302-.45-.302h-.27v.726c0 .182.03.303.09.333.06.03.21.03.36.03.21 0 .36-.03.45-.151.09-.09.15-.212.21-.393h.24ZM27.582 8.868c-.21-.03-.3 0-.39.181-.03.122-.12.303-.18.666l-.36 1.574-.18-.03-1.2-2.391-.21.908c-.09.363-.12.544-.12.665-.03.182.03.273.33.364l-.03.15-.99-.271.03-.152c.24.03.33 0 .39-.181.06-.121.12-.303.21-.666l.21-.847c.06-.273.06-.333.03-.454-.06-.121-.12-.182-.3-.212l.03-.151.75.181 1.11 2.118h.03l.18-.696c.09-.363.09-.544.12-.665.03-.182-.06-.273-.33-.363l.03-.152.96.242-.12.182ZM29.592 11.894c-.09.151-.36.454-.42.545l-1.86-.938.06-.121c.33.12.36.12.54-.182l.69-1.422c.15-.333.12-.363-.12-.515l.06-.12 1.71.877c-.03.06-.15.333-.24.575l-.15-.06a.86.86 0 0 0 0-.394c-.03-.09-.12-.182-.33-.272l-.18-.091c-.15-.06-.15-.06-.21.06l-.39.787.24.121c.3.151.36.151.54-.06l.12.06-.36.757-.09-.121c.09-.303.03-.333-.27-.485l-.24-.12-.33.635c-.09.181-.12.272-.06.333.06.06.18.12.3.212.18.09.33.12.45.09.12-.06.24-.12.39-.242l.15.091ZM31.722 11.894c-.3.151-.57.303-.81.454l.48.424.33-.878Zm-.99 1.755.09-.12c.21.12.27.09.33-.092.06-.12.12-.302.18-.454l-.6-.514c-.12.06-.24.151-.39.242-.18.121-.21.151 0 .393l-.09.122-.69-.575.09-.121c.24.15.3.15.63-.03l1.98-1.09.18.09c-.27.727-.51 1.423-.75 2.15-.12.362-.12.453.06.635l-.09.12-.93-.756ZM33.582 14.527c-.18.151-.39.12-.54-.03-.12-.152-.12-.394.06-.515.18-.151.39-.121.51.03.15.152.15.364-.03.515Z"/>
</svg>