<svg viewBox="0 0 168 23" fill="none"
  xmlns="http://www.w3.org/2000/svg">
  <path fill="#2E3A68" d="M98.682 6.91h2.828v14.145h-2.347V8.535c0-.857-.3-1.152-.481-1.27V6.91Zm13.9 10.04c0 2.186-1.655 4.282-4.573 4.282-1.595 0-3.099-.59-4.032-1.447l-.271-2.953.391-.118.151.325c.872 1.978 2.316 3.012 3.761 3.012 1.384 0 2.527-1.034 2.527-2.421 0-1.005-.632-1.802-1.655-2.392l-2.437-1.33c-.902-.472-2.437-1.505-2.437-3.366 0-2.067 1.655-3.868 4.363-3.868 1.143 0 2.256.325 3.279.974l.15 2.57-.331.088-.12-.236c-.481-.975-1.324-2.274-2.948-2.274-1.384 0-2.437.945-2.437 2.126 0 .975.752 1.506 1.775 2.067l2.467 1.33c1.715.944 2.377 2.214 2.377 3.631ZM68.626 6.91l.06 2.51h-.36l-.03-.088c-.242-.532-.693-1.093-1.656-1.093h-2.437v12.816h-2.346V8.209H59.42c-.933 0-1.414.532-1.655 1.093l-.03.089h-.361l.06-2.51h11.192v.03Zm15.735 10.04c0 2.186-1.655 4.282-4.573 4.282-1.595 0-3.099-.59-4.062-1.447l-.27-2.953.39-.118.151.325c.873 1.978 2.317 3.012 3.76 3.012 1.385 0 2.528-1.034 2.528-2.421 0-1.005-.632-1.802-1.655-2.392l-2.437-1.33c-.902-.472-2.437-1.505-2.437-3.366 0-2.067 1.655-3.868 4.363-3.868 1.143 0 2.256.325 3.28.974l.15 2.57-.331.088-.12-.236c-.482-.975-1.324-2.274-2.949-2.274-1.384 0-2.437.945-2.437 2.126 0 .975.752 1.506 1.775 2.067l2.467 1.33c1.745.944 2.407 2.214 2.407 3.631Zm83.639.768c0 .089-.06.148-.15.148-.061 0-.151-.03-.572-.118-2.226-.561-3.52-.857-6.438-1.359-3.069-2.628-5.566-4.488-8.455-6.555.361 1.86.542 3.75.542 5.876 0 .325.09.413.421.413.572-.059 1.414-.088 2.317-.088 1.654 0 3.46.118 5.144.384 2.167 1.92 4.152 3.81 5.566 5.315.03.03.061.089.061.148 0 .088-.061.147-.151.147-.06 0-.15-.029-.572-.118-4.512-1.18-8.544-1.565-11.763-1.565-3.189 0-5.536.355-6.89.59-.301.06-.361-.029-.421-.294-1.865-8.24-5.807-15.71-10.44-19.756-.06-.06-.09-.118-.09-.148 0-.088.09-.206.21-.206.031 0 .091.03.151.03 5.054 2.45 10.079 5.374 15.885 9.242-.812-3.81-2.226-6.999-4.182-9.45-.03-.059-.06-.088-.06-.147 0-.089.09-.177.181-.177.03 0 .12.03.24.088 7.131 4.784 13.178 9.627 19.376 17.482.06.03.09.089.09.118Zm-34.84.68.361.117-.601 2.51h-8.003V8.536c0-.857-.301-1.152-.481-1.27V6.88h8.063l.06 2.51h-.361l-.03-.089c-.241-.532-.692-1.093-1.655-1.093h-3.249v4.43h4.061v1.24h-4.061v5.7c.541.059 1.534.118 2.437.118 2.647 0 2.978-.502 3.369-1.182l.09-.118Zm-10.289-1.448c0 2.186-1.655 4.282-4.573 4.282-1.595 0-3.099-.59-4.062-1.447l-.27-2.953.391-.118.15.325c.873 1.978 2.317 3.012 3.761 3.012 1.384 0 2.527-1.034 2.527-2.421 0-1.005-.632-1.802-1.655-2.392l-2.437-1.33c-.902-.472-2.437-1.505-2.437-3.366 0-2.067 1.655-3.868 4.363-3.868 1.143 0 2.256.325 3.279.974l.151 2.57-.331.088-.121-.236c-.481-.975-1.323-2.274-2.948-2.274-1.384 0-2.437.945-2.437 2.126 0 .975.752 1.506 1.775 2.067l2.467 1.33c1.775.944 2.407 2.214 2.407 3.631ZM96.335 6.91h.03v9.42c0 3.278-2.106 4.932-5.054 4.932-3.009 0-5.205-1.713-5.205-5.227v-7.5c0-.857-.3-1.152-.481-1.27V6.88h2.828v9.124c0 2.599 1.293 3.898 3.34 3.898 1.744 0 3.038-1.358 3.038-3.455V8.534c0-.856-.3-1.151-.481-1.27v-.383h1.985v.03Zm-59.69 11.487.36.118-.601 2.51h-8.003V8.536c0-.857-.3-1.152-.481-1.27V6.88h8.063l.06 2.51h-.361l-.03-.089c-.24-.532-.692-1.093-1.655-1.093h-3.28v4.43h4.062v1.24h-4.061v5.7c.541.059 1.534.118 2.437.118 2.647 0 2.978-.502 3.37-1.182l.12-.118ZM52.68 6.91h2.829v14.145h-2.347V8.535c0-.857-.301-1.152-.481-1.27V6.91Zm-39.803 9.834.36.088-.27 2.953a9.78 9.78 0 0 1-5.175 1.447C2.678 21.232 0 17.66 0 13.938c0-3.81 2.798-7.264 7.732-7.264 1.926 0 3.58.531 5.175 1.24l.18 3.042-.33.088-.06-.118c-.994-1.978-2.648-3.13-4.634-3.13-2.768 0-5.415 2.244-5.415 6.083-.03 3.898 2.707 6.202 5.475 6.202 1.926 0 3.52-1.123 4.633-3.13l.12-.207Zm6.137-3.396h-1.323v-5.11c.3-.029 1.083-.029 1.444-.029 1.775 0 2.948.768 2.948 2.451-.03 1.684-1.203 2.688-3.069 2.688Zm5.747 5.728-2.076-3.514c-.361-.62-.722-1.092-1.535-1.387 2.468-.473 3.4-2.068 3.4-3.692 0-1.86-1.233-3.602-5.175-3.602h-4.512v.383c.18.119.48.414.48 1.27v12.492h2.348v-6.409h.782c.993 0 1.324.502 2.046 1.743l1.835 3.16c.541.944 1.715 1.506 3.22 1.506h1.202l.06-.473c-.902-.236-1.624-.68-2.075-1.477Zm17.84.65c-.48 0-.932-.03-1.443-.118V8.238c.18-.029.631-.029 1.083-.029 4.693 0 6.558 2.422 6.558 5.67-.03 3.75-2.527 5.847-6.197 5.847Zm.482-12.816H38.33v.384c.18.118.48.413.48 1.27v12.491h4.303c5.446 0 8.304-3.632 8.304-7.205-.03-3.514-2.708-6.94-8.334-6.94Z"/>
</svg>