<svg xmlns="http://www.w3.org/2000/svg" fill="none" viewBox="0 0 171 28">
  <path fill="#002747" d="M102.371 9.374v10.362h-1.144V9.374h1.144ZM106.12 9.374l2.733 7.648V9.374h1.144v10.362h-1.271l-3.241-9.005v9.005h-1.144V9.374h1.779ZM112.221 9.374l1.906 8.203 1.906-8.203h1.144l-2.542 10.362h-1.08l-2.542-10.362h1.208ZM123.278 9.374v.926h-3.75v3.515h2.733v.987h-2.733v4.009h3.877v.925h-5.084V9.374h4.957ZM128.742 12.026c-.063-1.048-.508-1.85-1.652-1.85-.889 0-1.461.555-1.461 1.357 0 2.344 4.257 2.344 4.257 5.674 0 1.665-.953 2.652-2.732 2.652-1.652 0-2.669-1.172-2.733-2.899h1.081c0 1.234.635 1.974 1.779 1.974.953 0 1.589-.617 1.589-1.727 0-2.344-4.258-2.652-4.258-5.55 0-1.48 1.017-2.406 2.542-2.406s2.542.987 2.605 2.837h-1.017v-.062ZM136.177 9.374v.926h-2.16v9.436h-1.208V10.3h-2.16v-.926h5.528ZM138.91 9.374l1.843 7.833 1.842-7.833h1.843v10.362h-1.08v-9.498l-2.161 9.498h-.762l-2.224-9.498v9.498h-1.081V9.374h1.78ZM151.174 9.374v.926h-3.749v3.515h2.732v.987h-2.732v4.009h3.876v.925h-5.084V9.374h4.957ZM154.478 9.374l2.733 7.648V9.374h1.144v10.362h-1.271l-3.305-9.005v9.005h-1.144V9.374h1.843ZM164.9 9.374v.926h-2.224v9.436h-1.144V10.3h-2.161v-.926h5.529ZM169.793 12.026c-.064-1.048-.509-1.85-1.653-1.85-.889 0-1.461.555-1.461 1.357 0 2.344 4.257 2.344 4.257 5.674 0 1.665-.953 2.652-2.732 2.652-1.652 0-2.669-1.172-2.732-2.899h1.08c0 1.234.635 1.974 1.779 1.974.953 0 1.589-.617 1.589-1.727 0-2.344-4.258-2.652-4.258-5.55 0-1.48 1.017-2.406 2.542-2.406s2.542.987 2.605 2.837h-1.016v-.062ZM16.903 22.326h2.034l2.096-3.824-.38-.678-3.75 4.502ZM22.24 16.714l1.78-3.207-2.478-.987-.254 2.097.254.37-.254 1.912.953-.185ZM23.83 18.502l1.207-.987 1.334-3.083-1.906-.74-1.78 4.934-1.27.986-1.589 2.714h1.589l2.414-3.824ZM14.552 28c4.067 0 8.515-1.727 11.057-4.996H3.43C6.61 26.766 10.993 28 14.551 28Z"/>
  <path fill="#002747" d="M1.017 13.568C1.017 7.463 6.418.863 14.615.863c5.783 0 10.485 3.578 12.201 7.71l-6.545-1.727L14.488 3.7l-2.86-.431-1.27 2.713-1.08.555-1.653 4.01c0-.062-1.143.493-1.143.493s-2.415 6.29-3.622 9.497c-.954-1.665-1.843-3.453-1.843-6.969Zm5.274 2.22 1.08-2.96.636-.308-2.479 7.4-1.715 2.406h.762l2.987-3.454 1.461-5.365.572.74c-.19 2.467-.127 1.85-.317 3.268l-3.559 4.873h.826l3.495-2.59.19.061-1.27 2.467h3.749l5.91-3.824 1.779-6.414 4.385-.185-1.653-1.048-9.595-1.542c-2.097-2.159-2.16-2.282-2.16-2.282l2.541.185-1.779-1.604V3.885l2.351.432 6.418 3.639 7.435 1.974C27.58 6.537 23.067 0 14.615 0 5.846 0 0 6.97 0 13.568c0 4.38 1.525 6.908 2.86 8.82.953-2.036 2.668-6.168 2.668-6.168l.763-.431ZM25.99 17.639l-3.05 4.687h3.24c1.716-2.344 2.542-4.749 2.67-7.093l-1.907-.678-.953 3.084ZM43.02 14.925h-1.207V7.031h1.207c2.796 0 3.304 2.035 3.304 4.009-.063 1.973-.572 3.885-3.304 3.885Zm0-8.634h-6.354v.74h.063c.636 0 1.08 0 1.334.185.382.185.509.74.509 1.48v11.965c0 .678-.127 1.048-.381 1.233-.255.185-.763.309-1.335.309h-.19v.74h7.498v-.74h-.7c-.698 0-1.143-.124-1.334-.37-.254-.247-.317-.679-.317-1.172v-4.934h1.207c3.559 0 6.545-1.357 6.545-4.687-.063-3.516-3.113-4.75-6.545-4.75ZM57.826 14.617h.381c.445 0 .953 0 1.208.308.381.37.381 1.234.381 1.234v3.577c0 .493-.127 1.233-.445 1.727-.445.678-1.144.925-1.97.925-2.923 0-3.368-4.503-3.368-7.648 0-3.022.445-7.956 3.75-7.956 2.668 0 3.495 2.775 4.066 4.564h.827V6.291h-.827l-.953.987c-.445-.432-1.334-1.234-3.304-1.234-4.194 0-7.117 3.639-7.117 8.758 0 4.934 2.288 8.572 6.418 8.572 1.843 0 3.05-.801 3.622-1.726l1.652 1.48h.826v-6.97s-.063-.925.318-1.233c.318-.308.763-.308 1.207-.308h.127v-.74h-6.799v.74ZM65.324 7.03h.382c.635 0 .826 0 1.08.186.381.185.508.802.508 1.603v11.903c0 .679-.127 1.049-.381 1.234-.254.185-.635.308-1.207.308h-.318v.74h7.117v-.801h-.318c-.699 0-1.144-.124-1.334-.309-.254-.246-.318-.678-.318-1.171V8.819c0-.493.064-1.11.318-1.418.254-.247.508-.308 1.27-.308h.382v-.74h-7.117v.678h-.064ZM90.933 7.524c.254-.37.636-.493 1.462-.493h.254v-.74h-5.592L83.37 17.886 79.622 6.29h-5.401v.74h.254c.508 0 .699.062 1.017.185.508.247.635.678.635 1.542l-.063 10.238c0 2.097-.255 2.467-.572 2.775-.255.247-.7.432-1.144.432h-.127v.74h4.83v-.74h-.255c-.508 0-.89-.185-1.144-.432-.317-.308-.508-.74-.572-2.775l-.063-10.732 4.83 14.679h.698l4.83-14.679v12.15c0 1.295-.255 1.789-1.716 1.789h-.254v.74h7.117v-.74h-.254c-1.398 0-1.716-.494-1.716-1.789V8.943c.127-.555.19-1.11.381-1.419Z"/>
</svg>