<svg viewBox="0 0 162 23" fill="none"
  xmlns="http://www.w3.org/2000/svg">
  <path fill="#030406" d="M20.632 22.562V0h5.13v22.562h-5.13Zm99.776-8.433c0-5.477-4.257-8.872-9.169-8.872-4.913 0-9.17 3.395-9.17 8.872 0 5.476 4.257 8.871 9.17 8.871 4.912 0 9.169-3.395 9.169-8.871Zm-5.13 0c0 2.847-1.856 4.49-4.149 4.49-2.292 0-4.148-1.643-4.148-4.49 0-2.848 1.856-4.381 4.148-4.381 2.293 0 4.149 1.533 4.149 4.38ZM18.558 16.1c0-2.519-1.31-4.49-3.712-5.367 2.184-1.204 3.057-2.847 3.057-4.71C17.903 2.739 15.501 0 10.262 0H0v22.562h10.589c5.349 0 7.969-2.629 7.969-6.462Zm-6.113-9.42c0 1.534-.983 2.41-2.839 2.41H5.35V4.381h4.257c1.747 0 2.839.767 2.839 2.3Zm.436 9.091c0 1.534-.982 2.41-2.947 2.41H5.349v-4.929h4.585c1.856 0 2.947.986 2.947 2.52Zm50.325-5.914c-1.419-2.957-4.039-4.6-7.969-4.6-4.694 0-8.951 2.957-8.951 8.872 0 5.695 3.711 8.871 8.842 8.871 3.602 0 6.66-1.424 8.078-4.6l-4.148-2.19c-.764 1.423-1.965 2.3-3.712 2.3-2.401 0-3.93-1.753-3.93-4.491 0-2.738 1.747-4.38 3.93-4.38 1.638 0 2.948.766 3.712 2.409l4.148-2.19Zm75.651 0c-1.419-2.957-4.039-4.6-7.969-4.6-4.694 0-8.951 2.957-8.951 8.872 0 5.695 3.711 8.871 8.842 8.871 3.602 0 6.659-1.424 8.078-4.6l-4.148-2.19c-.764 1.423-1.965 2.3-3.712 2.3-2.401 0-3.93-1.753-3.93-4.491 0-2.738 1.747-4.38 3.93-4.38 1.638 0 2.948.766 3.712 2.409l4.148-2.19Zm-43.01 12.705-4.258-7.557h-3.275v7.557h-5.349V0h9.497c5.131 0 8.733 2.519 8.733 7.338 0 3.067-1.528 5.257-4.257 6.681l4.912 8.652h-6.004v-.11Zm-7.533-12.048h3.93c2.401 0 3.602-1.424 3.602-3.066 0-1.972-1.091-2.958-3.602-2.958h-3.93v6.024ZM45.522 22.343v-3.505c-.219.11-.546.11-.874.11-.655 0-.982-.329-.982-.986v-5.914c0-4.381-2.948-6.681-7.75-6.681-3.167 0-5.896 1.204-7.533 2.628l2.838 3.176c1.092-.985 2.62-1.642 4.04-1.642 2.292 0 3.274 1.095 3.274 2.957v.657c-1.092-.22-2.402-.548-4.039-.548-4.148 0-6.768 1.972-6.768 5.257 0 3.396 2.183 5.148 5.676 5.148 2.402 0 4.476-.986 5.568-2.19.655 1.642 2.074 2.08 3.493 2.08.982 0 2.074-.219 3.057-.547Zm-6.987-5.367c0 1.534-1.528 2.52-3.166 2.52-1.637 0-2.401-.767-2.401-1.972s.873-2.081 2.62-2.081c1.091 0 2.074.219 2.838.328v1.205h.109Zm118.662 5.586-6.004-10.514 5.676-6.243h-5.676l-6.004 6.68V0h-5.131v22.562h5.131v-4.053l2.401-2.628 3.821 6.68h5.786Zm-75.542 0-6.113-10.514 5.676-6.243h-5.785l-5.895 6.68V0h-5.131v22.562h5.13v-4.053l2.402-2.628 3.821 6.68h5.895ZM160.363 19.495c-1.092 0-1.638.657-1.638 1.643s.655 1.643 1.638 1.643c1.091 0 1.637-.657 1.637-1.643s-.546-1.643-1.637-1.643Zm0 3.067c-.874 0-1.42-.548-1.42-1.424 0-.986.546-1.424 1.42-1.424.873 0 1.419.548 1.419 1.424 0 .986-.546 1.424-1.419 1.424Z"/>
  <path fill="#030406" d="M161.018 20.81c0-.329-.219-.548-.655-.548h-.655v1.643h.327v-.548h.328l.327.548h.328l-.328-.548c.218-.11.328-.219.328-.547Zm-.655.328h-.328v-.548h.437c.218 0 .327.11.327.329-.109.11-.218.22-.436.22Z"/>
</svg>