<svg xmlns="http://www.w3.org/2000/svg" fill="none" viewBox="0 0 165 29">
  <path fill="#2B2E34" d="M6.266.072c.632.043 1.25.157 1.868.272.179.028.22.114.22.286 0 1.088-.014 2.176 0 3.25 0 .214-.082.257-.261.257-.563.014-.55.014-.742-.53-.234-.687-.44-1.374-.81-1.99C5.894.587 4.63.544 3.93 1.532c-.495.687-.701 1.503-.81 2.318-.248 1.947-.248 3.894.054 5.84.028.187.083.373.137.559.44 1.517 1.36 1.703 2.57 1.56.165-.014.192-.114.192-.272V7.715c0-.143-.041-.243-.165-.315-.302-.2-.604-.43-.92-.63-.165-.1-.165-.243-.151-.4.027-.215.192-.115.302-.115 1.003 0 2.02 0 3.023-.014.233 0 .288.071.288.3-.014 1.818 0 3.65 0 5.468 0 .186-.027.272-.233.301-1.32.143-2.638.286-3.971.157-2.034-.2-3.476-1.46-3.971-3.506C.15 8.445.124 7.9.014 7.386v-1.86C.083 4.937.096 4.35.26 3.778.88 1.718 2.2.515 4.205.115a4.61 4.61 0 0 1 .893-.072c.384.014.783-.029 1.168.029Z"/>
  <path fill="#FEFEFE" d="M5.015.072c-1.017.1-1.992.372-2.844 1.002C.96 1.947.412 3.234.137 4.68c-.055.272-.027.572-.137.83V.229C0 .043.041 0 .234 0c1.593.014 3.201 0 4.795 0 .027.014.027.029.027.043-.027.014-.027.029-.04.029Z"/>
  <path fill="#A8A9AC" d="M5.015.072V.014h1.237v.058H5.015Z"/>
  <path fill="#2B2E34" d="M33.883 4.237c.536-.973 1.346-1.245 2.294-1.202.88.042 1.512.486 1.855 1.402.261-.458.55-.859 1.003-1.102.605-.33 1.237-.4 1.896-.229.77.2 1.278.902 1.402 1.847.041.372.055.758.055 1.145v5.081c0 .286.027.544.22.759.082.1.15.229.082.358-.055.114-.192.057-.288.057h-2.433c-.288 0-.37-.115-.192-.358.22-.3.248-.615.248-.973V5.153c0-.243-.014-.472-.097-.701-.22-.544-.838-.673-1.25-.258-.316.315-.44.73-.44 1.174-.014 2.032-.014 4.05-.014 6.083 0 .215.152.344.234.501.055.1.138.215.083.33-.055.128-.18.07-.275.07h-2.542c-.316 0-.385-.114-.179-.386.193-.271.22-.543.22-.873-.014-1.99 0-3.979 0-5.969 0-.171 0-.357-.041-.53-.083-.3-.234-.557-.55-.629-.316-.072-.59.057-.797.3-.288.344-.384.76-.384 1.189-.014 1.975 0 3.965-.014 5.94 0 .243.137.386.247.572.055.1.11.187.083.301-.055.143-.179.072-.261.072h-2.501c-.289 0-.33-.158-.179-.344.261-.33.261-.687.248-1.073V4.595c0-.258-.014-.501-.22-.687a.3.3 0 0 1-.096-.33c.04-.143.178-.085.26-.1l1.938-.214c.234-.029.371.028.357.314-.041.215 0 .401.028.659ZM27.246 17.864c.729-1.03 2.13-1.403 3.147-.86.77.416 1.044 1.16 1.058 1.99.041 1.904.027 3.822.027 5.726 0 .358.028.687.302.93.083.072.138.172.097.287-.041.143-.179.086-.261.086h-2.542c-.33 0-.399-.1-.206-.358.22-.3.247-.616.247-.96-.014-1.889 0-3.764 0-5.653 0-.186-.014-.387-.041-.573-.042-.329-.165-.63-.509-.73-.343-.1-.66.015-.907.272a1.348 1.348 0 0 0-.398.988c-.014 1.016-.014 2.032-.014 3.034 0 .888.014 1.761 0 2.649 0 .357.028.672.248.973.178.243.11.358-.179.358h-2.57c-.082 0-.206.043-.247-.058-.055-.114 0-.243.096-.314.289-.244.316-.573.316-.93a958.138 958.138 0 0 1 0-8.876c0-.343-.027-.63-.288-.873-.096-.085-.165-.214-.124-.343.055-.143.193-.086.303-.086.714-.072 1.429-.129 2.157-.215.247-.028.33.029.33.315-.055 1.045-.042 2.09-.042 3.22ZM27.246 3.936V1.804c0-.23-.178-.344-.288-.501-.083-.115-.151-.215-.096-.358.055-.13.178-.072.274-.072.701-.071 1.388-.129 2.089-.215.302-.043.398.015.398.373-.013 3.35 0 6.699-.013 10.048 0 .33.04.615.233.902.206.286.151.372-.178.372-.646 0-1.278-.014-1.924 0-.206 0-.289-.057-.302-.272-.028-.315-.069-.63-.11-.973-.467 1.302-1.154 1.56-2.432 1.345-.742-.129-1.278-.601-1.676-1.26-.413-.687-.578-1.445-.66-2.232-.124-1.332-.137-2.649.316-3.923.385-1.073 1.072-1.817 2.212-1.99.893-.128 1.635.058 2.157.888ZM.99 23.632c0-.673.013-1.33 0-2.004 0-.229.068-.286.274-.286.55 0 .55-.014.728.53.22.701.426 1.402.729 2.075.11.258.247.515.384.745.44.687 1.072.959 1.773.773.687-.187 1.195-.83 1.264-1.618.096-1.102-.33-1.918-1.264-2.448-.715-.4-1.416-.816-2.116-1.23-1.525-.888-2.185-2.763-1.525-4.31.398-.944 1.154-1.445 2.06-1.745 1.168-.401 2.378-.301 3.573-.258.027 0 .069.014.096.014.289.043.687-.071.838.158.138.214.042.6.042.901v2.534c0 .229-.042.315-.289.33-.412.042-.59-.115-.728-.516-.206-.659-.426-1.331-.756-1.947a1.683 1.683 0 0 0-2.528-.515c-.59.472-.7 1.288-.275 2.018.234.401.577.702.976.945.687.415 1.387.816 2.074 1.245 1.8 1.131 2.446 3.292 1.567 5.24-.495 1.087-1.402 1.617-2.487 1.874-1.168.272-2.35.143-3.518-.028-.302-.043-.714.042-.865-.2-.138-.215-.041-.602-.041-.903 0-.472.013-.93.013-1.374ZM54.575 4.223c.536-1.002 1.539-1.403 2.693-1.131.934.215 1.566 1.016 1.608 2.176.04.987.013 1.975.013 2.962 0 .96.014 1.933 0 2.892 0 .3.028.558.22.802.083.1.151.229.096.357-.054.143-.206.072-.302.072H56.43c-.096 0-.247.072-.302-.086-.055-.129.013-.243.11-.315.274-.243.302-.558.302-.902-.014-1.946 0-3.893 0-5.825a4.83 4.83 0 0 0-.028-.458c-.055-.373-.22-.688-.604-.788-.399-.1-.715.072-.962.387-.261.329-.357.715-.357 1.13-.014 1.962 0 3.937-.014 5.898 0 .229.124.372.234.544.082.114.15.229.082.358-.055.114-.192.057-.288.057h-2.474c-.288 0-.343-.158-.178-.344.302-.357.274-.758.274-1.173V4.68c0-.3-.027-.544-.233-.788-.206-.229-.151-.372.151-.4.687-.072 1.36-.144 2.047-.215.248-.029.358.057.344.315-.028.2.014.386.041.63ZM47.952 11.322c-.687 1.145-2.102 1.546-3.215.96-.426-.23-.714-.573-.893-1.046-.412-1.13-.096-2.318.838-3.12.783-.673 1.718-1.074 2.652-1.46.605-.243.618-.229.618-.916 0-.387.014-.787-.04-1.174-.056-.358-.152-.687-.523-.816-.385-.129-.756-.071-1.058.215-.357.33-.55.759-.714 1.202-.138.372-.261.73-.385 1.103-.138.443-.481.186-.728.214-.248.043-.151-.215-.151-.343-.014-.759 0-1.532 0-2.29 0-.13-.028-.258.15-.315 1.279-.387 2.556-.73 3.917-.416 1.126.272 1.868 1.146 1.896 2.348.027 1.875.027 3.75.013 5.611 0 .33.055.601.289.83.082.086.165.186.11.315-.055.158-.193.086-.302.086-.674.014-1.347-.014-2.02.014-.248.015-.316-.086-.344-.315a5.914 5.914 0 0 1-.11-.687ZM13.589 25.035c-.756 1.188-1.979 1.589-3.105 1.03a1.953 1.953 0 0 1-1.017-1.187c-.371-1.174-.083-2.262.824-3.064.825-.73 1.814-1.145 2.817-1.517.37-.143.536-.3.494-.73-.04-.43 0-.859-.054-1.288-.055-.387-.193-.73-.564-.859-.384-.129-.742-.043-1.044.258-.357.343-.536.787-.7 1.245-.124.33-.248.673-.344 1.002-.138.472-.495.2-.756.229-.234.029-.137-.229-.137-.358-.014-.744 0-1.503 0-2.247 0-.129-.042-.258.137-.315 1.347-.415 2.72-.687 4.108-.286 1.113.329 1.69 1.116 1.704 2.333.014 1.832.014 3.664 0 5.51 0 .316.041.588.234.83.068.087.15.201.096.33-.055.129-.179.072-.275.072-.687 0-1.374-.015-2.061.014-.233 0-.302-.086-.302-.3-.014-.23-.042-.43-.055-.702ZM17.024 7.7c-.014 1.046-.151 2.134-.715 3.121-1.264 2.19-4.163 2.29-5.564.2-1.168-1.717-1.113-4.952.11-6.655a3.205 3.205 0 0 1 5.276.057c.563.845.852 1.832.893 3.278ZM33.058 24.32v-1.39c0-.17.041-.214.206-.228.371-.043.591.057.715.472.165.601.385 1.188.7 1.732.317.544.756.816 1.36.773.51-.043.949-.214 1.141-.758.206-.559.179-1.103-.192-1.59a2.263 2.263 0 0 0-.715-.6c-.59-.315-1.181-.63-1.745-.974-1.181-.701-1.648-1.689-1.415-2.963.179-.916.756-1.474 1.567-1.775.92-.343 1.868-.3 2.816-.186.275.029.536.086.811.129.165.029.234.086.234.272a52.03 52.03 0 0 0 0 2.075c0 .187-.055.23-.234.258-.371.043-.577-.057-.673-.472a3.418 3.418 0 0 0-.536-1.188c-.385-.558-1.21-.73-1.786-.387-.523.315-.619 1.074-.193 1.59.316.386.742.615 1.168.858.591.343 1.25.601 1.773 1.073.975.888 1.14 2.019.838 3.25-.289 1.174-1.127 1.703-2.212 1.89-1.168.214-2.322-.03-3.477-.23-.164-.029-.15-.129-.15-.258V24.32ZM20.953 6.184v4.938c0 .315.028.615.234.859.082.086.137.2.069.329-.055.1-.165.057-.248.057h-2.541c-.33 0-.413-.1-.207-.358.22-.3.248-.615.248-.973V2.247c0-.358-.028-.672-.248-.973-.192-.258-.123-.372.193-.4.7-.072 1.415-.13 2.116-.216.302-.028.412.015.412.373-.041 1.717-.028 3.435-.028 5.153ZM19.868 21.328c.027.987.014 1.832.192 2.676.028.158.083.33.138.473.343.945 1.319 1.188 2.047.515.275-.258.467-.587.632-.93.082-.172.151-.244.33-.13.137.101.302.115.192.387-.44 1.06-1.072 1.861-2.267 1.961-1.36.115-2.446-.372-3.133-1.646-.618-1.174-.687-2.447-.618-3.75.055-.973.261-1.904.838-2.705.66-.916 1.58-1.303 2.638-1.374.783-.058 1.553.057 2.309.243.192.043.26.129.247.343-.014.83-.014 1.675 0 2.505 0 .215-.041.315-.289.315-.55-.014-.55 0-.714-.544-.179-.6-.33-1.216-.632-1.76-.151-.272-.344-.516-.687-.501-.357.014-.591.229-.742.544-.289.6-.357 1.245-.412 1.903-.042.516-.055 1.074-.069 1.475ZM70.98 13.069v12.624c0 .23 0 .387-.302.358-.165-.014-.22-.071-.206-.229V.415c0-.129-.123-.343.165-.372.234-.014.33.029.33.315-.014 2.977-.014 5.969-.014 8.946.028 1.26.028 2.52.028 3.765Z"/>
  <path fill="#FEFEFE" d="M24.952 7.772c.013-.944.013-1.903.192-2.848.041-.215.096-.415.179-.616.137-.357.37-.6.77-.6.398 0 .631.228.782.586.22.501.289 1.06.316 1.603.083 1.532.124 3.064-.11 4.595-.04.3-.123.601-.274.873-.165.3-.385.501-.742.487-.344-.014-.564-.215-.715-.515-.233-.487-.288-1.031-.33-1.56-.04-.673-.082-1.346-.068-2.005ZM47.952 7.028c-.054 1.16.055 2.29-.068 3.421-.028.244-.11.458-.234.659-.165.257-.385.415-.687.386-.316-.014-.536-.2-.66-.487-.645-1.517.097-3.378 1.65-3.979ZM13.589 20.698v2.949c0 .329-.041.672-.179.973-.165.358-.522.601-.838.572-.343-.028-.577-.257-.673-.7-.151-.702-.165-1.404.027-2.09.234-.888.852-1.36 1.663-1.704ZM14.564 7.787c-.013 1.03-.013 2.075-.206 3.092a3.54 3.54 0 0 1-.165.543c-.123.33-.37.53-.714.516-.33-.014-.577-.2-.715-.53-.164-.372-.22-.773-.247-1.173-.124-1.775-.151-3.55.055-5.311.028-.3.096-.587.22-.859.137-.3.357-.458.673-.458.316-.014.536.158.687.444.234.487.289 1.03.33 1.56.069.716.096 1.446.082 2.176Z"/>
  <path fill="#2C2E35" d="M164 26.209c-.591-.014-1.195.043-1.786-.043-1.209-.172-1.663-.673-1.69-1.947-.028-1.317-.028-2.62-.014-3.936 0-.3-.082-.415-.357-.358-.096.014-.206 0-.302 0-.138.014-.193-.043-.179-.186v-.072c-.014-.658-.014-.672.591-.672.192 0 .247-.072.247-.258-.014-.487 0-.973-.014-1.46 0-.215.028-.315.275-.315.879 0 .879-.014.879.902 0 .3.014.601 0 .887 0 .172.028.258.22.244.715-.015 1.416-.015 2.13-.015v.93c-.137.13-.302.115-.453.115h-1.374c-.358 0-.399.043-.399.401 0 1.245-.014 2.49 0 3.75 0 .644.234.873.852.916.316.015.646 0 .962.015.151 0 .302 0 .426.114-.014.315-.014.644-.014.988Z"/>
  <path fill="#FEFEFE" d="M164 25.207c-.467 0-.934.014-1.401 0-.674-.029-.907-.287-.935-1.002-.014-.744-.014-1.474-.014-2.219 0-.572.014-1.145 0-1.718-.013-.271.042-.372.33-.357.673.014 1.347 0 2.02 0v5.296Z"/>
  <path fill="#2C2E35" d="M87.606 23.131c.687-1.89 1.333-3.693 1.978-5.496.124-.344.138-.816.413-.988.247-.157.66-.043 1.003-.043.824 0 .824 0 .824.845 0 2.805 0 5.61.014 8.402 0 .3-.083.386-.357.358-.275-.029-.632.086-.797-.058-.193-.171-.055-.558-.055-.844 0-2.462 0-4.924-.055-7.4-.302.844-.605 1.674-.907 2.519-.44 1.217-.893 2.433-1.32 3.664-.082.215-.178.287-.398.287-.961 0-.961 0-1.291-.916-.618-1.718-1.237-3.45-1.869-5.168-.041-.129-.069-.272-.178-.372v7.916c0 .286-.028.443-.358.4-.26-.042-.645.115-.783-.057-.137-.172-.055-.544-.055-.83 0-2.791 0-5.583-.014-8.374 0-.272.055-.372.33-.357.412.028.825.014 1.237 0 .22-.015.316.057.385.286.687 1.96 1.401 3.922 2.102 5.868.041.072.082.172.15.358ZM133.896 20.054c.962-1.618 3.586-1.732 4.287.315.302-.573.687-1.03 1.25-1.288 1.168-.544 2.899-.315 3.298 1.689.068.357.096.7.096 1.059v4.08c0 .242-.069.286-.289.286-.852 0-.852 0-.852-.874 0-1.288 0-2.576-.027-3.864-.014-.816-.426-1.418-.989-1.56-1.031-.258-2.048.415-2.24 1.488a4.732 4.732 0 0 0-.082.887c0 1.189-.014 2.39.013 3.579 0 .3-.082.344-.343.344-.825-.015-.825 0-.825-.845 0-1.274 0-2.548-.013-3.822 0-.458-.083-.902-.399-1.26-.604-.658-1.841-.53-2.432.258-.302.4-.453.859-.453 1.36a187.16 187.16 0 0 0-.014 3.965c0 .286-.082.358-.343.344-.811-.015-.811 0-.811-.86v-6.011c0-.258.027-.401.316-.358.261.043.632-.129.783.072.137.157.041.53.041.801.028.057.028.1.028.215ZM117.586 27.425c.605.272 1.196.53 1.842.516.302-.014.618-.014.92-.086.673-.172 1.113-.601 1.305-1.274.152-.501.165-1.016.138-1.603-.22.272-.371.515-.605.701-1.195.916-3.229.687-3.998-1.045-.673-1.531-.646-3.077.179-4.552.92-1.646 3.421-1.617 4.286-.186.028.043.055.072.138.186 0-.343.014-.6 0-.873-.014-.171.055-.214.22-.229.907-.043.907-.057.907.902 0 1.947 0 3.893-.014 5.826 0 .544-.096 1.073-.302 1.574-.44 1.06-1.278 1.532-2.323 1.632a5.685 5.685 0 0 1-2.445-.258c-.206-.071-.275-.157-.261-.372.027-.272.013-.544.013-.858ZM90.656 12.539c-.37 0-.728-.014-1.099 0-.165 0-.206-.086-.247-.229-.22-.659-.454-1.317-.674-1.975-.068-.2-.137-.287-.357-.272-1.209.014-2.432.014-3.64 0-.193 0-.276.071-.33.257-.22.659-.454 1.317-.66 1.976-.055.186-.151.257-.344.243-.343-.014-.687 0-1.071 0 .33-.887.632-1.732.948-2.59.81-2.22 1.62-4.438 2.432-6.671.096-.286.233-.387.522-.358.275.029.55.014.824 0 .151 0 .234.029.289.186 1.14 3.106 2.267 6.227 3.407 9.333v.1ZM108.023 9.232c-.714 0-1.442.015-2.157-.014-.329-.014-.412.043-.343.415.206 1.174.879 1.933 1.937 2.033.907.1 1.773-.057 2.611-.444.357-.172.357-.172.357.23 0 .772 0 .772-.687.987-1.072.315-2.157.43-3.243.057-1.305-.444-1.978-1.446-2.143-2.82-.179-1.417.069-2.72 1.127-3.721 1.113-1.06 3.215-1.031 4.286.043.66.658.88 1.517.921 2.433.041.816.041.816-.728.816-.66-.015-1.292-.015-1.938-.015ZM148.281 22.902h-2.335c-.179 0-.275-.014-.248.258.179 1.46 1.086 2.262 2.542 2.219a4.735 4.735 0 0 0 2.116-.53c.22-.114.289-.086.289.186 0 .859.014.859-.797 1.088-.893.258-1.8.343-2.721.143-1.387-.286-2.239-1.174-2.542-2.605-.219-1.002-.137-2.004.275-2.934.605-1.36 1.718-1.933 3.119-1.89 1.649.057 2.721 1.16 2.872 2.892.027.3.014.6.027.887.014.229-.068.272-.274.272-.77 0-1.553.014-2.323.014ZM130.804 24.735v.944c0 .115-.041.172-.137.215-1.237.487-2.501.673-3.792.258-1.196-.387-1.896-1.274-2.13-2.548-.22-1.174-.11-2.32.536-3.335.673-1.074 1.704-1.475 2.899-1.432 1.759.057 2.72 1.331 2.844 3.006.014.243.014.501.041.744.028.258-.068.315-.302.315-1.525-.014-3.05 0-4.562-.014-.316 0-.343.1-.316.386.152 1.346 1.113 2.148 2.529 2.105a5.061 5.061 0 0 0 2.088-.516 1.32 1.32 0 0 1 .302-.128ZM109.727 20.383c.014-1.288-.261-1.002.935-1.36.961-.286 1.951-.3 2.899.086.728.3 1.113.916 1.319 1.675.123.458.151.945.151 1.417v3.679c0 .243-.055.343-.302.315-.275-.044-.632.128-.784-.072-.137-.158-.041-.515-.041-.802v-.186c-.178.2-.33.401-.494.558-.907.888-2.762.902-3.6.03-.99-1.017-.825-3.336.879-3.851.769-.23 1.553-.23 2.35-.244h.302c.659 0 .673-.028.467-.687-.206-.672-.701-.973-1.333-1.073-.865-.13-1.525 0-2.748.515ZM94.201 20.383v-.887c0-.13.055-.186.165-.23 1.044-.372 2.102-.572 3.201-.314.962.229 1.512.858 1.8 1.803.138.473.151.96.165 1.446.014 1.23 0 2.462.014 3.679 0 .243-.055.343-.302.315-.275-.03-.632.114-.784-.058-.137-.157-.04-.515-.054-.787 0-.043 0-.1-.014-.2-.358.486-.728.887-1.25 1.045-.949.271-1.883.329-2.707-.344-.715-.587-.811-1.417-.687-2.276.123-.816.604-1.374 1.36-1.646.88-.33 1.8-.272 2.72-.272.66 0 .687-.029.495-.687-.192-.659-.687-.96-1.291-1.074-.852-.157-1.69-.014-2.474.358-.082.043-.165.086-.247.115-.041.014-.069.014-.11.014ZM102.857 20.097c.632-.945 1.443-1.317 2.446-1.26 1.072.057 1.869.787 2.075 1.89.082.429.11.873.11 1.316 0 1.274 0 2.548.013 3.822 0 .258-.041.344-.316.344-.824-.014-.824 0-.824-.873v-3.25c0-.257-.028-.515-.055-.787-.165-1.302-1.085-1.646-2.089-1.36-.824.244-1.332.93-1.346 1.89a127.825 127.825 0 0 0-.014 3.965c0 .3-.041.415-.357.4-.783-.028-.783-.014-.783-.844 0-2.018 0-4.037-.014-6.04 0-.287.083-.373.344-.344.261.029.604-.115.755.057.165.172.041.515.055.788a.932.932 0 0 0 0 .286ZM153.723 20.125c.425-.6.865-1.002 1.483-1.173 1.732-.487 3.106.544 3.147 2.404.041 1.532.014 3.078.027 4.61 0 .185-.041.243-.233.243-.893.028-.893.028-.893-.902v-3.25c0-.271-.014-.543-.055-.815-.22-1.245-1.031-1.575-2.089-1.288-.797.214-1.305.93-1.36 1.846-.069 1.36-.027 2.72-.027 4.08 0 .257-.042.343-.317.343-.824-.014-.824 0-.824-.873v-6.012c0-.272.055-.358.33-.358.797.015.797 0 .811.83v.315ZM96.262 6.656c-.948-.487-1.896-.63-2.885-.415-.399.086-.728.272-.838.73-.11.472.04.773.453.988.577.3 1.223.372 1.841.558.481.143.962.3 1.333.701.92 1.002.495 2.691-.825 3.207-1.016.4-2.047.314-3.077.085-.935-.2-.935-.214-.907-1.202 0-.072.014-.143.014-.243.535.229 1.044.472 1.594.572.576.1 1.14.129 1.703-.043.495-.143.783-.486.797-.944.028-.473-.192-.76-.7-.974-.509-.2-1.059-.286-1.58-.444-.18-.057-.358-.1-.523-.171-.824-.315-1.223-.888-1.25-1.76-.028-.831.412-1.532 1.181-1.876.701-.315 1.43-.286 2.158-.243.44.028.879.128 1.305.272.151.043.22.114.206.3-.014.286 0 .573 0 .902ZM102.72 6.656c-.646-.315-1.292-.501-1.979-.501-.412 0-.824.029-1.209.186-.385.158-.577.472-.577.888-.014.386.22.63.55.787.563.257 1.181.343 1.786.515.481.143.948.3 1.305.673.948.987.522 2.705-.81 3.235-1.113.43-2.254.315-3.38.014-.591-.157-.591-.172-.591-.816 0-.558 0-.558.48-.343.894.4 1.814.572 2.776.329.426-.115.756-.344.811-.845.055-.472-.11-.816-.536-1.002-.467-.214-.976-.315-1.484-.443a7.67 7.67 0 0 1-.81-.258c-.811-.33-1.21-.902-1.224-1.746-.013-.83.413-1.518 1.168-1.861.701-.315 1.457-.3 2.199-.258.439.029.879.143 1.305.272.151.043.22.115.22.3-.014.258 0 .545 0 .874ZM112.407 8.56V6.527c0-.186-.014-.272-.234-.272-.632-.014-.632-.014-.605-.687 0-.2.069-.229.234-.229.605-.014.605-.014.605-.658 0-.373.013-.745 0-1.103 0-.171.027-.243.219-.257.921-.043.921-.043.935.916 0 .358-.151.844.068 1.06.193.185.646.056.99.056.357 0 .714.015 1.058 0 .164 0 .206.043.219.215.028.716.028.716-.632.716-.494 0-.989.014-1.47 0-.178 0-.233.057-.233.243.013 1.36 0 2.72.013 4.08.014.672.275.93.921.973.385.014.783.014 1.168.014.178 0 .233.043.233.244.014.758.028.758-.7.758-.371 0-.756.015-1.127-.043-1.154-.186-1.594-.672-1.635-1.89-.027-.672 0-1.359 0-2.032-.014-.071-.014-.071-.027-.071Z"/>
  <path fill="#FEFEFE" d="M121.791 22.716c-.028.515-.11 1.017-.33 1.489-.33.673-.879 1.016-1.607 1.016-.715 0-1.278-.315-1.581-1.002-.508-1.174-.508-2.362.069-3.507.357-.701.989-.916 1.718-.859.728.058 1.195.487 1.47 1.16.22.53.275 1.116.261 1.703ZM86.466 4.223c.55 1.531 1.071 3.02 1.607 4.494.069.2.083.286-.179.286a96.897 96.897 0 0 0-2.885 0c-.22 0-.247-.057-.165-.257.55-1.503 1.072-2.992 1.622-4.523ZM107.529 8.302h-1.786c-.11 0-.248.029-.22-.172.11-.773.467-1.574 1.415-1.86.948-.287 1.841 0 2.267.744.192.315.275.673.302 1.045.014.2-.041.243-.219.243-.578-.014-1.168 0-1.759 0ZM149.752 21.972h-3.875c-.124 0-.165-.043-.151-.172.124-.773.398-1.489 1.264-1.803.797-.301 1.594-.272 2.226.4.412.43.522.974.536 1.575ZM125.885 21.972c.138-1.933 1.649-2.348 2.748-2.047.825.229 1.237 1.03 1.278 1.875.014.158-.069.172-.178.172h-3.848ZM110.332 23.962c.014-.63.316-1.031.92-1.203.825-.229 1.663-.143 2.487-.172.096 0 .138.029.151.13.193 1.044-.577 2.332-1.552 2.604-.412.115-.838.1-1.251-.071-.494-.186-.769-.644-.755-1.288ZM97.306 22.587h.632c.468 0 .468 0 .44.501-.069 1.145-.577 1.918-1.484 2.219-.852.286-1.731-.057-1.992-.802-.275-.787.082-1.517.852-1.76.494-.158 1.016-.129 1.552-.158Z"/>
</svg>