<svg viewBox="0 0 152 32" fill="none"
	xmlns="http://www.w3.org/2000/svg">
	<path fill="#000" d="M17.062 30.213c.492 0 .902.406.902.894 0 .487-.41.893-.902.893a.906.906 0 0 1-.902-.893c0-.488.41-.894.902-.894ZM18.867 30.213c.492 0 .902.406.902.894 0 .487-.41.893-.902.893a.906.906 0 0 1-.903-.893c0-.488.383-.894.903-.894ZM26.03 30.213c.493 0 .903.406.903.894 0 .487-.41.893-.902.893a.906.906 0 0 1-.903-.893c0-.488.41-.894.903-.894ZM27.835 30.213c.492 0 .902.406.902.894 0 .487-.41.893-.902.893a.906.906 0 0 1-.902-.893c0-.488.41-.894.902-.894ZM29.64 30.213c.492 0 .902.406.902.894 0 .487-.41.893-.902.893a.906.906 0 0 1-.902-.893c0-.488.41-.894.902-.894Z" />
	<path fill="#000" d="M31.417 30.213c.492 0 .902.406.902.894 0 .487-.41.893-.902.893a.906.906 0 0 1-.902-.893c0-.488.41-.894.902-.894ZM15.257 30.213c.493 0 .903.406.903.894 0 .487-.41.893-.903.893a.906.906 0 0 1-.902-.893c0-.488.41-.894.902-.894ZM6.289 30.213c.492 0 .902.406.902.894 0 .487-.41.893-.902.893a.906.906 0 0 1-.902-.893c0-.488.41-.894.902-.894Z" />
	<path fill="#000" d="M8.094 30.213c.492 0 .902.406.902.894 0 .487-.41.893-.902.893a.906.906 0 0 1-.903-.893c0-.488.383-.894.903-.894Z" />
	<path fill="#000" d="M9.87 30.213c.493 0 .903.406.903.894 0 .487-.41.893-.902.893a.906.906 0 0 1-.902-.893c0-.488.41-.894.902-.894ZM11.675 30.213c.493 0 .903.406.903.894 0 .487-.41.893-.902.893a.906.906 0 0 1-.903-.893c0-.488.41-.894.902-.894ZM13.48 30.213c.492 0 .902.406.902.894 0 .487-.41.893-.902.893a.906.906 0 0 1-.902-.893c0-.488.383-.894.902-.894ZM26.03 28.453c.493 0 .903.407.903.894 0 .487-.41.893-.902.893a.906.906 0 0 1-.903-.893c0-.487.41-.894.903-.894ZM27.835 28.453c.492 0 .902.407.902.894 0 .487-.41.893-.902.893a.906.906 0 0 1-.902-.893c0-.487.41-.894.902-.894ZM29.64 28.453c.492 0 .902.407.902.894 0 .487-.41.893-.902.893a.906.906 0 0 1-.902-.893c0-.487.41-.894.902-.894Z" />
	<path fill="#000" d="M31.417 28.453c.492 0 .902.407.902.894 0 .487-.41.893-.902.893a.906.906 0 0 1-.902-.893c0-.487.41-.894.902-.894ZM17.062 28.453c.492 0 .902.407.902.894 0 .487-.41.893-.902.893a.906.906 0 0 1-.902-.893c0-.487.41-.894.902-.894ZM18.867 28.453c.492 0 .902.407.902.894 0 .487-.41.893-.902.893a.906.906 0 0 1-.903-.893c0-.487.383-.894.903-.894Z" />
	<path fill="#000" d="M20.644 28.453c.492 0 .902.407.902.894 0 .487-.41.893-.902.893a.906.906 0 0 1-.902-.893c0-.487.41-.894.902-.894ZM15.257 28.453c.493 0 .903.407.903.894 0 .487-.41.893-.903.893a.906.906 0 0 1-.902-.893c0-.487.41-.894.902-.894ZM4.484 28.453c.492 0 .903.407.903.894 0 .487-.41.893-.903.893a.906.906 0 0 1-.902-.893c0-.487.41-.894.902-.894Z" />
	<path fill="#000" d="M6.289 28.453c.492 0 .902.407.902.894 0 .487-.41.893-.902.893a.906.906 0 0 1-.902-.893c0-.487.41-.894.902-.894Z" />
	<path fill="#000" d="M8.094 28.453c.492 0 .902.407.902.894 0 .487-.41.893-.902.893a.906.906 0 0 1-.903-.893c0-.487.383-.894.903-.894Z" />
	<path fill="#000" d="M9.87 28.453c.493 0 .903.407.903.894 0 .487-.41.893-.902.893a.906.906 0 0 1-.902-.893c0-.487.41-.894.902-.894ZM11.675 28.453c.493 0 .903.407.903.894 0 .487-.41.893-.902.893a.906.906 0 0 1-.903-.893c0-.487.41-.894.902-.894ZM13.48 28.453c.492 0 .902.407.902.894 0 .487-.41.893-.902.893a.906.906 0 0 1-.902-.893c0-.487.383-.894.902-.894ZM17.062 28.453a.906.906 0 0 1-.902-.893c0-.487.41-.893.902-.893.492 0 .902.406.902.893s-.41.893-.902.893ZM20.644 28.453a.906.906 0 0 1-.902-.893c0-.487.41-.893.902-.893.492 0 .902.406.902.893s-.41.893-.902.893ZM27.835 28.453a.906.906 0 0 1-.902-.893c0-.487.41-.893.902-.893.492 0 .902.406.902.893s-.41.893-.902.893ZM22.449 28.453a.906.906 0 0 1-.903-.893c0-.487.41-.893.903-.893.492 0 .902.406.902.893s-.41.893-.902.893ZM29.64 28.453a.906.906 0 0 1-.902-.893c0-.487.41-.893.902-.893.492 0 .902.406.902.893-.027.487-.41.893-.902.893Z" />
	<path fill="#000" d="M31.417 28.453a.906.906 0 0 1-.902-.893c0-.487.41-.893.902-.893.492 0 .902.406.902.893s-.41.893-.902.893ZM18.867 28.453a.906.906 0 0 1-.903-.893c0-.487.41-.893.903-.893.492 0 .902.406.902.893-.027.487-.41.893-.902.893ZM26.03 28.453a.906.906 0 0 1-.902-.893c0-.487.41-.893.903-.893.492 0 .902.406.902.893s-.41.893-.902.893ZM15.257 28.453a.906.906 0 0 1-.902-.893c0-.487.41-.893.902-.893.493 0 .903.406.903.893s-.41.893-.903.893ZM2.707 28.453a.906.906 0 0 1-.902-.893c0-.487.41-.893.902-.893.492 0 .902.406.902.893-.027.487-.41.893-.902.893Z" />
	<path fill="#000" d="M13.48 28.453a.906.906 0 0 1-.902-.893c0-.487.41-.893.902-.893.492 0 .902.406.902.893-.027.487-.41.893-.902.893ZM5.387 27.56c0 .487-.41.893-.903.893a.906.906 0 0 1-.902-.893c0-.487.41-.893.902-.893.492 0 .903.406.903.893ZM11.675 28.453a.906.906 0 0 1-.902-.893c0-.487.41-.893.902-.893.493 0 .903.406.903.893s-.41.893-.902.893ZM9.87 28.453a.906.906 0 0 1-.901-.893c0-.487.41-.893.902-.893.492 0 .902.406.902.893s-.41.893-.902.893Z" />
	<path fill="#000" d="M8.094 28.453a.906.906 0 0 1-.903-.893c0-.487.41-.893.903-.893.492 0 .902.406.902.893-.027.487-.41.893-.902.893Z" />
	<path fill="#000" d="M6.289 28.453a.906.906 0 0 1-.902-.893c0-.487.41-.893.902-.893.492 0 .902.406.902.893s-.41.893-.902.893ZM17.062 24.88c.492 0 .902.406.902.893 0 .488-.41.894-.902.894a.906.906 0 0 1-.902-.894c0-.487.41-.893.902-.893ZM18.867 24.88c.492 0 .902.406.902.893 0 .488-.41.894-.902.894a.906.906 0 0 1-.903-.894c0-.487.383-.893.903-.893ZM26.03 24.88c.493 0 .903.406.903.893 0 .488-.41.894-.902.894a.906.906 0 0 1-.903-.894c0-.487.41-.893.903-.893Z" />
	<path fill="#000" d="M19.742 25.773c0-.487.41-.893.902-.893.492 0 .902.406.902.893 0 .488-.41.894-.902.894a.906.906 0 0 1-.902-.894ZM26.933 25.773c0-.487.41-.893.902-.893.492 0 .902.406.902.893 0 .488-.41.894-.902.894a.906.906 0 0 1-.902-.894Z" />
	<path fill="#000" d="M21.546 25.773c0-.487.41-.893.903-.893.492 0 .902.406.902.893 0 .488-.41.894-.902.894a.906.906 0 0 1-.903-.894ZM28.738 25.773c0-.487.41-.893.902-.893.492 0 .902.406.902.893 0 .488-.41.894-.902.894a.906.906 0 0 1-.902-.894Z" />
	<path fill="#000" d="M23.351 25.773c0-.487.41-.893.902-.893.492 0 .903.406.903.893 0 .488-.41.894-.903.894a.888.888 0 0 1-.902-.894ZM30.515 25.773c0-.487.41-.893.902-.893.492 0 .902.406.902.893 0 .488-.41.894-.902.894a.906.906 0 0 1-.902-.894ZM15.257 24.88c.493 0 .903.406.903.893 0 .488-.41.894-.903.894a.906.906 0 0 1-.902-.894c0-.487.41-.893.902-.893Z" />
	<path fill="#000" d="M13.48 24.88c.492 0 .902.406.902.893 0 .488-.41.894-.902.894a.906.906 0 0 1-.902-.894c0-.487.383-.893.902-.893ZM1.805 25.773c0-.487.41-.893.902-.893.492 0 .902.406.902.893 0 .488-.41.894-.902.894a.888.888 0 0 1-.902-.894Z" />
	<path fill="#000" d="M0 25.773c0-.487.41-.893.902-.893.493 0 .903.406.903.893 0 .488-.41.894-.903.894A.906.906 0 0 1 0 25.773ZM6.289 24.88c.492 0 .902.406.902.893 0 .488-.41.894-.902.894a.906.906 0 0 1-.902-.894c0-.487.41-.893.902-.893Z" />
	<path fill="#000" d="M8.094 24.88c.492 0 .902.406.902.893 0 .488-.41.894-.902.894a.906.906 0 0 1-.903-.894c0-.487.383-.893.903-.893Z" />
	<path fill="#000" d="M9.87 24.88c.493 0 .903.406.903.893 0 .488-.41.894-.902.894a.906.906 0 0 1-.902-.894c0-.487.41-.893.902-.893ZM11.675 24.88c.493 0 .903.406.903.893 0 .488-.41.894-.902.894a.906.906 0 0 1-.903-.894c0-.487.41-.893.902-.893ZM5.387 25.773c0 .488-.41.894-.903.894a.906.906 0 0 1-.902-.894c0-.487.41-.893.902-.893.492 0 .903.406.903.893ZM26.933 24.014c0-.488.41-.894.902-.894.492 0 .902.406.902.893 0 .488-.41.894-.902.894a.906.906 0 0 1-.902-.893ZM28.738 24.014c0-.488.41-.894.902-.894.492 0 .902.406.902.893 0 .488-.41.894-.902.894a.906.906 0 0 1-.902-.893Z" />
	<path fill="#000" d="M30.515 24.014c0-.488.41-.894.902-.894.492 0 .902.406.902.893 0 .488-.41.894-.902.894a.906.906 0 0 1-.902-.893ZM25.128 24.014c0-.488.41-.894.903-.894.492 0 .902.406.902.893 0 .488-.41.894-.902.894a.906.906 0 0 1-.903-.893ZM5.387 24.014c0-.488.41-.894.902-.894.492 0 .902.406.902.893 0 .488-.41.894-.902.894a.906.906 0 0 1-.902-.893Z" />
	<path fill="#000" d="M5.387 24.014c0 .487-.41.893-.903.893a.906.906 0 0 1-.902-.893c0-.488.41-.894.902-.894.492 0 .903.406.903.893Z" />
	<path fill="#000" d="M1.805 24.014c0-.488.41-.894.902-.894.492 0 .902.406.902.893 0 .488-.41.894-.902.894a.888.888 0 0 1-.902-.893Z" />
	<path fill="#000" d="M0 24.014c0-.488.41-.894.902-.894.493 0 .903.406.903.893 0 .488-.41.894-.903.894A.906.906 0 0 1 0 24.014ZM26.933 22.254c0-.488.41-.894.902-.894.492 0 .902.407.902.894 0 .487-.41.893-.902.893a.906.906 0 0 1-.902-.893ZM28.738 22.254c0-.488.41-.894.902-.894.492 0 .902.407.902.894 0 .487-.41.893-.902.893a.906.906 0 0 1-.902-.893Z" />
	<path fill="#000" d="M30.515 22.254c0-.488.41-.894.902-.894.492 0 .902.407.902.894 0 .487-.41.893-.902.893a.906.906 0 0 1-.902-.893ZM25.128 22.254c0-.488.41-.894.903-.894.492 0 .902.407.902.894 0 .487-.41.893-.902.893a.906.906 0 0 1-.903-.893ZM5.387 22.254c0-.488.41-.894.902-.894.492 0 .902.407.902.894 0 .487-.41.893-.902.893a.906.906 0 0 1-.902-.893Z" />
	<path fill="#000" d="M5.387 22.254c0 .487-.41.893-.903.893a.906.906 0 0 1-.902-.893c0-.488.41-.894.902-.894.492 0 .903.407.903.894Z" />
	<path fill="#000" d="M1.805 22.254c0-.488.41-.894.902-.894.492 0 .902.407.902.894 0 .487-.41.893-.902.893a.888.888 0 0 1-.902-.893Z" />
	<path fill="#000" d="M0 22.254c0-.488.41-.894.902-.894.493 0 .903.407.903.894 0 .487-.41.893-.903.893A.906.906 0 0 1 0 22.254ZM26.933 20.467c0-.487.41-.893.902-.893.492 0 .902.406.902.893s-.41.893-.902.893c-.492-.027-.902-.406-.902-.893ZM28.738 20.467c0-.487.41-.893.902-.893.492 0 .902.406.902.893s-.41.893-.902.893c-.492-.027-.902-.406-.902-.893Z" />
	<path fill="#000" d="M30.515 20.467c0-.487.41-.893.902-.893.492 0 .902.406.902.893s-.41.893-.902.893c-.492-.027-.902-.406-.902-.893ZM25.128 20.467c0-.487.41-.893.903-.893.492 0 .902.406.902.893s-.41.893-.902.893c-.493-.027-.903-.406-.903-.893ZM5.387 20.467c0-.487.41-.893.902-.893.492 0 .902.406.902.893s-.41.893-.902.893c-.492-.027-.902-.406-.902-.893Z" />
	<path fill="#000" d="M5.387 20.467c0 .487-.41.893-.903.893a.906.906 0 0 1-.902-.893c0-.487.41-.893.902-.893.492 0 .903.379.903.893Z" />
	<path fill="#000" d="M1.805 20.467c0-.487.41-.893.902-.893.492 0 .902.406.902.893s-.41.893-.902.893c-.52-.027-.902-.406-.902-.893Z" />
	<path fill="#000" d="M0 20.467c0-.487.41-.893.902-.893.493 0 .903.406.903.893s-.41.893-.903.893C.41 21.333 0 20.954 0 20.467ZM26.933 18.68c0-.487.41-.893.902-.893.492 0 .902.406.902.893 0 .488-.41.894-.902.894a.906.906 0 0 1-.902-.894ZM25.128 18.68c0-.487.41-.893.903-.893.492 0 .902.406.902.893 0 .488-.41.894-.902.894a.906.906 0 0 1-.903-.894ZM28.738 18.68c0-.487.41-.893.902-.893.492 0 .902.406.902.893 0 .488-.41.894-.902.894a.906.906 0 0 1-.902-.894Z" />
	<path fill="#000" d="M30.515 18.68c0-.487.41-.893.902-.893.492 0 .902.406.902.893 0 .488-.41.894-.902.894a.906.906 0 0 1-.902-.894ZM5.387 18.68c0 .488-.41.894-.903.894a.906.906 0 0 1-.902-.894c0-.487.41-.893.902-.893.492 0 .903.406.903.893Z" />
	<path fill="#000" d="M5.387 18.68c0-.487.41-.893.902-.893.492 0 .902.406.902.893 0 .488-.41.894-.902.894a.906.906 0 0 1-.902-.894ZM1.805 18.68c0-.487.41-.893.902-.893.492 0 .902.406.902.893 0 .488-.41.894-.902.894a.888.888 0 0 1-.902-.894Z" />
	<path fill="#000" d="M0 18.68c0-.487.41-.893.902-.893.493 0 .903.406.903.893 0 .488-.41.894-.903.894A.906.906 0 0 1 0 18.68ZM26.933 16.893c0-.487.41-.893.902-.893.492 0 .902.406.902.893 0 .488-.41.894-.902.894a.906.906 0 0 1-.902-.894ZM25.128 16.893c0-.487.41-.893.903-.893.492 0 .902.406.902.893 0 .488-.41.894-.902.894a.906.906 0 0 1-.903-.894ZM28.738 16.893c0-.487.41-.893.902-.893.492 0 .902.406.902.893 0 .488-.41.894-.902.894a.906.906 0 0 1-.902-.894Z" />
	<path fill="#000" d="M30.515 16.893c0-.487.41-.893.902-.893.492 0 .902.406.902.893 0 .488-.41.894-.902.894a.906.906 0 0 1-.902-.894ZM5.387 16.893c0 .488-.41.894-.903.894a.906.906 0 0 1-.902-.894c0-.487.41-.893.902-.893.492 0 .903.406.903.893Z" />
	<path fill="#000" d="M5.387 16.893c0-.487.41-.893.902-.893.492 0 .902.406.902.893 0 .488-.41.894-.902.894a.906.906 0 0 1-.902-.894ZM1.805 16.893c0-.487.41-.893.902-.893.492 0 .902.406.902.893 0 .488-.41.894-.902.894a.888.888 0 0 1-.902-.894Z" />
	<path fill="#000" d="M0 16.893C0 16.406.41 16 .902 16c.493 0 .903.406.903.893 0 .488-.41.894-.903.894A.906.906 0 0 1 0 16.893ZM26.933 15.134c0-.488.41-.894.902-.894.492 0 .902.406.902.894 0 .487-.41.893-.902.893a.906.906 0 0 1-.902-.893ZM25.128 15.134c0-.488.41-.894.903-.894.492 0 .902.406.902.894 0 .487-.41.893-.902.893a.906.906 0 0 1-.903-.893ZM28.738 15.134c0-.488.41-.894.902-.894.492 0 .902.406.902.894 0 .487-.41.893-.902.893a.906.906 0 0 1-.902-.893Z" />
	<path fill="#000" d="M30.515 15.134c0-.488.41-.894.902-.894.492 0 .902.406.902.894 0 .487-.41.893-.902.893a.906.906 0 0 1-.902-.893ZM5.387 15.134c0 .487-.41.893-.903.893a.906.906 0 0 1-.902-.893c0-.488.41-.894.902-.894.492 0 .903.406.903.894Z" />
	<path fill="#000" d="M5.387 15.134c0-.488.41-.894.902-.894.492 0 .902.406.902.894 0 .487-.41.893-.902.893a.906.906 0 0 1-.902-.893ZM1.805 15.134c0-.488.41-.894.902-.894.492 0 .902.406.902.894 0 .487-.41.893-.902.893a.888.888 0 0 1-.902-.893Z" />
	<path fill="#000" d="M0 15.134c0-.488.41-.894.902-.894.493 0 .903.406.903.894 0 .487-.41.893-.903.893A.906.906 0 0 1 0 15.134ZM26.933 13.347c0-.487.41-.893.902-.893.492 0 .902.406.902.893s-.41.893-.902.893c-.492-.027-.902-.406-.902-.893ZM25.128 13.347c0-.487.41-.893.903-.893.492 0 .902.406.902.893s-.41.893-.902.893c-.493-.027-.903-.406-.903-.893ZM28.738 13.347c0-.487.41-.893.902-.893.492 0 .902.406.902.893s-.41.893-.902.893c-.492-.027-.902-.406-.902-.893Z" />
	<path fill="#000" d="M30.515 13.347c0-.487.41-.893.902-.893.492 0 .902.406.902.893s-.41.893-.902.893c-.492-.027-.902-.406-.902-.893ZM5.387 13.347c0 .487-.41.893-.903.893a.906.906 0 0 1-.902-.893c0-.487.41-.893.902-.893.492 0 .903.378.903.893Z" />
	<path fill="#000" d="M5.387 13.347c0-.487.41-.893.902-.893.492 0 .902.406.902.893s-.41.893-.902.893c-.492-.027-.902-.406-.902-.893ZM1.805 13.347c0-.514.382-.893.902-.893.492 0 .902.406.902.893s-.41.893-.902.893c-.52-.027-.902-.406-.902-.893Z" />
	<path fill="#000" d="M0 13.347c0-.514.41-.893.902-.893.493 0 .903.406.903.893s-.41.893-.903.893C.41 14.213 0 13.834 0 13.347ZM26.933 11.56c0-.487.41-.893.902-.893.492 0 .902.406.902.893s-.41.893-.902.893a.906.906 0 0 1-.902-.893ZM28.738 11.56c0-.487.41-.893.902-.893.492 0 .902.406.902.893s-.41.893-.902.893a.906.906 0 0 1-.902-.893Z" />
	<path fill="#000" d="M30.515 11.56c0-.487.41-.893.902-.893.492 0 .902.406.902.893s-.41.893-.902.893a.906.906 0 0 1-.902-.893ZM25.128 11.56c0-.487.41-.893.903-.893.492 0 .902.406.902.893s-.41.893-.902.893a.906.906 0 0 1-.903-.893ZM5.387 11.56c0-.487.41-.893.902-.893.492 0 .902.406.902.893s-.41.893-.902.893a.906.906 0 0 1-.902-.893Z" />
	<path fill="#000" d="M5.387 11.56c0 .487-.41.893-.903.893a.906.906 0 0 1-.902-.893c0-.487.41-.893.902-.893.492 0 .903.406.903.893Z" />
	<path fill="#000" d="M1.805 11.56c0-.487.41-.893.902-.893.492 0 .902.406.902.893s-.41.893-.902.893a.888.888 0 0 1-.902-.893Z" />
	<path fill="#000" d="M0 11.56c0-.487.41-.893.902-.893.493 0 .903.406.903.893s-.41.893-.903.893A.906.906 0 0 1 0 11.56ZM25.128 9.773c0-.487.41-.893.903-.893.492 0 .902.406.902.893 0 .488-.41.894-.902.894a.906.906 0 0 1-.903-.894ZM26.933 9.773c0-.487.41-.893.902-.893.492 0 .902.406.902.893 0 .488-.41.894-.902.894a.906.906 0 0 1-.902-.894ZM28.738 9.773c0-.487.41-.893.902-.893.492 0 .902.406.902.893 0 .488-.41.894-.902.894a.906.906 0 0 1-.902-.894Z" />
	<path fill="#000" d="M30.515 9.773c0-.487.41-.893.902-.893.492 0 .902.406.902.893 0 .488-.41.894-.902.894a.906.906 0 0 1-.902-.894ZM5.387 9.773c0-.487.41-.893.902-.893.492 0 .902.406.902.893 0 .488-.41.894-.902.894a.906.906 0 0 1-.902-.894Z" />
	<path fill="#000" d="M5.387 9.773c0 .488-.41.894-.903.894a.906.906 0 0 1-.902-.894c0-.487.41-.893.902-.893.492 0 .903.406.903.893Z" />
	<path fill="#000" d="M1.805 9.773c0-.487.41-.893.902-.893.492 0 .902.406.902.893 0 .488-.41.894-.902.894a.888.888 0 0 1-.902-.894ZM25.128 8.014c0-.488.41-.894.903-.894.492 0 .902.406.902.894 0 .487-.41.893-.902.893-.493-.027-.903-.406-.903-.893ZM26.933 8.014c0-.488.41-.894.902-.894.492 0 .902.406.902.894 0 .487-.41.893-.902.893-.492-.027-.902-.406-.902-.893ZM28.738 8.014c0-.488.41-.894.902-.894.492 0 .902.406.902.894 0 .487-.41.893-.902.893-.492-.027-.902-.406-.902-.893Z" />
	<path fill="#000" d="M30.515 8.014c0-.488.41-.894.902-.894.492 0 .902.406.902.894 0 .487-.41.893-.902.893-.492-.027-.902-.406-.902-.893ZM5.387 8.014c0 .487-.41.893-.903.893a.906.906 0 0 1-.902-.893c0-.488.41-.894.902-.894.492 0 .903.38.903.894Z" />
	<path fill="#000" d="M5.387 8.014c0-.488.41-.894.902-.894.492 0 .902.406.902.894 0 .487-.41.893-.902.893-.492-.027-.902-.406-.902-.893ZM17.062 5.333c.492 0 .902.406.902.894 0 .487-.41.893-.902.893a.906.906 0 0 1-.902-.893c0-.488.41-.894.902-.894ZM18.867 5.333c.492 0 .902.406.902.894 0 .487-.41.893-.902.893a.906.906 0 0 1-.903-.893c0-.488.383-.894.903-.894ZM26.03 5.333c.493 0 .903.406.903.894 0 .487-.41.893-.902.893a.906.906 0 0 1-.903-.893c0-.488.41-.894.903-.894Z" />
	<path fill="#000" d="M19.742 6.227c0-.488.41-.894.902-.894.492 0 .902.406.902.894 0 .487-.41.893-.902.893a.906.906 0 0 1-.902-.893ZM26.933 6.227c0-.488.41-.894.902-.894.492 0 .902.406.902.894 0 .487-.41.893-.902.893a.906.906 0 0 1-.902-.893Z" />
	<path fill="#000" d="M21.546 6.227c0-.488.41-.894.903-.894.492 0 .902.406.902.894 0 .487-.41.893-.902.893a.906.906 0 0 1-.903-.893ZM28.738 6.227c0-.488.41-.894.902-.894.492 0 .902.406.902.894 0 .487-.41.893-.902.893a.906.906 0 0 1-.902-.893Z" />
	<path fill="#000" d="M23.351 6.227c0-.488.41-.894.902-.894.492 0 .903.406.903.894 0 .487-.41.893-.903.893a.888.888 0 0 1-.902-.893ZM30.515 6.227c0-.488.41-.894.902-.894.492 0 .902.406.902.894 0 .487-.41.893-.902.893a.906.906 0 0 1-.902-.893ZM15.257 5.333c.493 0 .903.406.903.894 0 .487-.41.893-.903.893a.906.906 0 0 1-.902-.893c0-.488.41-.894.902-.894ZM6.289 5.333c.492 0 .902.406.902.894 0 .487-.41.893-.902.893a.906.906 0 0 1-.902-.893c0-.488.41-.894.902-.894Z" />
	<path fill="#000" d="M8.094 5.333c.492 0 .902.406.902.894 0 .487-.41.893-.902.893a.906.906 0 0 1-.903-.893c0-.488.383-.894.903-.894Z" />
	<path fill="#000" d="M9.87 5.333c.493 0 .903.406.903.894 0 .487-.41.893-.902.893a.906.906 0 0 1-.902-.893c0-.488.41-.894.902-.894ZM11.675 5.333c.493 0 .903.406.903.894 0 .487-.41.893-.902.893a.906.906 0 0 1-.903-.893c0-.488.41-.894.902-.894ZM13.48 5.333c.492 0 .902.406.902.894 0 .487-.41.893-.902.893a.906.906 0 0 1-.902-.893c0-.488.383-.894.902-.894ZM17.062 3.547c.492 0 .902.406.902.893s-.41.893-.902.893a.906.906 0 0 1-.902-.893c0-.487.41-.893.902-.893ZM18.867 3.547c.492 0 .902.406.902.893s-.41.893-.902.893a.906.906 0 0 1-.903-.893c0-.487.383-.893.903-.893ZM26.03 3.547c.493 0 .903.406.903.893s-.41.893-.902.893a.906.906 0 0 1-.903-.893c0-.487.41-.893.903-.893Z" />
	<path fill="#000" d="M20.644 3.547c.492 0 .902.406.902.893s-.41.893-.902.893a.906.906 0 0 1-.902-.893c0-.487.41-.893.902-.893ZM27.835 3.547c.492 0 .902.406.902.893s-.41.893-.902.893a.906.906 0 0 1-.902-.893c0-.487.41-.893.902-.893ZM22.449 3.547c.492 0 .902.406.902.893s-.41.893-.902.893a.906.906 0 0 1-.903-.893c0-.487.41-.893.903-.893ZM29.64 3.547c.492 0 .902.406.902.893s-.41.893-.902.893a.906.906 0 0 1-.902-.893c0-.487.41-.893.902-.893Z" />
	<path fill="#000" d="M24.253 3.547c.492 0 .903.406.903.893s-.41.893-.903.893a.906.906 0 0 1-.902-.893c0-.487.383-.893.902-.893ZM31.417 3.547c.492 0 .902.406.902.893s-.41.893-.902.893a.906.906 0 0 1-.902-.893c0-.487.41-.893.902-.893ZM15.257 3.547c.493 0 .903.406.903.893s-.41.893-.903.893a.906.906 0 0 1-.902-.893c0-.487.41-.893.902-.893ZM8.094 3.547c.492 0 .902.406.902.893s-.41.893-.902.893a.906.906 0 0 1-.903-.893c0-.487.383-.893.903-.893Z" />
	<path fill="#000" d="M9.87 3.547c.493 0 .903.406.903.893s-.41.893-.902.893a.906.906 0 0 1-.902-.893c0-.487.41-.893.902-.893ZM11.675 3.547c.493 0 .903.406.903.893s-.41.893-.902.893a.906.906 0 0 1-.903-.893c0-.487.41-.893.902-.893ZM13.48 3.547c.492 0 .902.406.902.893s-.41.893-.902.893a.906.906 0 0 1-.902-.893c0-.487.383-.893.902-.893ZM17.062 1.787c.492 0 .902.406.902.893 0 .488-.41.894-.902.894a.906.906 0 0 1-.902-.894c0-.514.41-.893.902-.893ZM18.867 1.787c.492 0 .902.406.902.893 0 .488-.41.894-.902.894a.906.906 0 0 1-.903-.894c0-.514.383-.893.903-.893ZM26.03 1.787c.493 0 .903.406.903.893 0 .488-.41.894-.902.894a.906.906 0 0 1-.903-.894c0-.514.41-.893.903-.893Z" />
	<path fill="#000" d="M20.644 1.787c.492 0 .902.406.902.893 0 .488-.41.894-.902.894a.906.906 0 0 1-.902-.894c0-.514.41-.893.902-.893ZM27.835 1.787c.492 0 .902.406.902.893 0 .488-.41.894-.902.894a.906.906 0 0 1-.902-.894c0-.514.41-.893.902-.893ZM22.449 1.787c.492 0 .902.406.902.893 0 .488-.41.894-.902.894a.906.906 0 0 1-.903-.894c0-.514.41-.893.903-.893ZM29.64 1.787c.492 0 .902.406.902.893 0 .488-.41.894-.902.894a.906.906 0 0 1-.902-.894c0-.514.41-.893.902-.893Z" />
	<path fill="#000" d="M24.253 1.787c.492 0 .903.406.903.893 0 .488-.41.894-.903.894a.906.906 0 0 1-.902-.894c0-.514.383-.893.902-.893ZM31.417 1.787c.492 0 .902.406.902.893 0 .488-.41.894-.902.894a.906.906 0 0 1-.902-.894c0-.514.41-.893.902-.893ZM9.87 1.787c.493 0 .903.406.903.893 0 .488-.41.894-.902.894a.906.906 0 0 1-.902-.894c0-.514.41-.893.902-.893ZM11.675 1.787c.493 0 .903.379.903.893 0 .488-.41.894-.902.894a.906.906 0 0 1-.903-.894c0-.514.41-.893.902-.893ZM13.48 1.787c.492 0 .902.406.902.893 0 .488-.41.894-.902.894a.906.906 0 0 1-.902-.894c0-.514.383-.893.902-.893Z" />
	<path fill="#000" d="M15.257 1.787c.493 0 .903.406.903.893 0 .488-.41.894-.903.894a.906.906 0 0 1-.902-.894c0-.514.41-.893.902-.893ZM26.03 0c.493 0 .903.406.903.893 0 .488-.41.894-.902.894a.906.906 0 0 1-.903-.894c0-.487.41-.893.903-.893ZM27.835 0c.492 0 .902.406.902.893 0 .488-.41.894-.902.894a.906.906 0 0 1-.902-.894c0-.487.41-.893.902-.893ZM29.64 0c.492 0 .902.406.902.893 0 .488-.41.894-.902.894a.906.906 0 0 1-.902-.894c0-.487.41-.893.902-.893Z" />
	<path fill="#000" d="M31.417 0c.492 0 .902.406.902.893 0 .488-.41.894-.902.894a.906.906 0 0 1-.902-.894c0-.487.41-.893.902-.893ZM17.062 0c.492 0 .902.406.902.893 0 .488-.41.894-.902.894a.906.906 0 0 1-.902-.894c0-.487.41-.893.902-.893ZM18.867 0c.492 0 .902.406.902.893 0 .488-.41.894-.902.894a.906.906 0 0 1-.903-.894c0-.487.383-.893.903-.893Z" />
	<path fill="#000" d="M20.644 0c.492 0 .902.406.902.893 0 .488-.41.894-.902.894a.906.906 0 0 1-.902-.894c0-.487.41-.893.902-.893ZM22.449 0c.492 0 .902.406.902.893 0 .488-.41.894-.902.894a.906.906 0 0 1-.903-.894c0-.487.41-.893.903-.893Z" />
	<path fill="#000" d="M24.253 0c.492 0 .903.406.903.893 0 .488-.41.894-.903.894a.906.906 0 0 1-.902-.894c0-.487.383-.893.902-.893ZM11.675 0c.493 0 .903.406.903.893 0 .488-.41.894-.902.894a.906.906 0 0 1-.903-.894c0-.487.41-.893.902-.893ZM13.48 0c.492 0 .902.406.902.893 0 .488-.41.894-.902.894a.906.906 0 0 1-.902-.894c0-.487.383-.893.902-.893Z" />
	<path fill="#000" d="M15.257 0c.493 0 .903.406.903.893 0 .488-.41.894-.903.894a.906.906 0 0 1-.902-.894c0-.487.41-.893.902-.893ZM75.385 32c-1.477 0-2.871-.298-4.156-.893-1.285-.596-2.352-1.408-3.172-2.491v2.978h-4.594V0h4.621v12.832a8.894 8.894 0 0 1 3.117-2.409 9.51 9.51 0 0 1 4.13-.92c1.42 0 2.788.27 4.1.785a10.476 10.476 0 0 1 3.473 2.247c1.012.974 1.805 2.165 2.406 3.546.602 1.38.903 2.924.903 4.657 0 1.732-.301 3.276-.93 4.656a10.842 10.842 0 0 1-2.434 3.52 11.106 11.106 0 0 1-3.445 2.247 9.816 9.816 0 0 1-4.02.839Zm-.684-4.25c.957 0 1.86-.19 2.707-.542a6.91 6.91 0 0 0 2.215-1.489 6.264 6.264 0 0 0 1.45-2.247c.355-.866.519-1.787.519-2.761 0-.975-.164-1.895-.52-2.735a7.28 7.28 0 0 0-1.45-2.22 6.913 6.913 0 0 0-4.92-2.03c-.985 0-1.915.19-2.735.568-.82.38-1.559.867-2.16 1.516a7.28 7.28 0 0 0-1.45 2.22c-.355.84-.519 1.76-.519 2.708 0 .974.164 1.895.52 2.734.355.84.82 1.597 1.449 2.22a7.2 7.2 0 0 0 2.16 1.516c.82.352 1.722.542 2.734.542ZM110.274 31.188a11.11 11.11 0 0 1-3.445-2.247c-1.011-.975-1.804-2.139-2.433-3.52-.602-1.38-.93-2.924-.93-4.656 0-1.733.301-3.276.902-4.657.602-1.38 1.395-2.572 2.407-3.546a10.47 10.47 0 0 1 3.472-2.247 11.159 11.159 0 0 1 4.102-.785c1.476 0 2.871.297 4.128.92a8.902 8.902 0 0 1 3.118 2.41V0h4.62v31.594h-4.593v-2.978a8.258 8.258 0 0 1-3.172 2.49c-1.285.596-2.68.894-4.156.894-1.395 0-2.734-.27-4.02-.812Zm7.438-4.007c.82-.379 1.558-.866 2.16-1.516a7.281 7.281 0 0 0 1.449-2.22c.356-.84.52-1.76.52-2.734a7.01 7.01 0 0 0-.52-2.708c-.355-.839-.82-1.597-1.449-2.22a7.21 7.21 0 0 0-2.16-1.516c-.82-.379-1.723-.568-2.734-.568a6.909 6.909 0 0 0-4.922 2.03 6.393 6.393 0 0 0-1.449 2.22c-.356.84-.52 1.76-.52 2.735 0 .974.164 1.895.52 2.761a7.077 7.077 0 0 0 1.449 2.247 6.909 6.909 0 0 0 2.215 1.489c.847.352 1.75.541 2.707.541 1.011.028 1.914-.162 2.734-.541ZM89.412 9.503h4.648v3.33c.574-1.056 1.367-1.896 2.352-2.464.984-.569 2.214-.866 3.664-.866h2.57v4.412h-3.281c-1.914 0-3.281.515-4.102 1.57-.793 1.03-1.203 2.68-1.203 4.928l.027 11.18h-4.675V9.504ZM140.707 14.294c3.555 0 6.453 2.87 6.453 6.39v10.91H152v-10.91c0-6.173-5.058-11.181-11.293-11.181-6.234 0-11.292 5.008-11.292 11.18v10.91h4.839v-10.91c0-3.519 2.871-6.389 6.453-6.389ZM59.39 16.325a11.389 11.389 0 0 0-2.38-3.574 11.046 11.046 0 0 0-3.554-2.382 11.427 11.427 0 0 0-4.43-.866c-1.586 0-3.035.297-4.43.866a11.599 11.599 0 0 0-3.609 2.382c-1.039 1.002-1.832 2.193-2.433 3.574a11.389 11.389 0 0 0-.875 4.44c0 1.597.3 3.059.875 4.44a10.688 10.688 0 0 0 2.378 3.546 11.155 11.155 0 0 0 3.528 2.356c1.367.568 2.816.866 4.402.866 1.45 0 2.762-.27 3.91-.84a8.066 8.066 0 0 0 2.871-2.355v2.816h4.594v-10.83c.027-1.596-.246-3.058-.848-4.44Zm-4.212 7.147a7.095 7.095 0 0 1-1.449 2.247 6.911 6.911 0 0 1-4.922 2.03c-.984 0-1.914-.189-2.734-.568-.82-.379-1.559-.866-2.16-1.516a7.282 7.282 0 0 1-1.45-2.22c-.355-.84-.519-1.76-.519-2.734 0-.948.164-1.841.52-2.708.355-.839.82-1.597 1.449-2.22a7.203 7.203 0 0 1 2.16-1.516c.82-.379 1.723-.568 2.734-.568a6.911 6.911 0 0 1 4.922 2.03 6.398 6.398 0 0 1 1.45 2.22c.355.84.519 1.76.519 2.735 0 1.001-.164 1.922-.52 2.788Z" />
</svg>
