<svg viewBox="0 0 144 44" fill="none"
  xmlns="http://www.w3.org/2000/svg">
  <path fill-rule="evenodd" clip-rule="evenodd" d="M43.7175 43.6867H0V0.313232H43.7175V43.6867ZM29.8565 10.1697V14.2722H21.8724V18.9424H29.8565L28.6081 21.7549H21.8724V23.0192V23.948H27.5939L26.3195 26.7605H21.8724V35.3526H16.8791V26.7605H14.7465H14.0703V23.948H16.4369H16.8791V21.7549H14.8505H14.0703V18.9424H16.515H16.8791V10.1697H29.8565Z" fill="#9E2C24"/>
  <path d="M51.4688 21.4967V23.8963H53.5233V31.4306H57.8144V23.8963H61.8715L62.9378 21.4967H57.8144V20.1034H63.5879L64.6542 17.7038H57.8144V13.6529H64.6542V10.1696H53.5233V17.7038H51.4688V20.1034H53.5233V21.4967H51.4688ZM127.825 35.2493H131.908L138.618 17.549H134.353L131.414 26.6572H131.336L128.397 17.549H124.132L129.359 31.3274L127.825 35.2493ZM122.988 28.3085C122.754 28.3601 122.546 28.3859 122.207 28.3859C121.219 28.3859 120.933 28.1021 120.933 27.4828V20.5162H122.988V17.549H120.933V13.24H117.032V17.549H115.264V20.4904H117.032V27.8957C117.032 30.8629 118.566 31.4822 121.115 31.4822C121.739 31.4822 122.363 31.4048 122.988 31.3274V28.3085ZM109.854 31.3274H113.755V17.549H109.854V31.3274ZM68.6593 9.62772C67.3589 9.62772 66.3967 10.7888 66.3967 11.8983C66.3967 12.9562 67.3589 14.1173 68.6593 14.1173C69.9076 14.1173 70.9219 13.0078 70.9219 11.8467C70.9219 10.6082 69.8296 9.62772 68.6593 9.62772ZM111.805 9.62772C110.504 9.62772 109.542 10.7888 109.542 11.8983C109.542 12.9562 110.504 14.1173 111.805 14.1173C113.053 14.1173 114.067 13.0078 114.067 11.8467C114.093 10.6082 112.975 9.62772 111.805 9.62772ZM104.055 31.3274H107.956V10.0922H104.055V31.3274ZM98.7752 23.0707C98.6452 21.729 97.6049 20.1292 95.7324 20.1292C93.7039 20.1292 92.6896 21.5225 92.4816 23.0707H98.7752ZM102.65 24.464V25.5477H92.4816C92.6376 27.1474 93.6519 28.773 95.7324 28.773C96.9287 28.773 97.969 28.2053 98.5152 27.1474L102.312 27.4312C101.376 30.2437 98.8272 31.7144 95.5504 31.7144C91.3633 31.7144 88.4505 28.8762 88.4505 24.464C88.4505 20.0002 91.3633 17.162 95.5504 17.162C99.7375 17.1878 102.65 20.026 102.65 24.464ZM83.3272 24.464C83.3272 22.3998 82.1829 20.4388 79.7642 20.4388C77.5276 20.4388 76.3573 22.4256 76.3573 24.5156C76.3573 26.683 77.5796 28.5923 79.8682 28.5923C82.0788 28.5923 83.3272 26.7862 83.3272 24.464ZM83.3532 31.3274V29.3922H83.3011C82.1828 31.0177 80.5704 31.6886 78.776 31.6886C74.9009 31.6886 72.2742 28.2311 72.2742 24.3866C72.2742 20.5421 74.7189 17.1362 78.6979 17.1362C80.4924 17.1362 81.8188 17.7038 83.1191 19.381H83.1711V10.0922H87.0721V31.3274H83.3532ZM66.5007 17.6522H70.7919V31.3532H66.5007V17.6522Z" fill="#245A8C"/>
  <path d="M139.45 7.66676H138.722V7.17651H140.724V7.66676H140.022V9.91155H139.45V7.66676Z" fill="#245A8C"/>
  <path d="M143.377 7.17651L142.571 9.03427L141.791 7.17651H141.166V9.91155H141.687V8.13119L142.441 9.91155H142.727L143.481 8.10539V9.91155H144.001V7.17651H143.377Z" fill="#245A8C"/>
  <path d="M54.6936 43.5834H53.4973V38.7326H54.6936V43.5834Z" fill="#245A8C"/>
  <path d="M59.0107 43.5834H57.8144V38.7326H59.0107L60.7792 41.4676V38.7326H61.9755V43.5834H60.7792L59.0107 40.8226V43.5834Z" fill="#245A8C"/>
  <path d="M66.9688 43.5834H65.7725V39.6873H64.6542V38.7326H68.0871V39.6873H66.9688V43.5834Z" fill="#245A8C"/>
  <path d="M71.8321 40.6936H73.4445V41.6482H71.8321V42.6287H73.4445V43.5834H70.6358V38.7326H73.4445V39.6873H71.8321V40.6936Z" fill="#245A8C"/>
  <path d="M77.9958 41.0548C78.4899 41.0548 78.776 40.7968 78.776 40.3839C78.776 39.9711 78.4899 39.7131 78.0738 39.7131H77.6317V41.0548H77.9958ZM77.6056 43.5834H76.4093V38.7326H77.9958C78.6459 38.7326 79.114 38.8358 79.4261 39.0938C79.7642 39.3519 79.9463 39.7905 79.9463 40.3323C79.9463 41.0548 79.6342 41.5708 79.01 41.8031L80.0763 43.5834H78.6459L77.5796 41.6999V43.5834H77.6056Z" fill="#245A8C"/>
  <path d="M84.2114 43.5834H83.0151V38.7326H84.2114L85.9799 41.4676V38.7326H87.1762V43.5834H85.9799L84.2114 40.8226V43.5834Z" fill="#245A8C"/>
  <path d="M92.1435 40.1259L91.5713 41.9321H92.7156L92.1435 40.1259ZM91.2593 42.8868L91.0512 43.5834H89.7769L91.3893 38.7326H92.8977L94.5101 43.5834H93.2098L93.0017 42.8868H91.2593Z" fill="#245A8C"/>
  <path d="M98.8272 43.5834H97.6309V39.6873H96.5126V38.7326H99.9455V39.6873H98.8272V43.5834Z" fill="#245A8C"/>
  <path d="M104.263 43.5834H103.092V38.7326H104.263V43.5834Z" fill="#245A8C"/>
  <path d="M108.216 41.1838C108.216 41.9837 108.814 42.6029 109.594 42.6029C110.348 42.6029 110.972 41.9837 110.972 41.2096C110.972 40.3839 110.374 39.7647 109.594 39.7647C108.814 39.7389 108.216 40.3581 108.216 41.1838ZM112.195 41.1838C112.195 42.5771 111.05 43.6866 109.646 43.6866C108.19 43.6866 107.045 42.5771 107.045 41.1838C107.045 40.4871 107.331 39.8163 107.878 39.326C108.346 38.8874 108.97 38.6552 109.698 38.6552C111.102 38.6552 112.195 39.7389 112.195 41.1838Z" fill="#245A8C"/>
  <path d="M115.966 43.5834H114.795V38.7326H115.966L117.76 41.4676V38.7326H118.931V43.5834H117.76L115.966 40.8226V43.5834Z" fill="#245A8C"/>
  <path d="M123.95 40.1259L123.378 41.9321H124.522L123.95 40.1259ZM123.092 42.8868L122.884 43.5834H121.609L123.222 38.7326H124.73L126.343 43.5834H125.042L124.834 42.8868H123.092Z" fill="#245A8C"/>
  <path d="M131.752 42.6287V43.5834H128.995V38.7326H130.166V42.6287H131.752Z" fill="#245A8C"/>
</svg>
