<svg xmlns="http://www.w3.org/2000/svg" fill="none" viewBox="0 0 115 42">
  <path fill="#345B5F" d="m43.435 7.638 6.633 18.725H54.6l6.654-18.745v18.745h4.408V.537H59.84L52.334 20.81 44.828.537h-5.8v25.826h4.407V7.638ZM91.506 26.363l-3.66-4.108c1.186-1.57 2.1-3.51 2.641-5.822l-3.867-.95c-.354 1.445-.894 2.684-1.539 3.716l-5.24-5.863c3.244-1.775 5.365-3.922 5.365-7.04 0-3.509-2.724-6.213-7.132-6.213-4.449 0-7.235 2.663-7.235 6.317 0 2.415 1.31 4.335 2.765 5.987-2.516 1.548-4.72 3.695-4.72 7.101 0 4.728 3.93 7.309 9.087 7.309 2.806 0 5.198-.702 7.173-2.003l1.455 1.569h4.907ZM78.033 3.799c1.934 0 2.828 1.238 2.828 2.642 0 1.672-1.102 2.808-3.68 4.067-1.06-1.073-2.038-2.27-2.038-3.881 0-1.652 1.04-2.828 2.89-2.828Zm.187 19.323c-2.703 0-5.01-1.136-5.01-3.675 0-1.755 1.08-2.91 3.056-4.15l6.154 6.607c-1.268.826-2.724 1.218-4.2 1.218ZM104.584 12.387v3.612h6.612v.6c-.021 4.21-2.828 6.275-6.549 6.275-4.762 0-7.985-3.571-7.985-9.434 0-5.884 3.348-9.414 8.005-9.414 2.87 0 4.907 1.011 6.508 3.427l3.452-2.313C112.236 1.672 108.618 0 104.626 0 97.12 0 92.151 5.285 92.151 13.46c0 8.072 4.844 13.46 12.038 13.46 3.14 0 5.593-1.156 6.965-3.22v2.684h3.826V12.387h-10.396ZM40.212 31.607h-1.185v9.228h1.185v-9.228ZM45.66 33.98c-1.33 0-1.996.682-2.204 1.033v-.867h-1.081v6.689h1.102V36.87c0-.929.748-1.9 1.934-1.9.873 0 1.413.538 1.413 1.55v4.314h1.102v-4.563c-.02-1.445-.935-2.291-2.266-2.291ZM52.085 39.514l-1.934-5.368h-1.248l2.6 6.689h1.164l2.599-6.689H54.06l-1.975 5.368ZM58.925 33.98c-1.83 0-3.14 1.384-3.14 3.531 0 2.106 1.29 3.489 3.327 3.489 1.165 0 2.121-.516 2.703-1.404l-.873-.557c-.54.784-1.164.97-1.85.97-1.352 0-2.059-.867-2.142-2.168h5.115v-.289c-.021-2.147-1.29-3.571-3.14-3.571Zm-1.975 2.953c.187-1.26.956-1.961 1.954-1.961 1.02 0 1.768.722 1.955 1.961H56.95ZM66.078 36.954c-.936-.166-1.705-.372-1.705-1.074 0-.599.623-.908 1.434-.908.749 0 1.31.289 1.726.867l.852-.599c-.582-.826-1.434-1.26-2.578-1.26-1.476 0-2.557.682-2.557 1.941 0 1.425 1.206 1.838 2.412 2.044.956.165 1.746.31 1.746 1.032 0 .62-.582 1.012-1.517 1.012-.936 0-1.643-.35-2.1-1.053l-.874.599c.52.867 1.477 1.466 2.953 1.466 1.6 0 2.64-.764 2.64-2.044.021-1.528-1.268-1.817-2.432-2.023ZM72.274 40.01c-.603 0-.79-.228-.79-.95v-3.964h1.684v-.97h-1.684v-1.797h-1.102v1.796h-.999v.97h.999v4.212c0 1.26.686 1.672 1.767 1.672.353 0 .728-.082 1.123-.206l-.25-.908a1.774 1.774 0 0 1-.748.144ZM81.817 33.98c-1.289 0-1.809.785-2.1 1.198-.312-.784-1.04-1.197-1.975-1.197-1.123 0-1.684.64-1.913 1.011v-.846h-1.081v6.689h1.102V36.87c0-.95.665-1.9 1.705-1.9.769 0 1.247.517 1.247 1.508v4.356h1.102V36.87c0-.95.686-1.9 1.726-1.9.77 0 1.248.517 1.248 1.508v4.356h1.101V36.19c-.02-1.425-.894-2.21-2.162-2.21ZM88.637 33.98c-1.83 0-3.14 1.384-3.14 3.531 0 2.106 1.29 3.489 3.327 3.489 1.164 0 2.12-.516 2.703-1.404l-.873-.557c-.541.784-1.165.97-1.85.97-1.352 0-2.06-.867-2.142-2.168h5.114v-.289c-.02-2.147-1.289-3.571-3.14-3.571Zm-1.975 2.953c.187-1.26.956-1.961 1.954-1.961 1.019 0 1.767.722 1.954 1.961h-3.908ZM96.6 33.98c-1.33 0-2.017.682-2.204 1.033v-.867h-1.081v6.689h1.102V36.87c0-.929.748-1.9 1.934-1.9.873 0 1.413.538 1.413 1.55v4.314h1.102v-4.563c0-1.445-.935-2.291-2.266-2.291ZM102.962 40.01c-.603 0-.79-.228-.79-.95v-3.964h1.684v-.97h-1.684v-1.797h-1.102v1.796h-.998v.97h.998v4.212c0 1.26.687 1.672 1.768 1.672.353 0 .727-.082 1.122-.206l-.249-.908a1.72 1.72 0 0 1-.749.144ZM107.932 36.954c-.936-.166-1.705-.372-1.705-1.074 0-.599.624-.908 1.434-.908.749 0 1.31.289 1.726.867l.853-.599c-.583-.826-1.456-1.26-2.579-1.26-1.476 0-2.557.682-2.557 1.941 0 1.425 1.206 1.838 2.412 2.044.956.165 1.726.31 1.726 1.032 0 .62-.583 1.012-1.518 1.012-.936 0-1.643-.35-2.1-1.053l-.873.599c.519.867 1.476 1.466 2.952 1.466 1.601 0 2.641-.764 2.641-2.044.041-1.528-1.227-1.817-2.412-2.023Z"/>
  <path fill="#92BB65" d="M21.603 21.986H4.408V4.913h17.195v17.073ZM26.01.537H0v25.827h26.01V.537Z"/>
</svg>