<svg xmlns="http://www.w3.org/2000/svg" fill="none" viewBox="0 0 166 30">
  <path fill="#525D66" d="M48.026 28.852h.891V23.36h-.891v5.492Zm9.153-1.151-4.547-4.341h-1.129v5.492h.892v-4.489l4.665 4.49h1.011v-5.494h-.892v4.342Zm6.063.413-2.585-4.725h-1.07l3.06 5.522h1.13l3.09-5.552h-1.04l-2.585 4.755Zm5.142.738h5.943v-.708h-5.052v-1.86h3.061v-.65h-3.061v-1.536h5.052v-.709h-5.944v5.463Zm11.144-3.219c-1.753-.059-2.2-.383-2.2-.856 0-.561.744-.856 1.933-.856 1.07 0 2.02.236 2.764.797l.416-.62c-.833-.59-1.843-.886-3.15-.886-1.784 0-3.002.62-3.002 1.654 0 .945.891 1.476 3.09 1.565 1.813.088 2.289.384 2.289.886 0 .62-.892 1.004-2.259 1.004-1.13 0-2.08-.266-2.793-.886l-.446.59c.832.68 1.872 1.005 3.18 1.005 1.872 0 3.299-.65 3.299-1.802.059-.945-.803-1.506-3.12-1.595Zm7.578-1.476v4.725h.922v-4.725h2.793v-.768h-6.538v.768h2.823Zm8.857-.975c-2.2 0-3.567 1.27-3.567 2.894 0 1.625 1.397 2.895 3.567 2.895 2.199 0 3.596-1.27 3.596-2.895 0-1.624-1.397-2.894-3.596-2.894Zm0 5.05c-1.665 0-2.586-.974-2.586-2.156 0-1.18.921-2.155 2.586-2.155 1.664 0 2.615.945 2.615 2.155 0 1.211-.951 2.156-2.615 2.156Zm12.274-3.1c0-.916-.714-1.773-2.14-1.773h-4.309v5.493h.891v-2.008h2.229l2.378 2.008h1.337l-2.556-2.067c1.546-.03 2.17-.768 2.17-1.654Zm-5.528-1.034h3.388c.743 0 1.189.413 1.189 1.063 0 .59-.446 1.004-1.249 1.004h-3.328v-2.067Zm11.085 1.535c-1.753-.059-2.199-.383-2.199-.856 0-.561.743-.856 1.932-.856 1.07 0 2.021.236 2.764.797l.416-.62c-.833-.59-1.843-.886-3.151-.886-1.783 0-3.001.62-3.001 1.654 0 .945.891 1.476 3.091 1.565 1.812.088 2.288.384 2.288.886 0 .62-.892 1.004-2.259 1.004-1.129 0-2.08-.266-2.793-.886l-.446.59c.832.68 1.872 1.005 3.18 1.005 1.872 0 3.299-.65 3.299-1.802.059-.945-.803-1.506-3.121-1.595ZM165.03 25.633h-45.5v.65h45.5v-.65ZM45.5 25.633H0v.65h45.5v-.65ZM76.11.384c-.802.089-1.723.118-2.674.118.119 1.181.178 4.37.178 5.965v1.359h-9.183v-3.78c0-.975.03-2.953.06-3.662-.803.089-1.724.118-2.705.118.119 1.181.178 4.37.178 5.965v5.464c0 1.595-.06 4.784-.178 5.965h2.704c-.06-.68-.06-2.628-.06-3.573V9.834h9.184v2.067c0 1.595-.06 4.784-.178 5.966h2.674c-.059-.68-.059-2.629-.059-3.574V4.046c0-.975.03-2.953.06-3.662ZM49.72 9.539c0-1.034.95-1.388 1.932-1.388 1.01 0 2.05.354 2.823.915l.773-1.978c-.803-.502-2.14-.945-3.596-.945-2.437 0-4.161 1.565-4.161 3.484 0 3.692 5.884 3.012 5.884 5.257 0 .915-.95 1.417-2.229 1.417-1.07 0-2.288-.383-3.239-.945l-.743 1.92c.921.62 2.675 1.004 3.923 1.004 2.437 0 4.517-1.447 4.517-3.78.03-3.514-5.884-3.13-5.884-4.961ZM8.53 6.467v6.556c0 1.95-1.1 3.13-3.062 3.13-1.575 0-2.674-.62-3.031-2.155L0 14.766c.565 2.244 2.496 3.573 5.141 3.573 1.873 0 3.27-.561 4.31-1.565 1.01-1.004 1.515-2.185 1.515-4.37V4.045c0-.975.03-2.953.09-3.662-.803.089-1.724.118-2.705.118.119 1.181.178 4.37.178 5.965Zm12.987 8.978.148-4.902c.09-2.629-1.307-4.4-4.28-4.4a7.895 7.895 0 0 0-4.07 1.122l.534 1.978c.803-.59 2.021-1.092 3.15-1.092 1.754 0 2.467.856 2.408 2.54l-.03.383c-.327-.03-.654-.059-.98-.059-3.983 0-6.064 1.536-6.064 3.84 0 2.037 1.427 3.366 3.596 3.366 1.605 0 2.913-.827 3.596-1.979.12 1.3 1.01 1.92 1.932 1.92.595 0 1.07-.177 1.486-.354l.238-1.595c-.387.118-.684.207-1.01.207-.476.03-.684-.266-.654-.975Zm-2.2-1.801c-.06 1.594-1.248 2.746-2.823 2.746-1.367 0-1.902-.709-1.902-1.654 0-1.24.98-2.244 3.745-2.244.356 0 .683.03 1.01.059l-.03 1.093Zm26.39-4.607c0-.857.06-2.008.12-2.658-.743.088-1.694.118-2.586.118.12 1.063.178 2.776.178 4.193v2.895c0 1.476-1.872 2.746-3.06 2.746-1.754 0-2.348-1.004-2.348-2.865v-4.43c0-.856.03-2.007.089-2.657-.743.088-1.635.118-2.526.118.089 1.063.148 2.776.148 4.193v3.19c0 3.012 1.427 4.43 4.042 4.43 1.04 0 2.794-.68 3.745-2.215l.267 1.772h2.11c-.119-1.152-.178-2.658-.178-4.105V9.037Zm-11.798 1.24c0-2.57-1.188-4.105-3.685-4.105-1.397 0-3.09.886-4.041 2.422l-.179-2.215c-.743.088-1.337.118-2.229.118.09 1.063.149 2.776.149 4.193v2.983c0 1.447-.06 3.13-.149 4.194h2.526c-.089-.65-.089-1.684-.089-2.54v-4.075c0-1.477 1.754-3.101 3.418-3.101 1.515 0 1.991 1.122 1.991 2.54v2.982c0 1.447-.06 3.13-.178 4.194h2.556c-.06-.65-.09-1.684-.09-2.54v-5.05Zm94.388-1.683-.238-2.245c-.713.177-1.486.296-2.258.325.178 1.004.237 2.126.237 3.574v3.455c0 1.447-.029 3.13-.148 4.193h2.526c-.089-.65-.089-1.683-.089-2.54v-4.282c0-1.742 2.08-2.598 3.715-2.303l.297-2.628c-1.873.236-3.091.915-4.042 2.45Zm19.525-2.422c-3.536 0-5.854 2.806-5.854 6.379 0 3.1 2.14 5.788 5.527 5.788 3.567 0 5.885-2.805 5.885-6.379 0-3.1-2.17-5.788-5.558-5.788Zm-.208 10.159c-2.05 0-3.388-1.418-3.388-4.164 0-2.215 1.367-4.016 3.478-4.016 1.902 0 3.387 1.447 3.387 4.105 0 2.274-1.277 4.075-3.477 4.075Zm-12.422-6.792c0-1.034.951-1.388 1.932-1.388 1.01 0 2.05.354 2.823.915l.773-1.978c-.803-.502-2.14-.945-3.596-.945-2.437 0-4.161 1.565-4.161 3.484 0 3.692 5.884 3.012 5.884 5.257 0 .915-.951 1.417-2.229 1.417-1.07 0-2.288-.383-3.239-.945l-.743 1.92c.921.62 2.675 1.004 3.923 1.004 2.437 0 4.517-1.447 4.517-3.78.03-3.514-5.884-3.13-5.884-4.961Zm27.252 8.357H165c-.059-.65-.089-1.683-.089-2.54v-5.079c0-2.57-1.189-4.105-3.685-4.105-1.397 0-3.091.886-4.042 2.422l-.178-2.215c-.743.088-1.368.118-2.229.118.089 1.063.148 2.776.148 4.193v2.983c0 1.447-.059 3.13-.148 4.194h2.526c-.089-.65-.089-1.684-.089-2.54v-4.075c0-1.477 1.753-3.101 3.417-3.101 1.516 0 1.991 1.122 1.991 2.54v2.982c0 1.447-.059 3.16-.178 4.223ZM112.249 2.687c0-.827.029-2.067.089-2.687-.743.148-1.664.236-2.556.325.119 1.063.149 2.658.149 4.075l.029 2.57c-.653-.503-1.664-.827-2.674-.827-3.418 0-5.944 2.864-5.944 6.497 0 3.16 2.05 5.67 5.29 5.67 1.337 0 2.734-.68 3.507-1.684l.178 1.24h2.11c-.119-1.151-.178-2.657-.178-4.104V2.687Zm-2.318 11.931c-.535 1.063-1.694 1.742-2.913 1.742-1.813 0-3.417-1.299-3.417-3.957 0-2.333 1.367-4.252 3.714-4.252 1.13 0 2.021.413 2.616 1.033v5.434Zm9.718-8.446c-3.537 0-5.795 2.806-5.795 6.379 0 3.1 1.812 5.788 5.646 5.788 1.635 0 3.002-.531 4.28-1.358l-.773-1.536-.059-.089c-.892.591-1.932 1.004-3.21 1.004-2.199 0-3.418-1.151-3.596-3.455l6.806-.206 1.426-.03c.03-.236.06-.709.06-.856 0-3.13-1.397-5.64-4.785-5.64Zm-3.477 4.99c.327-1.771 1.486-3.1 3.328-3.1 1.724 0 2.497 1.004 2.764 2.924l-6.092.177Zm-16.376-.885c0-2.57-1.188-4.105-3.685-4.105-1.397 0-3.09.886-4.041 2.422l-.179-2.215c-.743.088-1.367.118-2.229.118.09 1.063.149 2.776.149 4.193v2.983c0 1.447-.06 3.13-.149 4.194h2.526c-.089-.65-.089-1.684-.089-2.54v-4.075c0-1.477 1.754-3.101 3.418-3.101 1.516 0 1.991 1.122 1.991 2.54v2.982c0 1.447-.06 3.13-.178 4.194h2.556c-.06-.65-.09-1.684-.09-2.54v-5.05Zm-11.56 1.506c0-3.1-1.397-5.61-4.785-5.61-3.537 0-5.795 2.805-5.795 6.378 0 3.1 1.813 5.788 5.646 5.788 1.635 0 3.002-.531 4.28-1.358l-.773-1.536-.06-.089c-.89.591-1.93 1.004-3.209 1.004-2.199 0-3.418-1.151-3.596-3.455l6.806-.206 1.426-.03c.03-.266.06-.768.06-.886Zm-8.232-.62c.326-1.772 1.486-3.1 3.328-3.1 1.724 0 2.526 1.003 2.764 2.923l-6.092.177Z"/>
</svg>