<svg xmlns="http://www.w3.org/2000/svg" fill="none" viewBox="0 0 133 44">
  <path fill="#184690" d="M128.368 17.463c-.173 3.64-3.368 6.496-7.083 6.04-2.848-.353-5.127-2.729-5.449-5.61-.421-3.892 2.551-7.177 6.242-7.177 3.368 0 6.092 2.704 6.266 6.09v.657h.024Zm-7.133-11.448c-5.424.43-9.683 4.903-10.03 10.387-.397 6.47 4.631 11.828 10.897 11.828 2.254 0 5.325-1.137 6.687-3.564v3.26H133V17.313c.025-6.9-5.498-11.777-11.765-11.297ZM92.06 16.655a6.591 6.591 0 0 1 4.284-6.142c3.344-1.288 6.291.43 7.53 2.831l-11.814 3.31ZM98.152 5.99c-5.746.177-10.65 4.726-10.65 11.246 0 6.015 4.78 11.044 10.923 11.044 4.285 0 8.47-2.628 10.13-6.9l-4.211-1.288c-.768 1.744-2.6 3.285-4.706 3.69-2.947.556-5.671-1.29-6.736-3.336l16.346-4.55c-.495-4.27-4.186-10.109-11.096-9.906ZM62.19 10.514V5.939c-4.086 0-5.523 2.047-6.142 3.184V6.672h-4.656v21.255h4.78c0-6.572-.025-6.47-.025-10.438.025-4.903 2.799-6.799 6.044-6.976ZM19.12 19.41 4.854 2.274H0V27.9h5.028V10.766l14.439 17.186h4.458V2.275H19.12V19.41ZM79.948 17.463c-.173 3.64-3.368 6.496-7.083 6.04-2.848-.353-5.127-2.729-5.449-5.61-.42-3.867 2.527-7.152 6.242-7.152 3.368 0 6.092 2.704 6.266 6.09v.633h.024ZM80.099 0v8.365c-1.066-1.44-4.41-2.578-7.258-2.325-5.374.455-9.684 4.903-10.03 10.387-.397 6.47 4.631 11.853 10.897 11.853 2.328 0 5.598-1.137 6.687-3.159v2.83h4.21V0h-4.507ZM37.646 23.529c-3.467 0-6.29-2.856-6.29-6.394 0-3.538 2.823-6.42 6.29-6.42 3.468 0 6.291 2.857 6.291 6.42 0 3.538-2.823 6.394-6.29 6.394Zm.025-17.54c-6.043 0-10.922 4.98-10.922 11.146 0 6.141 4.879 11.145 10.922 11.145 6.043 0 10.922-4.978 10.922-11.145S43.69 5.99 37.671 5.99ZM11.418 41.321l-.075-.227c-.272-.81-.594-1.668-.867-2.502-.272.834-.594 1.668-.891 2.502l-.074.227h1.907Zm.42 1.188H9.09l-.496 1.365H7.207l2.452-6.698h1.635l2.452 6.698h-1.462l-.445-1.365ZM14.935 43.09l.693-1.036c.322.328 1.016.708 1.833.708.669 0 1.114-.253 1.114-.784 0-.48-.445-.682-1.263-.91-1.436-.404-2.13-.91-2.13-2.047 0-1.061.818-1.996 2.502-1.996.94 0 1.783.303 2.18.733l-.67 1.01c-.445-.379-.965-.53-1.56-.53-.669 0-1.04.278-1.04.733 0 .455.421.606 1.387.884 1.412.405 2.03.986 2.03 2.047 0 1.188-.915 2.073-2.476 2.073-1.164.025-2.08-.38-2.6-.885ZM21.374 43.09l.694-1.036c.322.328 1.015.708 1.832.708.67 0 1.115-.253 1.115-.784 0-.48-.446-.682-1.263-.91-1.437-.404-2.13-.91-2.13-2.047 0-1.061.817-1.996 2.501-1.996.941 0 1.784.303 2.18.733l-.669 1.01c-.446-.379-.966-.53-1.56-.53-.669 0-1.04.278-1.04.733 0 .455.42.606 1.387.884 1.411.405 2.03.986 2.03 2.047 0 1.188-.916 2.073-2.476 2.073-1.164.025-2.08-.38-2.6-.885ZM32.94 42.66v1.214H28.36v-6.698h4.482v1.239h-3.096v1.44h2.8v1.213h-2.8v1.593h3.195ZM36.755 38.415h-1.908v-1.239h5.226v1.239h-1.931v5.459h-1.388v-5.46ZM53.175 37.176v6.698h-1.313v-2.376c0-.885.025-1.77.05-2.654-.297.885-.62 1.795-.941 2.654l-.892 2.376h-.94l-.893-2.401a81.507 81.507 0 0 1-.94-2.629c.024.885.049 1.77.049 2.654v2.376h-1.313v-6.698H47.9l1.015 2.704c.248.683.496 1.39.743 2.098.248-.708.496-1.415.743-2.098l.991-2.704h1.783ZM59.243 41.321l-.074-.227c-.273-.81-.595-1.668-.867-2.502-.272.834-.594 1.668-.892 2.502l-.074.227h1.907Zm.421 1.188h-2.749l-.495 1.365h-1.387l2.452-6.698h1.634l2.452 6.698H60.11l-.446-1.365ZM69.026 37.176v6.698h-1.189l-1.585-2.452a95.335 95.335 0 0 1-1.461-2.274v4.75h-1.313v-6.696h1.437l1.486 2.274c.545.834.966 1.491 1.288 2.072v-4.346h1.337v-.026ZM75.094 41.321l-.074-.227c-.273-.81-.594-1.668-.867-2.502-.272.834-.594 1.668-.892 2.502l-.074.227h1.907Zm.421 1.188h-2.749l-.495 1.365h-1.387l2.452-6.698h1.634l2.452 6.698h-1.461l-.446-1.365ZM84.382 40.057v2.983c-.47.606-1.412.96-2.403.96-1.98 0-3.244-1.188-3.244-3.462 0-2.275 1.313-3.463 3.27-3.463.89 0 1.683.278 2.154.733l-.743 1.011a2.223 2.223 0 0 0-1.436-.505c-1.363 0-1.858 1.086-1.858 2.249 0 1.137.446 2.25 1.833 2.25.47 0 .817-.102 1.09-.254v-1.314h-1.462v-1.162h2.799v-.026ZM91.59 42.66v1.214h-4.583v-6.698h4.483v1.239h-3.096v1.44h2.824v1.213h-2.824v1.593h3.195ZM101.397 37.176v6.698h-1.313v-2.376c0-.885.025-1.77.025-2.654-.297.885-.62 1.795-.941 2.654l-.892 2.376h-.94l-.892-2.401a81.507 81.507 0 0 1-.942-2.629c.025.885.025 1.77.025 2.654v2.376h-1.313v-6.698h1.858l1.016 2.704c.247.683.495 1.39.743 2.098.247-.708.495-1.415.742-2.098l.991-2.704h1.833ZM108.778 42.66v1.214h-4.582v-6.698h4.483v1.239h-3.096v1.44h2.823v1.213h-2.823v1.593h3.195ZM116.951 37.176v6.698h-1.189l-1.585-2.452a91.724 91.724 0 0 1-1.461-2.274v4.75h-1.313v-6.696h1.436l1.486 2.274c.545.834.966 1.491 1.288 2.072v-4.346h1.338v-.026ZM120.938 38.415h-1.907v-1.239h5.226v1.239h-1.932v5.459h-1.387v-5.46Z"/>
</svg>