<svg xmlns="http://www.w3.org/2000/svg" fill="none" viewBox="0 0 149 44">
  <path fill="#000" d="m137.619 13.325-.027.185-.027-.185-3.14-8.875h-1.799l4.08 11.444v.08c-.241 1.086-.939 2.437-1.583 2.86-.564.371-1.155.424-1.638.424-.214 0-.698-.08-.885-.132v1.377c.241.053.858.186 1.207.186.859 0 1.584-.212 2.201-.663.725-.53 1.557-1.907 1.96-3.099l4.08-12.503h-1.798l-2.631 8.9ZM131.392 10.57V9.482c0-1.88-.484-3.284-1.45-4.132-.805-.742-1.932-1.086-3.436-1.086-.778 0-1.476.132-2.093.397a4.304 4.304 0 0 0-1.584 1.192c-.832 1.033-1.288 2.543-1.288 4.371 0 2.04.59 3.603 1.664 4.636 1.127 1.086 2.604 1.324 3.597 1.324 2.63 0 3.892-1.403 4.429-2.702l-1.477-.688c-.349.768-1.154 1.96-2.979 1.96-1.047 0-1.906-.397-2.496-1.192-.591-.742-.886-1.801-.886-3.02h7.999v.027Zm-1.772-1.43h-6.147c.161-2.359 1.128-3.471 3.087-3.471 2.094 0 3.06 1.086 3.06 3.47ZM25.07 5.987c-.912-1.14-2.2-1.749-3.73-1.749-1.53 0-2.819.61-3.732 1.749-.832 1.06-1.315 2.57-1.315 4.238 0 1.669.456 3.152 1.315 4.239.913 1.139 2.201 1.748 3.731 1.748 1.53 0 2.846-.61 3.731-1.748.832-1.06 1.316-2.57 1.316-4.239 0-1.695-.483-3.179-1.316-4.238Zm-3.73 8.768c-1.96 0-3.141-1.695-3.141-4.556 0-2.861 1.18-4.557 3.14-4.557 1.96 0 3.14 1.696 3.14 4.557-.026 2.86-1.18 4.556-3.14 4.556ZM30.466 9.483c.456-2.357 1.718-3.496 3.892-3.496V4.29c-1.852 0-2.926.716-3.892 2.385l-.027.026.027-.159V4.45H28.64v11.497h1.826V9.483ZM75.13 4.106c0-.768.27-1.378.752-1.775.51-.424 1.208-.636 2.12-.636.967 0 1.8.265 2.47.795a3.533 3.533 0 0 1 1.235 1.934l1.691-.212C82.647 1.695 80.821.185 78.057.185c-1.37 0-2.63.424-3.49 1.192-.859.742-1.342 1.775-1.342 2.888 0 1.218.51 2.199 1.557 2.94.913.663 2.147 1.086 3.328 1.51 2.04.715 3.973 1.404 3.973 3.232 0 .821-.269 1.51-.805 1.987-.59.53-1.45.795-2.55.795-1.96 0-3.356-1.087-4.16-3.153l-1.746.45c.376.848 1.02 2.067 1.933 2.888 1.02.9 2.282 1.35 3.865 1.35 1.88 0 3.302-.476 4.241-1.43.967-1.006 1.181-2.278 1.181-3.152 0-1.271-.537-2.278-1.637-3.046-.966-.689-2.228-1.113-3.436-1.51-1.986-.742-3.838-1.378-3.838-3.02ZM86.914 5.88H85.17V4.45h1.744V.69h1.826V4.45h1.96v1.43h-1.96v7.868c0 .53.134 1.007 1.342 1.007.215 0 .402 0 .617-.027V16s-.698.185-1.208.185c-.832 0-1.45-.132-1.852-.397-.376-.265-.725-.689-.725-1.377V5.88ZM118.4 13.748c0 .53.161 1.007 1.396 1.007.215 0 .403 0 .617-.027V16s-.698.185-1.208.185c-.832 0-1.449-.132-1.852-.397-.376-.265-.751-.689-.751-1.377V0h1.825l-.027 13.748ZM60.904 7.444c.618-.663 2.014-1.749 3.275-1.749 1.262 0 1.825.61 1.825 1.987V16h1.826V7.656c0-2.49-1.799-3.391-3.516-3.391-1.182 0-2.39.61-3.436 1.775V4.503h-1.826v11.523h1.826V7.444h.026ZM54.22 14.57c.055.635.27 1.006.78 1.271.482.265 1.26.185 1.61.106v-1.218c-.403-.027-.671-.212-.671-.69V7.736c0-1.139-.457-2.066-1.342-2.675-.725-.504-1.718-.795-2.792-.795-2.577 0-3.838 1.51-4.348 2.463l1.476.769c.215-.557.913-1.802 2.899-1.802 1.557 0 2.335.69 2.335 2.014v.423s0 .133-.027.16c-.053.079-.214.132-.617.158-2.174.239-3.624.61-4.67 1.272-1.155.742-1.88 1.748-1.88 3.152 0 1.007.484 1.854 1.128 2.464.59.556 1.422.847 2.335.874 1.906.08 3.167-.715 3.785-1.643Zm-.026-1.908c-.08 1.007-1.986 2.225-3.543 2.146-.86-.053-1.691-.715-1.799-1.828-.134-1.854 1.289-2.649 4.483-2.993.215-.027.644-.106.859-.212v2.887ZM99.745 14.57c.054.635.268 1.006.778 1.271.483.265 1.262.185 1.611.106v-1.218c-.403-.027-.671-.212-.671-.69V7.736c0-1.139-.457-2.066-1.342-2.675-.725-.504-1.718-.795-2.792-.795-2.603 0-3.838 1.51-4.348 2.463l1.476.769c.215-.557.913-1.802 2.899-1.802 1.557 0 2.335.69 2.335 2.014v.423s0 .133-.027.16c-.053.079-.214.132-.617.158-2.174.239-3.624.61-4.67 1.272-1.155.742-1.88 1.748-1.88 3.152 0 1.007.484 1.854 1.128 2.464.59.556 1.423.847 2.335.874 1.906.08 3.168-.715 3.785-1.643Zm0-1.908c-.08 1.007-1.986 2.225-3.543 2.146-.86-.053-1.691-.715-1.799-1.828-.134-1.854 1.289-2.649 4.483-2.993.215-.027.644-.106.859-.212v2.887ZM7.033 12.927 3.167.371H.134V16H1.96V1.722l.027.053L6.335 16H7.73l4.348-14.225.054-.053V16h1.825V.37h-3.06L7.059 12.928l-.026.053v-.053Z"/>
  <path fill="#000" d="M7.033 12.927 3.167.371H.134V16H1.96V1.722l.027.053L6.335 16H7.73l4.348-14.225.054-.053V16h1.825V.37h-3.06L7.059 12.928l-.026.053v-.053ZM106.455 7.444c.618-.663 2.014-1.749 3.275-1.749 1.262 0 1.825.61 1.825 1.987V16h1.826V7.656c0-2.49-1.799-3.391-3.517-3.391-1.181 0-2.389.61-3.435 1.775V4.503h-1.826v11.523h1.826V7.444h.026ZM43.323 4.477l-.403 1.218c-.67-.874-1.556-1.43-2.925-1.43-2.067 0-4.966 1.377-4.966 5.96 0 4.45 2.899 5.96 4.885 5.96 1.154 0 2.201-.609 2.899-1.51l.08-.053v2.2c0 1.536-1.342 2.463-2.764 2.463-1.396 0-2.63-.265-3.65-.742v1.563c.858.37 2.227.583 3.435.583 3.248 0 4.778-1.775 4.778-4.318V4.477h-1.369Zm-.403 8.185c-.483 1.325-1.825 2.093-2.764 2.093-1.88 0-3.194-1.166-3.194-4.61 0-2.913 1.18-4.45 3.194-4.45 1.02 0 1.932.45 2.764 1.484v5.483ZM1.396 36.556H0v7.312h1.396v-7.312ZM3.946 43.894v-7.338h1.503l2.12 3.682c.162.292.323.583.457.875.134.291.268.582.376.874-.027-.212-.054-.45-.081-.689-.027-.238-.027-.503-.027-.795v-3.947h1.289v7.312H8.294L5.986 40.08a6.793 6.793 0 0 1-.403-.769c-.134-.291-.295-.636-.43-.98.028.212.054.424.081.662.027.239.027.53.027.822v4.053H3.946v.026ZM13.475 43.894l-2.228-7.338h1.396l1.69 5.987 1.692-5.987h1.396l-2.228 7.338h-1.718ZM19.111 43.894v-7.338h4.832v1.192h-3.436v1.749h2.497v1.165h-2.497v1.987h3.57v1.245h-4.966ZM25.42 42.225l1.261-.556c.188.397.403.662.644.848.242.185.537.264.86.264.375 0 .67-.079.885-.238.215-.159.322-.397.322-.689 0-.238-.08-.423-.242-.556-.16-.159-.456-.291-.858-.45a1.259 1.259 0 0 0-.242-.08c-.725-.265-1.235-.477-1.53-.662-.268-.186-.51-.397-.644-.689-.161-.265-.215-.583-.215-.927 0-.583.215-1.06.671-1.43.456-.371 1.02-.557 1.745-.557.644 0 1.154.133 1.583.398.43.265.725.662.913 1.192l-1.262.45c-.16-.318-.349-.556-.563-.715-.215-.16-.483-.212-.779-.212-.295 0-.537.08-.724.212-.188.132-.269.318-.269.556 0 .371.43.715 1.289 1.06.268.106.456.185.617.238.725.291 1.208.61 1.45.927.268.318.375.715.375 1.219 0 .689-.215 1.218-.67 1.59-.457.397-1.075.582-1.853.582-.67 0-1.262-.159-1.718-.45a2.951 2.951 0 0 1-1.047-1.325ZM34.063 43.894v-6.12h-1.96v-1.218h5.315v1.219h-1.96v6.119h-1.395ZM39.216 43.894v-7.338h1.986l1.074 3.55c.107.318.188.636.242.927.08.318.107.61.16.9.055-.264.135-.556.216-.847.08-.291.16-.61.268-.954l1.1-3.576h1.906v7.312H44.96v-6.146c-.053.265-.134.53-.214.821l-.242.795-1.342 4.53h-1.02l-1.315-4.53c-.134-.477-.242-.821-.296-1.033-.053-.212-.107-.424-.134-.583v6.146h-1.18v.026ZM48.638 43.894v-7.338h4.831v1.192h-3.436v1.749h2.497v1.165h-2.497v1.987h3.597v1.245h-4.992ZM55.51 43.894v-7.338h1.502l2.121 3.682c.161.292.322.583.456.875.135.291.269.582.376.874-.027-.212-.054-.45-.08-.689-.027-.238-.027-.503-.027-.795v-3.947h1.288v7.312h-1.288l-2.309-3.788a6.81 6.81 0 0 1-.402-.769c-.135-.291-.296-.636-.43-.98.027.212.054.424.08.662.028.239.028.53.028.822v4.053h-1.316v.026ZM64.877 43.894v-6.12h-1.932v-1.218h5.287v1.219H66.3v6.119h-1.423ZM73.896 43.894v-7.338h1.986l1.074 3.55c.107.318.188.636.242.927.08.318.107.61.16.9.054-.264.135-.556.215-.847.08-.291.162-.61.269-.954l1.1-3.576h1.906v7.312H79.64v-6.146c-.053.265-.134.53-.215.821l-.241.795-1.342 4.53h-1.02l-1.315-4.53c-.135-.477-.242-.821-.296-1.033a8.34 8.34 0 0 1-.134-.583v6.146h-1.18v.026ZM82.512 43.894l2.228-7.311h1.745l2.228 7.311h-1.396l-.456-1.616h-2.55l-.483 1.616h-1.316Zm2.148-2.781h1.879l-.94-3.285-.94 3.285ZM90.35 43.894v-7.338h1.503l2.12 3.682c.162.292.323.583.457.875.134.291.269.582.376.874a52.27 52.27 0 0 1-.08-.689c-.027-.238-.027-.503-.027-.795v-3.947h1.288v7.312h-1.288L92.39 40.08a6.793 6.793 0 0 1-.402-.769c-.135-.291-.296-.636-.43-.98.027.212.054.424.08.662.027.239.027.53.027.822v4.053H90.35v.026ZM97.624 43.894l2.228-7.338h1.745l2.228 7.312h-1.396l-.456-1.616h-2.55l-.483 1.616h-1.316v.026Zm2.12-2.781h1.88l-.94-3.285-.94 3.285ZM109.891 43.894l-.08-.768c-.242.318-.51.53-.832.662a2.95 2.95 0 0 1-1.128.212c-.886 0-1.583-.344-2.067-1.033-.51-.689-.751-1.616-.751-2.835 0-1.165.268-2.066.805-2.701.537-.636 1.288-.98 2.255-.98.671 0 1.208.158 1.664.476.456.318.752.768.939 1.378l-1.261.318c-.161-.345-.349-.61-.564-.769-.215-.159-.51-.238-.805-.238-.537 0-.94.212-1.208.662-.268.45-.403 1.086-.403 1.96 0 .822.135 1.457.403 1.908.268.45.671.662 1.181.662.403 0 .725-.133.993-.397.269-.265.43-.636.483-1.087h-1.395v-1.139h2.738v3.709h-.967ZM113.112 43.894v-7.338h4.805v1.192h-3.436v1.749h2.496v1.165h-2.496v1.987h3.597v1.245h-4.966ZM119.984 43.894v-7.338h1.986l1.074 3.55c.107.318.188.636.241.927.081.318.108.61.161.9.054-.264.135-.556.215-.847.081-.291.161-.61.269-.954l1.1-3.576h1.933v7.312h-1.208v-6.146c-.054.265-.134.53-.215.821l-.241.795-1.343 4.53h-1.02l-1.315-4.53c-.134-.477-.241-.821-.295-1.033a8.215 8.215 0 0 1-.134-.583v6.146h-1.208v.026ZM129.405 43.894v-7.338h4.832v1.192h-3.436v1.749h2.496v1.165h-2.496v1.987h3.57v1.245h-4.966ZM136.25 43.894v-7.338h1.503l2.121 3.682c.161.292.322.583.456.875.134.291.268.582.376.874a51.96 51.96 0 0 1-.081-.689c-.027-.238-.027-.503-.027-.795v-3.947h1.289v7.312h-1.289l-2.308-3.788a6.958 6.958 0 0 1-.403-.769c-.134-.291-.295-.636-.429-.98.027.212.054.424.08.662.027.239.027.53.027.822v4.053h-1.315v.026ZM145.645 43.894v-6.12h-1.933v-1.218H149v1.219h-1.933v6.119h-1.422Z"/>
</svg>