<svg viewBox="0 0 176 23" fill="none"
  xmlns="http://www.w3.org/2000/svg">
  <path fill="#AE8639" d="M28.058 11.454 14.61 5.956a36.227 36.227 0 0 0-7.214 5.498c1.96 1.924 4.275 3.849 7.214 5.498l13.45-5.498Z"/>
  <path fill="#A7A8AB" d="M0 0s1.425 4.857 6.146 10.171c2.048-1.65 4.542-3.207 7.57-4.49L0 0Z"/>
  <path fill="#A59875" d="M0 23s1.425-4.857 6.146-10.171c2.048 1.649 4.542 3.207 7.57 4.49L0 22.999Z"/>
  <path fill="#59595C" d="M61.545 6.506h1.604v8.705l-7.393-9.713h-3.652v1.008h1.514l.446.733v10.904h-1.515v1.1h4.632v-1.008h-1.603V9.072l7.927 10.446h1.069V6.598h1.603V5.59h-4.543v.916h-.089ZM44.355 17.96h-1.781v-5.315h1.781c1.87 0 3.117 1.1 3.117 2.841.09 1.833-1.603 2.474-3.117 2.474ZM42.574 6.69h1.781c.89 0 2.494.274 2.494 2.29 0 1.65-1.247 2.474-2.583 2.474h-1.603l-.09-4.765Zm4.097 5.222c1.336-.366 2.583-1.374 2.583-3.023 0-2.108-1.603-3.39-4.186-3.39h-6.591v1.007h1.603v11.637h-1.603v1.1h6.947c2.672 0 4.453-1.466 4.453-3.574.09-2.29-1.514-3.39-3.206-3.757Zm30.907-5.406-3.118 4.857-3.206-4.857h1.603V5.498h-5.7v1.008h1.247l4.364 6.414v5.223h-1.603v1.1h5.522v-1.1h-1.603V12.83l4.008-6.231h1.158v-1.1h-4.543v1.008h1.87ZM143.31 17.96h-4.721V6.506h1.603V5.498h-5.522v1.008h1.603v11.637h-1.603v1.1h9.887v-2.932h-1.247v1.65Zm-12.203 0h-4.721V6.506h1.604V5.498h-5.523v1.008h1.604v11.637h-1.604v1.1h9.887v-2.932h-1.247v1.65Zm-33.846-2.657-4.81-9.805h-4.008v1.008h1.603v11.637h-1.603v1.1h4.543v-1.1h-1.604V8.705l5.255 10.905 5.077-10.63v9.255h-1.603v1.008h5.522v-1.1h-1.425V6.598h1.604V5.59h-3.741l-4.81 9.713Zm55.757 2.84c-2.672 0-4.542-2.382-4.542-5.772s1.87-5.773 4.542-5.773c2.583 0 4.454 2.382 4.454 5.773 0 3.39-1.782 5.772-4.454 5.772Zm0-12.92c-3.919 0-7.125 3.207-7.125 7.148 0 3.94 3.206 7.147 7.125 7.147s7.037-3.207 7.037-7.147c0-3.94-3.118-7.148-7.037-7.148Zm18.437.275v1.008h1.604v8.705l-7.393-9.713h-3.741v1.008h1.514l.535.733v10.904h-1.604v1.1h4.543v-1.1h-1.603V8.98l7.927 10.446h1.069V6.598h1.603V5.59l-4.454-.092ZM117.748 17.96h-4.899v-5.223h3.741v1.558h1.247V10.08h-1.247v1.558h-3.741v-5.04h4.721v1.74h1.247V4.858h-1.247v.55h-8.729v1.007h1.603v11.638h-1.603v1.1h10.154v-2.933h-1.247v1.741Z"/>
</svg>