<svg viewBox="0 0 156 46" fill="none"
  xmlns="http://www.w3.org/2000/svg">
  <path fill="#000" d="M73.815 16.913a8.252 8.252 0 0 1-2.629 2.21c-.996.531-2.213.81-3.708.81-1.245 0-2.38-.195-3.403-.614-1.024-.42-1.91-.98-2.657-1.735a7.194 7.194 0 0 1-1.715-2.657c-.415-1.034-.609-2.21-.609-3.468s.221-2.405.664-3.44c.443-1.035 1.024-1.93 1.799-2.657.747-.727 1.66-1.287 2.712-1.706 1.051-.42 2.186-.615 3.403-.615 1.19 0 2.297.223 3.348.67 1.052.448 1.882 1.092 2.519 1.93l-2.214 1.763c-.415-.588-.941-1.063-1.605-1.37a4.897 4.897 0 0 0-2.076-.476c-.83 0-1.577.14-2.269.447a5.513 5.513 0 0 0-1.715 1.23c-.47.532-.83 1.148-1.107 1.875-.25.7-.387 1.482-.387 2.321 0 .811.138 1.595.415 2.322a6.526 6.526 0 0 0 1.134 1.902c.47.531 1.052.95 1.688 1.286a4.926 4.926 0 0 0 2.103.476 5.1 5.1 0 0 0 2.27-.504c.691-.335 1.272-.867 1.798-1.566l2.241 1.566ZM78.326 19.514h-2.989l6.78-16.054h2.656l6.724 16.054h-3.099l-1.494-3.72h-7.056l-1.522 3.72Zm2.352-6.041h5.313l-2.63-6.74-2.683 6.74ZM94.347 3.488h5.535c1.854 0 3.292.42 4.344 1.259 1.051.839 1.577 2.041 1.577 3.636 0 1.622-.553 2.88-1.632 3.748-1.08.867-2.546 1.286-4.373 1.286h-2.573v6.097h-2.85V3.488h-.028Zm2.85 7.58h2.408c1.024 0 1.826-.224 2.435-.644.609-.447.913-1.09.913-1.985 0-.84-.277-1.483-.83-1.902-.554-.448-1.356-.644-2.38-.644h-2.518v5.175h-.028ZM112.14 3.432h-2.85v16.054h2.85V3.432ZM123.015 19.514h-2.85V5.837h-4.871V3.488h12.646v2.35h-4.925v13.676ZM130.292 19.514h-2.988l6.779-16.054h2.657l6.724 16.054h-3.099l-1.495-3.72h-7.056l-1.522 3.72Zm2.38-6.041h5.313l-2.629-6.74-2.684 6.74ZM149.164 17.081h6.835v2.433h-9.685V3.432h2.85v13.65ZM71.684 31.373c-.442-.531-1.023-.923-1.743-1.23-.692-.308-1.494-.448-2.324-.448-.858 0-1.605.14-2.297.448a5.17 5.17 0 0 0-1.715 1.258c-.47.532-.83 1.147-1.107 1.874a7.165 7.165 0 0 0 0 4.643 5.974 5.974 0 0 0 1.134 1.902c.498.531 1.08.979 1.771 1.287a5.663 5.663 0 0 0 2.325.475c1.245 0 2.324-.196 3.21-.615v-3.972h-3.349v-2.377h6.198v8.055c-.857.447-1.798.811-2.794 1.063-1.024.251-2.131.363-3.32.363a9.924 9.924 0 0 1-3.487-.615c-1.052-.42-1.965-1.007-2.712-1.762-.747-.755-1.328-1.65-1.771-2.685a9.126 9.126 0 0 1-.637-3.412c0-1.259.222-2.406.664-3.44.443-1.035 1.024-1.93 1.772-2.658.747-.727 1.632-1.286 2.684-1.706 1.051-.42 2.158-.615 3.403-.615 1.273 0 2.435.196 3.487.587 1.051.392 1.91.923 2.6 1.567l-1.992 2.013ZM80.899 43.624h-2.85V27.597h5.645c.802 0 1.522.084 2.241.224.692.14 1.328.392 1.854.727.526.336.969.784 1.245 1.37.305.588.47 1.288.47 2.127 0 1.174-.331 2.125-.968 2.852-.636.728-1.466 1.231-2.49 1.51l4.123 7.189h-3.293l-3.708-6.769H80.9v6.797Zm0-9.146h2.463c.443 0 .858-.028 1.245-.112a3.917 3.917 0 0 0 1.052-.392c.304-.195.553-.447.719-.727.194-.307.277-.671.277-1.118 0-.42-.083-.756-.25-1.035a1.785 1.785 0 0 0-.691-.672 2.627 2.627 0 0 0-.996-.335 8.228 8.228 0 0 0-1.19-.084h-2.629v4.475ZM109.207 35.569c0 1.23-.222 2.377-.664 3.412-.443 1.035-1.024 1.93-1.799 2.685a8.27 8.27 0 0 1-2.739 1.762 9.108 9.108 0 0 1-3.404.643 8.962 8.962 0 0 1-3.376-.643 8.145 8.145 0 0 1-2.712-1.762c-.775-.755-1.356-1.65-1.798-2.685-.443-1.035-.664-2.182-.664-3.412 0-1.259.22-2.406.664-3.44.442-1.035 1.023-1.93 1.798-2.658.747-.727 1.66-1.286 2.712-1.706 1.052-.42 2.159-.615 3.376-.615 1.218 0 2.352.196 3.404.615 1.051.42 1.964.98 2.739 1.706a7.38 7.38 0 0 1 1.799 2.658c.442 1.034.664 2.181.664 3.44Zm-3.044 0c0-.84-.138-1.623-.387-2.322a5.797 5.797 0 0 0-1.107-1.874 5.096 5.096 0 0 0-1.744-1.23c-.691-.308-1.439-.448-2.296-.448-.83 0-1.578.14-2.27.448-.663.307-1.245.699-1.715 1.23-.47.532-.83 1.147-1.107 1.874a6.917 6.917 0 0 0-.387 2.322c0 .839.138 1.622.387 2.35.25.726.609 1.37 1.107 1.901a5.17 5.17 0 0 0 1.716 1.259c.664.307 1.439.447 2.269.447.857 0 1.605-.14 2.296-.447a5.018 5.018 0 0 0 1.744-1.259 5.385 5.385 0 0 0 1.107-1.902c.249-.727.387-1.51.387-2.35ZM119.141 44.043c-1.024 0-1.937-.167-2.767-.503-.803-.336-1.495-.783-2.048-1.343-.553-.559-.969-1.258-1.273-2.013a7.544 7.544 0 0 1-.443-2.546V27.57h2.85v9.873c0 .531.056 1.063.194 1.538.139.475.332.923.637 1.286.276.392.664.672 1.134.895.471.224 1.024.336 1.716.336.664 0 1.245-.112 1.715-.335a3.068 3.068 0 0 0 1.135-.895c.304-.392.498-.812.636-1.287.139-.476.194-.979.194-1.538V27.57h2.85v10.068c0 .923-.138 1.763-.443 2.546-.304.783-.719 1.454-1.272 2.013-.554.56-1.246 1.007-2.048 1.343-.83.336-1.743.503-2.767.503ZM129.739 27.598h5.534c1.826 0 3.293.419 4.344 1.286 1.052.84 1.578 2.07 1.578 3.636 0 1.65-.554 2.88-1.633 3.748-1.079.867-2.546 1.286-4.372 1.286h-2.573v6.098h-2.878V27.597Zm2.822 7.58h2.408c1.024 0 1.826-.225 2.407-.644.609-.448.913-1.119.913-1.986 0-.839-.276-1.482-.83-1.902-.553-.447-1.356-.671-2.38-.671h-2.518v5.202ZM145.428 28.576a.678.678 0 0 0-.304-.251.916.916 0 0 0-.415-.084c-.083 0-.166 0-.249.028-.083.028-.166.056-.221.112a1.167 1.167 0 0 0-.166.195c-.056.084-.056.168-.056.28 0 .112.028.196.056.252a.466.466 0 0 0 .166.168.677.677 0 0 0 .249.111c.083.029.193.056.304.084.111.056.249.084.387.14.139.056.249.112.36.196a.679.679 0 0 1 .249.308c.056.112.111.28.111.447 0 .196-.028.364-.111.504s-.166.251-.277.363c-.11.084-.249.168-.387.196-.138.056-.304.056-.47.056a1.88 1.88 0 0 1-.664-.14 1.242 1.242 0 0 1-.526-.391l.387-.336c.083.14.194.252.332.336a.905.905 0 0 0 .471.111c.083 0 .166 0 .276-.027a.98.98 0 0 0 .249-.112.647.647 0 0 0 .194-.196c.055-.084.055-.168.055-.28 0-.112-.027-.224-.083-.28a.645.645 0 0 0-.193-.195c-.083-.056-.166-.084-.277-.14-.111-.028-.221-.084-.332-.112a1.909 1.909 0 0 1-.36-.14c-.11-.056-.221-.112-.304-.196a1.93 1.93 0 0 1-.221-.28.933.933 0 0 1-.084-.419c0-.196.028-.336.111-.475.083-.14.166-.252.277-.336.111-.084.249-.14.387-.196.139-.028.305-.056.443-.056.221 0 .415.028.609.112.193.084.332.196.443.308l-.416.335Zm3.432 2.21 1.107-2.88h.747v3.691h-.498v-3.105l-1.246 3.105h-.304l-1.218-3.105v3.105h-.47v-3.692h.747l1.135 2.881Z"/>
  <path fill="url(#capital-group-a)" fill-rule="evenodd" d="M27 19H6v21h21V19ZM0 13v33h33V13H0Z" clip-rule="evenodd"/>
  <path fill="url(#capital-group-b)" fill-rule="evenodd" d="M40 6H19v21h21V6ZM13 0v33h33V0H13Z" clip-rule="evenodd"/>
  <defs>
    <linearGradient id="capital-group-a" x1="0" x2="33" y1="46" y2="13" gradientUnits="userSpaceOnUse">
      <stop stop-color="#0095D3"/>
      <stop offset="1" stop-color="#005C9B"/>
    </linearGradient>
    <linearGradient id="capital-group-b" x1="13" x2="46" y1="33" y2="0" gradientUnits="userSpaceOnUse">
      <stop stop-color="#6C838C"/>
      <stop offset="1" stop-color="#B1CEDA"/>
    </linearGradient>
  </defs>
</svg>