<svg viewBox="0 0 154 27" fill="none"
  xmlns="http://www.w3.org/2000/svg">
  <path d="M100.499 23.4504C100.663 23.9309 101.444 23.8908 101.896 24.011C102.061 24.3313 102.061 24.2512 102.225 24.7718H95.8527C96.0994 24.3713 96.0994 24.2913 96.2638 24.011C96.7161 23.8108 97.3328 23.8108 97.4561 23.2502V13.5198C98.4429 13.3196 99.5118 13.2395 100.499 13.0793V23.4504ZM11.8562 24.8118L11.6095 24.051C10.705 23.8908 10.0472 23.8508 10.0472 23.2902V9.07509H13.0074C14.282 9.07509 14.3642 10.0762 14.7753 11.9582H15.6387L15.4332 7.51343H1.16651L0.960938 11.9982H1.82434C2.23548 10.1162 2.31771 9.11513 3.59225 9.11513H6.55248V23.3302C6.55248 23.8908 5.89465 23.8908 4.99014 24.091L4.70234 24.8519H11.8562V24.8118ZM51.1203 24.8118H53.0116L55.1495 18.0446L57.3697 24.8118H59.3432L61.9334 15.2416C62.1801 14.3607 62.7968 14.3207 63.5369 14.2005L63.8247 13.4397H59.0143L59.3021 14.2005C59.9599 14.3207 60.2888 14.4007 60.2888 14.7211C60.2888 14.8813 60.2477 15.0815 60.2066 15.2817C59.7543 17.0436 59.0143 20.0067 59.0143 20.0067L56.9997 13.3997H55.0262L52.9294 19.9667C52.3127 17.5241 52.2715 17.2838 51.9837 16.0425C51.9015 15.602 51.7782 15.2016 51.7782 14.9613C51.7782 14.5609 51.9837 14.3607 52.806 14.2005L53.0938 13.4397H46.6389L46.9267 14.2005C47.5434 14.3207 48.2423 14.3607 48.3657 14.8012L51.1203 24.8118ZM99.0185 12.1584C99.923 12.1584 100.704 11.4376 100.704 10.5166C100.704 9.63568 99.9641 8.87487 99.0185 8.87487C98.114 8.87487 97.3328 9.59564 97.3328 10.5166C97.3328 11.4376 98.0728 12.1584 99.0185 12.1584ZM15.8854 24.9319C16.7899 24.9319 17.53 24.2112 17.53 23.3302C17.53 22.4493 16.7899 21.7285 15.8854 21.7285C14.9809 21.7285 14.2408 22.4493 14.2408 23.3302C14.2408 24.2112 14.9809 24.9319 15.8854 24.9319ZM35.5792 19.1258C35.538 15.8022 37.4704 13.0393 41.4174 13.0393C45.1999 13.0393 47.2556 15.602 47.2556 19.1258C47.2556 22.5294 45.3232 25.2523 41.4174 25.2523C37.4704 25.2122 35.5792 22.5294 35.5792 19.1258ZM43.8431 19.1258C43.8431 15.7622 43.2264 14.1205 41.4174 14.1205C39.3206 14.1205 38.9916 16.483 38.9916 19.1258C38.9916 22.7296 39.6906 24.1311 41.4174 24.1311C43.1442 24.1311 43.8431 22.6095 43.8431 19.1258ZM37.0593 25.2523C35.9903 25.2523 35.4969 24.6917 35.168 24.091C35.168 24.091 31.0155 17.1637 29.9054 16.0425C31.1799 15.7222 33.7701 14.8012 33.7701 11.3976C33.7701 9.03504 32.2489 7.55347 29.0009 7.55347H19.7502L20.038 8.31428C20.9425 8.47445 21.6003 8.51449 21.6003 9.07509V23.2902C21.6003 23.8508 20.9836 23.8508 20.038 24.051L19.7502 24.8118H26.904L26.6162 24.051C25.7117 23.8908 25.0539 23.8508 25.0539 23.2902V9.11513C25.0539 8.83483 25.1361 8.7147 25.4239 8.7147C25.794 8.7147 26.7807 8.7147 27.0274 8.7147C29.5354 8.7147 30.111 9.95602 30.111 11.9181C30.111 14.4007 28.6308 15.5219 26.4929 15.5219C26.3284 15.5219 26.0406 15.5219 25.8351 15.5219C27.3974 17.8444 28.343 19.9266 29.9054 22.3692C32.0022 25.6928 33.2356 26.1733 35.3325 26.1733C36.3603 26.1733 36.8126 26.0131 37.1415 25.933L37.0593 25.2523ZM91.8235 15.1616V12.9592L89.2744 13.6399C89.5211 13.2395 89.8089 12.3986 89.8089 11.4376C89.8089 8.995 88.3699 7.51343 85.0396 7.51343H75.7889L76.0767 8.27424C76.9812 8.43441 77.639 8.47445 77.639 9.03504V23.2502C77.639 23.8108 77.0223 23.8108 76.0767 24.011L75.7889 24.7718H82.9428L82.655 24.011C81.7505 23.8508 81.0926 23.8108 81.0926 23.2502V9.11513C81.0926 8.83483 81.1749 8.7147 81.4627 8.7147C81.7916 8.7147 82.6139 8.7147 82.9839 8.7147C85.5741 8.7147 86.1497 9.91598 86.1497 11.9181C86.1497 14.2406 84.834 15.5219 82.5728 15.5219C82.3672 15.5219 82.0383 15.5219 81.8738 15.5219L82.5316 16.523C82.6961 16.523 83.1895 16.6031 83.724 16.6031C85.7386 16.6031 87.712 15.3217 88.2465 14.8813C88.5754 14.9613 88.781 15.1616 88.781 15.6821V23.2502C88.781 23.8108 88.1232 23.8108 87.2187 24.011L86.9309 24.7718H93.6736L93.3858 24.011C92.4813 23.8508 91.8235 23.8108 91.8235 23.2502V16.3228C92.0702 16.0025 92.4813 15.3618 93.3036 15.3618C94.0436 15.3618 94.3726 16.0025 94.537 17.1637H95.3593L96.0582 12.9592C94.1259 12.9592 92.6458 14.0804 91.8235 15.1616ZM70.2796 23.7307C71.4308 23.7307 72.3764 23.1701 72.7053 22.9699L72.7876 23.7707C72.3353 24.1311 71.1019 25.1722 68.6761 25.1722C64.6881 25.1722 63.0846 22.2491 63.0846 19.0857C63.0846 17.0836 63.7013 12.9993 68.635 12.9993C73.0343 12.9993 73.7743 16.8834 73.8565 18.1647L73.1987 18.7654H66.3326C66.3737 21.6485 67.7305 23.7307 70.2796 23.7307ZM66.456 17.7243H70.8141C70.8141 16.3628 70.4852 14.1205 68.635 14.1205C66.7027 14.1205 66.456 16.523 66.456 17.7243ZM120.028 23.7307C121.179 23.7307 122.166 23.1701 122.454 22.9699L122.536 23.7707C122.084 24.1311 120.85 25.1722 118.424 25.1722C114.436 25.1722 112.874 22.2491 112.874 19.0857C112.874 17.0836 113.491 12.9993 118.424 12.9993C122.824 12.9993 123.564 16.8834 123.646 18.1647L122.988 18.7654H116.163C116.122 21.6485 117.479 23.7307 120.028 23.7307ZM116.204 17.7243H120.603C120.603 16.3628 120.275 14.1205 118.424 14.1205C116.451 14.1205 116.204 16.523 116.204 17.7243ZM108.31 25.2122C110.53 25.2122 111.887 24.091 112.257 23.8108L112.175 23.0099C111.846 23.2101 110.736 23.7707 109.708 23.7707C107.077 23.7707 105.515 21.5283 105.515 18.6853C105.515 16.4029 106.131 14.1605 108.146 14.1605C109.667 14.1605 110.284 15.2016 110.572 17.2438H111.394L112.011 13.5999C111.846 13.5599 110.489 13.0793 108.351 13.0793C104.774 13.0793 102.266 15.0014 102.266 19.0056C102.266 22.209 104.117 25.2122 108.31 25.2122Z" fill="#757B85"/>
  <path d="M127.348 0.826416V25.813H134.748C134.748 25.813 134.584 24.7318 134.173 24.2513C132.939 22.8899 133.227 20.9678 133.515 21.2481C134.09 21.8888 134.584 21.9289 134.584 21.9289C134.584 21.9289 133.597 20.1269 133.597 18.6854C133.597 14.0004 135.365 12.2385 135.365 12.2385C135.365 12.2385 135.529 10.3565 135.242 10.3165C134.666 10.1964 133.926 9.71587 133.926 9.11523C132.61 9.11523 131.788 9.99616 131.87 11.3176C131.911 11.758 132.24 12.0784 132.61 12.0784C133.063 12.0784 133.227 11.7981 133.227 11.4377C133.227 11.1974 133.35 10.9972 133.72 10.9972C133.885 10.9972 134.173 11.0373 134.173 11.8782C134.173 12.7191 133.803 13.9203 132.158 13.9203C131.007 13.9203 129.444 13.0794 129.444 10.2364C129.444 7.47348 131.87 5.43131 134.46 5.31118C134.255 5.35123 134.049 5.43131 133.844 5.59148C133.309 5.95186 132.98 6.39233 132.98 6.39233C132.98 6.39233 133.227 6.39233 133.391 6.43238C133.597 6.47242 133.844 6.39233 133.967 6.23216C134.09 6.11203 134.255 5.95187 134.46 5.75165C134.995 5.31118 135.694 5.31118 136.146 5.35123C136.311 5.39127 136.475 5.43131 136.639 5.47135C136.393 5.55144 135.982 5.55144 135.406 5.95186C134.872 6.31225 134.502 6.75272 134.502 6.75272C134.502 6.75272 134.666 6.8328 134.748 6.91289C134.913 6.99297 135.2 6.95293 135.365 6.79276C135.529 6.67263 135.694 6.47242 135.899 6.35229C136.886 5.67157 137.708 5.95186 138.037 6.11203C138.078 6.15208 138.161 6.19212 138.202 6.23216C138.037 6.23216 137.462 6.35229 136.845 6.67263C136.269 6.99297 135.694 7.59361 135.694 7.59361C135.694 7.59361 135.858 7.71374 135.941 7.79382C136.105 7.91395 136.393 7.87391 136.557 7.71374C136.722 7.55357 136.968 7.35335 137.174 7.19318C137.873 6.71267 138.613 6.71267 138.736 6.71267C138.901 6.87284 138.983 7.03301 139.147 7.03301C139.312 7.03301 139.476 6.91289 139.6 6.71267C139.682 6.71267 140.093 6.67263 140.751 7.07306C140.998 7.23323 141.162 7.35335 141.244 7.43344C141.491 7.63365 141.655 7.59361 141.738 7.47348C141.82 7.3934 141.943 7.27327 141.943 7.27327C141.943 7.27327 141.614 6.8328 141.039 6.5525C140.504 6.27221 140.134 6.27221 139.97 6.27221C140.052 6.19212 140.093 6.15208 140.175 6.11203C140.422 5.95186 140.915 5.83174 141.697 6.23216C141.902 6.35229 142.067 6.47242 142.149 6.59255C142.272 6.71267 142.519 6.75272 142.601 6.67263C142.724 6.5525 142.848 6.51246 142.848 6.51246C142.848 6.51246 142.56 6.07199 141.943 5.79169C141.697 5.67157 141.45 5.63152 141.285 5.59148C141.614 5.5114 141.943 5.5114 142.313 5.55144C143.793 5.75165 144.246 7.35335 144.163 8.75484C143.999 11.0773 144.081 11.6379 144.657 11.6379C144.986 11.6379 145.15 11.3576 145.191 11.1174C145.232 10.8371 145.315 10.5968 145.52 10.5968C145.931 10.5968 146.014 10.9572 146.014 11.2375C146.014 12.7991 144.986 13.1195 144.081 13.1195C143.218 13.1195 142.519 12.4388 142.272 11.2775C142.19 10.9171 142.149 10.5568 142.149 10.5568C142.149 10.5568 142.025 10.5968 141.779 10.6769C141.532 10.797 141.327 10.9171 141.327 10.9171C141.327 10.9171 141.573 11.4777 141.614 11.6379C141.655 11.7981 141.532 12.5589 141.532 12.5589C141.532 12.5589 142.971 14.521 142.971 17.6043C142.971 20.5274 141.861 23.1702 141.121 24.1712C141.327 24.1312 141.655 24.0111 141.738 23.8909C142.437 23.2102 142.642 23.0901 143.382 23.01C143.876 21.8087 144.04 20.2871 143.547 16.8835C146.26 18.7254 146.342 20.2871 145.972 22.0089C147.699 21.168 146.712 19.4863 146.712 19.4863C146.712 19.4863 147.329 19.8867 148.028 20.167C151.194 21.4483 152.345 23.0901 152.345 25.4926V25.813H153.003V0.826416H127.348Z" fill="#71BAD8"/>
  <path d="M140.751 12.4788C140.586 12.4788 140.586 12.4388 140.586 12.1184C140.586 11.8381 140.751 11.8381 140.998 11.9182C141.039 11.758 141.121 11.2375 140.915 11.2375C140.751 11.2375 140.628 11.3576 140.422 11.3576C140.175 11.3576 139.682 11.1974 139.517 11.1974C139.189 11.1974 139.353 11.718 139.353 11.9583C139.97 11.8782 140.216 11.7981 140.216 12.0784C140.216 12.5589 140.299 12.4788 139.517 12.5589C139.106 12.5989 138.86 12.5989 138.654 12.5989C138.654 12.5989 138.407 11.718 138.531 11.5178C138.736 11.2375 138.983 10.9171 139.23 10.6368C139.394 10.4767 139.394 10.4767 139.312 10.2364C139.23 9.95612 138.819 8.75485 138.819 8.75485C138.695 8.39446 138.942 8.03408 139.065 7.83387C139.147 7.75378 139.065 7.71374 139.024 7.75378C138.613 7.95399 137.996 8.31438 138.037 8.87497C138.037 9.2754 137.873 9.23536 137.544 9.15527C137.297 9.11523 136.968 9.03514 136.681 9.07519C136.228 9.15527 135.982 9.43557 136.023 9.75591C136.064 10.0362 136.311 10.2364 137.01 10.2364C137.667 10.2364 137.75 9.83599 138.037 10.3565C138.284 10.797 138.49 10.9171 138.161 11.2775C137.256 12.1585 137.256 11.8782 137.256 12.7191C137.256 13.64 138.243 14.3608 138.819 14.2006C139.106 14.1206 139.97 13.9203 140.175 13.8002C140.216 13.7602 140.216 13.7201 140.175 13.7201C139.97 13.7201 139.23 13.7201 139.189 13.4398C139.147 13.1595 139.106 12.9994 139.106 12.9994C139.394 12.9593 139.764 12.8792 140.422 12.8792C140.833 12.8792 141.162 12.9193 141.162 12.9193C141.162 12.9193 141.244 12.7591 141.244 12.5188C141.121 12.5589 140.956 12.5188 140.751 12.4788Z" fill="#71BAD8"/>
  <path d="M140.874 9.99617C141.121 10.1163 141.368 10.1163 141.655 10.0362C142.149 9.87604 142.19 9.31544 141.655 9.23536C141.244 9.15527 141.121 9.39553 140.833 9.15527C140.669 8.9951 140.545 8.87497 140.422 8.75485C140.381 8.7148 140.299 8.67476 140.299 8.67476C140.258 8.67476 140.258 8.7148 140.299 8.79489C140.34 8.91502 140.751 9.95612 140.874 9.99617Z" fill="#71BAD8"/>
</svg>
