<svg viewBox="0 0 92 63" fill="none"
  xmlns="http://www.w3.org/2000/svg">
  <path fill="#008ACF" d="M21.073 17.07h.7s.067-1.58.901-2.977c0 0-3.552-2.203-9.039-2.135C8.15 12.042.311 13.992.01 24.52c0 0-.867 12.462 13.292 12.546 0 0 5.603-.084 9.122-1.632 0 0-.167-7.5.184-10.292 0 0-1.401.605-3.703.017 0 0 .35 2.119.234 6.828l-.05 2.253s-1.635 1.043-5.32 1.043c-3.686 0-10.023-1.749-9.956-11.15 0 0-.234-10.461 9.839-10.461-.033 0 4.553-.252 7.421 3.397ZM44.004 12.143h-.934s-9.506 22.267-10.773 24.79c0 0 1.75-.253 3.052-.051 0 0 1.617-5.382 3.252-9.216 0 0 4.402-.186 8.388-.068 0 0 2.702 6.273 3.602 9.183 0 0 2.335-.286 4.17-.034 0 .017-1.952-3.43-10.757-24.604ZM39.418 25.63l3.352-8.09 3.552 8.04c-2.969.167-6.904.05-6.904.05ZM68.152 12.143h-.9s-1.101 11.15-3.403 24.688c0 0 1.385-.218 2.869.017 0 0-.217-2.237 1.584-17.322 0 0 7.305 14.244 8.572 17.238h.6s3.32-7.686 8.756-17.272c0 0 1.217 11.016 1.634 17.373 0 0 1.968-.27 3.686.017 0 0-1.451-10.831-2.869-24.756h-.75L77.875 30.962c0 .017-6.32-11.352-9.723-18.82ZM.894 54.137c-.033-.656-.05-1.329-.083-2.018.133.017.267.033.383.05.117.017.25.017.367.017.117 0 .25 0 .367-.017.117-.017.25-.033.384-.05-.034.69-.067 1.362-.084 2.018-.033.656-.033 1.329-.033 2.018v2.674c0 .69.017 1.362.033 2.018.034.673.05 1.312.084 1.968a10.286 10.286 0 0 0-.75-.034c-.268 0-.518.017-.751.034.033-.64.067-1.295.083-1.968.034-.656.034-1.345.034-2.018v-2.674c0-.69-.017-1.362-.034-2.018ZM11.017 56.676c-.3-.403-.717-.605-1.234-.605-.717 0-1.25.219-1.584.673-.334.454-.5 1.076-.5 1.883v1.329c0 .47 0 .959.016 1.48.017.521.05.975.1 1.396-.233-.017-.467-.034-.7-.034-.234 0-.45.017-.7.034.05-.42.083-.875.1-1.396.016-.521.016-1.01.016-1.48v-1.615c0-.47 0-.958-.017-1.48-.016-.52-.05-.992-.1-1.446.284.05.517.084.7.084.084 0 .167 0 .268-.017.1-.016.216-.033.35-.05-.034.42-.05.824-.05 1.244h.033a3.41 3.41 0 0 1 1.034-1.042 2.8 2.8 0 0 1 1.434-.37c.284 0 .584.033.867.117.3.085.55.236.8.438.234.202.434.47.585.824.15.353.216.79.216 1.328 0 .455-.016.909-.033 1.38-.017.47-.033.975-.033 1.496V62.344c0 .168.016.32.016.454a7.637 7.637 0 0 0-.65-.033c-.217 0-.434.016-.634.033.017-.538.05-1.093.067-1.665.033-.572.033-1.16.033-1.766v-.958c.05-.74-.1-1.329-.4-1.733ZM18.522 62.832c-.467-1.228-.95-2.456-1.434-3.683a77.29 77.29 0 0 0-1.568-3.717l.383.05c.117.017.25.017.384.017.117 0 .233 0 .334-.017.116-.016.233-.033.333-.05a46.25 46.25 0 0 0 1.05 3.027c.368.992.801 2.002 1.251 3.044.2-.42.417-.891.617-1.379s.4-1.009.6-1.53c.201-.538.401-1.06.585-1.598.183-.538.383-1.06.567-1.564.183.05.35.084.483.084.134 0 .3-.034.484-.084-.55 1.261-1.1 2.506-1.635 3.717a67.642 67.642 0 0 0-1.467 3.683 4.373 4.373 0 0 0-.484-.034c-.15 0-.317 0-.483.034ZM24.826 59.367c0-1.278.3-2.287.9-3.01.6-.723 1.484-1.093 2.635-1.093.55 0 1.017.084 1.418.252a2.795 2.795 0 0 1 1.6 1.699c.134.386.2.79.2 1.227v.303c0 .101-.016.202-.016.303-.55-.017-1.1-.017-1.651-.034-.55-.017-1.1-.017-1.651-.017-.334 0-.684 0-1.017.017-.334.017-.667.017-1.018.034-.016.05-.016.134-.016.235v.202c0 .404.066.79.183 1.144.117.353.284.656.517.908.234.252.5.454.834.605.334.152.717.219 1.15.219.2 0 .418-.034.634-.084.217-.05.434-.135.634-.236.2-.1.4-.218.584-.353.183-.134.333-.286.467-.437l.083.05-.1.757c-.317.252-.7.471-1.15.64a4.1 4.1 0 0 1-1.435.268c-.55 0-1.067-.084-1.517-.252-.45-.168-.85-.42-1.184-.757-.334-.32-.6-.706-.768-1.16-.233-.42-.316-.908-.316-1.43Zm3.568-3.599c-.383 0-.7.084-.967.27a2.424 2.424 0 0 0-.65.655c-.167.27-.3.555-.384.875-.083.32-.15.622-.167.891.317.017.65.017 1.001.034.35.017.684.017 1.017.017.334 0 .684 0 1.034-.017s.684-.017 1.018-.034c0-.286-.017-.572-.067-.891a2.564 2.564 0 0 0-.284-.875 1.871 1.871 0 0 0-.583-.672c-.25-.169-.567-.253-.968-.253ZM34.882 61.722c.1.118.233.235.383.353.15.1.317.202.517.27.184.066.4.117.617.117a1.704 1.704 0 0 0 1.05-.37c.134-.118.251-.252.334-.437.084-.169.117-.387.117-.606 0-.32-.083-.572-.267-.74-.183-.168-.4-.32-.667-.42a6.074 6.074 0 0 0-.884-.286 3.742 3.742 0 0 1-.883-.353 1.932 1.932 0 0 1-.667-.606c-.184-.252-.267-.588-.267-1.026 0-.336.05-.656.166-.942a2.07 2.07 0 0 1 .5-.74c.218-.201.484-.37.801-.487a3.147 3.147 0 0 1 1.1-.185c.384 0 .701.05.968.151.267.101.517.202.75.286a3.105 3.105 0 0 0-.233.572c-.067.235-.117.403-.133.521H38c-.083-.252-.25-.47-.483-.672-.234-.202-.534-.303-.884-.303-.15 0-.317.033-.467.084a1.278 1.278 0 0 0-.734.639c-.083.168-.117.37-.117.588 0 .337.084.59.267.774.184.185.4.32.667.42.267.102.567.202.884.27.317.084.617.185.884.32.267.134.484.336.667.588.184.252.267.588.267 1.026 0 .303-.067.605-.2.891a2.808 2.808 0 0 1-.55.79c-.234.236-.534.421-.868.539a3.119 3.119 0 0 1-1.15.202c-.468 0-.868-.05-1.185-.135a4.685 4.685 0 0 1-.8-.32c.067-.134.133-.32.2-.554.067-.236.1-.438.1-.59h.184c.016.135.1.236.2.37ZM43.687 53.33c-.033.387-.05.773-.067 1.16l-.05 1.144h.634c.317 0 .65-.017 1-.034-.016.034-.016.084-.016.168v.32c0 .067 0 .118.017.151-.134-.017-.267-.017-.417-.017H43.57c-.017.05-.017.202-.034.505-.017.286-.033.639-.033 1.043-.017.403-.017.824-.017 1.261v1.177c0 .286 0 .572.017.858.016.286.066.538.15.757.083.218.2.403.367.538.166.135.4.202.717.202.083 0 .2-.017.333-.034.134-.017.267-.05.367-.084v.37c-.183.034-.367.067-.584.118-.216.05-.416.067-.617.067-.65 0-1.134-.168-1.434-.488-.317-.32-.467-.79-.467-1.412 0-.286 0-.59.017-.909.017-.32.017-.69.033-1.076.017-.387.034-.824.034-1.295.016-.47.016-.992.016-1.58h-.767c-.1 0-.183.016-.3.016.017-.067.017-.118.017-.185V55.735c0-.05-.017-.101-.017-.152.467.034.8.05 1.017.05-.016-.201-.016-.47-.016-.773 0-.32-.017-.639-.034-.959l1.284-.538M48.123 56.861c-.017-.52-.05-.992-.1-1.446.284.05.517.084.7.084.084 0 .167 0 .267-.017.1-.016.217-.033.35-.05-.033.42-.05.824-.05 1.244h.034c.55-.941 1.317-1.395 2.301-1.395.25 0 .517.033.75.117.25.084.468.185.668.32.2.134.367.303.517.488.15.185.25.403.3.622h.033c.25-.505.584-.875 1.018-1.144.433-.269.917-.403 1.467-.403.334 0 .65.05.95.134.284.101.534.236.751.437.217.202.384.455.5.757.117.32.184.69.184 1.127 0 .168 0 .37-.017.572-.016.202-.016.454-.033.723-.017.27-.017.589-.033.942-.017.353-.017.757-.017 1.21v.808c0 .252.017.538.033.84-.116-.016-.233-.033-.333-.033h-.667c-.117 0-.234.017-.334.034.033-.252.067-.79.1-1.581.033-.79.05-1.884.05-3.296 0-.253-.033-.505-.083-.74-.05-.236-.15-.42-.267-.589a1.215 1.215 0 0 0-.5-.404c-.2-.1-.467-.151-.767-.151-.367 0-.684.067-.951.219-.25.151-.45.32-.6.521-.084.118-.15.235-.2.336-.05.118-.084.286-.117.522-.034.235-.05.555-.05.975-.017.42-.017.992-.017 1.732 0 .455 0 .858.017 1.228.016.37.033.774.05 1.211a9.783 9.783 0 0 0-.684-.034c-.217 0-.45.017-.684.034.05-.572.084-1.16.117-1.75.017-.588.033-1.176.033-1.748 0-.488 0-.875-.016-1.144 0-.269-.017-.488-.034-.656a2.122 2.122 0 0 0-.083-.403 1.91 1.91 0 0 0-.15-.337 1.302 1.302 0 0 0-.534-.504c-.25-.135-.483-.219-.75-.219-.684 0-1.184.219-1.501.673-.317.454-.484 1.076-.484 1.884v1.328c0 .471 0 .959.017 1.48.017.522.05.976.1 1.396-.234-.017-.467-.034-.7-.034-.234 0-.468.017-.701.034.05-.42.083-.874.1-1.396.017-.521.017-1.009.017-1.48v-1.614c.05-.455.05-.942.033-1.464ZM61.898 59.367c0-1.278.3-2.287.9-3.01.601-.723 1.485-1.093 2.636-1.093.55 0 1.017.084 1.417.252a2.795 2.795 0 0 1 1.6 1.699c.135.386.201.79.201 1.227v.303c0 .101-.016.202-.016.303-.55-.017-1.101-.017-1.651-.034s-1.101-.017-1.651-.017c-.334 0-.684 0-1.018.017-.333.017-.667.017-1.017.034-.017.05-.017.134-.017.235v.202c0 .404.067.79.184 1.144.117.353.283.656.517.908.233.252.5.454.834.605.333.152.717.219 1.15.219.2 0 .417-.034.634-.084.217-.05.434-.135.634-.236.2-.1.4-.218.584-.353.183-.134.333-.286.466-.437l.084.05-.084.757c-.316.252-.7.471-1.15.64a4.1 4.1 0 0 1-1.434.268c-.55 0-1.068-.084-1.518-.252a3.122 3.122 0 0 1-1.184-.757c-.334-.32-.6-.706-.767-1.16-.25-.42-.334-.908-.334-1.43Zm3.57-3.599c-.385 0-.701.084-.968.27a2.424 2.424 0 0 0-.65.655c-.167.27-.3.555-.384.875a6.85 6.85 0 0 0-.167.891c.317.017.65.017 1 .034s.684.017 1.018.017c.334 0 .684 0 1.034-.017s.684-.017 1.017-.034c0-.286-.016-.572-.066-.891a2.564 2.564 0 0 0-.284-.875 1.871 1.871 0 0 0-.584-.672c-.25-.169-.567-.253-.967-.253ZM76.39 56.676c-.3-.403-.717-.605-1.234-.605-.717 0-1.25.219-1.584.673-.334.454-.5 1.076-.5 1.883v1.329c0 .47 0 .959.016 1.48.017.521.05.975.1 1.396a9.773 9.773 0 0 0-.7-.034c-.233 0-.45.017-.7.034.05-.42.083-.875.1-1.396.016-.521.016-1.01.016-1.48v-1.615c0-.47 0-.958-.016-1.48-.017-.52-.05-.992-.1-1.446.283.05.517.084.7.084.083 0 .167 0 .267-.017.1-.016.217-.033.35-.05-.033.42-.05.824-.05 1.244h.033a3.41 3.41 0 0 1 1.034-1.042 2.8 2.8 0 0 1 1.435-.37c.283 0 .583.033.867.117.3.085.55.236.8.438.234.202.434.47.584.824.15.353.217.79.217 1.328 0 .455-.017.909-.034 1.38-.016.47-.033.975-.033 1.496V62.344c0 .168.017.32.017.454a7.635 7.635 0 0 0-.65-.033c-.217 0-.434.016-.634.033.016-.538.05-1.093.066-1.665.034-.572.034-1.16.034-1.766v-.958c.033-.74-.117-1.329-.4-1.733ZM83.328 53.33c-.033.387-.05.773-.067 1.16l-.05 1.144h.634c.317 0 .65-.017 1-.034-.016.034-.016.084-.016.168v.32c0 .067 0 .118.017.151-.134-.017-.267-.017-.417-.017h-1.217c-.017.05-.017.202-.034.505-.017.286-.033.639-.033 1.043-.017.403-.017.824-.017 1.261v1.177c0 .286 0 .572.017.858.016.286.066.538.15.757.083.218.2.403.367.538.166.135.4.202.717.202.083 0 .2-.017.333-.034.134-.017.267-.05.367-.084v.37c-.167.034-.367.067-.584.118a2.66 2.66 0 0 1-.617.067c-.65 0-1.134-.168-1.434-.488-.3-.32-.467-.79-.467-1.412 0-.286 0-.59.017-.909.017-.32.016-.69.033-1.076.017-.387.034-.824.034-1.295.016-.47.016-.992.016-1.58h-.767c-.1 0-.183.016-.3.016.017-.067.017-.118.017-.185V55.735c0-.05-.017-.101-.017-.152.467.034.8.05 1.017.05-.017-.201-.017-.47-.017-.773 0-.32-.016-.639-.033-.959l1.284-.538M87.93 61.722c.118.118.234.235.384.353.15.1.317.202.517.27.184.066.4.117.617.117a1.703 1.703 0 0 0 1.05-.37c.134-.118.251-.252.335-.437.083-.169.116-.387.116-.606 0-.32-.083-.572-.266-.74-.184-.168-.4-.32-.668-.42a6.077 6.077 0 0 0-.883-.286 3.739 3.739 0 0 1-.884-.353 2.095 2.095 0 0 1-.667-.606c-.184-.252-.267-.588-.267-1.026 0-.336.05-.656.167-.942a2.07 2.07 0 0 1 .5-.74c.217-.201.484-.37.8-.487a3.146 3.146 0 0 1 1.101-.185c.384 0 .7.05.967.151.267.101.517.202.75.286a3.105 3.105 0 0 0-.233.572c-.066.235-.117.403-.133.521h-.184c-.083-.252-.25-.47-.483-.672-.234-.202-.534-.303-.884-.303-.15 0-.3.033-.467.084-.15.05-.3.134-.417.235-.133.101-.233.236-.317.404-.083.168-.117.37-.117.588 0 .337.084.59.267.774.184.185.4.32.667.42.267.102.567.202.884.27.317.084.617.185.884.32.267.134.5.336.667.588.184.252.267.588.267 1.026 0 .303-.067.605-.2.891a2.808 2.808 0 0 1-.55.79c-.25.236-.534.421-.868.539a3.057 3.057 0 0 1-1.15.202c-.467 0-.868-.05-1.184-.135a4.681 4.681 0 0 1-.8-.32 3.35 3.35 0 0 0 .2-.554c.066-.236.1-.438.1-.59h.183c.016.135.1.236.2.37Z"/>
  <path fill="#008ACF" fill-rule="evenodd" d="M27 49V0h.505v49H27Zm31.495 0V0H59v49h-.505Z" clip-rule="evenodd"/>
</svg>